<svg width="293" height="56" viewBox="0 0 293 56" fill="none" xmlns="http://www.w3.org/2000/svg">
<path d="M135.216 19.3751C135.216 9.30857 128.737 1.65747 115.385 1.65747H88.5226V54.5685H101.164V13.0927H115.464C120.758 13.0927 122.653 16.154 122.653 19.6969C122.653 23.3213 120.678 26.3012 115.384 26.3012H103.138L120.52 54.5685H134.899C134.899 54.5685 123.048 35.5621 123.127 35.5621C130.476 33.791 135.216 28.5561 135.216 19.3751Z" fill="#00205B"/>
<path d="M79.9905 1.65747H67.349V54.5693H79.9905V1.65747Z" fill="#00205B"/>
<path d="M26.9772 1.65747L0.509811 54.5685H14.7306L19.0179 45.7101H40.3285L35.0355 34.5959H24.3974L32.2695 18.3283H32.4285L50.1257 54.5685H64.6629L38.1955 1.65747H26.9772Z" fill="#00205B"/>
<path d="M181.358 27.1068C185.388 24.8512 187.521 21.2276 187.521 15.9121C187.521 7.37545 181.28 1.65747 170.772 1.65747H141.222V54.5685H171.957C182.702 54.5685 189.734 48.6893 189.734 39.7502C189.733 33.5498 186.336 28.8787 181.358 27.1068ZM153.864 12.8515H170.772C173.301 12.8515 175.275 14.8645 175.275 17.5226C175.275 20.1808 173.301 22.1938 170.692 22.1938H153.864V12.8515H153.864ZM171.087 43.4544H153.864V32.6628H171.087C174.169 32.6628 176.539 34.9185 176.539 37.9783C176.54 41.1188 174.169 43.4544 171.087 43.4544Z" fill="#00205B"/>
<path d="M229.631 31.2135C229.631 39.2447 225.997 43.6963 218.808 43.6963C211.698 43.6963 208.063 39.2447 208.063 31.2135V1.65747H195.107V30.2473C195.107 46.5964 203.56 55.6967 218.808 55.6967C234.056 55.6967 242.589 46.5964 242.589 30.2473V1.65747H229.631V31.2135Z" fill="#00205B"/>
<path d="M276.324 22.6769C264.323 19.6985 261.708 19.414 261.708 15.9114C261.708 13.2017 264.71 11.8846 269.767 11.8846C276.482 11.8846 283.634 13.6019 287.701 16.1533L291.731 5.36171C286.517 2.54305 278.853 0.529297 269.925 0.529297C256.572 0.529297 249.066 7.29483 249.066 16.3945C249.066 26.1862 254.673 30.1645 267.554 32.9846C277.582 35.2381 279.72 36.6441 279.72 39.5075C279.72 42.6181 276.955 44.0181 271.504 44.0181C263.603 44.0181 256.453 42.0619 250.725 38.8639L246.854 50.1386C253.096 53.521 262.418 55.696 271.82 55.696C284.935 55.696 292.756 49.4942 292.756 39.1051C292.758 30.77 287.467 25.4157 276.324 22.6769Z" fill="#00205B"/>
</svg>
