<svg width="69" height="112" viewBox="0 0 69 112" fill="none" xmlns="http://www.w3.org/2000/svg">
<g clip-path="url(#clip0)">
<path d="M2.08054 7.75042C2.08054 4.0831 5.0667 1.10034 8.73822 1.10034H60.0415C63.762 1.10034 66.7482 4.0831 66.7482 7.75042V104.25C66.7482 107.917 63.762 110.9 60.0415 110.9H8.73822C5.0667 110.9 2.08054 107.917 2.08054 104.25V7.75042Z" fill="white"/>
<path d="M3.98975 19.1189V7.72574C3.98975 5.57424 5.80103 3.83838 8.00393 3.83838H60.9961C63.2725 3.83838 65.0837 5.57424 65.0837 7.72574V19.1189H3.98975Z" fill="#0F059E"/>
<path d="M3.98975 92.8564V104.25C3.98975 106.401 5.80103 108.137 8.00393 108.137H60.9961C63.2725 108.137 65.0837 106.377 65.0837 104.25V92.8564H3.98975Z" fill="#0F059E"/>
<path d="M7.97942 2.17594C4.79745 2.17594 2.20291 4.66972 2.20291 7.72582V104.225C2.20291 107.281 4.79745 109.775 7.97942 109.775H60.9716C64.2026 109.775 66.8216 107.281 66.8216 104.225V7.75027C66.8216 4.69417 64.2026 2.20039 60.9716 2.20039H7.97942V2.17594ZM60.9961 111.976H7.97942C3.57361 111.976 0 108.504 0 104.225V7.75027C0 3.47173 3.57361 0 7.97942 0H60.9716C65.4019 0 69 3.47173 69 7.75027V104.25C69.0245 108.504 65.4019 111.976 60.9961 111.976Z" fill="#0F059E"/>
<path d="M65.1082 20.8794H3.98975V91.2186H65.1082V20.8794Z" fill="#0F059E"/>
<path d="M18.3821 53.7873H18.8226C36.7886 53.4694 38.7222 44.4234 38.7222 40.536C38.7222 37.1132 37.3515 34.2527 34.8304 32.4679C32.9212 31.1232 30.5225 30.4631 27.3405 30.4142H18.3576V53.7873H18.3821ZM36.1032 77.4537V76.7447C37.5474 76.2802 37.7921 75.2044 37.8411 74.3976V74.3243C37.8411 74.2754 37.8411 74.202 37.8411 74.1531V73.982C37.8411 73.004 37.5474 70.2902 37.5474 70.2902C36.7641 64.6181 34.3164 58.7504 31.1834 54.9608L31.0121 54.7408L30.7428 54.8141C27.1692 55.7432 23.0326 56.2566 18.8471 56.2566H18.4065L18.431 72.7596C18.431 74.8377 19.3122 76.2068 20.9766 76.7447V77.4782H10.7698V76.7447C12.3852 76.2313 13.2175 74.9355 13.3154 72.784V72.7596C13.3154 72.3684 13.3154 32.8102 13.3154 32.3457C13.2664 30.0719 12.4342 28.7762 10.7208 28.2627V27.5537H27.6587C32.6275 27.5537 35.8585 28.6295 38.453 30.3653C41.7574 32.6146 44.0582 36.6242 44.0092 40.5116C44.0092 45.7925 41.0231 50.2178 35.6137 52.9805C35.5158 53.0294 35.4179 53.0783 35.3444 53.1027C35.2465 53.1516 35.1486 53.2005 35.0262 53.2494L34.5122 53.4939L34.8794 53.934C38.404 57.968 40.6069 63.7135 41.6105 66.794C42.0266 68.0898 42.3693 69.4101 42.9567 71.8305L43.0791 72.3195C43.8868 75.5467 45.7226 76.5002 46.6527 76.7692V77.4782L36.1032 77.4537Z" fill="white"/>
<path d="M25.0642 39.436C25.0642 39.6072 25.0642 44.7903 25.0642 51.147C27.5364 50.7558 29.3721 49.9735 30.1799 49.5578V37.5046H36.2501C35.785 36.0621 34.8794 35.0108 34.4878 34.6196H22.4697V35.3286C24.2075 35.8665 25.0397 37.1868 25.0642 39.436Z" fill="white"/>
<path d="M30.2043 79.8497L30.1798 63.3468H30.6204C31.575 63.3468 32.8478 63.3223 33.8024 63.2734C33.5576 62.3199 33.1415 61.4153 32.8233 60.853C32.2359 60.8774 31.2568 60.9019 30.6449 60.9263H30.2043V56.9412C29.0294 57.2834 26.3125 57.6746 25.0887 57.8213C25.0887 68.3343 25.0887 79.6541 25.0887 79.8497V79.8741C24.9908 82.0256 24.1586 83.3214 22.5431 83.8348V84.5683H32.7499V83.8348C31.0855 83.297 30.2043 81.9278 30.2043 79.8497Z" fill="white"/>
<path d="M54.8279 79.4098L54.7056 78.9208C54.1181 76.5004 53.7999 75.1557 53.3593 73.8844C52.3558 70.8283 50.1529 65.0828 46.6282 61.0243L46.2611 60.5842L46.7751 60.3397C46.8975 60.2908 46.9954 60.2419 47.0933 60.193C47.1912 60.1441 47.2646 60.1197 47.3625 60.0708C52.7719 57.3081 55.7581 52.8828 55.7581 47.6019C55.807 43.7145 53.5062 39.7049 50.2018 37.4556C48.7822 36.5021 46.9219 35.5486 44.8414 35.1819C45.4778 36.331 45.9429 38.3113 46.0408 39.2159C46.2366 39.3382 46.4324 39.4604 46.6282 39.5827C49.1249 41.3674 50.52 44.2279 50.52 47.6508C50.52 50.6091 49.3207 56.599 40.5825 59.5085C41.1454 60.4864 41.6105 61.4888 41.8553 62.0511C41.9776 62.0267 42.3937 61.9289 42.5161 61.9044L42.7854 61.8311L42.9567 62.0511C46.0897 65.8407 48.5374 71.7084 49.3207 77.3805C49.3207 77.405 49.6144 80.0944 49.6144 81.0723V81.2435C49.6144 81.3168 49.6144 81.3657 49.6144 81.4146V81.4879C49.5654 82.2703 49.3451 83.3461 47.8765 83.835V84.544H58.4016V83.8595C57.4959 83.5905 55.6357 82.6126 54.8279 79.4098Z" fill="white"/>
<path d="M10.8432 100.314H11.7733C13.0706 100.314 13.707 99.8001 13.707 98.7977C13.707 98.3087 13.5356 97.942 13.2419 97.6975C12.9237 97.453 12.4587 97.3308 11.8467 97.3308H10.8677L10.8432 100.314ZM9.0564 95.8149H12.116C13.193 95.8149 14.0497 96.0839 14.6616 96.6218C15.2735 97.1596 15.5917 97.8686 15.5917 98.7977C15.5917 99.36 15.4448 99.849 15.1756 100.289C14.9063 100.729 14.5147 101.096 14.0007 101.365L16.5218 105.203H14.3923L12.3852 101.829C12.2384 101.829 12.116 101.854 12.0426 101.854C11.9447 101.854 11.8467 101.854 11.7733 101.854H10.8677V105.203H9.0564V95.8149Z" fill="white"/>
<path d="M10.8432 100.314H11.7733C13.0706 100.314 13.707 99.8001 13.707 98.7977C13.707 98.3087 13.5356 97.942 13.2419 97.6975C12.9237 97.453 12.4587 97.3308 11.8467 97.3308H10.8677L10.8432 100.314ZM9.0564 95.8149H12.116C13.193 95.8149 14.0497 96.0839 14.6616 96.6218C15.2735 97.1596 15.5917 97.8686 15.5917 98.7977C15.5917 99.36 15.4448 99.849 15.1756 100.289C14.9063 100.729 14.5147 101.096 14.0007 101.365L16.5218 105.203H14.3923L12.3852 101.829C12.2384 101.829 12.116 101.854 12.0426 101.854C11.9447 101.854 11.8467 101.854 11.7733 101.854H10.8677V105.203H9.0564V95.8149Z" stroke="white" stroke-width="0.044" stroke-miterlimit="10"/>
<path d="M23.9872 103.687C24.5502 103.687 25.0642 103.565 25.5048 103.296C25.9699 103.027 26.3125 102.661 26.5818 102.172C26.851 101.683 26.9734 101.12 26.9734 100.485C26.9734 99.8979 26.851 99.36 26.6063 98.8711C26.3615 98.3821 25.9943 97.9909 25.5538 97.722C25.0887 97.4286 24.5747 97.2819 23.9872 97.2819C23.4243 97.2819 22.9347 97.4041 22.4697 97.6731C22.0291 97.942 21.662 98.3088 21.3927 98.7977C21.1235 99.2867 21.0011 99.849 21.0011 100.485C21.0011 101.071 21.1235 101.609 21.3682 102.098C21.613 102.587 21.9557 102.978 22.4207 103.247C22.8613 103.541 23.3998 103.687 23.9872 103.687ZM23.9872 105.374C23.0816 105.374 22.2494 105.179 21.5151 104.763C20.7563 104.348 20.1689 103.785 19.7283 103.027C19.2877 102.294 19.0674 101.438 19.0674 100.485C19.0674 99.6045 19.2632 98.7977 19.6793 98.0643C20.0954 97.3308 20.6829 96.7196 21.4417 96.2795C22.2004 95.8394 23.0571 95.6194 24.0117 95.6194C24.9174 95.6194 25.7496 95.815 26.5084 96.2306C27.2671 96.6462 27.8546 97.2086 28.2952 97.9665C28.7357 98.6999 28.956 99.5556 28.956 100.509C28.956 101.389 28.7602 102.196 28.3441 102.93C27.928 103.663 27.3406 104.274 26.5818 104.714C25.7985 105.13 24.9418 105.374 23.9872 105.374Z" fill="white"/>
<path d="M23.9872 103.687C24.5502 103.687 25.0642 103.565 25.5048 103.296C25.9699 103.027 26.3125 102.661 26.5818 102.172C26.851 101.683 26.9734 101.12 26.9734 100.485C26.9734 99.8979 26.851 99.36 26.6063 98.8711C26.3615 98.3821 25.9943 97.9909 25.5538 97.722C25.0887 97.4286 24.5747 97.2819 23.9872 97.2819C23.4243 97.2819 22.9347 97.4041 22.4697 97.6731C22.0291 97.942 21.662 98.3088 21.3927 98.7977C21.1235 99.2867 21.0011 99.849 21.0011 100.485C21.0011 101.071 21.1235 101.609 21.3682 102.098C21.613 102.587 21.9557 102.978 22.4207 103.247C22.8613 103.541 23.3998 103.687 23.9872 103.687ZM23.9872 105.374C23.0816 105.374 22.2494 105.179 21.5151 104.763C20.7563 104.348 20.1689 103.785 19.7283 103.027C19.2877 102.294 19.0674 101.438 19.0674 100.485C19.0674 99.6045 19.2632 98.7977 19.6793 98.0643C20.0954 97.3308 20.6829 96.7196 21.4417 96.2795C22.2004 95.8394 23.0571 95.6194 24.0117 95.6194C24.9174 95.6194 25.7496 95.815 26.5084 96.2306C27.2671 96.6462 27.8546 97.2086 28.2952 97.9665C28.7357 98.6999 28.956 99.5556 28.956 100.509C28.956 101.389 28.7602 102.196 28.3441 102.93C27.928 103.663 27.3406 104.274 26.5818 104.714C25.7985 105.13 24.9418 105.374 23.9872 105.374Z" stroke="white" stroke-width="0.044" stroke-miterlimit="10"/>
<path d="M34.4878 101.267L31.0366 95.8149H33.1416L35.4668 99.8001L37.8166 95.8149H39.8482L36.3725 101.267V105.154H34.4878V101.267Z" fill="white"/>
<path d="M34.4878 101.267L31.0366 95.8149H33.1416L35.4668 99.8001L37.8166 95.8149H39.8482L36.3725 101.267V105.154H34.4878V101.267Z" stroke="white" stroke-width="0.044" stroke-miterlimit="10"/>
<path d="M46.9464 105.301C45.9673 105.301 45.1107 105.105 44.3764 104.739C43.6176 104.348 43.0301 103.81 42.614 103.076C42.1979 102.343 41.9776 101.511 41.9776 100.533C41.9776 99.6044 42.1734 98.7976 42.5895 98.0642C43.0057 97.3307 43.5931 96.7439 44.3764 96.3283C45.1596 95.9127 46.0408 95.6926 47.0443 95.6926C47.5583 95.6926 48.0723 95.766 48.6108 95.8882C49.1493 96.0349 49.5899 96.2061 49.9815 96.4261L49.6633 98.0153C48.7577 97.5752 47.901 97.3552 47.0688 97.3552C46.4569 97.3552 45.9184 97.4774 45.4289 97.7463C44.9393 97.9908 44.5722 98.3575 44.3029 98.8465C44.0337 99.3111 43.8868 99.8734 43.8868 100.533C43.8868 101.487 44.1805 102.245 44.7435 102.807C45.3309 103.37 46.0897 103.663 47.0688 103.663C47.4849 103.663 47.95 103.59 48.4395 103.467C48.929 103.345 49.3696 103.174 49.8102 102.954L50.006 104.592C49.5899 104.836 49.1004 105.008 48.5619 105.154C48.0479 105.228 47.4849 105.301 46.9464 105.301Z" fill="white"/>
<path d="M46.9464 105.301C45.9673 105.301 45.1107 105.105 44.3764 104.739C43.6176 104.348 43.0301 103.81 42.614 103.076C42.1979 102.343 41.9776 101.511 41.9776 100.533C41.9776 99.6044 42.1734 98.7976 42.5895 98.0642C43.0057 97.3307 43.5931 96.7439 44.3764 96.3283C45.1596 95.9127 46.0408 95.6926 47.0443 95.6926C47.5583 95.6926 48.0723 95.766 48.6108 95.8882C49.1493 96.0349 49.5899 96.2061 49.9815 96.4261L49.6633 98.0153C48.7577 97.5752 47.901 97.3552 47.0688 97.3552C46.4569 97.3552 45.9184 97.4774 45.4289 97.7463C44.9393 97.9908 44.5722 98.3575 44.3029 98.8465C44.0337 99.3111 43.8868 99.8734 43.8868 100.533C43.8868 101.487 44.1805 102.245 44.7435 102.807C45.3309 103.37 46.0897 103.663 47.0688 103.663C47.4849 103.663 47.95 103.59 48.4395 103.467C48.929 103.345 49.3696 103.174 49.8102 102.954L50.006 104.592C49.5899 104.836 49.1004 105.008 48.5619 105.154C48.0479 105.228 47.4849 105.301 46.9464 105.301Z" stroke="white" stroke-width="0.044" stroke-miterlimit="10"/>
<path d="M53.653 95.8149H59.8701V97.3797H55.4888V99.629H59.3561V101.194H55.4888V103.59H60.0415V105.154H53.653V95.8149Z" fill="white"/>
<path d="M53.653 95.8149H59.8701V97.3797H55.4888V99.629H59.3561V101.194H55.4888V103.59H60.0415V105.154H53.653V95.8149Z" stroke="white" stroke-width="0.044" stroke-miterlimit="10"/>
<path d="M11.4306 11.5155H12.3608C13.658 11.5155 14.2944 11.002 14.2944 9.99964C14.2944 9.51066 14.1476 9.14393 13.8294 8.89944C13.5112 8.65495 13.0461 8.53271 12.4342 8.53271H11.4551L11.4306 11.5155ZM9.61935 6.99243H12.679C13.7559 6.99243 14.6126 7.26137 15.2245 7.77479C15.8365 8.31267 16.1547 9.02168 16.1547 9.95074C16.1547 10.5131 16.0078 11.002 15.7385 11.4421C15.4693 11.8822 15.0777 12.2489 14.5637 12.5179L17.0848 16.3563H14.9553L12.9482 12.9824C12.8013 12.9824 12.679 13.0068 12.6055 13.0068C12.5076 13.0068 12.4097 13.0068 12.3363 13.0068H11.4306V16.3563H9.61935V6.99243Z" fill="white"/>
<path d="M11.4306 11.5155H12.3608C13.658 11.5155 14.2944 11.002 14.2944 9.99964C14.2944 9.51066 14.1476 9.14393 13.8294 8.89944C13.5112 8.65495 13.0461 8.53271 12.4342 8.53271H11.4551L11.4306 11.5155ZM9.61935 6.99243H12.679C13.7559 6.99243 14.6126 7.26137 15.2245 7.77479C15.8365 8.31267 16.1547 9.02168 16.1547 9.95074C16.1547 10.5131 16.0078 11.002 15.7385 11.4421C15.4693 11.8822 15.0777 12.2489 14.5637 12.5179L17.0848 16.3563H14.9553L12.9482 12.9824C12.8013 12.9824 12.679 13.0068 12.6055 13.0068C12.5076 13.0068 12.4097 13.0068 12.3363 13.0068H11.4306V16.3563H9.61935V6.99243Z" stroke="white" stroke-width="0.044" stroke-miterlimit="10"/>
<path d="M24.5502 14.8892C25.1131 14.8892 25.6272 14.7669 26.0677 14.498C26.5328 14.2291 26.8755 13.8623 27.1447 13.3734C27.414 12.8844 27.5363 12.3221 27.5363 11.6864C27.5363 11.0996 27.414 10.5617 27.1692 10.0728C26.9244 9.58379 26.5573 9.19261 26.1167 8.92368C25.6516 8.63029 25.1376 8.4836 24.5502 8.4836C23.9872 8.4836 23.4977 8.60584 23.0326 8.87478C22.592 9.14372 22.2249 9.51045 21.9556 9.99942C21.6864 10.4884 21.564 11.0507 21.564 11.6864C21.564 12.2732 21.6864 12.811 21.9312 13.3C22.1759 13.789 22.5186 14.1802 22.9837 14.4491C23.4487 14.7425 23.9627 14.8892 24.5502 14.8892ZM24.5502 16.5517C23.6445 16.5517 22.8123 16.3561 22.078 15.9405C21.3192 15.5249 20.7318 14.9625 20.2912 14.2046C19.8506 13.4712 19.6303 12.6154 19.6303 11.6619C19.6303 10.7818 19.8262 9.97497 20.2423 9.24151C20.6584 8.50805 21.2458 7.92128 22.0046 7.45675C22.7634 7.01667 23.6201 6.79663 24.5747 6.79663C25.4803 6.79663 26.3125 6.99222 27.0713 7.40785C27.8301 7.82348 28.4175 8.3858 28.8581 9.14372C29.2987 9.87718 29.519 10.7329 29.519 11.6864C29.519 12.5665 29.3231 13.3734 28.907 14.1068C28.4909 14.8403 27.9035 15.4515 27.1447 15.8916C26.3615 16.3317 25.5048 16.5517 24.5502 16.5517Z" fill="white"/>
<path d="M24.5502 14.8892C25.1131 14.8892 25.6272 14.7669 26.0677 14.498C26.5328 14.2291 26.8755 13.8623 27.1447 13.3734C27.414 12.8844 27.5363 12.3221 27.5363 11.6864C27.5363 11.0996 27.414 10.5617 27.1692 10.0728C26.9244 9.58379 26.5573 9.19261 26.1167 8.92368C25.6516 8.63029 25.1376 8.4836 24.5502 8.4836C23.9872 8.4836 23.4977 8.60584 23.0326 8.87478C22.592 9.14372 22.2249 9.51045 21.9556 9.99942C21.6864 10.4884 21.564 11.0507 21.564 11.6864C21.564 12.2732 21.6864 12.811 21.9312 13.3C22.1759 13.789 22.5186 14.1802 22.9837 14.4491C23.4487 14.7425 23.9627 14.8892 24.5502 14.8892ZM24.5502 16.5517C23.6445 16.5517 22.8123 16.3561 22.078 15.9405C21.3192 15.5249 20.7318 14.9625 20.2912 14.2046C19.8506 13.4712 19.6303 12.6154 19.6303 11.6619C19.6303 10.7818 19.8262 9.97497 20.2423 9.24151C20.6584 8.50805 21.2458 7.92128 22.0046 7.45675C22.7634 7.01667 23.6201 6.79663 24.5747 6.79663C25.4803 6.79663 26.3125 6.99222 27.0713 7.40785C27.8301 7.82348 28.4175 8.3858 28.8581 9.14372C29.2987 9.87718 29.519 10.7329 29.519 11.6864C29.519 12.5665 29.3231 13.3734 28.907 14.1068C28.4909 14.8403 27.9035 15.4515 27.1447 15.8916C26.3615 16.3317 25.5048 16.5517 24.5502 16.5517Z" stroke="white" stroke-width="0.044" stroke-miterlimit="10"/>
<path d="M33.166 6.99243H35.0507V14.8161H39.3097V16.3563H33.166V6.99243Z" fill="white"/>
<path d="M33.166 6.99243H35.0507V14.8161H39.3097V16.3563H33.166V6.99243Z" stroke="white" stroke-width="0.044" stroke-miterlimit="10"/>
<path d="M43.0302 6.99243H44.9149V14.8161H49.1738V16.3563H43.0302V6.99243Z" fill="white"/>
<path d="M43.0302 6.99243H44.9149V14.8161H49.1738V16.3563H43.0302V6.99243Z" stroke="white" stroke-width="0.044" stroke-miterlimit="10"/>
<path d="M55.6357 16.5517C55.0482 16.5517 54.4608 16.4784 53.8733 16.3317C53.2859 16.185 52.8208 15.9894 52.4781 15.7694L52.674 14.1558C53.0656 14.4003 53.5307 14.6203 54.0691 14.767C54.6076 14.9137 55.0972 14.987 55.5867 14.987C56.1497 14.987 56.5903 14.8892 56.9085 14.6692C57.2266 14.4491 57.3735 14.1558 57.3735 13.789C57.3735 13.4712 57.2511 13.2023 56.9819 13.0067C56.7126 12.8111 56.2231 12.591 55.5133 12.371C54.4852 12.0532 53.7754 11.662 53.3348 11.2219C52.8943 10.7818 52.674 10.1951 52.674 9.46159C52.674 8.92371 52.7963 8.48363 53.0656 8.068C53.3348 7.67682 53.7265 7.35899 54.2405 7.1145C54.7545 6.89446 55.3419 6.77222 56.0273 6.77222C56.5168 6.77222 57.0064 6.84556 57.5204 6.96781C58.0344 7.09005 58.475 7.26119 58.8421 7.48123L58.5729 9.04596C58.2302 8.85037 57.8141 8.67923 57.3735 8.55698C56.9329 8.43474 56.4923 8.36139 56.1007 8.36139C55.5622 8.36139 55.1706 8.45919 54.9014 8.65478C54.6321 8.85037 54.5097 9.1193 54.5097 9.46159C54.5097 9.68163 54.5587 9.87722 54.6566 9.99946C54.7545 10.1462 54.9258 10.2684 55.1706 10.3906C55.4154 10.5129 55.7336 10.6351 56.1741 10.7818C57.3001 11.1241 58.0833 11.5397 58.5484 12.0043C59.0135 12.4688 59.2582 13.0556 59.2582 13.789C59.2582 14.6447 58.94 15.3293 58.3036 15.8183C57.6183 16.3073 56.7371 16.5517 55.6357 16.5517Z" fill="white"/>
<path d="M55.6357 16.5517C55.0482 16.5517 54.4608 16.4784 53.8733 16.3317C53.2859 16.185 52.8208 15.9894 52.4781 15.7694L52.674 14.1558C53.0656 14.4003 53.5307 14.6203 54.0691 14.767C54.6076 14.9137 55.0972 14.987 55.5867 14.987C56.1497 14.987 56.5903 14.8892 56.9085 14.6692C57.2266 14.4491 57.3735 14.1558 57.3735 13.789C57.3735 13.4712 57.2511 13.2023 56.9819 13.0067C56.7126 12.8111 56.2231 12.591 55.5133 12.371C54.4852 12.0532 53.7754 11.662 53.3348 11.2219C52.8943 10.7818 52.674 10.1951 52.674 9.46159C52.674 8.92371 52.7963 8.48363 53.0656 8.068C53.3348 7.67682 53.7265 7.35899 54.2405 7.1145C54.7545 6.89446 55.3419 6.77222 56.0273 6.77222C56.5168 6.77222 57.0064 6.84556 57.5204 6.96781C58.0344 7.09005 58.475 7.26119 58.8421 7.48123L58.5729 9.04596C58.2302 8.85037 57.8141 8.67923 57.3735 8.55698C56.9329 8.43474 56.4923 8.36139 56.1007 8.36139C55.5622 8.36139 55.1706 8.45919 54.9014 8.65478C54.6321 8.85037 54.5097 9.1193 54.5097 9.46159C54.5097 9.68163 54.5587 9.87722 54.6566 9.99946C54.7545 10.1462 54.9258 10.2684 55.1706 10.3906C55.4154 10.5129 55.7336 10.6351 56.1741 10.7818C57.3001 11.1241 58.0833 11.5397 58.5484 12.0043C59.0135 12.4688 59.2582 13.0556 59.2582 13.789C59.2582 14.6447 58.94 15.3293 58.3036 15.8183C57.6183 16.3073 56.7371 16.5517 55.6357 16.5517Z" stroke="white" stroke-width="0.044" stroke-miterlimit="10"/>
</g>
<defs>
<clipPath id="clip0">
<rect width="69" height="112" fill="white"/>
</clipPath>
</defs>
</svg>
