<svg width="1145" height="256" viewBox="0 0 1145 256" fill="none" xmlns="http://www.w3.org/2000/svg">
<g style="mix-blend-mode:lighten">
<path style="mix-blend-mode:lighten" d="M898 56H714.997C703.355 56 682 81.333 682 124C682 166.667 703.355 192 714.997 192H898V56Z" fill="url(#paint0_linear)"/>
</g>
<g style="mix-blend-mode:lighten">
<path style="mix-blend-mode:lighten" d="M316 56H499.003C510.645 56 532 81.333 532 124C532 166.667 510.645 192 499.003 192H316V56Z" fill="url(#paint1_linear)"/>
</g>
<path opacity="0.6" d="M608 229C663.228 229 708 184.228 708 129C708 73.772 663.228 29 608 29C552.772 29 508 73.772 508 129C508 184.228 552.772 229 608 229Z" fill="url(#paint2_radial)"/>
<g style="mix-blend-mode:screen">
<path style="mix-blend-mode:screen" d="M608 256C678.692 256 736 198.692 736 128C736 57.308 678.692 0 608 0C537.308 0 480 57.308 480 128C480 198.692 537.308 256 608 256Z" fill="url(#paint3_radial)"/>
</g>
<path d="M560.246 165L567.134 148.2H571.862L578.654 165H574.19L572.654 160.944H566.102L564.542 165H560.246ZM567.35 157.656H571.43L569.414 152.28L567.35 157.656ZM581.628 151.128C581.036 151.128 580.532 150.92 580.116 150.504C579.7 150.088 579.492 149.584 579.492 148.992C579.492 148.4 579.7 147.896 580.116 147.48C580.532 147.064 581.036 146.856 581.628 146.856C582.22 146.856 582.724 147.064 583.14 147.48C583.556 147.896 583.764 148.4 583.764 148.992C583.764 149.584 583.556 150.088 583.14 150.504C582.724 150.92 582.22 151.128 581.628 151.128ZM583.572 152.304V165H579.684V152.304H583.572ZM586.158 148.2H594.486C595.334 148.2 596.118 148.32 596.838 148.56C597.558 148.784 598.174 149.104 598.686 149.52C599.198 149.936 599.598 150.44 599.886 151.032C600.174 151.608 600.318 152.24 600.318 152.928C600.318 153.616 600.142 154.264 599.79 154.872C599.454 155.464 598.99 155.968 598.398 156.384C599.134 156.784 599.726 157.304 600.174 157.944C600.622 158.584 600.846 159.288 600.846 160.056C600.846 161.528 600.294 162.72 599.19 163.632C598.086 164.544 596.654 165 594.894 165H586.158V148.2ZM594.222 151.584H590.286V154.896H594.222C594.814 154.896 595.286 154.744 595.638 154.44C596.006 154.136 596.19 153.736 596.19 153.24C596.19 152.744 596.006 152.344 595.638 152.04C595.286 151.736 594.814 151.584 594.222 151.584ZM594.582 161.616C595.222 161.616 595.726 161.456 596.094 161.136C596.478 160.816 596.67 160.384 596.67 159.84C596.67 159.296 596.478 158.864 596.094 158.544C595.726 158.224 595.222 158.064 594.582 158.064H590.286V161.616H594.582ZM602.312 158.664C602.312 157.752 602.488 156.896 602.84 156.096C603.208 155.28 603.696 154.576 604.304 153.984C604.928 153.392 605.656 152.928 606.488 152.592C607.336 152.24 608.24 152.064 609.2 152.064C610.16 152.064 611.056 152.24 611.888 152.592C612.736 152.928 613.464 153.392 614.072 153.984C614.696 154.576 615.184 155.28 615.536 156.096C615.904 156.896 616.088 157.752 616.088 158.664C616.088 159.576 615.904 160.44 615.536 161.256C615.184 162.056 614.696 162.752 614.072 163.344C613.464 163.936 612.736 164.4 611.888 164.736C611.056 165.072 610.16 165.24 609.2 165.24C608.24 165.24 607.336 165.072 606.488 164.736C605.656 164.4 604.928 163.936 604.304 163.344C603.696 162.752 603.208 162.056 602.84 161.256C602.488 160.44 602.312 159.576 602.312 158.664ZM609.2 161.88C610.064 161.88 610.792 161.568 611.384 160.944C611.992 160.32 612.296 159.56 612.296 158.664C612.296 157.752 611.992 156.984 611.384 156.36C610.792 155.736 610.064 155.424 609.2 155.424C608.336 155.424 607.6 155.736 606.992 156.36C606.4 156.984 606.104 157.752 606.104 158.664C606.104 159.56 606.4 160.32 606.992 160.944C607.6 161.568 608.336 161.88 609.2 161.88ZM617.452 158.664C617.452 157.752 617.628 156.896 617.98 156.096C618.348 155.28 618.836 154.576 619.444 153.984C620.068 153.392 620.796 152.928 621.628 152.592C622.476 152.24 623.38 152.064 624.34 152.064C625.3 152.064 626.196 152.24 627.028 152.592C627.876 152.928 628.604 153.392 629.212 153.984C629.836 154.576 630.324 155.28 630.676 156.096C631.044 156.896 631.228 157.752 631.228 158.664C631.228 159.576 631.044 160.44 630.676 161.256C630.324 162.056 629.836 162.752 629.212 163.344C628.604 163.936 627.876 164.4 627.028 164.736C626.196 165.072 625.3 165.24 624.34 165.24C623.38 165.24 622.476 165.072 621.628 164.736C620.796 164.4 620.068 163.936 619.444 163.344C618.836 162.752 618.348 162.056 617.98 161.256C617.628 160.44 617.452 159.576 617.452 158.664ZM624.34 161.88C625.204 161.88 625.932 161.568 626.524 160.944C627.132 160.32 627.436 159.56 627.436 158.664C627.436 157.752 627.132 156.984 626.524 156.36C625.932 155.736 625.204 155.424 624.34 155.424C623.476 155.424 622.74 155.736 622.132 156.36C621.54 156.984 621.244 157.752 621.244 158.664C621.244 159.56 621.54 160.32 622.132 160.944C622.74 161.568 623.476 161.88 624.34 161.88ZM632.068 163.584L633.916 160.968C634.716 161.448 635.444 161.8 636.1 162.024C636.756 162.232 637.404 162.336 638.044 162.336C638.684 162.336 639.188 162.248 639.556 162.072C639.94 161.88 640.132 161.632 640.132 161.328C640.132 161.088 640.028 160.896 639.82 160.752C639.612 160.592 639.284 160.48 638.836 160.416L636.316 160.032C635.068 159.84 634.108 159.424 633.436 158.784C632.764 158.128 632.428 157.28 632.428 156.24C632.428 154.96 632.916 153.952 633.892 153.216C634.868 152.48 636.204 152.112 637.9 152.112C638.812 152.112 639.724 152.248 640.636 152.52C641.564 152.776 642.42 153.152 643.204 153.648L641.356 156.144C640.668 155.744 640.012 155.456 639.388 155.28C638.764 155.088 638.14 154.992 637.516 154.992C637.02 154.992 636.62 155.08 636.316 155.256C636.012 155.416 635.86 155.632 635.86 155.904C635.86 156.16 635.972 156.368 636.196 156.528C636.42 156.672 636.804 156.784 637.348 156.864L639.868 157.248C641.116 157.424 642.076 157.84 642.748 158.496C643.436 159.136 643.78 159.952 643.78 160.944C643.78 161.552 643.636 162.12 643.348 162.648C643.06 163.176 642.66 163.632 642.148 164.016C641.652 164.4 641.052 164.704 640.348 164.928C639.644 165.136 638.884 165.24 638.068 165.24C636.868 165.24 635.748 165.104 634.708 164.832C633.684 164.544 632.804 164.128 632.068 163.584ZM646.828 161.136V155.544H644.26V152.304H646.828V149.04L650.716 148.2V152.304H654.268V155.544H650.716V160.368C650.716 160.928 650.836 161.328 651.076 161.568C651.332 161.792 651.772 161.904 652.396 161.904C652.7 161.904 652.988 161.888 653.26 161.856C653.532 161.808 653.828 161.736 654.148 161.64V164.784C653.796 164.896 653.348 164.984 652.804 165.048C652.26 165.128 651.804 165.168 651.436 165.168C649.916 165.168 648.764 164.832 647.98 164.16C647.212 163.472 646.828 162.464 646.828 161.136Z" fill="white"/>
<path fill-rule="evenodd" clip-rule="evenodd" d="M620.8 94H593.2C590.88 94 589 95.881 589 98.2V125.8C589 128.12 590.88 130 593.2 130H620.8C623.12 130 625 128.12 625 125.8V98.2C625 95.881 623.12 94 620.8 94ZM593.2 91C589.224 91 586 94.224 586 98.2V125.8C586 129.777 589.224 133 593.2 133H620.8C624.776 133 628 129.777 628 125.8V98.2C628 94.224 624.776 91 620.8 91H593.2Z" fill="white"/>
<path fill-rule="evenodd" clip-rule="evenodd" d="M593.8 91.6V88H596.8V91.6H593.8Z" fill="white"/>
<path fill-rule="evenodd" clip-rule="evenodd" d="M600.1 91.6V88H603.1V91.6H600.1Z" fill="white"/>
<path fill-rule="evenodd" clip-rule="evenodd" d="M606.4 91.6V88H609.4V91.6H606.4Z" fill="white"/>
<path fill-rule="evenodd" clip-rule="evenodd" d="M612.7 91.6V88H615.7V91.6H612.7Z" fill="white"/>
<path fill-rule="evenodd" clip-rule="evenodd" d="M619 91.6V88H622V91.6H619Z" fill="white"/>
<path fill-rule="evenodd" clip-rule="evenodd" d="M593.8 136V132.4H596.8V136H593.8Z" fill="white"/>
<path fill-rule="evenodd" clip-rule="evenodd" d="M600.1 136V132.4H603.1V136H600.1Z" fill="white"/>
<path fill-rule="evenodd" clip-rule="evenodd" d="M606.4 136V132.4H609.4V136H606.4Z" fill="white"/>
<path fill-rule="evenodd" clip-rule="evenodd" d="M612.7 136V132.4H615.7V136H612.7Z" fill="white"/>
<path fill-rule="evenodd" clip-rule="evenodd" d="M619 136V132.4H622V136H619Z" fill="white"/>
<path fill-rule="evenodd" clip-rule="evenodd" d="M583 98.8H586.6V101.8H583V98.8Z" fill="white"/>
<path fill-rule="evenodd" clip-rule="evenodd" d="M583 105.1H586.6V108.1H583V105.1Z" fill="white"/>
<path fill-rule="evenodd" clip-rule="evenodd" d="M583 111.4H586.6V114.4H583V111.4Z" fill="white"/>
<path fill-rule="evenodd" clip-rule="evenodd" d="M583 117.7H586.6V120.7H583V117.7Z" fill="white"/>
<path fill-rule="evenodd" clip-rule="evenodd" d="M583 124H586.6V127H583V124Z" fill="white"/>
<path fill-rule="evenodd" clip-rule="evenodd" d="M627.4 98.8H631V101.8H627.4V98.8Z" fill="white"/>
<path fill-rule="evenodd" clip-rule="evenodd" d="M627.4 105.1H631V108.1H627.4V105.1Z" fill="white"/>
<path fill-rule="evenodd" clip-rule="evenodd" d="M627.4 111.4H631V114.4H627.4V111.4Z" fill="white"/>
<path fill-rule="evenodd" clip-rule="evenodd" d="M627.4 117.7H631V120.7H627.4V117.7Z" fill="white"/>
<path fill-rule="evenodd" clip-rule="evenodd" d="M627.4 124H631V127H627.4V124Z" fill="white"/>
<path d="M604.67 110.408C604.67 110.102 604.43 109.83 604.122 109.83C602.544 109.795 601.139 110.68 600.487 112.041C600.007 111.36 599.287 110.85 598.464 110.578C598.498 110.306 598.533 110 598.498 109.727C598.43 109.319 598.258 108.945 597.984 108.605C597.881 108.469 597.744 108.367 597.573 108.367C597.264 108.367 596.99 108.605 596.99 108.911C596.99 109.047 597.024 109.183 597.127 109.285C597.436 109.659 597.504 110.17 597.367 110.612C597.196 111.054 596.853 111.429 596.373 111.531C596.064 111.599 595.893 111.905 595.961 112.211C596.03 112.517 596.338 112.687 596.647 112.619C597.23 112.449 597.744 112.075 598.087 111.599C599.287 111.939 600.144 113.028 600.144 114.286C600.144 114.593 600.384 114.831 600.693 114.865C600.933 114.865 601.173 114.695 601.242 114.456C601.242 114.422 601.25 114.397 601.259 114.371C601.267 114.346 601.276 114.32 601.276 114.286C601.276 114.048 601.242 113.844 601.207 113.64C601.242 113.572 601.276 113.504 601.276 113.436C601.447 111.973 602.682 110.918 604.156 110.952C604.43 110.952 604.67 110.714 604.67 110.408Z" fill="white"/>
<path d="M614.545 112.687C615.128 112.721 615.711 112.959 616.157 113.402C616.397 113.674 616.397 114.014 616.157 114.252C615.951 114.456 615.574 114.456 615.368 114.218C615.025 113.878 614.545 113.708 614.065 113.81C613.585 113.912 613.174 114.252 613.002 114.694C612.899 114.967 612.556 115.103 612.282 115.001C612.008 114.899 611.871 114.558 611.974 114.286C612.145 113.912 612.419 113.572 612.728 113.3C612.968 113.129 613.208 112.993 613.482 112.891C613.379 112.415 613.345 111.973 613.414 111.53C613.379 111.53 613.345 111.496 613.345 111.462C612.728 110.306 611.665 109.523 610.431 109.217C610.156 109.183 609.985 108.945 609.985 108.673C610.019 108.366 610.259 108.128 610.568 108.128H610.671C611.939 108.4 613.036 109.149 613.825 110.17C614.089 109.699 614.913 108.729 615.471 108.571C615.711 108.503 615.951 108.605 616.088 108.843C616.225 109.115 616.122 109.455 615.848 109.591C614.751 110.204 614.237 111.462 614.545 112.687Z" fill="white"/>
<path fill-rule="evenodd" clip-rule="evenodd" d="M618.18 106.665C618.694 105.27 618.557 103.705 617.7 102.447C616.877 101.222 615.539 100.439 614.099 100.337C613.996 100.031 613.894 99.759 613.756 99.487C612.865 97.956 611.048 97.207 609.333 97.684C608.339 97.956 607.516 98.602 607.002 99.453C606.488 98.602 605.665 97.956 604.67 97.684C604.259 97.582 603.813 97.514 603.367 97.548C602.099 97.65 600.899 98.33 600.247 99.487C600.076 99.759 599.973 100.065 599.904 100.337C598.43 100.439 597.093 101.222 596.27 102.447C595.447 103.705 595.275 105.27 595.79 106.665C593.355 108.06 592.224 111.02 593.184 113.674C593.63 114.865 594.453 115.851 595.447 116.498C595.413 116.566 595.378 116.634 595.378 116.702C595.001 118.267 595.31 119.934 596.201 121.295C597.058 122.622 598.43 123.54 599.973 123.88C600.179 124.425 600.487 124.901 600.899 125.309C602.03 126.432 603.71 126.772 605.185 126.16C605.973 125.82 606.625 125.275 607.036 124.561C607.448 125.275 608.099 125.82 608.888 126.16C610.362 126.772 612.042 126.432 613.174 125.309C613.585 124.901 613.894 124.391 614.099 123.88C615.642 123.54 616.98 122.622 617.837 121.329C618.728 119.968 619.037 118.301 618.66 116.736C618.66 116.668 618.625 116.6 618.591 116.532C619.585 115.851 620.408 114.899 620.854 113.708C621.745 111.02 620.614 108.094 618.18 106.665ZM606.419 122.69C606.385 123.778 605.733 124.765 604.705 125.173C603.642 125.615 602.442 125.377 601.653 124.561C600.864 123.778 600.624 122.554 601.036 121.533C601.139 121.329 601.242 121.125 601.379 120.92C601.888 120.92 602.334 120.975 602.682 121.397C602.99 121.771 603.127 122.247 602.99 122.724C602.831 123.434 603.93 123.7 604.087 122.996C604.293 122.179 604.087 121.295 603.539 120.648C603.264 120.342 602.956 120.138 602.613 120.002C602.922 119.866 603.264 119.798 603.607 119.798C603.916 119.798 604.156 119.56 604.19 119.253C604.19 118.947 603.95 118.709 603.642 118.675C602.064 118.675 600.624 119.628 600.007 121.091C599.801 121.601 599.699 122.145 599.699 122.656C598.636 122.315 597.71 121.635 597.093 120.716C596.373 119.628 596.133 118.335 596.441 117.076C597.607 117.586 598.944 117.722 600.247 117.382C600.556 117.314 600.727 117.008 600.659 116.702C600.59 116.396 600.281 116.225 599.973 116.294C597.573 116.94 595.104 115.647 594.247 113.334C593.39 111.02 594.487 108.469 596.75 107.414C597.024 107.278 597.161 106.972 597.024 106.665C597.007 106.631 596.99 106.606 596.973 106.58C596.956 106.555 596.938 106.529 596.921 106.495V106.461C596.407 105.339 596.544 104.046 597.196 103.025C597.778 102.14 598.704 101.562 599.699 101.426C599.699 102.106 599.904 102.787 600.247 103.365C599.699 103.433 599.15 103.569 598.67 103.842C598.396 104.012 598.327 104.352 598.464 104.59C598.636 104.862 598.944 104.93 599.219 104.794C599.973 104.352 600.899 104.284 601.722 104.658C602.544 104.998 603.127 105.713 603.333 106.563C603.402 106.869 603.71 107.04 604.019 106.972C604.293 106.904 604.499 106.597 604.43 106.325C604.293 105.713 604.019 105.168 603.607 104.726C603.23 104.284 602.716 103.91 602.167 103.671C602.099 103.637 602.03 103.62 601.962 103.603C601.893 103.586 601.824 103.569 601.756 103.535C601.722 103.467 601.687 103.399 601.619 103.365C600.727 102.481 600.521 101.086 601.173 99.997C601.653 99.181 602.51 98.67 603.402 98.602C603.71 98.568 604.019 98.602 604.327 98.704C605.527 99.01 606.35 100.099 606.385 101.324V102.004C605.493 102.209 604.533 101.97 603.882 101.324C603.642 101.12 603.299 101.12 603.093 101.358C602.887 101.596 602.887 101.936 603.127 102.14C604.019 102.957 605.219 103.297 606.419 103.127V113.674L606.316 113.878C606.179 114.354 605.836 114.729 605.39 114.865C604.945 115.035 604.43 114.933 604.053 114.626C603.813 114.456 603.436 114.524 603.264 114.763C603.093 115.001 603.127 115.307 603.367 115.511C603.71 115.783 604.087 115.953 604.499 116.021C604.91 116.089 605.356 116.055 605.733 115.919C605.973 115.851 606.213 115.715 606.419 115.545V122.69ZM619.723 113.3C618.865 115.613 616.397 116.906 613.996 116.259C613.688 116.191 613.379 116.362 613.311 116.668C613.242 116.974 613.414 117.28 613.722 117.348C615.025 117.688 616.362 117.552 617.528 117.076C617.802 118.335 617.562 119.628 616.877 120.716C616.259 121.635 615.334 122.315 614.305 122.656C614.305 122.111 614.237 121.601 613.996 121.091C613.379 119.628 611.939 118.675 610.362 118.675C610.053 118.675 609.813 118.913 609.779 119.219C609.779 119.526 610.019 119.764 610.328 119.798C611.459 119.798 612.488 120.478 612.934 121.499C613.379 122.554 613.139 123.744 612.316 124.527C611.528 125.309 610.293 125.547 609.265 125.139C608.236 124.731 607.585 123.744 607.55 122.656V122.383C608.476 122.145 609.436 122.383 610.156 123.03C610.396 123.234 610.739 123.234 610.945 122.996C611.151 122.758 611.151 122.417 610.911 122.213C609.985 121.363 608.75 121.023 607.55 121.227V113.776C607.722 113.844 607.893 113.912 608.099 113.946C608.51 114.014 608.956 113.98 609.333 113.844C610.156 113.572 610.773 112.925 611.013 112.075C611.082 111.769 610.911 111.462 610.636 111.394C610.328 111.326 610.019 111.496 609.951 111.769C609.813 112.245 609.471 112.619 609.025 112.755C608.579 112.925 608.065 112.823 607.688 112.517C607.674 112.504 607.661 112.496 607.65 112.489C607.632 112.478 607.619 112.47 607.619 112.449V105.645C608.408 105.883 609.265 105.713 609.951 105.202L610.019 105.134C610.036 105.134 610.045 105.134 610.049 105.13C610.053 105.126 610.053 105.117 610.053 105.1C611.013 104.522 612.248 104.556 613.174 105.236C613.414 105.407 613.791 105.373 613.962 105.1C614.134 104.862 614.099 104.522 613.825 104.318C612.968 103.705 611.871 103.467 610.842 103.637C610.945 103.161 610.876 102.651 610.705 102.209C610.457 101.552 609.426 101.955 609.676 102.617C609.916 103.195 609.745 103.91 609.231 104.318C608.75 104.692 608.099 104.726 607.585 104.42V101.256C607.619 100.031 608.442 98.976 609.642 98.636C609.951 98.568 610.259 98.534 610.568 98.534C611.493 98.602 612.316 99.113 612.796 99.929C613.174 100.575 613.242 101.324 613.071 102.004C613.002 102.311 613.174 102.617 613.482 102.685C613.791 102.753 614.099 102.583 614.168 102.277C614.237 101.97 614.271 101.664 614.271 101.358C615.299 101.528 616.191 102.072 616.774 102.957C617.46 103.978 617.562 105.27 617.048 106.393V106.427C616.842 106.665 616.842 107.006 617.082 107.21C617.117 107.244 617.185 107.278 617.254 107.312C619.483 108.434 620.545 110.986 619.723 113.3Z" fill="white"/>
<path fill-rule="evenodd" clip-rule="evenodd" d="M617.048 106.393C617.562 105.27 617.46 103.978 616.774 102.957C616.296 102.232 615.61 101.735 614.812 101.486C614.637 101.431 614.456 101.389 614.271 101.358C614.271 101.538 614.259 101.718 614.235 101.899C614.219 102.025 614.196 102.151 614.168 102.277C614.099 102.583 613.791 102.753 613.482 102.685C613.174 102.617 613.002 102.311 613.071 102.004C613.242 101.324 613.174 100.575 612.796 99.929C612.316 99.113 611.493 98.602 610.568 98.534C610.259 98.534 609.951 98.568 609.642 98.636C608.442 98.976 607.619 100.031 607.585 101.256V104.42C608.099 104.726 608.75 104.692 609.231 104.318C609.745 103.91 609.916 103.195 609.676 102.617C609.426 101.955 610.457 101.552 610.705 102.209C610.811 102.483 610.878 102.783 610.889 103.086C610.895 103.271 610.881 103.457 610.842 103.637C611.027 103.607 611.215 103.589 611.403 103.585C612.258 103.565 613.122 103.816 613.825 104.318C614.099 104.522 614.134 104.862 613.962 105.1C613.791 105.373 613.414 105.407 613.174 105.236C612.248 104.556 611.013 104.522 610.053 105.1C610.053 105.117 610.053 105.126 610.049 105.13C610.045 105.134 610.036 105.134 610.019 105.134L609.951 105.202C609.42 105.597 608.787 105.788 608.162 105.744C607.979 105.732 607.797 105.699 607.619 105.645V112.449C607.619 112.47 607.632 112.478 607.65 112.489C607.661 112.496 607.674 112.504 607.688 112.517C608.065 112.823 608.579 112.925 609.025 112.755C609.471 112.619 609.813 112.245 609.951 111.769C610.019 111.496 610.328 111.326 610.636 111.394C610.911 111.462 611.082 111.769 611.013 112.075C610.773 112.925 610.156 113.572 609.333 113.844C608.956 113.98 608.51 114.014 608.099 113.946C608.097 113.946 608.095 113.945 608.093 113.945C607.89 113.911 607.72 113.843 607.55 113.776V121.227C607.731 121.196 607.912 121.178 608.093 121.171C609.115 121.137 610.124 121.491 610.911 122.213C611.151 122.417 611.151 122.758 610.945 122.996C610.739 123.234 610.396 123.234 610.156 123.03C609.436 122.383 608.476 122.145 607.55 122.383V122.656C607.585 123.744 608.236 124.731 609.265 125.139C610.293 125.547 611.528 125.309 612.316 124.527C613.139 123.744 613.379 122.554 612.934 121.499C612.488 120.478 611.459 119.798 610.328 119.798C610.019 119.764 609.779 119.526 609.779 119.219C609.813 118.913 610.053 118.675 610.362 118.675C611.939 118.675 613.379 119.628 613.996 121.091C614.152 121.422 614.236 121.754 614.275 122.095C614.297 122.278 614.305 122.465 614.305 122.656C614.489 122.595 614.669 122.523 614.845 122.442C615.654 122.065 616.37 121.471 616.877 120.716C617.464 119.785 617.724 118.703 617.615 117.622C617.597 117.44 617.568 117.258 617.528 117.076C617.36 117.145 617.187 117.207 617.012 117.261C615.976 117.582 614.837 117.639 613.722 117.348C613.414 117.28 613.242 116.974 613.311 116.668C613.379 116.362 613.688 116.191 613.996 116.259C616.397 116.906 618.865 115.613 619.723 113.3C620.545 110.986 619.483 108.434 617.254 107.312C617.185 107.278 617.117 107.244 617.082 107.21C616.842 107.006 616.842 106.665 617.048 106.427V106.393ZM616.533 106.215L616.554 106.17C616.991 105.216 616.903 104.12 616.322 103.256L616.321 103.254L616.319 103.252C615.937 102.671 615.399 102.262 614.764 102.038C614.746 102.157 614.725 102.275 614.698 102.393C614.556 103.026 613.929 103.335 613.364 103.211C612.727 103.07 612.415 102.447 612.541 101.888L612.542 101.881L612.544 101.874C612.685 101.314 612.625 100.712 612.327 100.2C611.939 99.541 611.284 99.133 610.547 99.073C610.291 99.074 610.034 99.103 609.776 99.159C608.813 99.438 608.158 100.283 608.128 101.264V104.064C608.39 104.125 608.67 104.069 608.893 103.896C609.214 103.639 609.324 103.182 609.174 102.822L609.171 102.814L609.168 102.806C609.051 102.497 609.078 102.186 609.218 101.926C609.352 101.679 609.572 101.508 609.803 101.417C610.034 101.326 610.314 101.3 610.583 101.394C610.867 101.492 611.095 101.709 611.212 102.017C611.335 102.333 611.415 102.684 611.431 103.046C612.387 103.032 613.352 103.316 614.142 103.881L614.147 103.884L614.151 103.887C614.659 104.265 614.744 104.927 614.414 105.4C614.046 105.965 613.305 105.992 612.858 105.675L612.854 105.672L612.85 105.669C612.141 105.148 611.204 105.097 610.445 105.499C610.441 105.503 610.437 105.507 610.433 105.511C610.396 105.548 610.358 105.576 610.321 105.597L610.307 105.611L610.276 105.633C609.658 106.094 608.91 106.328 608.162 106.285V112.189C608.379 112.309 608.627 112.33 608.83 112.252L608.847 112.246L608.865 112.24C609.112 112.165 609.332 111.948 609.427 111.627C609.583 111.032 610.211 110.749 610.754 110.868L610.761 110.87L610.768 110.872C611.375 111.022 611.665 111.65 611.544 112.192L611.54 112.206L611.536 112.22C611.249 113.237 610.506 114.022 609.512 114.353C609.068 114.512 608.564 114.554 608.093 114.49V120.632C609.245 120.598 610.384 120.998 611.273 121.812C611.767 122.24 611.724 122.922 611.357 123.346C610.926 123.846 610.234 123.805 609.803 123.439L609.797 123.434L609.792 123.429C609.315 123.001 608.716 122.796 608.108 122.837C608.202 123.643 608.712 124.34 609.466 124.639C610.298 124.969 611.3 124.773 611.932 124.146L611.937 124.142L611.941 124.138C612.597 123.514 612.793 122.563 612.434 121.71C612.073 120.886 611.239 120.337 610.328 120.337H610.298L610.268 120.333C609.718 120.273 609.236 119.832 609.236 119.219V119.19L609.239 119.16C609.301 118.614 609.744 118.136 610.362 118.136C612.157 118.136 613.79 119.217 614.493 120.873C614.649 121.206 614.741 121.537 614.792 121.866C615.439 121.53 616.008 121.036 616.42 120.424C616.919 119.63 617.15 118.718 617.085 117.802C615.986 118.126 614.778 118.179 613.593 117.872C612.963 117.726 612.656 117.107 612.781 116.551C612.922 115.919 613.55 115.609 614.114 115.734L614.127 115.736L614.139 115.739C616.261 116.311 618.449 115.171 619.212 113.117C619.939 111.068 619 108.797 617.009 107.793L617.008 107.792L617.006 107.791C616.975 107.776 616.929 107.753 616.886 107.729C616.85 107.708 616.782 107.668 616.717 107.609C616.277 107.224 616.266 106.638 616.533 106.215ZM613.756 99.487C613.894 99.759 613.996 100.031 614.099 100.337C615.539 100.439 616.877 101.222 617.7 102.447C618.557 103.705 618.694 105.27 618.18 106.665C620.614 108.094 621.745 111.02 620.854 113.708C620.408 114.899 619.585 115.851 618.591 116.532C618.625 116.6 618.66 116.668 618.66 116.736C619.037 118.301 618.728 119.968 617.837 121.329C616.98 122.622 615.642 123.54 614.099 123.88C613.894 124.391 613.585 124.901 613.174 125.309C612.042 126.432 610.362 126.772 608.888 126.16C608.289 125.901 607.769 125.525 607.373 125.046C607.248 124.894 607.135 124.732 607.036 124.561C606.937 124.732 606.825 124.894 606.699 125.046C606.304 125.525 605.784 125.901 605.185 126.16C603.71 126.772 602.03 126.432 600.899 125.309C600.487 124.901 600.179 124.425 599.973 123.88C598.43 123.54 597.058 122.622 596.201 121.295C595.31 119.934 595.001 118.267 595.378 116.702C595.378 116.634 595.413 116.566 595.447 116.498C594.453 115.851 593.63 114.865 593.184 113.674C592.224 111.02 593.355 108.06 595.79 106.665C595.275 105.27 595.447 103.705 596.27 102.447C597.093 101.222 598.43 100.439 599.904 100.337C599.973 100.065 600.076 99.759 600.247 99.487C600.899 98.33 602.099 97.65 603.367 97.548C603.813 97.514 604.259 97.582 604.67 97.684C605.469 97.902 606.157 98.363 606.664 98.976C606.788 99.126 606.901 99.286 607.002 99.453C607.103 99.286 607.216 99.126 607.34 98.976C607.846 98.363 608.534 97.902 609.333 97.684C611.048 97.207 612.865 97.956 613.756 99.487ZM609.188 97.164C608.32 97.402 607.568 97.89 607.002 98.538C606.435 97.89 605.683 97.402 604.815 97.164L604.808 97.162L604.802 97.161C604.36 97.051 603.851 96.97 603.326 97.01H603.323C601.897 97.125 600.529 97.89 599.779 99.213C599.651 99.419 599.557 99.636 599.486 99.84C597.993 100.052 596.661 100.893 595.818 102.148L595.816 102.151L595.814 102.153C594.98 103.43 594.747 104.989 595.145 106.43C592.747 108.032 591.673 111.092 592.673 113.856L592.674 113.859L592.675 113.861C593.112 115.028 593.879 116.015 594.818 116.717C594.456 118.389 594.802 120.147 595.745 121.587C596.631 122.957 598.013 123.924 599.576 124.338C599.804 124.844 600.117 125.296 600.515 125.69C601.799 126.965 603.713 127.355 605.394 126.657L605.398 126.655L605.401 126.654C606.031 126.382 606.593 125.989 607.036 125.485C607.479 125.989 608.041 126.382 608.671 126.654L608.675 126.655L608.678 126.657C610.359 127.355 612.273 126.965 613.558 125.69C613.958 125.293 614.267 124.818 614.491 124.34C616.056 123.925 617.407 122.958 618.29 121.625L618.292 121.622C619.237 120.18 619.583 118.418 619.218 116.744C620.15 116.029 620.923 115.072 621.363 113.895L621.367 113.886L621.37 113.876C622.296 111.085 621.22 108.06 618.824 106.434C619.226 104.998 619.026 103.433 618.15 102.146C617.306 100.89 615.97 100.048 614.499 99.838C614.424 99.639 614.342 99.444 614.242 99.246L614.235 99.231L614.227 99.217C613.213 97.477 611.144 96.621 609.188 97.164ZM601.173 99.997C600.521 101.086 600.727 102.481 601.619 103.365C601.687 103.399 601.722 103.467 601.756 103.535C601.824 103.569 601.893 103.586 601.962 103.603C602.03 103.62 602.099 103.637 602.167 103.671C602.716 103.91 603.23 104.284 603.607 104.726C604.019 105.168 604.293 105.713 604.43 106.325C604.499 106.597 604.293 106.904 604.019 106.972C603.71 107.04 603.402 106.869 603.333 106.563C603.127 105.713 602.544 104.998 601.722 104.658C600.899 104.284 599.973 104.352 599.219 104.794C598.944 104.93 598.636 104.862 598.464 104.59C598.327 104.352 598.396 104.012 598.67 103.842C598.984 103.664 599.327 103.544 599.68 103.463C599.867 103.421 600.057 103.389 600.247 103.365C600.151 103.203 600.065 103.033 599.992 102.856C599.874 102.571 599.788 102.271 599.741 101.964C599.713 101.786 599.699 101.606 599.699 101.426C599.515 101.451 599.334 101.491 599.157 101.546C598.375 101.786 597.671 102.304 597.196 103.025C596.544 104.046 596.407 105.339 596.921 106.461V106.495C596.938 106.529 596.956 106.555 596.973 106.58C596.99 106.606 597.007 106.631 597.024 106.665C597.161 106.972 597.024 107.278 596.75 107.414C594.487 108.469 593.39 111.02 594.247 113.334C595.104 115.647 597.573 116.94 599.973 116.294C600.281 116.225 600.59 116.396 600.659 116.702C600.727 117.008 600.556 117.314 600.247 117.382C599.131 117.674 597.99 117.616 596.953 117.272C596.779 117.215 596.608 117.149 596.441 117.076C596.397 117.257 596.364 117.438 596.342 117.62C596.212 118.702 596.476 119.784 597.093 120.716C597.603 121.476 598.325 122.073 599.16 122.449C599.335 122.528 599.515 122.597 599.699 122.656C599.699 122.474 599.712 122.287 599.738 122.1C599.785 121.761 599.875 121.419 600.007 121.091C600.624 119.628 602.064 118.675 603.642 118.675C603.95 118.709 604.19 118.947 604.19 119.253C604.156 119.56 603.916 119.798 603.607 119.798C603.536 119.798 603.465 119.801 603.394 119.807C603.123 119.829 602.857 119.894 602.613 120.002C602.839 120.092 603.05 120.211 603.246 120.369C603.347 120.451 603.445 120.544 603.539 120.648C604.087 121.295 604.293 122.179 604.087 122.996C603.93 123.7 602.831 123.434 602.99 122.724C603.127 122.247 602.99 121.771 602.682 121.397C602.334 120.975 601.888 120.92 601.379 120.92C601.242 121.125 601.139 121.329 601.036 121.533C600.624 122.554 600.864 123.778 601.653 124.561C602.442 125.377 603.642 125.615 604.705 125.173C605.733 124.765 606.385 123.778 606.419 122.69V115.545C606.254 115.681 606.067 115.796 605.876 115.871C605.829 115.89 605.781 115.906 605.733 115.919C605.356 116.055 604.91 116.089 604.499 116.021C604.087 115.953 603.71 115.783 603.367 115.511C603.127 115.307 603.093 115.001 603.264 114.763C603.436 114.524 603.813 114.456 604.053 114.626C604.43 114.933 604.945 115.035 605.39 114.865C605.836 114.729 606.179 114.354 606.316 113.878L606.419 113.674V103.127C606.238 103.153 606.056 103.167 605.876 103.169C604.863 103.184 603.884 102.834 603.127 102.14C602.887 101.936 602.887 101.596 603.093 101.358C603.299 101.12 603.642 101.12 603.882 101.324C604.533 101.97 605.493 102.209 606.385 102.004V101.324C606.35 100.099 605.527 99.01 604.327 98.704C604.019 98.602 603.71 98.568 603.402 98.602C602.51 98.67 601.653 99.181 601.173 99.997ZM605.842 101.332C605.811 100.335 605.141 99.468 604.192 99.226L604.174 99.221L604.156 99.215C603.918 99.137 603.688 99.113 603.462 99.138L603.452 99.139H603.443C602.727 99.194 602.031 99.607 601.642 100.269L601.641 100.27L601.64 100.272C601.129 101.126 601.275 102.228 601.965 102.947C602.025 102.99 602.073 103.038 602.112 103.085C602.175 103.101 602.283 103.129 602.396 103.183C603.009 103.451 603.584 103.868 604.014 104.369C604.491 104.885 604.804 105.512 604.959 106.202C605.033 106.507 604.95 106.8 604.81 107.016C604.669 107.234 604.44 107.423 604.151 107.494L604.144 107.496L604.137 107.498C603.574 107.622 602.948 107.314 602.804 106.686C602.636 105.994 602.165 105.425 601.513 105.155L601.504 105.152L601.495 105.148C600.84 104.85 600.102 104.902 599.495 105.258L599.478 105.268L599.461 105.276C598.956 105.527 598.335 105.401 598.004 104.876L597.998 104.867L597.993 104.857C597.712 104.369 597.859 103.709 598.382 103.385L598.391 103.379L598.401 103.374C598.736 103.184 599.093 103.053 599.451 102.964C599.343 102.685 599.261 102.393 599.212 102.095C598.594 102.31 598.037 102.734 597.652 103.317C597.093 104.195 596.983 105.295 597.416 106.238L597.461 106.338C597.476 106.362 597.493 106.391 597.51 106.424L597.515 106.435L597.52 106.447C597.785 107.038 597.504 107.642 596.993 107.896L596.987 107.899L596.981 107.902C594.964 108.841 594 111.105 594.757 113.148C595.518 115.204 597.707 116.345 599.831 115.774L599.843 115.77L599.855 115.768C600.419 115.643 601.047 115.953 601.189 116.585C601.313 117.141 601.006 117.76 600.377 117.906C599.188 118.214 597.975 118.161 596.868 117.811C596.788 118.722 597.023 119.628 597.546 120.419C597.965 121.042 598.546 121.544 599.222 121.881C599.279 121.547 599.373 121.213 599.503 120.89L599.505 120.886L599.506 120.883C600.207 119.221 601.843 118.136 603.642 118.136H603.672L603.702 118.14C604.252 118.2 604.733 118.64 604.733 119.253V119.283L604.73 119.313C604.681 119.754 604.381 120.151 603.942 120.287C603.943 120.288 603.944 120.289 603.945 120.29L603.949 120.296L603.954 120.301C604.614 121.078 604.861 122.138 604.616 123.12C604.541 123.442 604.346 123.691 604.077 123.829C603.82 123.961 603.535 123.973 603.29 123.913C603.045 123.853 602.8 123.711 602.632 123.481C602.456 123.24 602.387 122.932 602.46 122.607L602.464 122.591L602.468 122.576C602.548 122.297 602.477 121.999 602.261 121.738C602.122 121.569 601.961 121.496 601.679 121.47C601.63 121.559 601.583 121.652 601.532 121.753C601.211 122.573 601.41 123.558 602.037 124.18L602.041 124.184L602.045 124.188C602.675 124.84 603.634 125.034 604.495 124.676L604.499 124.675L604.503 124.673C605.316 124.35 605.845 123.566 605.876 122.681V116.441C605.414 116.598 604.891 116.632 604.41 116.553C603.902 116.469 603.439 116.258 603.028 115.932L603.021 115.926L603.014 115.92C602.566 115.539 602.483 114.92 602.823 114.449C603.003 114.199 603.275 114.057 603.539 114.011C603.803 113.964 604.111 114.005 604.369 114.188L604.383 114.198L604.397 114.209C604.639 114.406 604.95 114.455 605.195 114.362L605.213 114.355L605.231 114.35C605.479 114.274 605.701 114.054 605.794 113.73L605.808 113.682L605.876 113.547V103.708C604.737 103.722 603.627 103.329 602.765 102.542C602.271 102.114 602.314 101.432 602.681 101.007C603.112 100.508 603.804 100.548 604.235 100.915L604.251 100.928L604.266 100.943C604.676 101.35 605.254 101.558 605.842 101.535V101.332ZM598.498 109.727C598.533 110 598.498 110.306 598.464 110.578C599.093 110.786 599.662 111.133 600.11 111.589C600.248 111.73 600.374 111.881 600.487 112.041C600.573 111.862 600.671 111.692 600.781 111.531C601.51 110.464 602.751 109.8 604.122 109.83C604.43 109.83 604.67 110.102 604.67 110.408C604.67 110.714 604.43 110.952 604.156 110.952C602.682 110.918 601.447 111.973 601.276 113.436C601.276 113.504 601.242 113.572 601.207 113.64C601.242 113.844 601.276 114.048 601.276 114.286C601.276 114.32 601.267 114.346 601.259 114.371C601.25 114.397 601.242 114.422 601.242 114.456C601.173 114.695 600.933 114.865 600.693 114.865C600.384 114.831 600.144 114.593 600.144 114.286C600.144 113.028 599.287 111.939 598.087 111.599C597.744 112.075 597.23 112.449 596.647 112.619C596.338 112.687 596.03 112.517 595.961 112.211C595.893 111.905 596.064 111.599 596.373 111.531C596.853 111.429 597.196 111.054 597.367 110.612C597.504 110.17 597.436 109.659 597.127 109.285C597.024 109.183 596.99 109.047 596.99 108.911C596.99 108.605 597.264 108.367 597.573 108.367C597.744 108.367 597.881 108.469 597.984 108.605C598.258 108.945 598.43 109.319 598.498 109.727ZM598.413 108.274C598.739 108.681 598.95 109.137 599.034 109.639L599.036 109.65L599.037 109.661C599.061 109.849 599.059 110.043 599.047 110.224C599.551 110.443 600.015 110.746 600.407 111.122C601.245 109.97 602.619 109.26 604.128 109.291C604.775 109.295 605.213 109.849 605.213 110.408C605.213 110.989 604.753 111.491 604.156 111.491H604.15H604.143C602.954 111.463 601.964 112.304 601.817 113.479C601.812 113.565 601.792 113.645 601.769 113.71C601.795 113.878 601.819 114.07 601.819 114.286C601.819 114.384 601.798 114.464 601.785 114.509V114.532L601.764 114.604C601.626 115.082 601.166 115.404 600.693 115.404H600.663L600.633 115.4C600.083 115.34 599.601 114.899 599.601 114.286C599.601 113.391 599.061 112.597 598.262 112.235C597.871 112.651 597.364 112.972 596.8 113.136L596.783 113.141L596.765 113.145C596.201 113.27 595.573 112.96 595.431 112.328C595.306 111.768 595.618 111.145 596.255 111.005L596.257 111.004H596.259C596.506 110.951 596.726 110.751 596.853 110.436C596.935 110.155 596.885 109.853 596.718 109.641C596.499 109.406 596.447 109.122 596.447 108.911C596.447 108.266 597.008 107.828 597.573 107.828C597.98 107.828 598.257 108.071 598.413 108.274ZM616.553 113.033L616.565 113.047C616.76 113.267 616.88 113.543 616.88 113.84C616.88 114.14 616.756 114.419 616.541 114.633C616.124 115.047 615.394 115.052 614.973 114.589C614.745 114.368 614.452 114.279 614.179 114.337L614.065 113.81C614.545 113.708 615.025 113.878 615.368 114.218C615.574 114.456 615.951 114.456 616.157 114.252C616.397 114.014 616.397 113.674 616.157 113.402C615.711 112.959 615.128 112.721 614.545 112.687C614.237 111.462 614.751 110.204 615.848 109.591C616.122 109.455 616.225 109.115 616.088 108.843C615.951 108.605 615.711 108.503 615.471 108.571C615.064 108.686 614.515 109.233 614.146 109.703C614.009 109.878 613.896 110.042 613.825 110.17C613.708 110.019 613.585 109.874 613.455 109.735C612.708 108.938 611.752 108.36 610.671 108.128H610.568C610.259 108.128 610.019 108.366 609.985 108.673C609.985 108.945 610.156 109.183 610.431 109.217C611.665 109.523 612.728 110.306 613.345 111.462C613.345 111.491 613.369 111.519 613.397 111.528C613.403 111.53 613.408 111.53 613.414 111.53C613.386 111.709 613.375 111.888 613.379 112.068C613.384 112.335 613.421 112.607 613.482 112.891C613.208 112.993 612.968 113.129 612.728 113.3C612.419 113.572 612.145 113.912 611.974 114.286C611.871 114.558 612.008 114.899 612.282 115.001L612.091 115.505C611.508 115.288 611.268 114.619 611.465 114.097L611.472 114.08L611.479 114.063C611.688 113.608 612.014 113.209 612.367 112.897L612.389 112.878L612.412 112.861C612.561 112.756 612.713 112.66 612.875 112.574C612.835 112.28 612.823 111.987 612.848 111.691C612.844 111.682 612.84 111.672 612.837 111.663C612.296 110.684 611.387 110.017 610.325 109.746C609.749 109.655 609.442 109.147 609.442 108.673V108.643L609.445 108.613C609.506 108.067 609.95 107.589 610.568 107.589H610.729L610.785 107.602C611.951 107.852 612.976 108.461 613.781 109.293C613.894 109.154 614.017 109.014 614.145 108.881C614.312 108.706 614.498 108.535 614.687 108.392C614.869 108.255 615.088 108.119 615.322 108.052C615.826 107.909 616.311 108.144 616.56 108.575L616.567 108.588L616.574 108.602C616.834 109.118 616.654 109.784 616.105 110.066C615.34 110.498 614.925 111.33 615.011 112.206C615.569 112.32 616.107 112.591 616.541 113.021L616.553 113.033ZM613.002 114.694C613.174 114.252 613.585 113.912 614.065 113.81L614.179 114.337C613.87 114.402 613.612 114.623 613.51 114.887C613.29 115.463 612.617 115.701 612.091 115.505L612.282 115.001C612.556 115.103 612.899 114.967 613.002 114.694Z" fill="white"/>
<path opacity="0.7" d="M403 61H339C336.791 61 335 62.7909 335 65C335 67.2091 336.791 69 339 69H403C405.209 69 407 67.2091 407 65C407 62.7909 405.209 61 403 61Z" fill="url(#paint4_linear)"/>
<path opacity="0.5" d="M401 68.464C402.913 69.568 405.359 68.913 406.464 67C407.568 65.087 406.913 62.641 405 61.537C403.087 60.432 400.641 61.088 399.536 63C398.432 64.913 399.087 67.359 401 68.464Z" fill="#73FFF5"/>
<path opacity="0.5" d="M402.5 65.866C402.978 66.142 403.59 65.978 403.866 65.5C404.142 65.022 403.978 64.41 403.5 64.134C403.022 63.858 402.41 64.022 402.134 64.5C401.858 64.978 402.022 65.59 402.5 65.866Z" fill="#73FFF5"/>
<path opacity="0.7" d="M399 149H335C332.791 149 331 150.791 331 153C331 155.209 332.791 157 335 157H399C401.209 157 403 155.209 403 153C403 150.791 401.209 149 399 149Z" fill="url(#paint5_linear)"/>
<path opacity="0.5" d="M397 156.464C398.913 157.568 401.359 156.913 402.464 155C403.568 153.087 402.913 150.641 401 149.537C399.087 148.432 396.641 149.088 395.536 151C394.432 152.913 395.087 155.359 397 156.464Z" fill="#73FFF5"/>
<path opacity="0.5" d="M398.5 153.866C398.978 154.142 399.59 153.978 399.866 153.5C400.142 153.022 399.978 152.41 399.5 152.134C399.022 151.858 398.41 152.022 398.134 152.5C397.858 152.978 398.022 153.59 398.5 153.866Z" fill="#73FFF5"/>
<path opacity="0.7" d="M275 189H211C208.791 189 207 190.791 207 193C207 195.209 208.791 197 211 197H275C277.209 197 279 195.209 279 193C279 190.791 277.209 189 275 189Z" fill="url(#paint6_linear)"/>
<path opacity="0.5" d="M273 196.464C274.913 197.568 277.359 196.913 278.464 195C279.568 193.087 278.913 190.641 277 189.536C275.087 188.432 272.641 189.087 271.536 191C270.432 192.913 271.087 195.359 273 196.464Z" fill="#73FFF5"/>
<path opacity="0.5" d="M274.5 193.866C274.978 194.142 275.59 193.978 275.866 193.5C276.142 193.022 275.978 192.41 275.5 192.134C275.022 191.858 274.41 192.022 274.134 192.5C273.858 192.978 274.022 193.59 274.5 193.866Z" fill="#73FFF5"/>
<path opacity="0.7" d="M308 128H244C241.791 128 240 129.791 240 132C240 134.209 241.791 136 244 136H308C310.209 136 312 134.209 312 132C312 129.791 310.209 128 308 128Z" fill="url(#paint7_linear)"/>
<path opacity="0.5" d="M306 135.464C307.913 136.568 310.359 135.913 311.464 134C312.568 132.087 311.913 129.641 310 128.537C308.087 127.432 305.641 128.088 304.536 130C303.432 131.913 304.087 134.359 306 135.464Z" fill="#73FFF5"/>
<path opacity="0.5" d="M307.5 132.866C307.978 133.142 308.59 132.978 308.866 132.5C309.142 132.022 308.978 131.41 308.5 131.134C308.022 130.858 307.41 131.022 307.134 131.5C306.858 131.978 307.022 132.59 307.5 132.866Z" fill="#73FFF5"/>
<path opacity="0.7" d="M344 169H280C277.791 169 276 170.791 276 173C276 175.209 277.791 177 280 177H344C346.209 177 348 175.209 348 173C348 170.791 346.209 169 344 169Z" fill="url(#paint8_linear)"/>
<path opacity="0.5" d="M342 176.464C343.913 177.568 346.359 176.913 347.464 175C348.568 173.087 347.913 170.641 346 169.536C344.087 168.432 341.641 169.087 340.536 171C339.432 172.913 340.087 175.359 342 176.464Z" fill="#73FFF5"/>
<path opacity="0.5" d="M343.5 173.866C343.978 174.142 344.59 173.978 344.866 173.5C345.142 173.022 344.978 172.41 344.5 172.134C344.022 171.858 343.41 172.022 343.134 172.5C342.858 172.978 343.022 173.59 343.5 173.866Z" fill="#73FFF5"/>
<path opacity="0.7" d="M380 109H316C313.791 109 312 110.791 312 113C312 115.209 313.791 117 316 117H380C382.209 117 384 115.209 384 113C384 110.791 382.209 109 380 109Z" fill="url(#paint9_linear)"/>
<path opacity="0.5" d="M378 116.464C379.913 117.568 382.359 116.913 383.464 115C384.568 113.087 383.913 110.641 382 109.537C380.087 108.432 377.641 109.088 376.536 111C375.432 112.913 376.087 115.359 378 116.464Z" fill="#73FFF5"/>
<path opacity="0.5" d="M379.5 113.866C379.978 114.142 380.59 113.978 380.866 113.5C381.142 113.022 380.978 112.41 380.5 112.134C380.022 111.858 379.41 112.022 379.134 112.5C378.858 112.978 379.022 113.59 379.5 113.866Z" fill="#73FFF5"/>
<path opacity="0.7" d="M308 72H244C241.791 72 240 73.7909 240 76C240 78.2091 241.791 80 244 80H308C310.209 80 312 78.2091 312 76C312 73.7909 310.209 72 308 72Z" fill="url(#paint10_linear)"/>
<path opacity="0.5" d="M306 79.464C307.913 80.568 310.359 79.913 311.464 78C312.568 76.087 311.913 73.641 310 72.537C308.087 71.432 305.641 72.088 304.536 74C303.432 75.913 304.087 78.359 306 79.464Z" fill="#73FFF5"/>
<path opacity="0.5" d="M307.5 76.866C307.978 77.142 308.59 76.978 308.866 76.5C309.142 76.022 308.978 75.41 308.5 75.134C308.022 74.858 307.41 75.022 307.134 75.5C306.858 75.978 307.022 76.59 307.5 76.866Z" fill="#73FFF5"/>
<path opacity="0.7" d="M250 103H186C183.791 103 182 104.791 182 107C182 109.209 183.791 111 186 111H250C252.209 111 254 109.209 254 107C254 104.791 252.209 103 250 103Z" fill="url(#paint11_linear)"/>
<path opacity="0.5" d="M248 110.464C249.913 111.568 252.359 110.913 253.464 109C254.568 107.087 253.913 104.641 252 103.537C250.087 102.432 247.641 103.088 246.536 105C245.432 106.913 246.087 109.359 248 110.464Z" fill="#73FFF5"/>
<path opacity="0.5" d="M249.5 107.866C249.978 108.142 250.59 107.978 250.866 107.5C251.142 107.022 250.978 106.41 250.5 106.134C250.022 105.858 249.41 106.022 249.134 106.5C248.858 106.978 249.022 107.59 249.5 107.866Z" fill="#73FFF5"/>
<path opacity="0.7" d="M228 149H164C161.791 149 160 150.791 160 153C160 155.209 161.791 157 164 157H228C230.209 157 232 155.209 232 153C232 150.791 230.209 149 228 149Z" fill="url(#paint12_linear)"/>
<path opacity="0.5" d="M226 156.464C227.913 157.568 230.359 156.913 231.464 155C232.568 153.087 231.913 150.641 230 149.537C228.087 148.432 225.641 149.088 224.536 151C223.432 152.913 224.087 155.359 226 156.464Z" fill="#73FFF5"/>
<path opacity="0.5" d="M227.5 153.866C227.978 154.142 228.59 153.978 228.866 153.5C229.142 153.022 228.978 152.41 228.5 152.134C228.022 151.858 227.41 152.022 227.134 152.5C226.858 152.978 227.022 153.59 227.5 153.866Z" fill="#73FFF5"/>
<path opacity="0.7" d="M192 177H128C125.791 177 124 178.791 124 181C124 183.209 125.791 185 128 185H192C194.209 185 196 183.209 196 181C196 178.791 194.209 177 192 177Z" fill="url(#paint13_linear)"/>
<path opacity="0.5" d="M190 184.464C191.913 185.568 194.359 184.913 195.464 183C196.568 181.087 195.913 178.641 194 177.536C192.087 176.432 189.641 177.087 188.536 179C187.432 180.913 188.087 183.359 190 184.464Z" fill="#73FFF5"/>
<path opacity="0.5" d="M191.5 181.866C191.978 182.142 192.59 181.978 192.866 181.5C193.142 181.022 192.978 180.41 192.5 180.134C192.022 179.858 191.41 180.022 191.134 180.5C190.858 180.978 191.022 181.59 191.5 181.866Z" fill="#73FFF5"/>
<path opacity="0.7" d="M164 132H100C97.7909 132 96 133.791 96 136C96 138.209 97.7909 140 100 140H164C166.209 140 168 138.209 168 136C168 133.791 166.209 132 164 132Z" fill="url(#paint14_linear)"/>
<path opacity="0.5" d="M162 139.464C163.913 140.568 166.359 139.913 167.464 138C168.568 136.087 167.913 133.641 166 132.537C164.087 131.432 161.641 132.088 160.536 134C159.432 135.913 160.087 138.359 162 139.464Z" fill="#73FFF5"/>
<path opacity="0.5" d="M163.5 136.866C163.978 137.142 164.59 136.978 164.866 136.5C165.142 136.022 164.978 135.41 164.5 135.134C164.022 134.858 163.41 135.022 163.134 135.5C162.858 135.978 163.022 136.59 163.5 136.866Z" fill="#73FFF5"/>
<path opacity="0.7" d="M184 80H120C117.791 80 116 81.7909 116 84C116 86.2091 117.791 88 120 88H184C186.209 88 188 86.2091 188 84C188 81.7909 186.209 80 184 80Z" fill="url(#paint15_linear)"/>
<path opacity="0.5" d="M182 87.464C183.913 88.568 186.359 87.913 187.464 86C188.568 84.087 187.913 81.641 186 80.537C184.087 79.432 181.641 80.088 180.536 82C179.432 83.913 180.087 86.359 182 87.464Z" fill="#73FFF5"/>
<path opacity="0.5" d="M183.5 84.866C183.978 85.142 184.59 84.978 184.866 84.5C185.142 84.022 184.978 83.41 184.5 83.134C184.022 82.858 183.41 83.022 183.134 83.5C182.858 83.978 183.022 84.59 183.5 84.866Z" fill="#73FFF5"/>
<path opacity="0.7" d="M137 29.0001H73C70.7909 29.0001 69 30.791 69 33.0001C69 35.2093 70.7909 37.0001 73 37.0001H137C139.209 37.0001 141 35.2093 141 33.0001C141 30.791 139.209 29.0001 137 29.0001Z" fill="url(#paint16_linear)"/>
<path opacity="0.5" d="M135 36.4636C136.913 37.568 139.359 36.9126 140.464 34.9997C141.568 33.0869 140.913 30.6409 139 29.5365C137.087 28.4322 134.641 29.0875 133.536 31.0004C132.432 32.9132 133.087 35.3592 135 36.4636Z" fill="#73FFF5"/>
<path opacity="0.5" d="M136.5 33.8659C136.978 34.142 137.59 33.9781 137.866 33.4999C138.142 33.0217 137.978 32.4102 137.5 32.1341C137.022 31.858 136.41 32.0219 136.134 32.5001C135.858 32.9783 136.022 33.5898 136.5 33.8659Z" fill="#73FFF5"/>
<path opacity="0.7" d="M128 193H64C61.7909 193 60 194.791 60 197C60 199.209 61.7909 201 64 201H128C130.209 201 132 199.209 132 197C132 194.791 130.209 193 128 193Z" fill="url(#paint17_linear)"/>
<path opacity="0.5" d="M126 200.464C127.913 201.568 130.359 200.913 131.464 199C132.568 197.087 131.913 194.641 130 193.536C128.087 192.432 125.641 193.087 124.536 195C123.432 196.913 124.087 199.359 126 200.464Z" fill="#73FFF5"/>
<path opacity="0.5" d="M127.5 197.866C127.978 198.142 128.59 197.978 128.866 197.5C129.142 197.022 128.978 196.41 128.5 196.134C128.022 195.858 127.41 196.022 127.134 196.5C126.858 196.978 127.022 197.59 127.5 197.866Z" fill="#73FFF5"/>
<path opacity="0.7" d="M244 54H180C177.791 54 176 55.7909 176 58C176 60.2091 177.791 62 180 62H244C246.209 62 248 60.2091 248 58C248 55.7909 246.209 54 244 54Z" fill="url(#paint18_linear)"/>
<path opacity="0.5" d="M242 61.464C243.913 62.568 246.359 61.913 247.464 60C248.568 58.087 247.913 55.641 246 54.537C244.087 53.432 241.641 54.088 240.536 56C239.432 57.913 240.087 60.359 242 61.464Z" fill="#73FFF5"/>
<path opacity="0.5" d="M243.5 58.866C243.978 59.142 244.59 58.978 244.866 58.5C245.142 58.022 244.978 57.41 244.5 57.134C244.022 56.858 243.41 57.022 243.134 57.5C242.858 57.978 243.022 58.59 243.5 58.866Z" fill="#73FFF5"/>
<path opacity="0.7" d="M425 180H361C358.791 180 357 181.791 357 184C357 186.209 358.791 188 361 188H425C427.209 188 429 186.209 429 184C429 181.791 427.209 180 425 180Z" fill="url(#paint19_linear)"/>
<path opacity="0.5" d="M423 187.464C424.913 188.568 427.359 187.913 428.464 186C429.568 184.087 428.913 181.641 427 180.536C425.087 179.432 422.641 180.087 421.536 182C420.432 183.913 421.087 186.359 423 187.464Z" fill="#73FFF5"/>
<path opacity="0.5" d="M424.5 184.866C424.978 185.142 425.59 184.978 425.866 184.5C426.142 184.022 425.978 183.41 425.5 183.134C425.022 182.858 424.41 183.022 424.134 183.5C423.858 183.978 424.022 184.59 424.5 184.866Z" fill="#73FFF5"/>
<path opacity="0.7" d="M445 90H381C378.791 90 377 91.7909 377 94C377 96.2091 378.791 98 381 98H445C447.209 98 449 96.2091 449 94C449 91.7909 447.209 90 445 90Z" fill="url(#paint20_linear)"/>
<path opacity="0.5" d="M443 97.464C444.913 98.568 447.359 97.913 448.464 96C449.568 94.087 448.913 91.641 447 90.537C445.087 89.432 442.641 90.088 441.536 92C440.432 93.913 441.087 96.359 443 97.464Z" fill="#73FFF5"/>
<path opacity="0.5" d="M444.5 94.866C444.978 95.142 445.59 94.978 445.866 94.5C446.142 94.022 445.978 93.41 445.5 93.134C445.022 92.858 444.41 93.022 444.134 93.5C443.858 93.978 444.022 94.59 444.5 94.866Z" fill="#73FFF5"/>
<path opacity="0.7" d="M475 127H411C408.791 127 407 128.791 407 131C407 133.209 408.791 135 411 135H475C477.209 135 479 133.209 479 131C479 128.791 477.209 127 475 127Z" fill="url(#paint21_linear)"/>
<path opacity="0.5" d="M473 134.464C474.913 135.568 477.359 134.913 478.464 133C479.568 131.087 478.913 128.641 477 127.537C475.087 126.432 472.641 127.088 471.536 129C470.432 130.913 471.087 133.359 473 134.464Z" fill="#73FFF5"/>
<path opacity="0.5" d="M474.5 131.866C474.978 132.142 475.59 131.978 475.866 131.5C476.142 131.022 475.978 130.41 475.5 130.134C475.022 129.858 474.41 130.022 474.134 130.5C473.858 130.978 474.022 131.59 474.5 131.866Z" fill="#73FFF5"/>
<path d="M1108.91 124L1106.42 118.6C1104.55 114.541 1105.65 109.783 1108.81 107.029C1110.78 105.315 1112.66 103.489 1114.39 101.504L1114.83 101L1115.85 102.414C1117.1 104.158 1118.06 106.013 1118.63 107.893L1108.91 124Z" fill="#00AA95"/>
<path d="M1124.1 107.735L1123.77 105.997C1122.14 110.049 1117.94 112.202 1115.53 114.998C1111.32 119.888 1108.91 124 1108.91 124H1111.4C1122.48 124 1125.71 116.149 1124.1 107.735Z" fill="#00CC76"/>
<path d="M1123.77 105.997L1123.17 106.251C1121.68 106.876 1120.16 107.417 1118.63 107.893C1117.71 108.177 1116.79 108.437 1115.86 108.677C1111.87 109.71 1108.91 113.493 1108.91 118.002V124C1108.91 124 1119.27 117.136 1123.77 105.997Z" fill="#A5E887"/>
<path d="M1101.45 101.599C1099.95 101.599 1098.74 100.386 1098.74 98.89V94.709C1098.74 93.213 1099.95 92 1101.45 92C1102.94 92 1104.15 93.213 1104.15 94.709V98.89C1104.15 100.386 1102.94 101.599 1101.45 101.599Z" fill="#0048FF"/>
<path d="M1101.45 124C1099.95 124 1098.74 122.787 1098.74 121.291V117.11C1098.74 115.614 1099.95 114.401 1101.45 114.401C1102.94 114.401 1104.15 115.614 1104.15 117.11V121.291C1104.15 122.787 1102.94 124 1101.45 124Z" fill="#0048FF"/>
<path d="M1103.16 105.291H1099.76C1098.75 105.291 1097.92 104.463 1097.92 103.445C1097.92 102.427 1098.75 101.599 1099.76 101.599H1106.66C1108.15 101.599 1109.37 100.386 1109.37 98.89C1109.37 97.394 1108.15 96.181 1106.66 96.181H1099.76C1095.76 96.181 1092.5 99.44 1092.5 103.445C1092.5 107.45 1095.76 110.709 1099.76 110.709H1103.16C1104.18 110.709 1105.01 111.537 1105.01 112.555C1105.01 113.573 1104.18 114.401 1103.16 114.401H1096.51C1095.01 114.401 1093.8 115.614 1093.8 117.11C1093.8 118.606 1095.01 119.819 1096.51 119.819H1103.16C1107.17 119.819 1110.43 116.56 1110.43 112.555C1110.43 108.55 1107.17 105.291 1103.16 105.291Z" fill="#CCDAFF"/>
<path d="M1096.91 117.11C1096.91 115.614 1098.13 114.401 1099.62 114.401H1096.51C1095.01 114.401 1093.8 115.614 1093.8 117.11C1093.8 118.606 1095.01 119.819 1096.51 119.819H1099.62C1098.13 119.819 1096.91 118.606 1096.91 117.11Z" fill="#99B6FF"/>
<path d="M1105 108.854C1102.1 106.081 1095.75 109.93 1092.84 101.237C1092.62 101.934 1092.5 102.676 1092.5 103.445C1092.5 107.45 1095.76 110.709 1099.76 110.709H1103.16C1104.18 110.709 1105.01 111.537 1105.01 112.555C1105.01 113.071 1104.8 113.537 1104.46 113.873C1104.46 113.873 1107.93 111.657 1105 108.854Z" fill="#99B6FF"/>
<path d="M1083.08 140.1C1083.08 140.8 1082.94 141.463 1082.67 142.088C1082.4 142.704 1082.03 143.241 1081.57 143.698C1081.11 144.146 1080.56 144.501 1079.93 144.762C1079.29 145.023 1078.61 145.154 1077.89 145.154C1077.17 145.154 1076.49 145.023 1075.86 144.762C1075.22 144.501 1074.67 144.146 1074.2 143.698C1073.75 143.241 1073.38 142.704 1073.11 142.088C1072.84 141.463 1072.71 140.8 1072.71 140.1C1072.71 139.4 1072.84 138.742 1073.11 138.126C1073.38 137.501 1073.75 136.964 1074.2 136.516C1074.67 136.059 1075.22 135.699 1075.86 135.438C1076.49 135.177 1077.17 135.046 1077.89 135.046C1078.61 135.046 1079.29 135.177 1079.93 135.438C1080.56 135.699 1081.11 136.059 1081.57 136.516C1082.03 136.964 1082.4 137.501 1082.67 138.126C1082.94 138.742 1083.08 139.4 1083.08 140.1ZM1080.99 140.1C1080.99 139.643 1080.91 139.223 1080.76 138.84C1080.6 138.448 1080.38 138.112 1080.1 137.832C1079.83 137.543 1079.5 137.319 1079.12 137.16C1078.73 136.992 1078.32 136.908 1077.89 136.908C1077.45 136.908 1077.04 136.992 1076.65 137.16C1076.28 137.319 1075.95 137.543 1075.67 137.832C1075.4 138.112 1075.19 138.448 1075.03 138.84C1074.87 139.223 1074.79 139.643 1074.79 140.1C1074.79 140.548 1074.87 140.968 1075.03 141.36C1075.19 141.752 1075.4 142.093 1075.67 142.382C1075.95 142.662 1076.28 142.886 1076.65 143.054C1077.04 143.213 1077.45 143.292 1077.89 143.292C1078.32 143.292 1078.73 143.213 1079.12 143.054C1079.5 142.886 1079.83 142.662 1080.1 142.382C1080.38 142.093 1080.6 141.752 1080.76 141.36C1080.91 140.968 1080.99 140.548 1080.99 140.1ZM1093 140.758C1093 141.421 1092.9 142.027 1092.69 142.578C1092.48 143.119 1092.19 143.581 1091.81 143.964C1091.43 144.337 1090.98 144.627 1090.44 144.832C1089.9 145.037 1089.31 145.14 1088.66 145.14C1088 145.14 1087.39 145.037 1086.85 144.832C1086.32 144.627 1085.87 144.337 1085.49 143.964C1085.12 143.581 1084.83 143.119 1084.63 142.578C1084.42 142.037 1084.32 141.43 1084.32 140.758V135.2H1086.35V140.758C1086.35 141.514 1086.56 142.121 1086.98 142.578C1087.41 143.035 1087.97 143.264 1088.67 143.264C1089.37 143.264 1089.93 143.035 1090.34 142.578C1090.76 142.121 1090.97 141.514 1090.97 140.758V135.2H1093V140.758ZM1093.99 136.992V135.2H1102.61V136.992H1099.32V145H1097.29V136.992H1093.99ZM1108.05 143.264C1108.56 143.264 1109.04 143.157 1109.49 142.942C1109.94 142.727 1110.33 142.419 1110.68 142.018L1112.01 143.334C1111.54 143.885 1110.95 144.323 1110.22 144.65C1109.5 144.977 1108.76 145.14 1107.99 145.14C1107.25 145.14 1106.56 145.009 1105.92 144.748C1105.28 144.487 1104.73 144.132 1104.27 143.684C1103.8 143.236 1103.43 142.704 1103.16 142.088C1102.9 141.472 1102.77 140.809 1102.77 140.1C1102.77 139.391 1102.9 138.728 1103.18 138.112C1103.45 137.487 1103.81 136.95 1104.28 136.502C1104.75 136.054 1105.3 135.699 1105.93 135.438C1106.58 135.177 1107.26 135.046 1107.99 135.046C1108.78 135.046 1109.54 135.214 1110.27 135.55C1111.01 135.877 1111.61 136.32 1112.07 136.88L1110.69 138.238C1110.35 137.809 1109.94 137.482 1109.48 137.258C1109.01 137.025 1108.51 136.908 1107.99 136.908C1107.55 136.908 1107.14 136.992 1106.75 137.16C1106.36 137.319 1106.03 137.543 1105.75 137.832C1105.47 138.112 1105.25 138.448 1105.09 138.84C1104.93 139.223 1104.86 139.643 1104.86 140.1C1104.86 140.548 1104.93 140.968 1105.09 141.36C1105.26 141.743 1105.49 142.074 1105.77 142.354C1106.05 142.634 1106.39 142.858 1106.77 143.026C1107.17 143.185 1107.59 143.264 1108.05 143.264ZM1122.92 140.1C1122.92 140.8 1122.78 141.463 1122.51 142.088C1122.24 142.704 1121.87 143.241 1121.41 143.698C1120.95 144.146 1120.4 144.501 1119.77 144.762C1119.13 145.023 1118.45 145.154 1117.73 145.154C1117.01 145.154 1116.33 145.023 1115.7 144.762C1115.06 144.501 1114.51 144.146 1114.04 143.698C1113.59 143.241 1113.22 142.704 1112.95 142.088C1112.68 141.463 1112.55 140.8 1112.55 140.1C1112.55 139.4 1112.68 138.742 1112.95 138.126C1113.22 137.501 1113.59 136.964 1114.04 136.516C1114.51 136.059 1115.06 135.699 1115.7 135.438C1116.33 135.177 1117.01 135.046 1117.73 135.046C1118.45 135.046 1119.13 135.177 1119.77 135.438C1120.4 135.699 1120.95 136.059 1121.41 136.516C1121.87 136.964 1122.24 137.501 1122.51 138.126C1122.78 138.742 1122.92 139.4 1122.92 140.1ZM1120.83 140.1C1120.83 139.643 1120.75 139.223 1120.6 138.84C1120.44 138.448 1120.22 138.112 1119.94 137.832C1119.67 137.543 1119.34 137.319 1118.96 137.16C1118.57 136.992 1118.16 136.908 1117.73 136.908C1117.29 136.908 1116.88 136.992 1116.49 137.16C1116.12 137.319 1115.79 137.543 1115.51 137.832C1115.24 138.112 1115.03 138.448 1114.87 138.84C1114.71 139.223 1114.63 139.643 1114.63 140.1C1114.63 140.548 1114.71 140.968 1114.87 141.36C1115.03 141.752 1115.24 142.093 1115.51 142.382C1115.79 142.662 1116.12 142.886 1116.49 143.054C1116.88 143.213 1117.29 143.292 1117.73 143.292C1118.16 143.292 1118.57 143.213 1118.96 143.054C1119.34 142.886 1119.67 142.662 1119.94 142.382C1120.22 142.093 1120.44 141.752 1120.6 141.36C1120.75 140.968 1120.83 140.548 1120.83 140.1ZM1129.58 144.3L1126.19 137.79V145H1124.31V135.2H1126.92L1129.6 140.464L1132.29 135.2H1134.9V145H1132.98V137.804L1129.58 144.3ZM1136.66 145V135.2H1144.19V136.964H1138.69V139.204H1142.31V140.912H1138.69V143.236H1144.25V145H1136.66Z" fill="white"/>
<path d="M957.64 124L961.79 108.638H952.43L958.25 92H971.43L965.61 102.113H976.57L957.64 124Z" fill="#99B6FF"/>
<path d="M957.64 124L968.11 105.213H958.93L964.5 92H971.43L965.61 102.113H976.57L957.64 124Z" fill="#0048FF"/>
<path d="M937.09 149L941.12 139.2H943.47L947.45 149H945.25L944.25 146.424H940.21L939.2 149H937.09ZM940.84 144.8H943.64L942.25 141.188L940.84 144.8ZM952.63 147.264C953.14 147.264 953.63 147.157 954.07 146.942C954.52 146.727 954.92 146.419 955.26 146.018L956.59 147.334C956.13 147.885 955.53 148.323 954.8 148.65C954.08 148.977 953.34 149.14 952.58 149.14C951.84 149.14 951.15 149.009 950.5 148.748C949.87 148.487 949.32 148.132 948.85 147.684C948.38 147.236 948.02 146.704 947.75 146.088C947.48 145.472 947.35 144.809 947.35 144.1C947.35 143.391 947.49 142.728 947.76 142.112C948.03 141.487 948.4 140.95 948.87 140.502C949.33 140.054 949.88 139.699 950.52 139.438C951.16 139.177 951.85 139.046 952.58 139.046C953.36 139.046 954.12 139.214 954.86 139.55C955.59 139.877 956.19 140.32 956.65 140.88L955.28 142.238C954.93 141.809 954.53 141.482 954.06 141.258C953.59 141.025 953.1 140.908 952.58 140.908C952.14 140.908 951.72 140.992 951.33 141.16C950.95 141.319 950.62 141.543 950.34 141.832C950.06 142.112 949.84 142.448 949.68 142.84C949.52 143.223 949.44 143.643 949.44 144.1C949.44 144.548 949.52 144.968 949.68 145.36C949.85 145.743 950.07 146.074 950.35 146.354C950.64 146.634 950.97 146.858 951.36 147.026C951.75 147.185 952.17 147.264 952.63 147.264ZM957.29 140.992V139.2H965.91V140.992H962.62V149H960.59V140.992H957.29ZM967.05 149V139.2H969.08V149H967.05ZM980.86 144.1C980.86 144.8 980.73 145.463 980.45 146.088C980.18 146.704 979.82 147.241 979.35 147.698C978.89 148.146 978.35 148.501 977.71 148.762C977.08 149.023 976.39 149.154 975.67 149.154C974.95 149.154 974.27 149.023 973.64 148.762C973 148.501 972.45 148.146 971.98 147.698C971.53 147.241 971.16 146.704 970.89 146.088C970.62 145.463 970.49 144.8 970.49 144.1C970.49 143.4 970.62 142.742 970.89 142.126C971.16 141.501 971.53 140.964 971.98 140.516C972.45 140.059 973 139.699 973.64 139.438C974.27 139.177 974.95 139.046 975.67 139.046C976.39 139.046 977.08 139.177 977.71 139.438C978.35 139.699 978.89 140.059 979.35 140.516C979.82 140.964 980.18 141.501 980.45 142.126C980.73 142.742 980.86 143.4 980.86 144.1ZM978.77 144.1C978.77 143.643 978.7 143.223 978.54 142.84C978.38 142.448 978.16 142.112 977.88 141.832C977.61 141.543 977.28 141.319 976.9 141.16C976.52 140.992 976.11 140.908 975.67 140.908C975.23 140.908 974.82 140.992 974.43 141.16C974.06 141.319 973.73 141.543 973.45 141.832C973.18 142.112 972.97 142.448 972.81 142.84C972.65 143.223 972.57 143.643 972.57 144.1C972.57 144.548 972.65 144.968 972.81 145.36C972.97 145.752 973.18 146.093 973.45 146.382C973.73 146.662 974.06 146.886 974.43 147.054C974.82 147.213 975.23 147.292 975.67 147.292C976.11 147.292 976.52 147.213 976.9 147.054C977.28 146.886 977.61 146.662 977.88 146.382C978.16 146.093 978.38 145.752 978.54 145.36C978.7 144.968 978.77 144.548 978.77 144.1ZM982.25 139.2H984.19L989.06 145.542V139.2H990.96V149H989.17L984.17 142.448V149H982.25V139.2Z" fill="white"/>
<path d="M800.103 149V139.2H802.133V149H800.103ZM803.917 139.2H805.849L810.721 145.542V139.2H812.625V149H810.833L805.835 142.448V149H803.917V139.2ZM813.563 147.446L814.725 145.99C815.295 146.485 815.841 146.849 816.363 147.082C816.895 147.306 817.455 147.418 818.043 147.418C818.65 147.418 819.135 147.306 819.499 147.082C819.863 146.858 820.045 146.559 820.045 146.186C820.045 145.85 819.919 145.589 819.667 145.402C819.425 145.215 819.014 145.075 818.435 144.982L816.489 144.646C815.649 144.506 815.01 144.212 814.571 143.764C814.142 143.316 813.927 142.737 813.927 142.028C813.927 141.113 814.273 140.39 814.963 139.858C815.663 139.326 816.606 139.06 817.791 139.06C818.501 139.06 819.215 139.181 819.933 139.424C820.661 139.667 821.296 140.003 821.837 140.432L820.745 141.944C820.223 141.543 819.709 141.249 819.205 141.062C818.701 140.866 818.183 140.768 817.651 140.768C817.11 140.768 816.676 140.871 816.349 141.076C816.023 141.272 815.859 141.538 815.859 141.874C815.859 142.173 815.967 142.406 816.181 142.574C816.396 142.742 816.755 142.863 817.259 142.938L819.107 143.246C820.078 143.405 820.806 143.717 821.291 144.184C821.786 144.641 822.033 145.248 822.033 146.004C822.033 146.956 821.655 147.717 820.899 148.286C820.153 148.855 819.154 149.14 817.903 149.14C817.119 149.14 816.345 148.991 815.579 148.692C814.823 148.393 814.151 147.978 813.563 147.446ZM823.249 149V139.2H825.279V149H823.249ZM836.794 144.114C836.794 144.833 836.668 145.505 836.416 146.13C836.173 146.746 835.832 147.278 835.394 147.726C834.964 148.165 834.446 148.515 833.84 148.776C833.233 149.028 832.58 149.154 831.88 149.154C831.152 149.154 830.47 149.023 829.836 148.762C829.201 148.501 828.65 148.146 828.184 147.698C827.726 147.241 827.362 146.704 827.092 146.088C826.821 145.472 826.686 144.809 826.686 144.1C826.686 143.391 826.816 142.728 827.078 142.112C827.348 141.496 827.712 140.964 828.17 140.516C828.636 140.059 829.187 139.699 829.822 139.438C830.456 139.177 831.133 139.046 831.852 139.046C832.664 139.046 833.429 139.209 834.148 139.536C834.866 139.863 835.459 140.311 835.926 140.88L834.512 142.182C834.166 141.771 833.765 141.459 833.308 141.244C832.86 141.02 832.374 140.908 831.852 140.908C831.413 140.908 831.002 140.992 830.62 141.16C830.246 141.319 829.92 141.543 829.64 141.832C829.369 142.112 829.154 142.448 828.996 142.84C828.846 143.223 828.772 143.643 828.772 144.1C828.772 144.557 828.851 144.982 829.01 145.374C829.168 145.766 829.388 146.107 829.668 146.396C829.948 146.676 830.279 146.9 830.662 147.068C831.054 147.227 831.469 147.306 831.908 147.306C832.598 147.306 833.191 147.115 833.686 146.732C834.19 146.349 834.502 145.859 834.624 145.262H831.726V143.498H836.794V144.114ZM838.179 149V139.2H840.209V143.134H844.717V139.2H846.747V149H844.717V144.996H840.209V149H838.179ZM847.898 140.992V139.2H856.522V140.992H853.232V149H851.202V140.992H847.898Z" fill="white"/>
<path d="M830.604 116.467C831.004 115.133 831.804 113.933 832.871 113C834.871 111.333 836.138 108.8 836.138 106C836.138 100.8 831.804 96.533 826.471 96.8C821.738 97 817.871 101 817.738 105.733C817.671 108.667 818.938 111.267 821.004 113C822.138 113.933 822.938 115.133 823.338 116.467H830.604Z" fill="#CCDAFF"/>
<path d="M826.071 116.6H826.671L824.004 106.667C824.071 106.667 824.137 106.667 824.204 106.667C824.537 106.667 824.871 106.533 825.137 106.267C825.271 106.133 825.404 106.067 825.604 106.067C825.804 106.067 825.937 106.133 826.071 106.267C826.537 106.8 827.337 106.8 827.804 106.267C827.937 106.133 828.071 106.067 828.271 106.067C828.404 106.067 828.604 106.133 828.737 106.267C829.004 106.533 829.271 106.667 829.671 106.667C829.737 106.667 829.804 106.667 829.871 106.667L827.271 116.6H827.871L830.604 106.2C830.604 106.067 830.604 105.933 830.471 105.867C830.337 105.8 830.204 105.867 830.137 105.933C830.004 106.067 829.871 106.133 829.737 106.133C829.537 106.133 829.404 106.067 829.204 105.933C828.937 105.667 828.671 105.533 828.337 105.533C828.004 105.533 827.737 105.667 827.471 105.933C827.204 106.2 826.804 106.2 826.537 105.933C826.337 105.667 826.004 105.533 825.671 105.533C825.337 105.533 825.004 105.667 824.804 105.933C824.671 106.067 824.471 106.133 824.271 106.133C824.137 106.133 823.937 106.067 823.871 105.933C823.804 105.867 823.671 105.8 823.537 105.867C823.404 105.933 823.337 106.067 823.404 106.2L826.071 116.6Z" fill="#0048FF"/>
<path d="M824.871 122.6C825.204 123.4 826.004 124 826.937 124C827.871 124 828.671 123.4 829.004 122.6H824.871Z" fill="#0048FF"/>
<path d="M829.404 122.667H824.537C823.871 122.667 823.337 122.133 823.337 121.467V116.4H830.604V121.467C830.604 122.133 830.071 122.667 829.404 122.667Z" fill="#0048FF"/>
<path d="M830.538 118.933H823.338C822.938 118.933 822.604 118.6 822.604 118.2C822.604 117.8 822.938 117.467 823.338 117.467H830.538C830.938 117.467 831.271 117.8 831.271 118.2C831.271 118.6 830.938 118.933 830.538 118.933Z" fill="#99B6FF"/>
<path d="M830.538 121.267H823.338C822.938 121.267 822.604 120.933 822.604 120.533C822.604 120.133 822.938 119.8 823.338 119.8H830.538C830.938 119.8 831.271 120.133 831.271 120.533C831.271 120.933 830.938 121.267 830.538 121.267Z" fill="#99B6FF"/>
<path d="M826.936 92C826.603 92 826.271 92.267 826.271 92.667V94.933C826.271 95.267 826.537 95.6 826.936 95.6C827.335 95.6 827.601 95.333 827.601 94.933V92.667C827.601 92.267 827.269 92 826.936 92Z" fill="#CCDAFF"/>
<path d="M818.004 96.067C817.737 95.8 817.337 95.8 817.071 96.067C816.804 96.333 816.804 96.733 817.071 97L818.671 98.6C818.938 98.867 819.338 98.867 819.604 98.6C819.871 98.333 819.871 97.933 819.604 97.667L818.004 96.067Z" fill="#CCDAFF"/>
<path d="M815.937 105.267H813.671C813.337 105.267 813.004 105.533 813.004 105.933C813.004 106.267 813.271 106.6 813.671 106.6H815.937C816.271 106.6 816.604 106.333 816.604 105.933C816.604 105.6 816.271 105.267 815.937 105.267Z" fill="#CCDAFF"/>
<path d="M818.671 113.267L817.071 114.867C816.804 115.133 816.804 115.533 817.071 115.8C817.337 116.067 817.737 116.067 818.004 115.8L819.604 114.2C819.871 113.933 819.871 113.533 819.604 113.267C819.337 113 818.937 113 818.671 113.267Z" fill="#CCDAFF"/>
<path d="M835.204 113.267C834.937 113 834.537 113 834.271 113.267C834.004 113.533 834.004 113.933 834.271 114.2L835.871 115.8C836.137 116.067 836.537 116.067 836.804 115.8C837.071 115.533 837.071 115.133 836.804 114.867L835.204 113.267Z" fill="#CCDAFF"/>
<path d="M840.204 105.267H837.938C837.604 105.267 837.271 105.533 837.271 105.933C837.271 106.267 837.537 106.6 837.938 106.6H840.204C840.537 106.6 840.871 106.333 840.871 105.933C840.871 105.6 840.604 105.267 840.204 105.267Z" fill="#CCDAFF"/>
<path d="M835.871 96.067L834.271 97.667C834.004 97.933 834.004 98.333 834.271 98.6C834.537 98.867 834.937 98.867 835.204 98.6L836.804 97C837.071 96.733 837.071 96.333 836.804 96.067C836.537 95.8 836.137 95.8 835.871 96.067Z" fill="#CCDAFF"/>
<g style="mix-blend-mode:screen">
<path style="mix-blend-mode:screen" d="M706.5 202C722.792 202 736 167.75 736 125.5C736 83.25 722.792 49 706.5 49C690.208 49 677 83.25 677 125.5C677 167.75 690.208 202 706.5 202Z" fill="url(#paint22_radial)"/>
</g>
<g style="mix-blend-mode:color-dodge">
<path style="mix-blend-mode:color-dodge" d="M706.5 202C722.792 202 736 167.75 736 125.5C736 83.25 722.792 49 706.5 49C690.208 49 677 83.25 677 125.5C677 167.75 690.208 202 706.5 202Z" fill="url(#paint23_radial)"/>
</g>
<g style="mix-blend-mode:screen">
<path style="mix-blend-mode:screen" d="M516.5 202C532.792 202 546 167.75 546 125.5C546 83.25 532.792 49 516.5 49C500.208 49 487 83.25 487 125.5C487 167.75 500.208 202 516.5 202Z" fill="url(#paint24_radial)"/>
</g>
<g style="mix-blend-mode:color-dodge">
<path style="mix-blend-mode:color-dodge" d="M516.5 202C532.792 202 546 167.75 546 125.5C546 83.25 532.792 49 516.5 49C500.208 49 487 83.25 487 125.5C487 167.75 500.208 202 516.5 202Z" fill="url(#paint25_radial)"/>
</g>
<path opacity="0.6" d="M60 184C93.137 184 120 157.137 120 124C120 90.863 93.137 64 60 64C26.863 64 0 90.863 0 124C0 157.137 26.863 184 60 184Z" fill="url(#paint26_radial)"/>
<path d="M43.0811 149V139.2H46.8471C47.5751 139.2 48.2571 139.326 48.8911 139.578C49.5261 139.83 50.0721 140.175 50.5291 140.614C50.9961 141.053 51.3601 141.575 51.6211 142.182C51.8921 142.789 52.027 143.437 52.027 144.128C52.027 144.809 51.8921 145.449 51.6211 146.046C51.3601 146.643 50.9961 147.161 50.5291 147.6C50.0721 148.029 49.5261 148.37 48.8911 148.622C48.2571 148.874 47.5751 149 46.8471 149H43.0811ZM46.8331 141.006H45.1111V147.194H46.8331C47.263 147.194 47.6641 147.115 48.0371 146.956C48.4201 146.797 48.7511 146.583 49.0311 146.312C49.3111 146.032 49.5311 145.705 49.6891 145.332C49.8481 144.959 49.9271 144.557 49.9271 144.128C49.9271 143.689 49.8481 143.279 49.6891 142.896C49.5311 142.513 49.3111 142.182 49.0311 141.902C48.7511 141.622 48.4201 141.403 48.0371 141.244C47.6641 141.085 47.263 141.006 46.8331 141.006ZM51.9321 149L55.9641 139.2H58.316L62.2921 149H60.094L59.1001 146.424H55.0541L54.0461 149H51.9321ZM55.6841 144.8H58.484L57.0981 141.188L55.6841 144.8ZM60.58 140.992V139.2H69.204V140.992H65.914V149H63.884V140.992H60.58ZM67.491 149L71.523 139.2H73.875L77.851 149H75.653L74.659 146.424H70.613L69.605 149H67.491ZM71.243 144.8H74.043L72.657 141.188L71.243 144.8Z" fill="white"/>
<path d="M59.916 92.098C59.654 91.967 59.346 91.967 59.084 92.098L53.047 95.104L59.5 98.317L65.953 95.104L59.916 92.098Z" fill="#CCDAFF"/>
<path d="M60.434 108.707L67 105.438V96.668L60.434 99.938V108.707Z" fill="#B3C8FF"/>
<path d="M52 105.438L58.566 108.707V99.938L52 96.668V105.438Z" fill="#80A4FF"/>
<path d="M51.916 107.098C51.654 106.967 51.346 106.967 51.084 107.098L45.047 110.104L51.5 113.317L57.9531 110.104L51.916 107.098Z" fill="#CCDAFF"/>
<path d="M52.434 123.707L59 120.438V111.668L52.434 114.938V123.707Z" fill="#B3C8FF"/>
<path d="M44 120.438L50.5659 123.707V114.938L44 111.668V120.438Z" fill="#B3C8FF"/>
<path d="M68.916 107.098C68.654 106.967 68.346 106.967 68.084 107.098L62.047 110.104L68.5 113.317L74.953 110.104L68.916 107.098Z" fill="#CCDAFF"/>
<path d="M69.434 123.707L76 120.438V111.668L69.434 114.938V123.707Z" fill="#B3C8FF"/>
<path d="M61 120.438L67.566 123.707V114.938L61 111.668V120.438Z" fill="#80A4FF"/>
<defs>
<linearGradient id="paint0_linear" x1="720.457" y1="123.868" x2="927.11" y2="123.868" gradientUnits="userSpaceOnUse">
<stop offset="0.0194853" stop-color="#00F0FF"/>
<stop offset="1" stop-opacity="0"/>
</linearGradient>
<linearGradient id="paint1_linear" x1="493.543" y1="123.868" x2="286.893" y2="123.868" gradientUnits="userSpaceOnUse">
<stop offset="0.0194853" stop-color="#00F0FF"/>
<stop offset="1" stop-opacity="0"/>
</linearGradient>
<radialGradient id="paint2_radial" cx="0" cy="0" r="1" gradientUnits="userSpaceOnUse" gradientTransform="translate(582.129 107.21) scale(122.759)">
<stop stop-color="#180D5B"/>
<stop offset="0.1192" stop-color="#19125E"/>
<stop offset="0.2539" stop-color="#1C1F66"/>
<stop offset="0.3962" stop-color="#203674"/>
<stop offset="0.5437" stop-color="#265687"/>
<stop offset="0.6953" stop-color="#2E7EA0"/>
<stop offset="0.848" stop-color="#37AFBE"/>
<stop offset="1" stop-color="#42E8E0"/>
</radialGradient>
<radialGradient id="paint3_radial" cx="0" cy="0" r="1" gradientUnits="userSpaceOnUse" gradientTransform="translate(608 128) scale(128)">
<stop offset="0.5009"/>
<stop offset="0.7644" stop-color="#9DCCCF"/>
<stop offset="0.7864" stop-color="#82A9AC"/>
<stop offset="0.8228" stop-color="#5B7678"/>
<stop offset="0.8586" stop-color="#3A4C4D"/>
<stop offset="0.8931" stop-color="#212A2B"/>
<stop offset="0.9258" stop-color="#0F1313"/>
<stop offset="0.956" stop-color="#040505"/>
<stop offset="0.9815"/>
</radialGradient>
<linearGradient id="paint4_linear" x1="335" y1="65" x2="346.511" y2="38.6128" gradientUnits="userSpaceOnUse">
<stop stop-color="#120231" stop-opacity="0"/>
<stop offset="1" stop-color="#42E8E0"/>
</linearGradient>
<linearGradient id="paint5_linear" x1="331" y1="153" x2="342.511" y2="126.613" gradientUnits="userSpaceOnUse">
<stop stop-color="#120231" stop-opacity="0"/>
<stop offset="1" stop-color="#42E8E0"/>
</linearGradient>
<linearGradient id="paint6_linear" x1="207" y1="193" x2="218.511" y2="166.613" gradientUnits="userSpaceOnUse">
<stop stop-color="#120231" stop-opacity="0"/>
<stop offset="1" stop-color="#42E8E0"/>
</linearGradient>
<linearGradient id="paint7_linear" x1="240" y1="132" x2="251.511" y2="105.613" gradientUnits="userSpaceOnUse">
<stop stop-color="#120231"/>
<stop offset="0.1102" stop-color="#16133E"/>
<stop offset="0.3299" stop-color="#1F4161"/>
<stop offset="0.6386" stop-color="#2E8A99"/>
<stop offset="1" stop-color="#42E8E0"/>
</linearGradient>
<linearGradient id="paint8_linear" x1="276" y1="173" x2="287.511" y2="146.613" gradientUnits="userSpaceOnUse">
<stop stop-color="#120231" stop-opacity="0"/>
<stop offset="1" stop-color="#42E8E0"/>
</linearGradient>
<linearGradient id="paint9_linear" x1="312" y1="113" x2="323.511" y2="86.613" gradientUnits="userSpaceOnUse">
<stop stop-color="#120231" stop-opacity="0"/>
<stop offset="1" stop-color="#42E8E0"/>
</linearGradient>
<linearGradient id="paint10_linear" x1="240" y1="76" x2="251.511" y2="49.613" gradientUnits="userSpaceOnUse">
<stop stop-color="#120231" stop-opacity="0"/>
<stop offset="1" stop-color="#42E8E0"/>
</linearGradient>
<linearGradient id="paint11_linear" x1="182" y1="107" x2="193.511" y2="80.613" gradientUnits="userSpaceOnUse">
<stop stop-color="#120231" stop-opacity="0"/>
<stop offset="1" stop-color="#42E8E0"/>
</linearGradient>
<linearGradient id="paint12_linear" x1="160" y1="153" x2="171.511" y2="126.613" gradientUnits="userSpaceOnUse">
<stop stop-color="#120231" stop-opacity="0"/>
<stop offset="1" stop-color="#42E8E0"/>
</linearGradient>
<linearGradient id="paint13_linear" x1="124" y1="181" x2="135.511" y2="154.613" gradientUnits="userSpaceOnUse">
<stop stop-color="#120231" stop-opacity="0"/>
<stop offset="1" stop-color="#42E8E0"/>
</linearGradient>
<linearGradient id="paint14_linear" x1="96" y1="136" x2="107.511" y2="109.613" gradientUnits="userSpaceOnUse">
<stop stop-color="#120231" stop-opacity="0"/>
<stop offset="1" stop-color="#42E8E0"/>
</linearGradient>
<linearGradient id="paint15_linear" x1="116" y1="84" x2="127.511" y2="57.613" gradientUnits="userSpaceOnUse">
<stop stop-color="#120231" stop-opacity="0"/>
<stop offset="1" stop-color="#42E8E0"/>
</linearGradient>
<linearGradient id="paint16_linear" x1="69" y1="33.0001" x2="80.511" y2="6.61282" gradientUnits="userSpaceOnUse">
<stop stop-color="#120231" stop-opacity="0"/>
<stop offset="1" stop-color="#42E8E0"/>
</linearGradient>
<linearGradient id="paint17_linear" x1="60" y1="197" x2="71.511" y2="170.613" gradientUnits="userSpaceOnUse">
<stop stop-color="#120231" stop-opacity="0"/>
<stop offset="1" stop-color="#42E8E0"/>
</linearGradient>
<linearGradient id="paint18_linear" x1="176" y1="58" x2="187.511" y2="31.6128" gradientUnits="userSpaceOnUse">
<stop stop-color="#120231" stop-opacity="0"/>
<stop offset="1" stop-color="#42E8E0"/>
</linearGradient>
<linearGradient id="paint19_linear" x1="357" y1="184" x2="368.511" y2="157.613" gradientUnits="userSpaceOnUse">
<stop stop-color="#120231" stop-opacity="0"/>
<stop offset="1" stop-color="#42E8E0"/>
</linearGradient>
<linearGradient id="paint20_linear" x1="377" y1="94" x2="388.511" y2="67.613" gradientUnits="userSpaceOnUse">
<stop stop-color="#120231" stop-opacity="0"/>
<stop offset="1" stop-color="#42E8E0"/>
</linearGradient>
<linearGradient id="paint21_linear" x1="407" y1="131" x2="418.511" y2="104.613" gradientUnits="userSpaceOnUse">
<stop stop-color="#120231" stop-opacity="0"/>
<stop offset="1" stop-color="#42E8E0"/>
</linearGradient>
<radialGradient id="paint22_radial" cx="0" cy="0" r="1" gradientUnits="userSpaceOnUse" gradientTransform="translate(706.475 125.436) scale(29.4754 76.4363)">
<stop offset="0.067037" stop-color="white"/>
<stop offset="0.365" stop-color="#00CDD4"/>
<stop offset="0.4278" stop-color="#00C6CD"/>
<stop offset="0.5212" stop-color="#00B2B8"/>
<stop offset="0.6339" stop-color="#009297"/>
<stop offset="0.7614" stop-color="#006669"/>
<stop offset="0.8996" stop-color="#002D2F"/>
<stop offset="1"/>
</radialGradient>
<radialGradient id="paint23_radial" cx="0" cy="0" r="1" gradientUnits="userSpaceOnUse" gradientTransform="translate(706.475 125.436) scale(29.4754 76.4363)">
<stop offset="0.0729167" stop-color="white"/>
<stop offset="0.365" stop-color="#00CDD4"/>
<stop offset="0.4278" stop-color="#00C6CD"/>
<stop offset="0.5212" stop-color="#00B2B8"/>
<stop offset="0.6339" stop-color="#009297"/>
<stop offset="0.7614" stop-color="#006669"/>
<stop offset="0.8996" stop-color="#002D2F"/>
<stop offset="1"/>
</radialGradient>
<radialGradient id="paint24_radial" cx="0" cy="0" r="1" gradientUnits="userSpaceOnUse" gradientTransform="translate(516.475 125.436) scale(29.4752 76.4363)">
<stop offset="0.067037" stop-color="white"/>
<stop offset="0.365" stop-color="#00CDD4"/>
<stop offset="0.4278" stop-color="#00C6CD"/>
<stop offset="0.5212" stop-color="#00B2B8"/>
<stop offset="0.6339" stop-color="#009297"/>
<stop offset="0.7614" stop-color="#006669"/>
<stop offset="0.8996" stop-color="#002D2F"/>
<stop offset="1"/>
</radialGradient>
<radialGradient id="paint25_radial" cx="0" cy="0" r="1" gradientUnits="userSpaceOnUse" gradientTransform="translate(516.475 125.436) scale(29.4752 76.4363)">
<stop offset="0.0729167" stop-color="white"/>
<stop offset="0.365" stop-color="#00CDD4"/>
<stop offset="0.4278" stop-color="#00C6CD"/>
<stop offset="0.5212" stop-color="#00B2B8"/>
<stop offset="0.6339" stop-color="#009297"/>
<stop offset="0.7614" stop-color="#006669"/>
<stop offset="0.8996" stop-color="#002D2F"/>
<stop offset="1"/>
</radialGradient>
<radialGradient id="paint26_radial" cx="0" cy="0" r="1" gradientUnits="userSpaceOnUse" gradientTransform="translate(44.478 110.926) scale(73.6554)">
<stop stop-color="#180D5B"/>
<stop offset="0.1192" stop-color="#19125E"/>
<stop offset="0.2539" stop-color="#1C1F66"/>
<stop offset="0.3962" stop-color="#203674"/>
<stop offset="0.5437" stop-color="#265687"/>
<stop offset="0.6953" stop-color="#2E7EA0"/>
<stop offset="0.848" stop-color="#37AFBE"/>
<stop offset="1" stop-color="#42E8E0"/>
</radialGradient>
</defs>
</svg>
