<svg width="839" height="839" viewBox="0 0 839 839" fill="none" xmlns="http://www.w3.org/2000/svg">
<g style="mix-blend-mode:screen" opacity="0.2">
<path d="M563.296 474.424L519.147 588.728L518.986 588.889L406.431 661.805L406.108 661.966L260.724 660.511H260.563L127.47 574.015L127.308 573.854L54.2126 420.748V420.425L69.899 240.32H70.7076L55.0211 420.425L127.955 573.369L260.886 659.703L406.108 661.158L518.5 588.243L562.487 474.262L531.276 364.162L440.068 299.331L327.675 306.444L240.51 385.503L239.863 385.018L327.19 305.798L327.513 305.636L440.23 298.522L440.391 298.684L531.923 363.516L532.085 363.839L563.296 474.101V474.424Z" fill="url(#paint0_radial)"/>
<path d="M554.24 455.185L516.883 567.711L516.722 567.872L412.253 643.536H412.091L271.559 645.799H271.398L251.507 633.35L261.048 653.883L260.239 654.206L250.051 632.542L141.701 564.477L142.186 563.831L249.728 631.249L199.434 523.25V523.089L220.134 393.102L220.295 392.941L306.005 306.283L306.167 306.122L419.368 291.086H419.692L515.59 348.319L515.751 348.48L554.24 455.024V455.185ZM516.236 567.387L553.431 455.185L515.104 348.804L419.368 291.733L306.49 306.768L220.942 393.264L200.243 523.089L251.021 632.057L271.883 645.153L412.091 642.889L516.236 567.387Z" fill="url(#paint1_radial)"/>
<path d="M563.134 756.061L389.289 754.767L389.127 754.606L250.536 669.403L250.374 669.241L184.232 535.537V535.375L199.919 398.599L200.081 398.437L284.173 304.181L284.497 304.019L400.124 281.547H400.286L500.388 332.151L500.55 332.312L545.83 434.005V434.167L516.398 547.339L516.236 547.501L419.53 624.619L418.883 623.973L515.589 546.854L545.022 434.167L499.903 332.797L400.124 282.355L284.658 304.828L200.728 398.922L185.041 535.375L251.021 668.756L389.451 753.959L563.134 755.252V756.061Z" fill="url(#paint2_radial)"/>
<path d="M824.468 509.185L725.982 675.709L725.821 675.871L563.134 769.157L562.972 769.319L384.599 769.48L384.437 769.319L240.995 683.631L240.833 683.47L168.546 546.693V546.531L181.16 403.773V403.45L263.797 301.595L263.959 301.433L381.041 271.362H381.203L485.672 315.176L485.834 315.337L539.2 413.635L538.391 413.959L485.187 315.822L381.041 272.17L264.282 302.242L181.968 403.935L169.355 546.37L241.48 682.985L384.761 768.672L562.811 768.51L725.335 675.224L823.659 508.7L824.468 509.185Z" fill="url(#paint3_radial)"/>
<path d="M738.758 139.758L738.435 140.405L572.837 32.4067L379.748 19.6344L212.209 99.9866L112.107 246.787L102.242 412.341L174.691 547.986L297.919 617.021L427.454 604.249L517.53 525.352L538.391 413.796H539.2L518.339 525.513L518.177 525.837L427.777 604.895L427.616 605.057L297.919 617.829H297.596L174.206 548.633L174.044 548.471L101.434 412.665V412.503L111.298 246.625L111.46 246.302L211.563 99.5015L211.724 99.3399L379.424 18.826H379.748L572.999 31.5983H573.16L738.758 139.758Z" fill="url(#paint4_radial)"/>
<path d="M520.279 503.849L520.118 504.172L437.804 586.95H437.48L313.282 604.572H313.121L191.51 542.004L191.348 541.843L118.737 412.18V412.018L126.015 251.314L126.176 251.152L221.912 107.909L222.074 107.747L386.54 28.2032L386.863 29.0116L222.559 108.394L126.823 251.475L119.546 411.856L191.995 541.358L313.282 603.764L437.319 586.141L519.471 503.687L532.085 392.617L472.573 298.684L362.606 260.206L362.929 259.398L472.896 297.876L473.22 298.038L532.893 392.294V392.617L520.279 503.849Z" fill="url(#paint5_radial)"/>
<path d="M524.322 481.861L524.16 482.185L448.801 568.195L448.639 568.357L329.616 591.638H329.454L210.431 536.992L210.107 536.831L136.526 413.796L136.364 413.635L141.054 258.266H141.863L137.173 413.473L210.754 536.346L329.616 590.83L448.315 567.549L523.514 481.7L527.88 371.114L461.414 279.93L345.625 247.595L224.662 293.349L143.803 408.946L143.157 408.461L224.015 292.864L224.176 292.702L345.464 246.787H345.625L461.738 279.122L462.061 279.283L528.688 370.629V370.953L524.322 481.861Z" fill="url(#paint6_radial)"/>
<path d="M528.85 461.328L461.576 550.896L461.253 551.058L347.566 580.159H347.243L230.16 532.303L230.483 531.495L347.566 579.351L460.929 550.411L528.203 461.005L524.969 348.803L450.256 261.176L329.292 235.146L205.417 287.205L125.368 409.916L122.619 568.68L208.328 716.774L207.681 717.259L121.81 569.003V568.842L124.559 409.754V409.593L204.77 286.559H204.932L329.13 234.499L329.292 234.338L450.579 260.367L450.741 260.529L525.778 348.48V348.641L529.012 461.167L528.85 461.328Z" fill="url(#paint7_radial)"/>
<path d="M551.49 814.102L358.563 815.719L358.401 815.557L196.199 724.858L196.038 724.696L106.285 573.207V573.046L106.447 409.108L106.609 408.785L187.952 279.122L188.114 278.96L314.576 219.626H314.899L441.523 241.29L441.847 241.452L524.322 327.786V327.947L535.804 439.988V440.311L475.322 533.112L474.675 532.627L534.995 439.988L523.675 328.271L441.362 242.098L314.899 220.434L188.599 279.768L107.255 409.108L107.094 572.884L196.685 724.211L358.563 814.91L551.49 813.294V814.102Z" fill="url(#paint8_radial)"/>
<path d="M822.689 551.866H821.88L829.481 353.007L740.86 179.692L583.025 76.2207L404.49 65.0651L254.256 142.022L172.751 275.403L174.691 419.617L250.698 528.909L366.002 569.166L474.837 532.466L475.16 533.274L366.163 569.974H365.84L250.213 529.717L250.051 529.555L174.044 419.94V419.617L171.942 275.242L172.104 275.08L253.609 141.375H253.771L404.329 64.2568H404.49L583.187 75.4123H583.349L741.346 179.046L741.507 179.207L830.29 352.684V352.845L822.689 551.866Z" fill="url(#paint9_radial)"/>
<path d="M737.788 190.039L737.303 190.686L582.864 89.3161L409.018 79.6156L263.959 156.249L187.305 287.044L194.097 425.76L271.559 526.645L385.408 559.303L488.906 516.945L542.758 419.132L523.675 305.798L524.484 305.636L543.566 419.132V419.455L489.553 517.43L489.391 517.591L385.57 560.112H385.246L271.236 527.292L271.074 527.13L193.289 426.084V425.922L186.497 287.044V286.882L263.312 155.764L263.474 155.603L408.695 78.9689L408.857 78.8073L583.025 88.5077H583.187L737.788 190.039Z" fill="url(#paint10_radial)"/>
<path d="M553.108 399.246L505.887 501.424L505.725 501.586L405.622 551.381H405.299L292.583 527.13L292.421 526.968L212.533 432.389V432.227L200.889 298.846V298.523L271.559 170.477L271.721 170.315L410.636 94.6512L410.959 95.4596L272.206 170.962L201.698 298.846L213.342 431.904L292.906 526.322L405.299 550.573L505.24 500.939L552.299 398.922L524.484 284.942L427.292 204.105L288.54 191.656L288.701 190.847L427.454 203.296L427.616 203.458L525.131 284.457V284.619L553.108 398.922V399.246Z" fill="url(#paint11_radial)"/>
<path d="M563.296 380.168L522.543 487.52L522.382 487.682L426.322 543.783H425.999L313.767 527.777H313.444L230.969 441.281L230.807 441.119L214.635 312.427L215.444 312.265L231.615 440.958L313.929 527.13L425.999 542.974L521.896 487.035L562.487 380.006L527.071 264.571L422.441 184.38L278.513 176.297L142.671 252.769L60.8429 399.246L60.1961 398.922L142.025 252.284L142.186 252.122L278.19 175.488H278.513L422.603 183.572H422.926L527.557 263.924L527.718 264.248L563.296 380.006V380.168Z" fill="url(#paint12_radial)"/>
<path d="M540.009 473.939L539.847 474.101L447.345 538.447H447.022L335.437 529.717V528.909L446.86 537.639L539.362 473.616L573.322 362.222L530.791 243.553L418.721 164.818L269.295 161.1L129.734 242.422L47.0969 394.719L51.9484 577.411L152.213 740.217L151.404 740.702L51.1399 577.734V577.411L46.2884 394.719L46.4501 394.557L129.087 241.937L129.249 241.775L268.972 160.291H269.134L418.883 164.01L419.045 164.171L531.276 242.907L531.438 243.068L574.131 362.222V362.384L540.009 473.939Z" fill="url(#paint13_radial)"/>
<path d="M515.104 838.838L314.9 838.03H314.738L141.378 740.379L39.8199 574.986V574.824L34.3216 387.767L34.4833 387.605L118.252 231.428L118.414 231.266L260.886 144.609H261.048L416.457 146.064L416.781 146.226L535.481 223.991L535.642 224.153L585.774 344.6V344.923L557.959 462.46L557.151 462.299L584.966 344.762L534.834 224.638L416.457 146.872L261.21 145.417L118.899 231.913L35.1301 387.929L40.6285 574.662L142.025 739.894L314.9 837.222L515.104 838.03V838.838Z" fill="url(#paint14_radial)"/>
<path d="M783.715 578.704H782.907L790.184 392.94L707.87 234.823L566.045 147.68L412.414 147.519L292.583 224.152L241.804 344.115L269.619 461.167L357.593 532.95L468.854 532.627L557.312 461.975L557.798 462.622L469.177 533.274L469.015 533.435L357.431 533.759H357.107L268.972 461.814L268.81 461.49L240.995 344.115V343.953L291.936 223.667L292.097 223.506L412.091 146.872L412.253 146.71L566.207 146.872H566.369L708.356 234.176L708.517 234.338L790.993 392.617V392.779L783.715 578.704Z" fill="url(#paint15_radial)"/>
<path d="M697.52 245.817L697.035 246.625L557.959 163.201L409.18 166.758L297.434 243.877L254.094 362.222L286.761 473.777L379.263 537.962L490.038 529.393L575.91 450.981L598.226 328.917L541.949 205.56L542.758 205.237L599.035 328.594V328.917L576.718 451.305L576.556 451.466L490.523 530.04L490.2 530.202L379.101 538.771H378.777L286.276 474.424L286.114 474.263L253.285 362.384V362.061L296.625 243.553L296.787 243.23L408.857 166.111L409.018 165.95L558.121 162.393L558.283 162.554L697.52 245.817Z" fill="url(#paint16_radial)"/>
<path d="M595.801 442.251V442.413L512.193 528.908L511.87 529.07L400.447 544.753L400.286 544.591L304.388 487.358L304.226 487.197L263.797 380.006V379.683L300.183 263.924L300.345 263.763L405.622 185.351L406.108 185.997L300.992 264.248L264.606 379.845L304.873 486.711L400.609 543.944L511.708 528.262L595.154 442.089L612.134 314.205L548.58 188.584L415.81 111.304L250.698 114.699V113.891L415.81 110.495H416.134L549.065 187.937L549.227 188.099L612.943 313.882V314.205L595.801 442.251Z" fill="url(#paint17_radial)"/>
<path d="M614.722 434.167L614.56 434.329L533.864 527.777L533.54 527.939L420.5 552.19L420.177 552.028L320.721 502.717L320.398 502.556L273.823 399.407L274.47 399.084L321.206 502.071L420.339 551.22L533.217 527.13L613.913 434.006L626.689 300.624L556.989 171.932L418.075 94.8131L247.302 100.31L94.48 197.638L7.8 365.941L7.15314 365.618L93.8331 197.153L93.9949 196.991L246.979 99.6634L247.14 99.5017L418.075 94.0048H418.398L557.474 171.285L557.636 171.447L627.336 300.301L627.497 300.624L614.722 434.167Z" fill="url(#paint18_radial)"/>
<path d="M634.128 427.215V427.539L555.695 528.747L555.533 528.909L441.038 560.758L440.715 559.95L555.21 528.1L633.319 427.054L640.92 288.014L565.075 156.411L421.309 78.6456L245.685 86.7293L90.1136 186.159L1.65471 356.887L6.82964 553.645L109.358 725.343L108.711 725.828L6.18277 553.968L6.02106 553.806L0.84613 356.564L89.4667 185.674L89.6284 185.512L245.361 85.9209H245.523L421.309 77.8372H421.47L565.56 155.764L565.721 155.926L641.566 287.69L641.728 287.852L634.128 427.215Z" fill="url(#paint19_radial)"/>
<path d="M731.481 580.321L636.715 732.942L636.553 733.103L470.632 823.318L470.309 822.671L636.068 732.457L730.834 579.998L734.068 410.24L654.18 275.242L525.292 208.308L393.655 224.476L303.579 306.606L283.365 419.132L336.569 517.106L441.038 559.95L440.715 560.758L336.084 517.915L335.923 517.753L282.556 419.455L282.394 419.132L302.771 306.283L302.932 306.121L393.17 223.829L393.494 223.667L525.292 207.5L525.454 207.662L654.666 274.595L654.827 274.757L734.715 409.916L734.877 410.078L731.643 580.159L731.481 580.321Z" fill="url(#paint20_radial)"/>
<path d="M716.603 576.279H715.794L716.926 412.826L637.524 283.002L511.385 223.182L385.57 243.23L302.447 328.432L290.804 439.826L351.286 534.082L459.797 570.135L575.586 530.687L652.24 421.88L652.887 422.365L576.233 531.333L576.071 531.495L459.959 570.944H459.797L350.8 534.729L350.639 534.567L289.995 440.149V439.826L301.639 328.27L301.8 327.947L385.084 242.583L385.408 242.421L511.385 222.374H511.547L638.009 282.355L638.171 282.517L717.735 412.503V412.664L716.603 576.279Z" fill="url(#paint21_radial)"/>
<path d="M672.454 418.485L596.448 534.729L596.124 534.89L478.718 581.938L478.395 582.099L363.9 551.058L363.576 550.896L296.302 461.49V461.167L299.86 349.935V349.612L375.867 261.823L376.028 261.661L496.83 235.793L496.992 235.955L620.705 288.984L620.382 289.631L496.83 236.601L376.352 262.469L300.507 350.097L297.111 461.005L364.223 550.411L478.556 581.291L595.801 534.244L671.646 418.162L671.484 268.613L585.451 130.543L586.098 130.058L672.131 268.128L672.293 268.451L672.454 418.323V418.485Z" fill="url(#paint22_radial)"/>
<path d="M690.405 416.221L615.368 538.771L615.207 538.932L495.213 593.416H495.052L376.19 569.327L376.028 569.165L301.477 483.316L301.315 483.155L296.949 371.276V371.114L364.708 280.577L365.355 281.062L297.758 371.438L302.124 482.993L376.513 568.519L495.052 592.608L614.722 538.285L689.596 415.898L686.362 260.206L596.448 118.902L436.187 38.8737L249.566 49.5442L249.404 48.7358L436.187 38.0653H436.348L596.933 118.256V118.417L687.009 259.882L687.171 260.044L690.405 416.06V416.221Z" fill="url(#paint23_radial)"/>
<path d="M670.028 557.525L591.596 697.211L591.434 697.373L442.493 781.929H442.332L259.754 779.665H259.592L95.2884 683.146L95.6119 682.499L259.916 778.857L442.17 781.12L590.949 696.726L669.22 557.201L662.428 409.431L581.408 300.463L463.355 262.308L353.226 299.493L292.744 393.102L305.358 504.334H304.549L291.936 392.94L292.097 392.779L352.741 299.008L352.903 298.846L463.193 261.499H463.517L581.731 299.654L581.893 299.816L663.075 409.108L663.236 409.27L670.028 557.201V557.525Z" fill="url(#paint24_radial)"/>
<path d="M654.989 547.501L581.408 684.762L581.246 684.924L436.995 767.863L436.51 767.216L580.761 684.277L654.342 547.339L643.184 406.198L561.032 304.019L444.919 272.493L339.804 316.307L286.923 414.443L307.46 525.998L396.89 605.542L526.101 618.799V619.608L396.728 606.35L396.566 606.189L306.814 526.645L306.652 526.322L286.114 414.443V414.12L339.157 315.822L339.319 315.66L444.596 271.685H444.919L561.355 303.211L561.517 303.373L643.831 405.874L643.992 406.036L655.151 547.339L654.989 547.501Z" fill="url(#paint25_radial)"/>
<path d="M742.478 417.838L668.573 558.98L668.412 559.142L540.17 633.188H540.009L404.652 626.075L404.329 625.913L307.946 548.148L307.784 547.986L279.322 435.622V435.299L324.602 332.474L324.764 332.313L424.867 282.517H425.19L540.332 305.475L540.494 305.636L624.263 400.539L624.425 400.701L639.141 537.154H638.332L623.616 401.024L540.009 306.283L425.19 283.325L325.249 332.959L280.13 435.461L308.593 547.663L404.814 625.266L539.847 632.38L667.926 558.495L741.831 417.515L742.478 417.838Z" fill="url(#paint26_radial)"/>
<path d="M757.841 420.748L683.936 568.034L683.775 568.195L552.461 648.386H552.299L411.768 644.506H411.606L307.137 569.327V569.004L270.913 455.185V454.862L309.239 348.803L309.401 348.642L405.784 291.571H406.107L519.632 306.93L519.471 307.738L406.107 292.379L309.886 349.127L271.721 455.023L307.784 568.68L411.929 643.697L552.137 647.577L683.289 567.549L757.032 420.425L744.903 244.685L640.92 90.6094L641.567 90.2861L745.712 244.362V244.523L757.841 420.587V420.748Z" fill="url(#paint27_radial)"/>
<path d="M772.719 424.629L697.035 577.249L696.874 577.411L563.943 663.098L563.781 663.26L416.781 663.422L416.619 663.26L305.52 590.021L305.358 589.86L260.724 474.101V473.939L293.553 363.031L294.361 363.192L261.533 473.939L306.167 589.375L416.943 662.613L563.619 662.451L696.388 576.926L771.91 424.305L757.517 243.715L650.946 87.861L476.616 1.36526L277.22 10.904V10.0957L476.616 0.556885H476.939L651.431 87.2143L651.593 87.376L758.164 243.23L758.326 243.553L772.719 424.305V424.629Z" fill="url(#paint28_radial)"/>
<path d="M610.194 510.801L554.078 637.392L553.916 637.554L427.939 720.493H427.777L264.767 723.565H264.444L113.077 637.231L112.916 637.069L20.7373 477.658L20.5755 477.496L19.767 285.912H20.5755L21.3841 477.335L113.562 636.584L264.767 722.756L427.616 719.684L553.431 637.069L609.385 510.64L584.804 386.474L497.154 307.577L385.408 299.816L294.2 363.354L293.715 362.708L385.084 299.17L385.408 299.008L497.316 306.768L497.477 306.93L585.451 385.989L585.613 386.15L610.194 510.478V510.801Z" fill="url(#paint29_radial)"/>
<path d="M595.801 495.927L547.609 620.093L547.448 620.254L427.454 703.193H427.292L269.457 709.013L269.295 708.852L121.001 625.59L121.325 624.943L269.619 708.205L427.131 702.385L546.801 619.769L594.992 495.765L565.56 377.258L475.484 305.636L364.223 306.121L276.734 376.934L251.345 493.017L302.771 609.584L301.962 609.907L250.536 493.178V492.855L275.926 376.611L276.088 376.288L363.899 305.474L364.061 305.313L475.646 304.989H475.807L566.207 376.611L566.368 376.934L595.801 495.765V495.927Z" fill="url(#paint30_radial)"/>
<path d="M580.438 692.846L423.896 701.092H423.735L298.081 629.147L297.919 628.985L238.893 510.639V510.478L258.784 389.222V389.06L341.906 310.487H342.23L454.299 302.08H454.461L547.124 366.426L547.286 366.749L582.864 479.436V479.598L540.332 601.662L540.17 601.824L427.616 683.954L427.131 683.308L539.685 601.177L582.055 479.436L546.639 367.073L454.137 302.888L342.391 311.295L259.431 389.545L239.701 510.478L298.566 628.5L424.058 700.283L580.438 692.038V692.846Z" fill="url(#paint31_radial)"/>
<path d="M807.649 441.928L730.672 608.453L730.511 608.614L586.906 708.044H586.745L424.381 718.391H424.22L292.097 647.416L291.936 647.254L225.632 526.645V526.322L239.863 400.378L240.025 400.216L320.56 313.882L320.883 313.72L432.467 297.068L432.791 297.23L528.688 354.462L528.85 354.624L570.088 462.137L569.441 462.461L528.203 355.109L432.467 297.876L321.045 314.529L240.672 400.701L226.441 526.322L292.583 646.769L424.381 717.583L586.583 707.236L729.864 607.967L806.841 441.605L807.649 441.928Z" fill="url(#paint32_radial)"/>
<path d="M532.085 561.405L531.923 561.567L433.761 646.284L433.438 646.446L292.744 661.805H292.583L154.8 592.932L154.638 592.77L67.635 451.305V451.143L65.0476 274.11V273.948L154.962 111.627L155.124 111.466L320.236 10.9043L320.721 11.551L155.609 112.112L65.8562 274.272L68.4436 450.982L155.285 592.285L292.906 660.997L433.276 645.638L531.276 561.082L557.959 444.353L510.415 341.205L410.636 292.864L411.121 292.218L510.9 340.558L511.061 340.72L558.606 444.191L558.768 444.515L532.085 561.405Z" fill="url(#paint33_radial)"/>
<path d="M824.791 457.61L744.58 631.087L744.418 631.248L594.831 736.822L594.669 736.983L422.603 752.342L422.441 752.181L278.19 681.367L278.028 681.206L199.11 555.585L198.949 555.261L202.668 418.808H203.477L199.757 555.261L278.675 680.721L422.603 751.534L594.507 736.175L743.771 630.602L824.144 457.287L808.296 262.146L697.035 95.783L518.986 4.92208L320.398 11.7124V10.904L519.309 4.11371L697.521 95.1364H697.682L808.943 261.661L809.105 261.984L824.953 457.448L824.791 457.61Z" fill="url(#paint34_radial)"/>
<path d="M529.821 540.387L529.659 540.549L438.127 626.56H437.804L303.903 646.122H303.741L169.355 582.423H169.193L82.1896 446.94V446.778L78.1467 274.272H78.9552L82.9982 446.616L169.84 581.776L303.903 645.314L437.642 625.751L529.012 540.064L547.933 425.114L493.596 327.624L390.098 285.265L278.19 318.732L203.315 418.97L202.668 418.485L277.705 318.247L277.866 318.085L389.936 284.457H390.259L493.92 326.977L494.081 327.139L548.741 424.79V425.114L529.821 540.387Z" fill="url(#paint35_radial)"/>
<path d="M527.718 518.4L527.557 518.562L444.596 606.189L444.434 606.351L316.031 630.764H315.87L192.318 576.603L269.781 696.242L269.134 696.727L191.025 576.118L184.718 573.369L185.041 572.561L190.216 574.824L185.365 567.387V567.226L184.394 426.084V425.922L256.843 317.762L257.005 317.6L370.368 277.182H370.692L478.88 312.104L479.042 312.265L540.009 405.875V406.198L527.718 518.4ZM444.111 605.704L526.91 518.238L538.877 406.036L478.071 312.75L370.045 277.829L257.005 318.085L184.718 426.084L185.688 566.902L191.186 575.309L315.87 629.955L444.111 605.704Z" fill="url(#paint36_radial)"/>
<path d="M597.256 763.174L416.134 781.605H415.972L260.401 711.115L260.239 710.954L170.325 578.704V578.542L165.312 431.095V430.772L235.82 315.822H235.982L350.801 267.804L350.962 267.643L463.517 295.936L463.679 296.097L531.276 384.695V384.856L528.365 497.382V497.705L453.005 586.788L452.358 586.141L527.557 497.22L530.467 385.018L463.032 296.582L350.962 268.451L236.467 316.468L166.12 431.095L171.134 578.381L260.886 710.468L416.134 780.797L597.256 762.366V763.174Z" fill="url(#paint37_radial)"/>
<path d="M836.758 483.478H835.95L821.557 283.649L712.56 116.963L537.745 25.1316L346.596 31.1135L190.216 127.31L108.549 279.93L117.12 441.443L201.86 563.83L328.969 614.919L452.52 586.141L452.843 586.788L328.969 615.728H328.807L201.536 564.477L201.374 564.315L116.312 441.766V441.605L107.741 279.93V279.607L189.569 126.825L189.731 126.663L346.272 30.4668H346.596L537.906 24.3232H538.068L712.883 116.316H713.045L822.204 283.164L822.365 283.487L836.758 483.478Z" fill="url(#paint38_radial)"/>
<path d="M836.758 483.64L753.313 663.26L753.151 663.421L596.448 775.785L596.286 775.947L411.768 795.348H411.444L250.536 723.079L250.375 722.918L155.285 587.919L155.124 587.758L146.714 435.137V434.976L215.605 312.426L215.929 312.265L332.041 256.649H332.365L449.771 278.313L450.094 278.475L524.969 363.354L524.322 364.001L449.609 279.122L332.203 257.457L216.252 312.911L147.523 435.299L155.932 587.596L251.021 722.433L411.768 794.539L595.962 775.138L752.666 662.936L835.95 483.316L836.758 483.64Z" fill="url(#paint39_radial)"/>
<path d="M715.148 125.046L714.824 125.693L542.758 34.8317L354.682 40.8137L202.83 135.393L124.074 284.942L134.424 440.958L219.487 556.393L344.655 600.692L460.768 566.579L528.689 475.233L524.16 363.677H524.969L529.497 475.394L529.335 475.718L461.415 567.064L461.091 567.225L344.817 601.5H344.494L219.163 557.04L219.002 556.878L133.777 441.281L133.615 441.119L123.266 284.942L123.427 284.619L202.183 134.908V134.746L354.358 40.167L354.52 40.0053L542.758 34.0234H543.081L715.148 125.046Z" fill="url(#paint40_radial)"/>
<path d="M838.052 492.208L753.474 672.475L753.313 672.637L594.022 786.294H593.86L406.108 806.665H405.784L240.025 733.911L239.863 733.75L140.731 595.356L140.569 595.195L128.764 437.562V437.239L196.685 308.385L196.846 308.223L314.576 245.008L314.899 245.655L197.332 308.87L129.572 437.562L141.378 595.033L240.348 733.103L406.108 805.856L593.699 785.486L752.827 671.99L837.243 491.885L823.821 292.379L714.662 125.693L715.309 125.208L824.468 292.056L824.63 292.217L838.052 492.208Z" fill="url(#paint41_radial)"/>
<path d="M532.57 453.407L472.411 548.471L472.25 548.633L360.18 588.243L359.857 588.405L238.246 551.058L238.084 550.896L152.86 441.443V441.281L139.599 291.086V290.924L213.18 144.609L213.342 144.447L361.797 51.6461L362.121 52.2928L213.827 145.094L140.407 291.247L153.668 441.12L238.569 550.411L360.018 587.596L471.926 547.825L531.761 453.083L518.824 342.822L436.995 261.823L314.738 245.655V244.847L437.157 261.176H437.319L519.471 342.336L519.633 342.66L532.57 453.083V453.407Z" fill="url(#paint42_radial)"/>
</g>
<defs>
<radialGradient id="paint0_radial" cx="0" cy="0" r="1" gradientUnits="userSpaceOnUse" gradientTransform="translate(284 458.107) rotate(-72.1043) scale(237.893 237.944)">
<stop offset="0.495" stop-color="#00CCFF"/>
<stop offset="0.5429" stop-color="#00AFDB"/>
<stop offset="0.6391" stop-color="#007B9A"/>
<stop offset="0.7307" stop-color="#004F63"/>
<stop offset="0.815" stop-color="#002D38"/>
<stop offset="0.8907" stop-color="#001419"/>
<stop offset="0.9549" stop-color="#000507"/>
<stop offset="1"/>
</radialGradient>
<radialGradient id="paint1_radial" cx="0" cy="0" r="1" gradientUnits="userSpaceOnUse" gradientTransform="translate(358.103 478.415) rotate(-72.1043) scale(188.628 188.667)">
<stop offset="0.495" stop-color="#00CCFF"/>
<stop offset="0.5429" stop-color="#00AFDB"/>
<stop offset="0.6391" stop-color="#007B9A"/>
<stop offset="0.7307" stop-color="#004F63"/>
<stop offset="0.815" stop-color="#002D38"/>
<stop offset="0.8907" stop-color="#001419"/>
<stop offset="0.9549" stop-color="#000507"/>
<stop offset="1"/>
</radialGradient>
<radialGradient id="paint2_radial" cx="0" cy="0" r="1" gradientUnits="userSpaceOnUse" gradientTransform="translate(400.11 519.875) rotate(-72.1043) scale(227.229 227.277)">
<stop offset="0.495" stop-color="#00CCFF"/>
<stop offset="0.5429" stop-color="#00AFDB"/>
<stop offset="0.6391" stop-color="#007B9A"/>
<stop offset="0.7307" stop-color="#004F63"/>
<stop offset="0.815" stop-color="#002D38"/>
<stop offset="0.8907" stop-color="#001419"/>
<stop offset="0.9549" stop-color="#000507"/>
<stop offset="1"/>
</radialGradient>
<radialGradient id="paint3_radial" cx="0" cy="0" r="1" gradientUnits="userSpaceOnUse" gradientTransform="translate(472.752 549.394) rotate(-72.1043) scale(282.599 282.658)">
<stop offset="0.495" stop-color="#00CCFF"/>
<stop offset="0.5429" stop-color="#00AFDB"/>
<stop offset="0.6391" stop-color="#007B9A"/>
<stop offset="0.7307" stop-color="#004F63"/>
<stop offset="0.815" stop-color="#002D38"/>
<stop offset="0.8907" stop-color="#001419"/>
<stop offset="0.9549" stop-color="#000507"/>
<stop offset="1"/>
</radialGradient>
<radialGradient id="paint4_radial" cx="0" cy="0" r="1" gradientUnits="userSpaceOnUse" gradientTransform="translate(387.597 309.306) rotate(-72.1043) scale(302.289 302.353)">
<stop offset="0.495" stop-color="#00CCFF"/>
<stop offset="0.5429" stop-color="#00AFDB"/>
<stop offset="0.6391" stop-color="#007B9A"/>
<stop offset="0.7307" stop-color="#004F63"/>
<stop offset="0.815" stop-color="#002D38"/>
<stop offset="0.8907" stop-color="#001419"/>
<stop offset="0.9549" stop-color="#000507"/>
<stop offset="1"/>
</radialGradient>
<radialGradient id="paint5_radial" cx="0" cy="0" r="1" gradientUnits="userSpaceOnUse" gradientTransform="translate(343.572 314.385) rotate(-72.1043) scale(257.641 257.695)">
<stop offset="0.495" stop-color="#00CCFF"/>
<stop offset="0.5429" stop-color="#00AFDB"/>
<stop offset="0.6391" stop-color="#007B9A"/>
<stop offset="0.7307" stop-color="#004F63"/>
<stop offset="0.815" stop-color="#002D38"/>
<stop offset="0.8907" stop-color="#001419"/>
<stop offset="0.9549" stop-color="#000507"/>
<stop offset="1"/>
</radialGradient>
<radialGradient id="paint6_radial" cx="0" cy="0" r="1" gradientUnits="userSpaceOnUse" gradientTransform="translate(319.511 410.844) rotate(-72.1043) scale(194.319 194.36)">
<stop offset="0.495" stop-color="#00CCFF"/>
<stop offset="0.5429" stop-color="#00AFDB"/>
<stop offset="0.6391" stop-color="#007B9A"/>
<stop offset="0.7307" stop-color="#004F63"/>
<stop offset="0.815" stop-color="#002D38"/>
<stop offset="0.8907" stop-color="#001419"/>
<stop offset="0.9549" stop-color="#000507"/>
<stop offset="1"/>
</radialGradient>
<radialGradient id="paint7_radial" cx="0" cy="0" r="1" gradientUnits="userSpaceOnUse" gradientTransform="translate(311.369 483.084) rotate(-72.1043) scale(229.131 229.179)">
<stop offset="0.495" stop-color="#00CCFF"/>
<stop offset="0.5429" stop-color="#00AFDB"/>
<stop offset="0.6391" stop-color="#007B9A"/>
<stop offset="0.7307" stop-color="#004F63"/>
<stop offset="0.815" stop-color="#002D38"/>
<stop offset="0.8907" stop-color="#001419"/>
<stop offset="0.9549" stop-color="#000507"/>
<stop offset="1"/>
</radialGradient>
<radialGradient id="paint8_radial" cx="0" cy="0" r="1" gradientUnits="userSpaceOnUse" gradientTransform="translate(359.994 515.534) rotate(-72.1043) scale(280.047 280.107)">
<stop offset="0.495" stop-color="#00CCFF"/>
<stop offset="0.5429" stop-color="#00AFDB"/>
<stop offset="0.6391" stop-color="#007B9A"/>
<stop offset="0.7307" stop-color="#004F63"/>
<stop offset="0.815" stop-color="#002D38"/>
<stop offset="0.8907" stop-color="#001419"/>
<stop offset="0.9549" stop-color="#000507"/>
<stop offset="1"/>
</radialGradient>
<radialGradient id="paint9_radial" cx="0" cy="0" r="1" gradientUnits="userSpaceOnUse" gradientTransform="translate(521.791 337.941) rotate(-72.1043) scale(313.181 313.247)">
<stop offset="0.495" stop-color="#00CCFF"/>
<stop offset="0.5429" stop-color="#00AFDB"/>
<stop offset="0.6391" stop-color="#007B9A"/>
<stop offset="0.7307" stop-color="#004F63"/>
<stop offset="0.815" stop-color="#002D38"/>
<stop offset="0.8907" stop-color="#001419"/>
<stop offset="0.9549" stop-color="#000507"/>
<stop offset="1"/>
</radialGradient>
<radialGradient id="paint10_radial" cx="0" cy="0" r="1" gradientUnits="userSpaceOnUse" gradientTransform="translate(438.512 311.568) rotate(-72.1043) scale(252.079 252.132)">
<stop offset="0.495" stop-color="#00CCFF"/>
<stop offset="0.5429" stop-color="#00AFDB"/>
<stop offset="0.6391" stop-color="#007B9A"/>
<stop offset="0.7307" stop-color="#004F63"/>
<stop offset="0.815" stop-color="#002D38"/>
<stop offset="0.8907" stop-color="#001419"/>
<stop offset="0.9549" stop-color="#000507"/>
<stop offset="1"/>
</radialGradient>
<radialGradient id="paint11_radial" cx="0" cy="0" r="1" gradientUnits="userSpaceOnUse" gradientTransform="translate(385.698 321.914) rotate(-72.1043) scale(204.45 204.493)">
<stop offset="0.495" stop-color="#00CCFF"/>
<stop offset="0.5429" stop-color="#00AFDB"/>
<stop offset="0.6391" stop-color="#007B9A"/>
<stop offset="0.7307" stop-color="#004F63"/>
<stop offset="0.815" stop-color="#002D38"/>
<stop offset="0.8907" stop-color="#001419"/>
<stop offset="0.9549" stop-color="#000507"/>
<stop offset="1"/>
</radialGradient>
<radialGradient id="paint12_radial" cx="0" cy="0" r="1" gradientUnits="userSpaceOnUse" gradientTransform="translate(326.939 342.376) rotate(-72.1043) scale(210.376 210.42)">
<stop offset="0.495" stop-color="#00CCFF"/>
<stop offset="0.5429" stop-color="#00AFDB"/>
<stop offset="0.6391" stop-color="#007B9A"/>
<stop offset="0.7307" stop-color="#004F63"/>
<stop offset="0.815" stop-color="#002D38"/>
<stop offset="0.8907" stop-color="#001419"/>
<stop offset="0.9549" stop-color="#000507"/>
<stop offset="1"/>
</radialGradient>
<radialGradient id="paint13_radial" cx="0" cy="0" r="1" gradientUnits="userSpaceOnUse" gradientTransform="translate(287.162 453.008) rotate(-72.1043) scale(283.3 283.36)">
<stop offset="0.495" stop-color="#00CCFF"/>
<stop offset="0.5429" stop-color="#00AFDB"/>
<stop offset="0.6391" stop-color="#007B9A"/>
<stop offset="0.7307" stop-color="#004F63"/>
<stop offset="0.815" stop-color="#002D38"/>
<stop offset="0.8907" stop-color="#001419"/>
<stop offset="0.9549" stop-color="#000507"/>
<stop offset="1"/>
</radialGradient>
<radialGradient id="paint14_radial" cx="0" cy="0" r="1" gradientUnits="userSpaceOnUse" gradientTransform="translate(318.782 476.928) rotate(-72.1043) scale(322.262 322.33)">
<stop offset="0.495" stop-color="#00CCFF"/>
<stop offset="0.5429" stop-color="#00AFDB"/>
<stop offset="0.6391" stop-color="#007B9A"/>
<stop offset="0.7307" stop-color="#004F63"/>
<stop offset="0.815" stop-color="#002D38"/>
<stop offset="0.8907" stop-color="#001419"/>
<stop offset="0.9549" stop-color="#000507"/>
<stop offset="1"/>
</radialGradient>
<radialGradient id="paint15_radial" cx="0" cy="0" r="1" gradientUnits="userSpaceOnUse" gradientTransform="translate(542.937 366.521) rotate(-72.1043) scale(258.201 258.255)">
<stop offset="0.495" stop-color="#00CCFF"/>
<stop offset="0.5429" stop-color="#00AFDB"/>
<stop offset="0.6391" stop-color="#007B9A"/>
<stop offset="0.7307" stop-color="#004F63"/>
<stop offset="0.815" stop-color="#002D38"/>
<stop offset="0.8907" stop-color="#001419"/>
<stop offset="0.9549" stop-color="#000507"/>
<stop offset="1"/>
</radialGradient>
<radialGradient id="paint16_radial" cx="0" cy="0" r="1" gradientUnits="userSpaceOnUse" gradientTransform="translate(461.099 348.208) rotate(-72.1043) scale(200.111 200.153)">
<stop offset="0.495" stop-color="#00CCFF"/>
<stop offset="0.5429" stop-color="#00AFDB"/>
<stop offset="0.6391" stop-color="#007B9A"/>
<stop offset="0.7307" stop-color="#004F63"/>
<stop offset="0.815" stop-color="#002D38"/>
<stop offset="0.8907" stop-color="#001419"/>
<stop offset="0.9549" stop-color="#000507"/>
<stop offset="1"/>
</radialGradient>
<radialGradient id="paint17_radial" cx="0" cy="0" r="1" gradientUnits="userSpaceOnUse" gradientTransform="translate(407.381 327.331) rotate(-72.1043) scale(211.833 211.878)">
<stop offset="0.495" stop-color="#00CCFF"/>
<stop offset="0.5429" stop-color="#00AFDB"/>
<stop offset="0.6391" stop-color="#007B9A"/>
<stop offset="0.7307" stop-color="#004F63"/>
<stop offset="0.815" stop-color="#002D38"/>
<stop offset="0.8907" stop-color="#001419"/>
<stop offset="0.9549" stop-color="#000507"/>
<stop offset="1"/>
</radialGradient>
<radialGradient id="paint18_radial" cx="0" cy="0" r="1" gradientUnits="userSpaceOnUse" gradientTransform="translate(343.586 298.644) rotate(-72.1043) scale(261.835 261.89)">
<stop offset="0.495" stop-color="#00CCFF"/>
<stop offset="0.5429" stop-color="#00AFDB"/>
<stop offset="0.6391" stop-color="#007B9A"/>
<stop offset="0.7307" stop-color="#004F63"/>
<stop offset="0.815" stop-color="#002D38"/>
<stop offset="0.8907" stop-color="#001419"/>
<stop offset="0.9549" stop-color="#000507"/>
<stop offset="1"/>
</radialGradient>
<radialGradient id="paint19_radial" cx="0" cy="0" r="1" gradientUnits="userSpaceOnUse" gradientTransform="translate(309.667 416.223) rotate(-72.1043) scale(334.955 335.025)">
<stop offset="0.495" stop-color="#00CCFF"/>
<stop offset="0.5429" stop-color="#00AFDB"/>
<stop offset="0.6391" stop-color="#007B9A"/>
<stop offset="0.7307" stop-color="#004F63"/>
<stop offset="0.815" stop-color="#002D38"/>
<stop offset="0.8907" stop-color="#001419"/>
<stop offset="0.9549" stop-color="#000507"/>
<stop offset="1"/>
</radialGradient>
<radialGradient id="paint20_radial" cx="0" cy="0" r="1" gradientUnits="userSpaceOnUse" gradientTransform="translate(494.225 514.251) rotate(-72.1043) scale(275.153 275.211)">
<stop offset="0.495" stop-color="#00CCFF"/>
<stop offset="0.5429" stop-color="#00AFDB"/>
<stop offset="0.6391" stop-color="#007B9A"/>
<stop offset="0.7307" stop-color="#004F63"/>
<stop offset="0.815" stop-color="#002D38"/>
<stop offset="0.8907" stop-color="#001419"/>
<stop offset="0.9549" stop-color="#000507"/>
<stop offset="1"/>
</radialGradient>
<radialGradient id="paint21_radial" cx="0" cy="0" r="1" gradientUnits="userSpaceOnUse" gradientTransform="translate(523.222 408.763) rotate(-72.1043) scale(206.964 207.008)">
<stop offset="0.495" stop-color="#00CCFF" stop-opacity="0.55"/>
<stop offset="0.5429" stop-color="#00AFDB" stop-opacity="0.24"/>
<stop offset="0.6391" stop-color="#007B9A"/>
<stop offset="0.7307" stop-color="#004F63"/>
<stop offset="0.815" stop-color="#002D38"/>
<stop offset="0.8907" stop-color="#001419"/>
<stop offset="0.9549" stop-color="#000507"/>
<stop offset="1"/>
</radialGradient>
<radialGradient id="paint22_radial" cx="0" cy="0" r="1" gradientUnits="userSpaceOnUse" gradientTransform="translate(497.799 347.957) rotate(-72.1043) scale(212.423 212.468)">
<stop offset="0.495" stop-color="#00CCFF"/>
<stop offset="0.5429" stop-color="#00AFDB"/>
<stop offset="0.6391" stop-color="#007B9A"/>
<stop offset="0.7307" stop-color="#004F63"/>
<stop offset="0.815" stop-color="#002D38"/>
<stop offset="0.8907" stop-color="#001419"/>
<stop offset="0.9549" stop-color="#000507"/>
<stop offset="1"/>
</radialGradient>
<radialGradient id="paint23_radial" cx="0" cy="0" r="1" gradientUnits="userSpaceOnUse" gradientTransform="translate(443.071 315.565) rotate(-72.1043) scale(264.099 264.154)">
<stop offset="0.495" stop-color="#00CCFF"/>
<stop offset="0.5429" stop-color="#00AFDB"/>
<stop offset="0.6391" stop-color="#007B9A"/>
<stop offset="0.7307" stop-color="#004F63"/>
<stop offset="0.815" stop-color="#002D38"/>
<stop offset="0.8907" stop-color="#001419"/>
<stop offset="0.9549" stop-color="#000507"/>
<stop offset="1"/>
</radialGradient>
<radialGradient id="paint24_radial" cx="0" cy="0" r="1" gradientUnits="userSpaceOnUse" gradientTransform="translate(409.835 536.173) rotate(-72.1043) scale(266.27 266.326)">
<stop offset="0.495" stop-color="#00CCFF"/>
<stop offset="0.5429" stop-color="#00AFDB"/>
<stop offset="0.6391" stop-color="#007B9A"/>
<stop offset="0.7307" stop-color="#004F63"/>
<stop offset="0.815" stop-color="#002D38"/>
<stop offset="0.8907" stop-color="#001419"/>
<stop offset="0.9549" stop-color="#000507"/>
<stop offset="1"/>
</radialGradient>
<radialGradient id="paint25_radial" cx="0" cy="0" r="1" gradientUnits="userSpaceOnUse" gradientTransform="translate(457.273 522.061) rotate(-72.1043) scale(219.236 219.282)">
<stop offset="0.495" stop-color="#00CCFF"/>
<stop offset="0.5429" stop-color="#00AFDB"/>
<stop offset="0.6391" stop-color="#007B9A"/>
<stop offset="0.7307" stop-color="#004F63"/>
<stop offset="0.815" stop-color="#002D38"/>
<stop offset="0.8907" stop-color="#001419"/>
<stop offset="0.9549" stop-color="#000507"/>
<stop offset="1"/>
</radialGradient>
<radialGradient id="paint26_radial" cx="0" cy="0" r="1" gradientUnits="userSpaceOnUse" gradientTransform="translate(495.802 473.307) rotate(-72.1043) scale(196.758 196.799)">
<stop offset="0.495" stop-color="#00CCFF"/>
<stop offset="0.5429" stop-color="#00AFDB"/>
<stop offset="0.6391" stop-color="#007B9A"/>
<stop offset="0.7307" stop-color="#004F63"/>
<stop offset="0.815" stop-color="#002D38"/>
<stop offset="0.8907" stop-color="#001419"/>
<stop offset="0.9549" stop-color="#000507"/>
<stop offset="1"/>
</radialGradient>
<radialGradient id="paint27_radial" cx="0" cy="0" r="1" gradientUnits="userSpaceOnUse" gradientTransform="translate(536.109 370.433) rotate(-72.1043) scale(265.191 265.247)">
<stop offset="0.495" stop-color="#00CCFF"/>
<stop offset="0.5429" stop-color="#00AFDB"/>
<stop offset="0.6391" stop-color="#007B9A"/>
<stop offset="0.7307" stop-color="#004F63"/>
<stop offset="0.815" stop-color="#002D38"/>
<stop offset="0.8907" stop-color="#001419"/>
<stop offset="0.9549" stop-color="#000507"/>
<stop offset="1"/>
</radialGradient>
<radialGradient id="paint28_radial" cx="0" cy="0" r="1" gradientUnits="userSpaceOnUse" gradientTransform="translate(484.035 343.966) rotate(-72.1043) scale(312.275 312.341)">
<stop offset="0.495" stop-color="#00CCFF"/>
<stop offset="0.5429" stop-color="#00AFDB"/>
<stop offset="0.6391" stop-color="#007B9A"/>
<stop offset="0.7307" stop-color="#004F63"/>
<stop offset="0.815" stop-color="#002D38"/>
<stop offset="0.8907" stop-color="#001419"/>
<stop offset="0.9549" stop-color="#000507"/>
<stop offset="1"/>
</radialGradient>
<radialGradient id="paint29_radial" cx="0" cy="0" r="1" gradientUnits="userSpaceOnUse" gradientTransform="translate(287 484.894) rotate(-72.1043) scale(277.746 277.805)">
<stop offset="0.495" stop-color="#00CCFF"/>
<stop offset="0.5429" stop-color="#00AFDB"/>
<stop offset="0.6391" stop-color="#007B9A"/>
<stop offset="0.7307" stop-color="#004F63"/>
<stop offset="0.815" stop-color="#002D38"/>
<stop offset="0.8907" stop-color="#001419"/>
<stop offset="0.9549" stop-color="#000507"/>
<stop offset="1"/>
</radialGradient>
<radialGradient id="paint30_radial" cx="0" cy="0" r="1" gradientUnits="userSpaceOnUse" gradientTransform="translate(375.437 507.871) rotate(-72.1043) scale(215.122 215.168)">
<stop offset="0.495" stop-color="#00CCFF"/>
<stop offset="0.5429" stop-color="#00AFDB"/>
<stop offset="0.6391" stop-color="#007B9A"/>
<stop offset="0.7307" stop-color="#004F63"/>
<stop offset="0.815" stop-color="#002D38"/>
<stop offset="0.8907" stop-color="#001419"/>
<stop offset="0.9549" stop-color="#000507"/>
<stop offset="1"/>
</radialGradient>
<radialGradient id="paint31_radial" cx="0" cy="0" r="1" gradientUnits="userSpaceOnUse" gradientTransform="translate(432.993 499.618) rotate(-72.1043) scale(197.141 197.182)">
<stop offset="0.495" stop-color="#00CCFF"/>
<stop offset="0.5429" stop-color="#00AFDB"/>
<stop offset="0.6391" stop-color="#007B9A"/>
<stop offset="0.7307" stop-color="#004F63"/>
<stop offset="0.815" stop-color="#002D38"/>
<stop offset="0.8907" stop-color="#001419"/>
<stop offset="0.9549" stop-color="#000507"/>
<stop offset="1"/>
</radialGradient>
<radialGradient id="paint32_radial" cx="0" cy="0" r="1" gradientUnits="userSpaceOnUse" gradientTransform="translate(489.461 527.457) rotate(-72.1043) scale(242.001 242.052)">
<stop offset="0.495" stop-color="#00CCFF"/>
<stop offset="0.5429" stop-color="#00AFDB"/>
<stop offset="0.6391" stop-color="#007B9A"/>
<stop offset="0.7307" stop-color="#004F63"/>
<stop offset="0.815" stop-color="#002D38"/>
<stop offset="0.8907" stop-color="#001419"/>
<stop offset="0.9549" stop-color="#000507"/>
<stop offset="1"/>
</radialGradient>
<radialGradient id="paint33_radial" cx="0" cy="0" r="1" gradientUnits="userSpaceOnUse" gradientTransform="translate(323.102 341.709) rotate(-72.1043) scale(291.111 291.173)">
<stop offset="0.495" stop-color="#00CCFF"/>
<stop offset="0.5429" stop-color="#00AFDB"/>
<stop offset="0.6391" stop-color="#007B9A"/>
<stop offset="0.7307" stop-color="#004F63"/>
<stop offset="0.815" stop-color="#002D38"/>
<stop offset="0.8907" stop-color="#001419"/>
<stop offset="0.9549" stop-color="#000507"/>
<stop offset="1"/>
</radialGradient>
<radialGradient id="paint34_radial" cx="0" cy="0" r="1" gradientUnits="userSpaceOnUse" gradientTransform="translate(520.934 394.354) rotate(-72.1043) scale(341.148 341.22)">
<stop offset="0.495" stop-color="#00CCFF"/>
<stop offset="0.5429" stop-color="#00AFDB"/>
<stop offset="0.6391" stop-color="#007B9A"/>
<stop offset="0.7307" stop-color="#004F63"/>
<stop offset="0.815" stop-color="#002D38"/>
<stop offset="0.8907" stop-color="#001419"/>
<stop offset="0.9549" stop-color="#000507"/>
<stop offset="1"/>
</radialGradient>
<radialGradient id="paint35_radial" cx="0" cy="0" r="1" gradientUnits="userSpaceOnUse" gradientTransform="translate(291.063 447.222) rotate(-72.1043) scale(223.338 223.385)">
<stop offset="0.495" stop-color="#00CCFF"/>
<stop offset="0.5429" stop-color="#00AFDB"/>
<stop offset="0.6391" stop-color="#007B9A"/>
<stop offset="0.7307" stop-color="#004F63"/>
<stop offset="0.815" stop-color="#002D38"/>
<stop offset="0.8907" stop-color="#001419"/>
<stop offset="0.9549" stop-color="#000507"/>
<stop offset="1"/>
</radialGradient>
<radialGradient id="paint36_radial" cx="0" cy="0" r="1" gradientUnits="userSpaceOnUse" gradientTransform="translate(348.22 495.996) rotate(-72.1043) scale(197.341 197.383)">
<stop offset="0.495" stop-color="#00CCFF"/>
<stop offset="0.5429" stop-color="#00AFDB"/>
<stop offset="0.6391" stop-color="#007B9A"/>
<stop offset="0.7307" stop-color="#004F63"/>
<stop offset="0.815" stop-color="#002D38"/>
<stop offset="0.8907" stop-color="#001419"/>
<stop offset="0.9549" stop-color="#000507"/>
<stop offset="1"/>
</radialGradient>
<radialGradient id="paint37_radial" cx="0" cy="0" r="1" gradientUnits="userSpaceOnUse" gradientTransform="translate(403.855 527.162) rotate(-72.1043) scale(247.641 247.694)">
<stop offset="0.495" stop-color="#00CCFF"/>
<stop offset="0.5429" stop-color="#00AFDB"/>
<stop offset="0.6391" stop-color="#007B9A"/>
<stop offset="0.7307" stop-color="#004F63"/>
<stop offset="0.815" stop-color="#002D38"/>
<stop offset="0.8907" stop-color="#001419"/>
<stop offset="0.9549" stop-color="#000507"/>
<stop offset="1"/>
</radialGradient>
<radialGradient id="paint38_radial" cx="0" cy="0" r="1" gradientUnits="userSpaceOnUse" gradientTransform="translate(486.576 337.202) rotate(-72.1043) scale(347.308 347.381)">
<stop offset="0.495" stop-color="#00CCFF"/>
<stop offset="0.5429" stop-color="#00AFDB"/>
<stop offset="0.6391" stop-color="#007B9A"/>
<stop offset="0.7307" stop-color="#004F63"/>
<stop offset="0.815" stop-color="#002D38"/>
<stop offset="0.8907" stop-color="#001419"/>
<stop offset="0.9549" stop-color="#000507"/>
<stop offset="1"/>
</radialGradient>
<radialGradient id="paint39_radial" cx="0" cy="0" r="1" gradientUnits="userSpaceOnUse" gradientTransform="translate(463.287 547.357) rotate(-72.1043) scale(296.758 296.821)">
<stop offset="0.495" stop-color="#00CCFF"/>
<stop offset="0.5429" stop-color="#00AFDB"/>
<stop offset="0.6391" stop-color="#007B9A"/>
<stop offset="0.7307" stop-color="#004F63"/>
<stop offset="0.815" stop-color="#002D38"/>
<stop offset="0.8907" stop-color="#001419"/>
<stop offset="0.9549" stop-color="#000507"/>
<stop offset="1"/>
</radialGradient>
<radialGradient id="paint40_radial" cx="0" cy="0" r="1" gradientUnits="userSpaceOnUse" gradientTransform="translate(388.555 299.998) rotate(-72.1043) scale(279.616 279.675)">
<stop offset="0.495" stop-color="#00CCFF"/>
<stop offset="0.5429" stop-color="#00AFDB"/>
<stop offset="0.6391" stop-color="#007B9A"/>
<stop offset="0.7307" stop-color="#004F63"/>
<stop offset="0.815" stop-color="#002D38"/>
<stop offset="0.8907" stop-color="#001419"/>
<stop offset="0.9549" stop-color="#000507"/>
<stop offset="1"/>
</radialGradient>
<radialGradient id="paint41_radial" cx="0" cy="0" r="1" gradientUnits="userSpaceOnUse" gradientTransform="translate(490.322 443.243) rotate(-72.1043) scale(359.033 359.108)">
<stop offset="0.495" stop-color="#00CCFF"/>
<stop offset="0.5429" stop-color="#00AFDB"/>
<stop offset="0.6391" stop-color="#007B9A"/>
<stop offset="0.7307" stop-color="#004F63"/>
<stop offset="0.815" stop-color="#002D38"/>
<stop offset="0.8907" stop-color="#001419"/>
<stop offset="0.9549" stop-color="#000507"/>
<stop offset="1"/>
</radialGradient>
<radialGradient id="paint42_radial" cx="0" cy="0" r="1" gradientUnits="userSpaceOnUse" gradientTransform="translate(353.353 318.572) rotate(-72.1043) scale(235.316 235.366)">
<stop offset="0.495" stop-color="#00CCFF"/>
<stop offset="0.5429" stop-color="#00AFDB"/>
<stop offset="0.6391" stop-color="#007B9A"/>
<stop offset="0.7307" stop-color="#004F63"/>
<stop offset="0.815" stop-color="#002D38"/>
<stop offset="0.8907" stop-color="#001419"/>
<stop offset="0.9549" stop-color="#000507"/>
<stop offset="1"/>
</radialGradient>
</defs>
</svg>
