<svg width="516" height="64" viewBox="0 0 516 64" fill="none" xmlns="http://www.w3.org/2000/svg">
<rect width="384" height="64" rx="8" fill="#E6EDFF"/>
<path d="M17.232 26V14.8H25.248V15.888H18.464V19.808H22.896V20.88H18.464V24.912H25.312V26H17.232ZM26.8674 26V17.984H28.0514V18.864C28.35 18.5227 28.6967 18.2667 29.0914 18.096C29.486 17.9147 29.9234 17.824 30.4034 17.824C30.958 17.824 31.454 17.9573 31.8914 18.224C32.3394 18.48 32.686 18.832 32.9314 19.28C33.262 18.7893 33.6567 18.4267 34.1154 18.192C34.5847 17.9467 35.1074 17.824 35.6834 17.824C36.5474 17.824 37.2514 18.112 37.7954 18.688C38.35 19.264 38.6274 20.0107 38.6274 20.928V26H37.4594V21.168C37.4594 20.464 37.2727 19.904 36.8994 19.488C36.526 19.072 36.0194 18.864 35.3794 18.864C34.942 18.864 34.542 18.976 34.1794 19.2C33.8167 19.424 33.5074 19.7493 33.2514 20.176C33.2727 20.2933 33.2887 20.416 33.2994 20.544C33.3207 20.6613 33.3314 20.7893 33.3314 20.928V26H32.1634V21.168C32.1634 20.464 31.9767 19.904 31.6034 19.488C31.23 19.072 30.7287 18.864 30.0994 18.864C29.6727 18.864 29.2834 18.9653 28.9314 19.168C28.59 19.36 28.2967 19.648 28.0514 20.032V26H26.8674ZM40.6174 29.28V17.984H41.7854V18.848C42.1267 18.5173 42.516 18.272 42.9534 18.112C43.4014 17.9413 43.876 17.856 44.3774 17.856C44.9427 17.856 45.4707 17.9627 45.9614 18.176C46.452 18.3893 46.8787 18.6827 47.2414 19.056C47.604 19.4187 47.8867 19.856 48.0894 20.368C48.3027 20.8693 48.4094 21.408 48.4094 21.984C48.4094 22.56 48.3027 23.104 48.0894 23.616C47.8867 24.128 47.604 24.5707 47.2414 24.944C46.8787 25.3067 46.4467 25.5947 45.9454 25.808C45.4547 26.0213 44.9267 26.128 44.3614 26.128C43.892 26.128 43.4387 26.048 43.0014 25.888C42.564 25.728 42.164 25.4987 41.8014 25.2V29.28H40.6174ZM44.2654 18.896C43.764 18.896 43.2947 18.9973 42.8574 19.2C42.4307 19.392 42.0787 19.664 41.8014 20.016V23.984C42.0787 24.3253 42.436 24.5973 42.8734 24.8C43.3107 24.992 43.7747 25.088 44.2654 25.088C45.108 25.088 45.812 24.7947 46.3774 24.208C46.9534 23.6107 47.2414 22.8747 47.2414 22C47.2414 21.5627 47.1614 21.1573 47.0014 20.784C46.852 20.4 46.644 20.0693 46.3774 19.792C46.1107 19.5147 45.796 19.296 45.4334 19.136C45.0707 18.976 44.6814 18.896 44.2654 18.896ZM49.7025 21.984C49.7025 21.408 49.8092 20.864 50.0225 20.352C50.2358 19.84 50.5238 19.3973 50.8865 19.024C51.2598 18.6507 51.6972 18.3573 52.1985 18.144C52.6998 17.9307 53.2332 17.824 53.7985 17.824C54.3638 17.824 54.8918 17.9307 55.3825 18.144C55.8838 18.3573 56.3158 18.6507 56.6785 19.024C57.0518 19.3973 57.3452 19.84 57.5585 20.352C57.7718 20.864 57.8785 21.408 57.8785 21.984C57.8785 22.5707 57.7718 23.12 57.5585 23.632C57.3452 24.144 57.0518 24.5867 56.6785 24.96C56.3158 25.3333 55.8838 25.6267 55.3825 25.84C54.8918 26.0533 54.3638 26.16 53.7985 26.16C53.2332 26.16 52.6998 26.0533 52.1985 25.84C51.6972 25.6267 51.2598 25.3333 50.8865 24.96C50.5238 24.5867 50.2358 24.144 50.0225 23.632C49.8092 23.12 49.7025 22.5707 49.7025 21.984ZM53.7985 25.104C54.2038 25.104 54.5825 25.024 54.9345 24.864C55.2972 24.704 55.6065 24.4853 55.8625 24.208C56.1292 23.92 56.3372 23.5893 56.4865 23.216C56.6358 22.832 56.7105 22.4213 56.7105 21.984C56.7105 21.5467 56.6358 21.1413 56.4865 20.768C56.3372 20.384 56.1292 20.0533 55.8625 19.776C55.6065 19.4987 55.2972 19.28 54.9345 19.12C54.5825 18.96 54.2038 18.88 53.7985 18.88C53.3932 18.88 53.0092 18.96 52.6465 19.12C52.2945 19.28 51.9852 19.4987 51.7185 19.776C51.4625 20.0533 51.2545 20.384 51.0945 20.768C50.9452 21.1413 50.8705 21.5467 50.8705 21.984C50.8705 22.4213 50.9452 22.832 51.0945 23.216C51.2438 23.5893 51.4465 23.92 51.7025 24.208C51.9692 24.4853 52.2838 24.704 52.6465 24.864C53.0092 25.024 53.3932 25.104 53.7985 25.104ZM61.9914 26H60.8394L58.5834 17.984H59.7514L61.4794 24.384L63.4794 17.984H64.5354L66.5194 24.384L68.2634 17.984H69.3834L67.1114 26H65.9754L63.9914 19.584L61.9914 26ZM77.2131 25.152C76.7651 25.4827 76.2958 25.7333 75.8051 25.904C75.3251 26.064 74.7971 26.144 74.2211 26.144C73.6451 26.144 73.1011 26.0373 72.5891 25.824C72.0878 25.6107 71.6505 25.3173 71.2771 24.944C70.9145 24.5707 70.6265 24.1333 70.4131 23.632C70.1998 23.12 70.0931 22.5707 70.0931 21.984C70.0931 21.408 70.1945 20.8693 70.3971 20.368C70.6105 19.8667 70.8931 19.4293 71.2451 19.056C71.5971 18.6827 72.0131 18.3893 72.4931 18.176C72.9838 17.9627 73.5011 17.856 74.0451 17.856C74.5785 17.856 75.0745 17.9627 75.5331 18.176C76.0025 18.3893 76.4025 18.6827 76.7331 19.056C77.0745 19.4293 77.3411 19.8667 77.5331 20.368C77.7358 20.8693 77.8371 21.408 77.8371 21.984V22.352H71.2611C71.3465 23.1413 71.6718 23.7973 72.2371 24.32C72.8025 24.8427 73.4798 25.104 74.2691 25.104C74.6851 25.104 75.0905 25.04 75.4851 24.912C75.8798 24.784 76.2105 24.6027 76.4771 24.368L77.2131 25.152ZM74.0131 18.896C73.3198 18.896 72.7171 19.1307 72.2051 19.6C71.7038 20.0693 71.3998 20.672 71.2931 21.408H76.6531C76.5465 20.704 76.2425 20.112 75.7411 19.632C75.2505 19.1413 74.6745 18.896 74.0131 18.896ZM79.4924 26V17.984H80.6764V19.12C80.911 18.704 81.2204 18.384 81.6044 18.16C81.9884 17.9253 82.4257 17.808 82.9164 17.808C83.0657 17.808 83.199 17.8187 83.3164 17.84C83.4337 17.8507 83.551 17.8773 83.6684 17.92V19.008C83.5297 18.9653 83.391 18.9333 83.2524 18.912C83.1137 18.88 82.975 18.864 82.8364 18.864C82.3457 18.864 81.9137 19.008 81.5404 19.296C81.167 19.5733 80.879 19.9787 80.6764 20.512V26H79.4924ZM88.6851 26V14.8H92.3811C93.2238 14.8 94.0078 14.944 94.7331 15.232C95.4585 15.5093 96.0825 15.8933 96.6051 16.384C97.1278 16.8747 97.5331 17.4667 97.8211 18.16C98.1198 18.8427 98.2691 19.5893 98.2691 20.4C98.2691 21.2107 98.1198 21.9627 97.8211 22.656C97.5331 23.3387 97.1278 23.9253 96.6051 24.416C96.0931 24.9067 95.4745 25.296 94.7491 25.584C94.0238 25.8613 93.2345 26 92.3811 26H88.6851ZM92.4451 15.92H89.9171V24.88H92.4451C93.0851 24.88 93.6878 24.768 94.2531 24.544C94.8185 24.3093 95.3038 23.9947 95.7091 23.6C96.1145 23.1947 96.4345 22.72 96.6691 22.176C96.9038 21.6213 97.0211 21.0293 97.0211 20.4C97.0211 19.7707 96.9038 19.184 96.6691 18.64C96.4345 18.0853 96.1145 17.6107 95.7091 17.216C95.3038 16.8107 94.8185 16.496 94.2531 16.272C93.6878 16.0373 93.0851 15.92 92.4451 15.92ZM106.729 25.152C106.281 25.4827 105.811 25.7333 105.321 25.904C104.841 26.064 104.313 26.144 103.737 26.144C103.161 26.144 102.617 26.0373 102.105 25.824C101.603 25.6107 101.166 25.3173 100.793 24.944C100.43 24.5707 100.142 24.1333 99.9288 23.632C99.7154 23.12 99.6088 22.5707 99.6088 21.984C99.6088 21.408 99.7101 20.8693 99.9128 20.368C100.126 19.8667 100.409 19.4293 100.761 19.056C101.113 18.6827 101.529 18.3893 102.009 18.176C102.499 17.9627 103.017 17.856 103.561 17.856C104.094 17.856 104.59 17.9627 105.049 18.176C105.518 18.3893 105.918 18.6827 106.249 19.056C106.59 19.4293 106.857 19.8667 107.049 20.368C107.251 20.8693 107.353 21.408 107.353 21.984V22.352H100.777C100.862 23.1413 101.187 23.7973 101.753 24.32C102.318 24.8427 102.995 25.104 103.785 25.104C104.201 25.104 104.606 25.04 105.001 24.912C105.395 24.784 105.726 24.6027 105.993 24.368L106.729 25.152ZM103.529 18.896C102.835 18.896 102.233 19.1307 101.721 19.6C101.219 20.0693 100.915 20.672 100.809 21.408H106.169C106.062 20.704 105.758 20.112 105.257 19.632C104.766 19.1413 104.19 18.896 103.529 18.896ZM108.27 24.896L108.99 24.128C109.353 24.4693 109.758 24.736 110.206 24.928C110.665 25.1093 111.129 25.2 111.598 25.2C112.238 25.2 112.761 25.0667 113.166 24.8C113.571 24.5333 113.774 24.1867 113.774 23.76C113.774 23.4187 113.651 23.152 113.406 22.96C113.171 22.7573 112.798 22.6187 112.286 22.544L110.894 22.352C110.094 22.2347 109.497 22 109.102 21.648C108.718 21.2853 108.526 20.8 108.526 20.192C108.526 19.52 108.809 18.9653 109.374 18.528C109.939 18.08 110.659 17.856 111.534 17.856C112.11 17.856 112.654 17.9413 113.166 18.112C113.689 18.2827 114.195 18.5493 114.686 18.912L114.062 19.712C113.614 19.4133 113.177 19.1893 112.75 19.04C112.334 18.8907 111.907 18.816 111.47 18.816C110.926 18.816 110.478 18.9387 110.126 19.184C109.785 19.4293 109.614 19.7493 109.614 20.144C109.614 20.4853 109.731 20.752 109.966 20.944C110.201 21.1253 110.579 21.2533 111.102 21.328L112.494 21.52C113.294 21.6267 113.891 21.8667 114.286 22.24C114.691 22.6027 114.894 23.088 114.894 23.696C114.894 24.0373 114.809 24.3627 114.638 24.672C114.478 24.9707 114.249 25.232 113.95 25.456C113.662 25.6693 113.321 25.84 112.926 25.968C112.531 26.0853 112.105 26.144 111.646 26.144C110.985 26.144 110.361 26.0373 109.774 25.824C109.198 25.6 108.697 25.2907 108.27 24.896ZM116.819 16.448C116.605 16.448 116.419 16.368 116.259 16.208C116.099 16.048 116.019 15.8613 116.019 15.648C116.019 15.424 116.099 15.2373 116.259 15.088C116.419 14.928 116.605 14.848 116.819 14.848C117.043 14.848 117.229 14.928 117.379 15.088C117.539 15.2373 117.619 15.424 117.619 15.648C117.619 15.8613 117.539 16.048 117.379 16.208C117.229 16.368 117.043 16.448 116.819 16.448ZM117.411 17.984V26H116.227V17.984H117.411ZM123.062 26.064C122.507 26.064 121.985 25.9573 121.494 25.744C121.014 25.5307 120.593 25.2427 120.23 24.88C119.867 24.5067 119.579 24.0693 119.366 23.568C119.163 23.0667 119.062 22.528 119.062 21.952C119.062 21.376 119.163 20.8373 119.366 20.336C119.579 19.8347 119.867 19.4027 120.23 19.04C120.593 18.6667 121.019 18.3733 121.51 18.16C122.001 17.9467 122.529 17.84 123.094 17.84C123.553 17.84 123.995 17.9253 124.422 18.096C124.859 18.256 125.259 18.4853 125.622 18.784V17.984H126.79V26.192C126.79 27.216 126.491 28 125.894 28.544C125.297 29.0987 124.443 29.376 123.334 29.376C122.779 29.376 122.23 29.3013 121.686 29.152C121.142 29.0133 120.646 28.8107 120.198 28.544L120.71 27.616C121.19 27.872 121.633 28.0587 122.038 28.176C122.454 28.2933 122.87 28.352 123.286 28.352C124.043 28.352 124.619 28.1707 125.014 27.808C125.409 27.4453 125.606 26.912 125.606 26.208V25.136C125.243 25.4347 124.843 25.664 124.406 25.824C123.979 25.984 123.531 26.064 123.062 26.064ZM120.23 21.952C120.23 22.3787 120.305 22.784 120.454 23.168C120.603 23.5413 120.806 23.8667 121.062 24.144C121.329 24.4107 121.643 24.624 122.006 24.784C122.369 24.944 122.753 25.024 123.158 25.024C123.67 25.024 124.139 24.928 124.566 24.736C124.993 24.544 125.339 24.272 125.606 23.92V19.984C125.339 19.6427 124.987 19.376 124.55 19.184C124.123 18.992 123.659 18.896 123.158 18.896C122.742 18.896 122.353 18.976 121.99 19.136C121.638 19.2853 121.329 19.4987 121.062 19.776C120.806 20.0533 120.603 20.3787 120.454 20.752C120.305 21.1253 120.23 21.5253 120.23 21.952ZM128.805 26V17.984H129.989V18.928C130.298 18.5653 130.666 18.2933 131.093 18.112C131.52 17.92 131.994 17.824 132.517 17.824C133.424 17.824 134.165 18.112 134.741 18.688C135.317 19.264 135.605 20.0107 135.605 20.928V26H134.437V21.168C134.437 20.464 134.234 19.904 133.829 19.488C133.424 19.072 132.88 18.864 132.197 18.864C131.717 18.864 131.285 18.9707 130.901 19.184C130.528 19.3973 130.224 19.7013 129.989 20.096V26H128.805ZM144.338 25.152C143.89 25.4827 143.421 25.7333 142.93 25.904C142.45 26.064 141.922 26.144 141.346 26.144C140.77 26.144 140.226 26.0373 139.714 25.824C139.213 25.6107 138.775 25.3173 138.402 24.944C138.039 24.5707 137.751 24.1333 137.538 23.632C137.325 23.12 137.218 22.5707 137.218 21.984C137.218 21.408 137.319 20.8693 137.522 20.368C137.735 19.8667 138.018 19.4293 138.37 19.056C138.722 18.6827 139.138 18.3893 139.618 18.176C140.109 17.9627 140.626 17.856 141.17 17.856C141.703 17.856 142.199 17.9627 142.658 18.176C143.127 18.3893 143.527 18.6827 143.858 19.056C144.199 19.4293 144.466 19.8667 144.658 20.368C144.861 20.8693 144.962 21.408 144.962 21.984V22.352H138.386C138.471 23.1413 138.797 23.7973 139.362 24.32C139.927 24.8427 140.605 25.104 141.394 25.104C141.81 25.104 142.215 25.04 142.61 24.912C143.005 24.784 143.335 24.6027 143.602 24.368L144.338 25.152ZM141.138 18.896C140.445 18.896 139.842 19.1307 139.33 19.6C138.829 20.0693 138.525 20.672 138.418 21.408H143.778C143.671 20.704 143.367 20.112 142.866 19.632C142.375 19.1413 141.799 18.896 141.138 18.896ZM146.617 26V17.984H147.801V19.12C148.036 18.704 148.345 18.384 148.729 18.16C149.113 17.9253 149.551 17.808 150.041 17.808C150.191 17.808 150.324 17.8187 150.441 17.84C150.559 17.8507 150.676 17.8773 150.793 17.92V19.008C150.655 18.9653 150.516 18.9333 150.377 18.912C150.239 18.88 150.1 18.864 149.961 18.864C149.471 18.864 149.039 19.008 148.665 19.296C148.292 19.5733 148.004 19.9787 147.801 20.512V26H146.617ZM151.239 24.896L151.959 24.128C152.322 24.4693 152.727 24.736 153.175 24.928C153.634 25.1093 154.098 25.2 154.567 25.2C155.207 25.2 155.73 25.0667 156.135 24.8C156.54 24.5333 156.743 24.1867 156.743 23.76C156.743 23.4187 156.62 23.152 156.375 22.96C156.14 22.7573 155.767 22.6187 155.255 22.544L153.863 22.352C153.063 22.2347 152.466 22 152.071 21.648C151.687 21.2853 151.495 20.8 151.495 20.192C151.495 19.52 151.778 18.9653 152.343 18.528C152.908 18.08 153.628 17.856 154.503 17.856C155.079 17.856 155.623 17.9413 156.135 18.112C156.658 18.2827 157.164 18.5493 157.655 18.912L157.031 19.712C156.583 19.4133 156.146 19.1893 155.719 19.04C155.303 18.8907 154.876 18.816 154.439 18.816C153.895 18.816 153.447 18.9387 153.095 19.184C152.754 19.4293 152.583 19.7493 152.583 20.144C152.583 20.4853 152.7 20.752 152.935 20.944C153.17 21.1253 153.548 21.2533 154.071 21.328L155.463 21.52C156.263 21.6267 156.86 21.8667 157.255 22.24C157.66 22.6027 157.863 23.088 157.863 23.696C157.863 24.0373 157.778 24.3627 157.607 24.672C157.447 24.9707 157.218 25.232 156.919 25.456C156.631 25.6693 156.29 25.84 155.895 25.968C155.5 26.0853 155.074 26.144 154.615 26.144C153.954 26.144 153.33 26.0373 152.743 25.824C152.167 25.6 151.666 25.2907 151.239 24.896ZM163.625 24.208V18.992H161.897V17.984H163.625V15.952L164.793 15.648V17.984H167.209V18.992H164.793V23.904C164.793 24.3307 164.889 24.64 165.081 24.832C165.273 25.0133 165.588 25.104 166.025 25.104C166.249 25.104 166.446 25.088 166.617 25.056C166.798 25.024 166.99 24.9707 167.193 24.896V25.936C166.99 26.0107 166.761 26.064 166.505 26.096C166.26 26.128 166.02 26.144 165.785 26.144C165.092 26.144 164.558 25.9787 164.185 25.648C163.812 25.3173 163.625 24.8373 163.625 24.208ZM167.859 21.984C167.859 21.408 167.965 20.864 168.179 20.352C168.392 19.84 168.68 19.3973 169.043 19.024C169.416 18.6507 169.853 18.3573 170.355 18.144C170.856 17.9307 171.389 17.824 171.955 17.824C172.52 17.824 173.048 17.9307 173.539 18.144C174.04 18.3573 174.472 18.6507 174.835 19.024C175.208 19.3973 175.501 19.84 175.715 20.352C175.928 20.864 176.035 21.408 176.035 21.984C176.035 22.5707 175.928 23.12 175.715 23.632C175.501 24.144 175.208 24.5867 174.835 24.96C174.472 25.3333 174.04 25.6267 173.539 25.84C173.048 26.0533 172.52 26.16 171.955 26.16C171.389 26.16 170.856 26.0533 170.355 25.84C169.853 25.6267 169.416 25.3333 169.043 24.96C168.68 24.5867 168.392 24.144 168.179 23.632C167.965 23.12 167.859 22.5707 167.859 21.984ZM171.955 25.104C172.36 25.104 172.739 25.024 173.091 24.864C173.453 24.704 173.763 24.4853 174.019 24.208C174.285 23.92 174.493 23.5893 174.643 23.216C174.792 22.832 174.867 22.4213 174.867 21.984C174.867 21.5467 174.792 21.1413 174.643 20.768C174.493 20.384 174.285 20.0533 174.019 19.776C173.763 19.4987 173.453 19.28 173.091 19.12C172.739 18.96 172.36 18.88 171.955 18.88C171.549 18.88 171.165 18.96 170.803 19.12C170.451 19.28 170.141 19.4987 169.875 19.776C169.619 20.0533 169.411 20.384 169.251 20.768C169.101 21.1413 169.027 21.5467 169.027 21.984C169.027 22.4213 169.101 22.832 169.251 23.216C169.4 23.5893 169.603 23.92 169.859 24.208C170.125 24.4853 170.44 24.704 170.803 24.864C171.165 25.024 171.549 25.104 171.955 25.104ZM181.341 26V14.8H185.037C185.88 14.8 186.664 14.944 187.389 15.232C188.115 15.5093 188.739 15.8933 189.261 16.384C189.784 16.8747 190.189 17.4667 190.477 18.16C190.776 18.8427 190.925 19.5893 190.925 20.4C190.925 21.2107 190.776 21.9627 190.477 22.656C190.189 23.3387 189.784 23.9253 189.261 24.416C188.749 24.9067 188.131 25.296 187.405 25.584C186.68 25.8613 185.891 26 185.037 26H181.341ZM185.101 15.92H182.573V24.88H185.101C185.741 24.88 186.344 24.768 186.909 24.544C187.475 24.3093 187.96 23.9947 188.365 23.6C188.771 23.1947 189.091 22.72 189.325 22.176C189.56 21.6213 189.677 21.0293 189.677 20.4C189.677 19.7707 189.56 19.184 189.325 18.64C189.091 18.0853 188.771 17.6107 188.365 17.216C187.96 16.8107 187.475 16.496 186.909 16.272C186.344 16.0373 185.741 15.92 185.101 15.92ZM199.385 25.152C198.937 25.4827 198.468 25.7333 197.977 25.904C197.497 26.064 196.969 26.144 196.393 26.144C195.817 26.144 195.273 26.0373 194.761 25.824C194.26 25.6107 193.822 25.3173 193.449 24.944C193.086 24.5707 192.798 24.1333 192.585 23.632C192.372 23.12 192.265 22.5707 192.265 21.984C192.265 21.408 192.366 20.8693 192.569 20.368C192.782 19.8667 193.065 19.4293 193.417 19.056C193.769 18.6827 194.185 18.3893 194.665 18.176C195.156 17.9627 195.673 17.856 196.217 17.856C196.75 17.856 197.246 17.9627 197.705 18.176C198.174 18.3893 198.574 18.6827 198.905 19.056C199.246 19.4293 199.513 19.8667 199.705 20.368C199.908 20.8693 200.009 21.408 200.009 21.984V22.352H193.433C193.518 23.1413 193.844 23.7973 194.409 24.32C194.974 24.8427 195.652 25.104 196.441 25.104C196.857 25.104 197.262 25.04 197.657 24.912C198.052 24.784 198.382 24.6027 198.649 24.368L199.385 25.152ZM196.185 18.896C195.492 18.896 194.889 19.1307 194.377 19.6C193.876 20.0693 193.572 20.672 193.465 21.408H198.825C198.718 20.704 198.414 20.112 197.913 19.632C197.422 19.1413 196.846 18.896 196.185 18.896ZM203.896 26L200.424 17.984H201.736L204.472 24.464L207.208 17.984H208.472L205.016 26H203.896ZM215.994 25.152C215.546 25.4827 215.077 25.7333 214.586 25.904C214.106 26.064 213.578 26.144 213.002 26.144C212.426 26.144 211.882 26.0373 211.37 25.824C210.869 25.6107 210.432 25.3173 210.058 24.944C209.696 24.5707 209.408 24.1333 209.194 23.632C208.981 23.12 208.874 22.5707 208.874 21.984C208.874 21.408 208.976 20.8693 209.178 20.368C209.392 19.8667 209.674 19.4293 210.026 19.056C210.378 18.6827 210.794 18.3893 211.274 18.176C211.765 17.9627 212.282 17.856 212.826 17.856C213.36 17.856 213.856 17.9627 214.314 18.176C214.784 18.3893 215.184 18.6827 215.514 19.056C215.856 19.4293 216.122 19.8667 216.314 20.368C216.517 20.8693 216.618 21.408 216.618 21.984V22.352H210.042C210.128 23.1413 210.453 23.7973 211.018 24.32C211.584 24.8427 212.261 25.104 213.05 25.104C213.466 25.104 213.872 25.04 214.266 24.912C214.661 24.784 214.992 24.6027 215.258 24.368L215.994 25.152ZM212.794 18.896C212.101 18.896 211.498 19.1307 210.986 19.6C210.485 20.0693 210.181 20.672 210.074 21.408H215.434C215.328 20.704 215.024 20.112 214.522 19.632C214.032 19.1413 213.456 18.896 212.794 18.896ZM219.458 14.528V26H218.274V14.8L219.458 14.528ZM221.109 21.984C221.109 21.408 221.215 20.864 221.429 20.352C221.642 19.84 221.93 19.3973 222.293 19.024C222.666 18.6507 223.103 18.3573 223.605 18.144C224.106 17.9307 224.639 17.824 225.205 17.824C225.77 17.824 226.298 17.9307 226.789 18.144C227.29 18.3573 227.722 18.6507 228.085 19.024C228.458 19.3973 228.751 19.84 228.965 20.352C229.178 20.864 229.285 21.408 229.285 21.984C229.285 22.5707 229.178 23.12 228.965 23.632C228.751 24.144 228.458 24.5867 228.085 24.96C227.722 25.3333 227.29 25.6267 226.789 25.84C226.298 26.0533 225.77 26.16 225.205 26.16C224.639 26.16 224.106 26.0533 223.605 25.84C223.103 25.6267 222.666 25.3333 222.293 24.96C221.93 24.5867 221.642 24.144 221.429 23.632C221.215 23.12 221.109 22.5707 221.109 21.984ZM225.205 25.104C225.61 25.104 225.989 25.024 226.341 24.864C226.703 24.704 227.013 24.4853 227.269 24.208C227.535 23.92 227.743 23.5893 227.893 23.216C228.042 22.832 228.117 22.4213 228.117 21.984C228.117 21.5467 228.042 21.1413 227.893 20.768C227.743 20.384 227.535 20.0533 227.269 19.776C227.013 19.4987 226.703 19.28 226.341 19.12C225.989 18.96 225.61 18.88 225.205 18.88C224.799 18.88 224.415 18.96 224.053 19.12C223.701 19.28 223.391 19.4987 223.125 19.776C222.869 20.0533 222.661 20.384 222.501 20.768C222.351 21.1413 222.277 21.5467 222.277 21.984C222.277 22.4213 222.351 22.832 222.501 23.216C222.65 23.5893 222.853 23.92 223.109 24.208C223.375 24.4853 223.69 24.704 224.053 24.864C224.415 25.024 224.799 25.104 225.205 25.104ZM230.93 29.28V17.984H232.098V18.848C232.439 18.5173 232.829 18.272 233.266 18.112C233.714 17.9413 234.189 17.856 234.69 17.856C235.255 17.856 235.783 17.9627 236.274 18.176C236.765 18.3893 237.191 18.6827 237.554 19.056C237.917 19.4187 238.199 19.856 238.402 20.368C238.615 20.8693 238.722 21.408 238.722 21.984C238.722 22.56 238.615 23.104 238.402 23.616C238.199 24.128 237.917 24.5707 237.554 24.944C237.191 25.3067 236.759 25.5947 236.258 25.808C235.767 26.0213 235.239 26.128 234.674 26.128C234.205 26.128 233.751 26.048 233.314 25.888C232.877 25.728 232.477 25.4987 232.114 25.2V29.28H230.93ZM234.578 18.896C234.077 18.896 233.607 18.9973 233.17 19.2C232.743 19.392 232.391 19.664 232.114 20.016V23.984C232.391 24.3253 232.749 24.5973 233.186 24.8C233.623 24.992 234.087 25.088 234.578 25.088C235.421 25.088 236.125 24.7947 236.69 24.208C237.266 23.6107 237.554 22.8747 237.554 22C237.554 21.5627 237.474 21.1573 237.314 20.784C237.165 20.4 236.957 20.0693 236.69 19.792C236.423 19.5147 236.109 19.296 235.746 19.136C235.383 18.976 234.994 18.896 234.578 18.896ZM242.973 24.08L243.789 23.232C244.365 23.84 244.978 24.304 245.629 24.624C246.29 24.9333 246.984 25.088 247.709 25.088C248.584 25.088 249.304 24.88 249.869 24.464C250.434 24.048 250.717 23.52 250.717 22.88C250.717 22.304 250.514 21.8613 250.109 21.552C249.714 21.2427 249.058 21.0133 248.141 20.864L246.525 20.608C245.448 20.4373 244.653 20.1227 244.141 19.664C243.629 19.1947 243.373 18.5653 243.373 17.776C243.373 16.848 243.736 16.096 244.461 15.52C245.186 14.944 246.136 14.656 247.309 14.656C248.088 14.656 248.861 14.784 249.629 15.04C250.397 15.296 251.096 15.664 251.725 16.144L251.021 17.104C250.413 16.6453 249.794 16.2987 249.165 16.064C248.536 15.8293 247.901 15.712 247.261 15.712C246.461 15.712 245.81 15.8987 245.309 16.272C244.818 16.6347 244.573 17.104 244.573 17.68C244.573 18.2027 244.749 18.6027 245.101 18.88C245.453 19.1573 246.034 19.36 246.845 19.488L248.445 19.744C249.661 19.9467 250.546 20.2933 251.101 20.784C251.666 21.2747 251.949 21.952 251.949 22.816C251.949 23.3067 251.842 23.76 251.629 24.176C251.426 24.5813 251.133 24.9333 250.749 25.232C250.376 25.52 249.922 25.7493 249.389 25.92C248.866 26.08 248.29 26.16 247.661 26.16C246.776 26.16 245.922 25.984 245.101 25.632C244.29 25.2693 243.581 24.752 242.973 24.08ZM254.535 17.984V22.816C254.535 23.52 254.737 24.08 255.143 24.496C255.548 24.912 256.092 25.12 256.775 25.12C257.255 25.12 257.681 25.0133 258.055 24.8C258.439 24.576 258.748 24.2667 258.983 23.872V17.984H260.167V26H258.983V25.072C258.673 25.4347 258.305 25.7067 257.879 25.888C257.463 26.0693 256.993 26.16 256.471 26.16C255.553 26.16 254.807 25.872 254.231 25.296C253.655 24.72 253.367 23.9733 253.367 23.056V17.984H254.535ZM261.364 24.896L262.084 24.128C262.447 24.4693 262.852 24.736 263.3 24.928C263.759 25.1093 264.223 25.2 264.692 25.2C265.332 25.2 265.855 25.0667 266.26 24.8C266.665 24.5333 266.868 24.1867 266.868 23.76C266.868 23.4187 266.745 23.152 266.5 22.96C266.265 22.7573 265.892 22.6187 265.38 22.544L263.988 22.352C263.188 22.2347 262.591 22 262.196 21.648C261.812 21.2853 261.62 20.8 261.62 20.192C261.62 19.52 261.903 18.9653 262.468 18.528C263.033 18.08 263.753 17.856 264.628 17.856C265.204 17.856 265.748 17.9413 266.26 18.112C266.783 18.2827 267.289 18.5493 267.78 18.912L267.156 19.712C266.708 19.4133 266.271 19.1893 265.844 19.04C265.428 18.8907 265.001 18.816 264.564 18.816C264.02 18.816 263.572 18.9387 263.22 19.184C262.879 19.4293 262.708 19.7493 262.708 20.144C262.708 20.4853 262.825 20.752 263.06 20.944C263.295 21.1253 263.673 21.2533 264.196 21.328L265.588 21.52C266.388 21.6267 266.985 21.8667 267.38 22.24C267.785 22.6027 267.988 23.088 267.988 23.696C267.988 24.0373 267.903 24.3627 267.732 24.672C267.572 24.9707 267.343 25.232 267.044 25.456C266.756 25.6693 266.415 25.84 266.02 25.968C265.625 26.0853 265.199 26.144 264.74 26.144C264.079 26.144 263.455 26.0373 262.868 25.824C262.292 25.6 261.791 25.2907 261.364 24.896ZM270.156 24.208V18.992H268.428V17.984H270.156V15.952L271.324 15.648V17.984H273.74V18.992H271.324V23.904C271.324 24.3307 271.42 24.64 271.612 24.832C271.804 25.0133 272.119 25.104 272.556 25.104C272.78 25.104 272.978 25.088 273.148 25.056C273.33 25.024 273.522 24.9707 273.724 24.896V25.936C273.522 26.0107 273.292 26.064 273.036 26.096C272.791 26.128 272.551 26.144 272.316 26.144C271.623 26.144 271.09 25.9787 270.716 25.648C270.343 25.3173 270.156 24.8373 270.156 24.208ZM277.536 26.144C276.661 26.144 275.947 25.92 275.392 25.472C274.848 25.024 274.576 24.4427 274.576 23.728C274.576 22.9813 274.864 22.3893 275.44 21.952C276.016 21.504 276.795 21.28 277.776 21.28C278.203 21.28 278.613 21.328 279.008 21.424C279.413 21.52 279.787 21.6533 280.128 21.824V20.768C280.128 20.128 279.947 19.648 279.584 19.328C279.221 18.9973 278.693 18.832 278 18.832C277.605 18.832 277.205 18.8907 276.8 19.008C276.405 19.1147 275.968 19.2907 275.488 19.536L275.04 18.624C275.616 18.3467 276.149 18.144 276.64 18.016C277.131 17.888 277.621 17.824 278.112 17.824C279.125 17.824 279.904 18.064 280.448 18.544C281.003 19.024 281.28 19.712 281.28 20.608V26H280.128V25.216C279.765 25.5253 279.365 25.76 278.928 25.92C278.501 26.0693 278.037 26.144 277.536 26.144ZM275.712 23.696C275.712 24.144 275.899 24.512 276.272 24.8C276.656 25.0773 277.147 25.216 277.744 25.216C278.224 25.216 278.661 25.1413 279.056 24.992C279.451 24.8427 279.808 24.608 280.128 24.288V22.784C279.797 22.56 279.44 22.4 279.056 22.304C278.683 22.1973 278.267 22.144 277.808 22.144C277.168 22.144 276.656 22.288 276.272 22.576C275.899 22.8533 275.712 23.2267 275.712 23.696ZM283.85 16.448C283.637 16.448 283.45 16.368 283.29 16.208C283.13 16.048 283.05 15.8613 283.05 15.648C283.05 15.424 283.13 15.2373 283.29 15.088C283.45 14.928 283.637 14.848 283.85 14.848C284.074 14.848 284.261 14.928 284.41 15.088C284.57 15.2373 284.65 15.424 284.65 15.648C284.65 15.8613 284.57 16.048 284.41 16.208C284.261 16.368 284.074 16.448 283.85 16.448ZM284.442 17.984V26H283.258V17.984H284.442ZM286.461 26V17.984H287.645V18.928C287.954 18.5653 288.322 18.2933 288.749 18.112C289.176 17.92 289.65 17.824 290.173 17.824C291.08 17.824 291.821 18.112 292.397 18.688C292.973 19.264 293.261 20.0107 293.261 20.928V26H292.093V21.168C292.093 20.464 291.89 19.904 291.485 19.488C291.08 19.072 290.536 18.864 289.853 18.864C289.373 18.864 288.941 18.9707 288.557 19.184C288.184 19.3973 287.88 19.7013 287.645 20.096V26H286.461ZM297.77 26.144C296.896 26.144 296.181 25.92 295.626 25.472C295.082 25.024 294.81 24.4427 294.81 23.728C294.81 22.9813 295.098 22.3893 295.674 21.952C296.25 21.504 297.029 21.28 298.01 21.28C298.437 21.28 298.848 21.328 299.242 21.424C299.648 21.52 300.021 21.6533 300.362 21.824V20.768C300.362 20.128 300.181 19.648 299.818 19.328C299.456 18.9973 298.928 18.832 298.234 18.832C297.84 18.832 297.44 18.8907 297.034 19.008C296.64 19.1147 296.202 19.2907 295.722 19.536L295.274 18.624C295.85 18.3467 296.384 18.144 296.874 18.016C297.365 17.888 297.856 17.824 298.346 17.824C299.36 17.824 300.138 18.064 300.682 18.544C301.237 19.024 301.514 19.712 301.514 20.608V26H300.362V25.216C300 25.5253 299.6 25.76 299.162 25.92C298.736 26.0693 298.272 26.144 297.77 26.144ZM295.946 23.696C295.946 24.144 296.133 24.512 296.506 24.8C296.89 25.0773 297.381 25.216 297.978 25.216C298.458 25.216 298.896 25.1413 299.29 24.992C299.685 24.8427 300.042 24.608 300.362 24.288V22.784C300.032 22.56 299.674 22.4 299.29 22.304C298.917 22.1973 298.501 22.144 298.042 22.144C297.402 22.144 296.89 22.288 296.506 22.576C296.133 22.8533 295.946 23.2267 295.946 23.696ZM311.284 21.984C311.284 22.56 311.178 23.104 310.964 23.616C310.762 24.128 310.479 24.5707 310.116 24.944C309.754 25.3067 309.322 25.5947 308.82 25.808C308.33 26.0213 307.802 26.128 307.236 26.128C306.767 26.128 306.308 26.048 305.86 25.888C305.423 25.728 305.023 25.4987 304.66 25.2V26H303.492V14.8L304.676 14.528V18.832C305.007 18.512 305.391 18.272 305.828 18.112C306.276 17.9413 306.751 17.856 307.252 17.856C307.818 17.856 308.346 17.9627 308.836 18.176C309.327 18.3893 309.754 18.6827 310.116 19.056C310.479 19.4187 310.762 19.856 310.964 20.368C311.178 20.8693 311.284 21.408 311.284 21.984ZM307.14 18.896C306.639 18.896 306.17 18.9973 305.732 19.2C305.306 19.392 304.954 19.664 304.676 20.016V23.984C304.954 24.3253 305.311 24.5973 305.748 24.8C306.186 24.992 306.65 25.088 307.14 25.088C307.983 25.088 308.687 24.7947 309.252 24.208C309.828 23.6107 310.116 22.8747 310.116 22C310.116 21.5627 310.036 21.1573 309.876 20.784C309.727 20.4 309.519 20.0693 309.252 19.792C308.986 19.5147 308.671 19.296 308.308 19.136C307.946 18.976 307.556 18.896 307.14 18.896ZM314.114 14.528V26H312.93V14.8L314.114 14.528ZM322.885 25.152C322.437 25.4827 321.968 25.7333 321.477 25.904C320.997 26.064 320.469 26.144 319.893 26.144C319.317 26.144 318.773 26.0373 318.261 25.824C317.76 25.6107 317.322 25.3173 316.949 24.944C316.586 24.5707 316.298 24.1333 316.085 23.632C315.872 23.12 315.765 22.5707 315.765 21.984C315.765 21.408 315.866 20.8693 316.069 20.368C316.282 19.8667 316.565 19.4293 316.917 19.056C317.269 18.6827 317.685 18.3893 318.165 18.176C318.656 17.9627 319.173 17.856 319.717 17.856C320.25 17.856 320.746 17.9627 321.205 18.176C321.674 18.3893 322.074 18.6827 322.405 19.056C322.746 19.4293 323.013 19.8667 323.205 20.368C323.408 20.8693 323.509 21.408 323.509 21.984V22.352H316.933C317.018 23.1413 317.344 23.7973 317.909 24.32C318.474 24.8427 319.152 25.104 319.941 25.104C320.357 25.104 320.762 25.04 321.157 24.912C321.552 24.784 321.882 24.6027 322.149 24.368L322.885 25.152ZM319.685 18.896C318.992 18.896 318.389 19.1307 317.877 19.6C317.376 20.0693 317.072 20.672 316.965 21.408H322.325C322.218 20.704 321.914 20.112 321.413 19.632C320.922 19.1413 320.346 18.896 319.685 18.896ZM17.232 50V38.8H22.096C23.184 38.8 24.0587 39.0987 24.72 39.696C25.3813 40.2827 25.712 41.0613 25.712 42.032C25.712 43.0027 25.376 43.7867 24.704 44.384C24.0427 44.9813 23.1733 45.28 22.096 45.28H18.464V50H17.232ZM22 39.904H18.464V44.208H22C22.7573 44.208 23.36 44.016 23.808 43.632C24.256 43.2373 24.48 42.7093 24.48 42.048C24.48 41.3867 24.256 40.864 23.808 40.48C23.36 40.096 22.7573 39.904 22 39.904ZM27.3674 50V41.984H28.5514V43.12C28.786 42.704 29.0954 42.384 29.4794 42.16C29.8634 41.9253 30.3007 41.808 30.7914 41.808C30.9407 41.808 31.074 41.8187 31.1914 41.84C31.3087 41.8507 31.426 41.8773 31.5434 41.92V43.008C31.4047 42.9653 31.266 42.9333 31.1274 42.912C30.9887 42.88 30.85 42.864 30.7114 42.864C30.2207 42.864 29.7887 43.008 29.4154 43.296C29.042 43.5733 28.754 43.9787 28.5514 44.512V50H27.3674ZM31.9525 45.984C31.9525 45.408 32.0592 44.864 32.2725 44.352C32.4858 43.84 32.7738 43.3973 33.1365 43.024C33.5098 42.6507 33.9472 42.3573 34.4485 42.144C34.9498 41.9307 35.4832 41.824 36.0485 41.824C36.6138 41.824 37.1418 41.9307 37.6325 42.144C38.1338 42.3573 38.5658 42.6507 38.9285 43.024C39.3018 43.3973 39.5952 43.84 39.8085 44.352C40.0218 44.864 40.1285 45.408 40.1285 45.984C40.1285 46.5707 40.0218 47.12 39.8085 47.632C39.5952 48.144 39.3018 48.5867 38.9285 48.96C38.5658 49.3333 38.1338 49.6267 37.6325 49.84C37.1418 50.0533 36.6138 50.16 36.0485 50.16C35.4832 50.16 34.9498 50.0533 34.4485 49.84C33.9472 49.6267 33.5098 49.3333 33.1365 48.96C32.7738 48.5867 32.4858 48.144 32.2725 47.632C32.0592 47.12 31.9525 46.5707 31.9525 45.984ZM36.0485 49.104C36.4538 49.104 36.8325 49.024 37.1845 48.864C37.5472 48.704 37.8565 48.4853 38.1125 48.208C38.3792 47.92 38.5872 47.5893 38.7365 47.216C38.8858 46.832 38.9605 46.4213 38.9605 45.984C38.9605 45.5467 38.8858 45.1413 38.7365 44.768C38.5872 44.384 38.3792 44.0533 38.1125 43.776C37.8565 43.4987 37.5472 43.28 37.1845 43.12C36.8325 42.96 36.4538 42.88 36.0485 42.88C35.6432 42.88 35.2592 42.96 34.8965 43.12C34.5445 43.28 34.2352 43.4987 33.9685 43.776C33.7125 44.0533 33.5045 44.384 33.3445 44.768C33.1952 45.1413 33.1205 45.5467 33.1205 45.984C33.1205 46.4213 33.1952 46.832 33.3445 47.216C33.4938 47.5893 33.6965 47.92 33.9525 48.208C34.2192 48.4853 34.5338 48.704 34.8965 48.864C35.2592 49.024 35.6432 49.104 36.0485 49.104ZM48.0453 50V49.152C47.7039 49.472 47.3093 49.7173 46.8613 49.888C46.4239 50.048 45.9546 50.128 45.4533 50.128C44.8879 50.128 44.3599 50.0213 43.8693 49.808C43.3786 49.5947 42.9519 49.3067 42.5893 48.944C42.2266 48.5707 41.9386 48.128 41.7253 47.616C41.5226 47.104 41.4213 46.56 41.4213 45.984C41.4213 45.408 41.5226 44.8693 41.7253 44.368C41.9386 43.856 42.2266 43.4187 42.5893 43.056C42.9519 42.6827 43.3786 42.3893 43.8693 42.176C44.3706 41.9627 44.9039 41.856 45.4693 41.856C45.9279 41.856 46.3759 41.936 46.8133 42.096C47.2613 42.2453 47.6666 42.4693 48.0293 42.768V38.8L49.2133 38.528V50H48.0453ZM42.5893 45.968C42.5893 46.4053 42.6639 46.816 42.8133 47.2C42.9733 47.584 43.1866 47.9147 43.4533 48.192C43.7199 48.4693 44.0346 48.688 44.3973 48.848C44.7599 49.008 45.1493 49.088 45.5653 49.088C46.0666 49.088 46.5306 48.992 46.9573 48.8C47.3946 48.5973 47.7519 48.32 48.0293 47.968V44C47.7519 43.6587 47.3946 43.392 46.9573 43.2C46.5199 42.9973 46.0559 42.896 45.5653 42.896C44.7333 42.896 44.0293 43.1893 43.4533 43.776C42.8773 44.3627 42.5893 45.0933 42.5893 45.968ZM52.3628 41.984V46.816C52.3628 47.52 52.5654 48.08 52.9708 48.496C53.3761 48.912 53.9201 49.12 54.6028 49.12C55.0828 49.12 55.5094 49.0133 55.8828 48.8C56.2668 48.576 56.5761 48.2667 56.8108 47.872V41.984H57.9948V50H56.8108V49.072C56.5014 49.4347 56.1334 49.7067 55.7068 49.888C55.2908 50.0693 54.8214 50.16 54.2988 50.16C53.3814 50.16 52.6348 49.872 52.0588 49.296C51.4828 48.72 51.1948 47.9733 51.1948 47.056V41.984H52.3628ZM63.752 49.072C64.1787 49.072 64.5893 48.9867 64.984 48.816C65.3787 48.6453 65.7467 48.3947 66.088 48.064L66.824 48.864C66.3973 49.2693 65.9173 49.584 65.384 49.808C64.8507 50.032 64.296 50.144 63.72 50.144C63.1547 50.144 62.6213 50.0373 62.12 49.824C61.6187 49.6107 61.1867 49.3173 60.824 48.944C60.4613 48.5707 60.1733 48.128 59.96 47.616C59.7467 47.104 59.64 46.56 59.64 45.984C59.64 45.408 59.7467 44.8693 59.96 44.368C60.1733 43.856 60.4613 43.4133 60.824 43.04C61.1867 42.6667 61.6187 42.3733 62.12 42.16C62.6213 41.936 63.1547 41.824 63.72 41.824C64.296 41.824 64.856 41.936 65.4 42.16C65.9547 42.384 66.44 42.6933 66.856 43.088L66.104 43.952C65.784 43.6213 65.416 43.3653 65 43.184C64.584 43.0027 64.1627 42.912 63.736 42.912C63.3307 42.912 62.9467 42.992 62.584 43.152C62.2213 43.312 61.9067 43.5307 61.64 43.808C61.384 44.0853 61.1813 44.4107 61.032 44.784C60.8827 45.1573 60.808 45.5573 60.808 45.984C60.808 46.4213 60.8827 46.832 61.032 47.216C61.192 47.5893 61.4 47.9147 61.656 48.192C61.9227 48.4587 62.2373 48.672 62.6 48.832C62.9627 48.992 63.3467 49.072 63.752 49.072ZM69.3594 48.208V42.992H67.6314V41.984H69.3594V39.952L70.5274 39.648V41.984H72.9434V42.992H70.5274V47.904C70.5274 48.3307 70.6234 48.64 70.8154 48.832C71.0074 49.0133 71.322 49.104 71.7594 49.104C71.9834 49.104 72.1807 49.088 72.3514 49.056C72.5327 49.024 72.7247 48.9707 72.9274 48.896V49.936C72.7247 50.0107 72.4954 50.064 72.2394 50.096C71.994 50.128 71.754 50.144 71.5194 50.144C70.826 50.144 70.2927 49.9787 69.9194 49.648C69.546 49.3173 69.3594 48.8373 69.3594 48.208ZM73.5514 48.896L74.2714 48.128C74.634 48.4693 75.0394 48.736 75.4874 48.928C75.946 49.1093 76.41 49.2 76.8794 49.2C77.5194 49.2 78.042 49.0667 78.4474 48.8C78.8527 48.5333 79.0554 48.1867 79.0554 47.76C79.0554 47.4187 78.9327 47.152 78.6874 46.96C78.4527 46.7573 78.0794 46.6187 77.5674 46.544L76.1754 46.352C75.3754 46.2347 74.778 46 74.3834 45.648C73.9994 45.2853 73.8074 44.8 73.8074 44.192C73.8074 43.52 74.09 42.9653 74.6554 42.528C75.2207 42.08 75.9407 41.856 76.8154 41.856C77.3914 41.856 77.9354 41.9413 78.4474 42.112C78.97 42.2827 79.4767 42.5493 79.9674 42.912L79.3434 43.712C78.8954 43.4133 78.458 43.1893 78.0314 43.04C77.6154 42.8907 77.1887 42.816 76.7514 42.816C76.2074 42.816 75.7594 42.9387 75.4074 43.184C75.066 43.4293 74.8954 43.7493 74.8954 44.144C74.8954 44.4853 75.0127 44.752 75.2474 44.944C75.482 45.1253 75.8607 45.2533 76.3834 45.328L77.7754 45.52C78.5754 45.6267 79.1727 45.8667 79.5674 46.24C79.9727 46.6027 80.1754 47.088 80.1754 47.696C80.1754 48.0373 80.09 48.3627 79.9194 48.672C79.7594 48.9707 79.53 49.232 79.2314 49.456C78.9434 49.6693 78.602 49.84 78.2074 49.968C77.8127 50.0853 77.386 50.144 76.9274 50.144C76.266 50.144 75.642 50.0373 75.0554 49.824C74.4794 49.6 73.978 49.2907 73.5514 48.896ZM88.1615 50H86.9135L84.4975 38.8H85.7455L87.6495 48.048L90.4175 38.8H91.6175L94.3855 48.016L96.3055 38.8H97.5055L95.0895 50H93.8415L91.0095 40.512L88.1615 50ZM99.6469 40.448C99.4335 40.448 99.2469 40.368 99.0869 40.208C98.9269 40.048 98.8469 39.8613 98.8469 39.648C98.8469 39.424 98.9269 39.2373 99.0869 39.088C99.2469 38.928 99.4335 38.848 99.6469 38.848C99.8709 38.848 100.058 38.928 100.207 39.088C100.367 39.2373 100.447 39.424 100.447 39.648C100.447 39.8613 100.367 40.048 100.207 40.208C100.058 40.368 99.8709 40.448 99.6469 40.448ZM100.239 41.984V50H99.0549V41.984H100.239ZM103.25 48.208V42.992H101.522V41.984H103.25V39.952L104.418 39.648V41.984H106.834V42.992H104.418V47.904C104.418 48.3307 104.514 48.64 104.706 48.832C104.898 49.0133 105.213 49.104 105.65 49.104C105.874 49.104 106.071 49.088 106.242 49.056C106.423 49.024 106.615 48.9707 106.818 48.896V49.936C106.615 50.0107 106.386 50.064 106.13 50.096C105.885 50.128 105.645 50.144 105.41 50.144C104.717 50.144 104.183 49.9787 103.81 49.648C103.437 49.3173 103.25 48.8373 103.25 48.208ZM108.102 50V38.8L109.286 38.528V42.928C109.595 42.5653 109.963 42.2933 110.39 42.112C110.816 41.92 111.291 41.824 111.814 41.824C112.72 41.824 113.462 42.112 114.038 42.688C114.614 43.264 114.902 44.0107 114.902 44.928V50H113.734V45.168C113.734 44.464 113.531 43.904 113.126 43.488C112.72 43.072 112.176 42.864 111.494 42.864C111.014 42.864 110.582 42.9707 110.198 43.184C109.824 43.3973 109.52 43.7013 109.286 44.096V50H108.102ZM131.249 44.64C131.249 45.4187 131.11 46.1493 130.833 46.832C130.555 47.504 130.171 48.0853 129.681 48.576C129.19 49.0667 128.614 49.456 127.953 49.744C127.291 50.032 126.577 50.176 125.809 50.176C125.009 50.176 124.251 50.0267 123.536 49.728C122.833 49.4187 122.219 49.008 121.697 48.496C121.185 47.9733 120.774 47.36 120.465 46.656C120.166 45.952 120.017 45.2 120.017 44.4C120.017 43.6 120.166 42.848 120.465 42.144C120.763 41.44 121.169 40.832 121.681 40.32C122.203 39.7973 122.817 39.3867 123.521 39.088C124.235 38.7787 124.993 38.624 125.793 38.624C126.657 38.624 127.473 38.7893 128.241 39.12C129.009 39.44 129.665 39.888 130.209 40.464L129.377 41.312C128.95 40.8213 128.417 40.4427 127.777 40.176C127.137 39.8987 126.475 39.76 125.793 39.76C125.153 39.76 124.555 39.8827 124.001 40.128C123.446 40.3627 122.966 40.688 122.561 41.104C122.166 41.5093 121.851 42 121.617 42.576C121.382 43.1413 121.265 43.7493 121.265 44.4C121.265 45.0507 121.382 45.664 121.617 46.24C121.851 46.8053 122.166 47.296 122.561 47.712C122.966 48.1173 123.446 48.4427 124.001 48.688C124.555 48.9227 125.153 49.04 125.793 49.04C126.358 49.04 126.886 48.944 127.377 48.752C127.878 48.56 128.31 48.2987 128.673 47.968C129.046 47.6267 129.35 47.2213 129.585 46.752C129.819 46.2827 129.958 45.776 130.001 45.232H125.985V44.144H131.249V44.64ZM139.682 49.152C139.234 49.4827 138.765 49.7333 138.274 49.904C137.794 50.064 137.266 50.144 136.69 50.144C136.114 50.144 135.57 50.0373 135.058 49.824C134.557 49.6107 134.119 49.3173 133.746 48.944C133.383 48.5707 133.095 48.1333 132.882 47.632C132.669 47.12 132.562 46.5707 132.562 45.984C132.562 45.408 132.663 44.8693 132.866 44.368C133.079 43.8667 133.362 43.4293 133.714 43.056C134.066 42.6827 134.482 42.3893 134.962 42.176C135.453 41.9627 135.97 41.856 136.514 41.856C137.047 41.856 137.543 41.9627 138.002 42.176C138.471 42.3893 138.871 42.6827 139.202 43.056C139.543 43.4293 139.81 43.8667 140.002 44.368C140.205 44.8693 140.306 45.408 140.306 45.984V46.352H133.73C133.815 47.1413 134.141 47.7973 134.706 48.32C135.271 48.8427 135.949 49.104 136.738 49.104C137.154 49.104 137.559 49.04 137.954 48.912C138.349 48.784 138.679 48.6027 138.946 48.368L139.682 49.152ZM136.482 42.896C135.789 42.896 135.186 43.1307 134.674 43.6C134.173 44.0693 133.869 44.672 133.762 45.408H139.122C139.015 44.704 138.711 44.112 138.21 43.632C137.719 43.1413 137.143 42.896 136.482 42.896ZM141.961 50V41.984H143.145V42.928C143.454 42.5653 143.822 42.2933 144.249 42.112C144.676 41.92 145.15 41.824 145.673 41.824C146.58 41.824 147.321 42.112 147.897 42.688C148.473 43.264 148.761 44.0107 148.761 44.928V50H147.593V45.168C147.593 44.464 147.39 43.904 146.985 43.488C146.58 43.072 146.036 42.864 145.353 42.864C144.873 42.864 144.441 42.9707 144.057 43.184C143.684 43.3973 143.38 43.7013 143.145 44.096V50H141.961ZM157.494 49.152C157.046 49.4827 156.577 49.7333 156.086 49.904C155.606 50.064 155.078 50.144 154.502 50.144C153.926 50.144 153.382 50.0373 152.87 49.824C152.369 49.6107 151.932 49.3173 151.558 48.944C151.196 48.5707 150.908 48.1333 150.694 47.632C150.481 47.12 150.374 46.5707 150.374 45.984C150.374 45.408 150.476 44.8693 150.678 44.368C150.892 43.8667 151.174 43.4293 151.526 43.056C151.878 42.6827 152.294 42.3893 152.774 42.176C153.265 41.9627 153.782 41.856 154.326 41.856C154.86 41.856 155.356 41.9627 155.814 42.176C156.284 42.3893 156.684 42.6827 157.014 43.056C157.356 43.4293 157.622 43.8667 157.814 44.368C158.017 44.8693 158.118 45.408 158.118 45.984V46.352H151.542C151.628 47.1413 151.953 47.7973 152.518 48.32C153.084 48.8427 153.761 49.104 154.55 49.104C154.966 49.104 155.372 49.04 155.766 48.912C156.161 48.784 156.492 48.6027 156.758 48.368L157.494 49.152ZM154.294 42.896C153.601 42.896 152.998 43.1307 152.486 43.6C151.985 44.0693 151.681 44.672 151.574 45.408H156.934C156.828 44.704 156.524 44.112 156.022 43.632C155.532 43.1413 154.956 42.896 154.294 42.896ZM159.774 50V41.984H160.958V43.12C161.192 42.704 161.502 42.384 161.886 42.16C162.27 41.9253 162.707 41.808 163.198 41.808C163.347 41.808 163.48 41.8187 163.598 41.84C163.715 41.8507 163.832 41.8773 163.95 41.92V43.008C163.811 42.9653 163.672 42.9333 163.534 42.912C163.395 42.88 163.256 42.864 163.118 42.864C162.627 42.864 162.195 43.008 161.822 43.296C161.448 43.5733 161.16 43.9787 160.958 44.512V50H159.774ZM167.411 50.144C166.536 50.144 165.822 49.92 165.267 49.472C164.723 49.024 164.451 48.4427 164.451 47.728C164.451 46.9813 164.739 46.3893 165.315 45.952C165.891 45.504 166.67 45.28 167.651 45.28C168.078 45.28 168.488 45.328 168.883 45.424C169.288 45.52 169.662 45.6533 170.003 45.824V44.768C170.003 44.128 169.822 43.648 169.459 43.328C169.096 42.9973 168.568 42.832 167.875 42.832C167.48 42.832 167.08 42.8907 166.675 43.008C166.28 43.1147 165.843 43.2907 165.363 43.536L164.915 42.624C165.491 42.3467 166.024 42.144 166.515 42.016C167.006 41.888 167.496 41.824 167.987 41.824C169 41.824 169.779 42.064 170.323 42.544C170.878 43.024 171.155 43.712 171.155 44.608V50H170.003V49.216C169.64 49.5253 169.24 49.76 168.803 49.92C168.376 50.0693 167.912 50.144 167.411 50.144ZM165.587 47.696C165.587 48.144 165.774 48.512 166.147 48.8C166.531 49.0773 167.022 49.216 167.619 49.216C168.099 49.216 168.536 49.1413 168.931 48.992C169.326 48.8427 169.683 48.608 170.003 48.288V46.784C169.672 46.56 169.315 46.4 168.931 46.304C168.558 46.1973 168.142 46.144 167.683 46.144C167.043 46.144 166.531 46.288 166.147 46.576C165.774 46.8533 165.587 47.2267 165.587 47.696ZM173.812 48.208V42.992H172.085V41.984H173.812V39.952L174.981 39.648V41.984H177.397V42.992H174.981V47.904C174.981 48.3307 175.077 48.64 175.269 48.832C175.461 49.0133 175.775 49.104 176.213 49.104C176.437 49.104 176.634 49.088 176.805 49.056C176.986 49.024 177.178 48.9707 177.381 48.896V49.936C177.178 50.0107 176.949 50.064 176.693 50.096C176.447 50.128 176.207 50.144 175.973 50.144C175.279 50.144 174.746 49.9787 174.373 49.648C173.999 49.3173 173.812 48.8373 173.812 48.208ZM179.256 40.448C179.043 40.448 178.856 40.368 178.696 40.208C178.536 40.048 178.456 39.8613 178.456 39.648C178.456 39.424 178.536 39.2373 178.696 39.088C178.856 38.928 179.043 38.848 179.256 38.848C179.48 38.848 179.667 38.928 179.816 39.088C179.976 39.2373 180.056 39.424 180.056 39.648C180.056 39.8613 179.976 40.048 179.816 40.208C179.667 40.368 179.48 40.448 179.256 40.448ZM179.848 41.984V50H178.664V41.984H179.848ZM184.411 50L180.939 41.984H182.251L184.987 48.464L187.723 41.984H188.987L185.531 50H184.411ZM196.51 49.152C196.062 49.4827 195.593 49.7333 195.102 49.904C194.622 50.064 194.094 50.144 193.518 50.144C192.942 50.144 192.398 50.0373 191.886 49.824C191.385 49.6107 190.947 49.3173 190.574 48.944C190.211 48.5707 189.923 48.1333 189.71 47.632C189.497 47.12 189.39 46.5707 189.39 45.984C189.39 45.408 189.491 44.8693 189.694 44.368C189.907 43.8667 190.19 43.4293 190.542 43.056C190.894 42.6827 191.31 42.3893 191.79 42.176C192.281 41.9627 192.798 41.856 193.342 41.856C193.875 41.856 194.371 41.9627 194.83 42.176C195.299 42.3893 195.699 42.6827 196.03 43.056C196.371 43.4293 196.638 43.8667 196.83 44.368C197.033 44.8693 197.134 45.408 197.134 45.984V46.352H190.558C190.643 47.1413 190.969 47.7973 191.534 48.32C192.099 48.8427 192.777 49.104 193.566 49.104C193.982 49.104 194.387 49.04 194.782 48.912C195.177 48.784 195.507 48.6027 195.774 48.368L196.51 49.152ZM193.31 42.896C192.617 42.896 192.014 43.1307 191.502 43.6C191.001 44.0693 190.697 44.672 190.59 45.408H195.95C195.843 44.704 195.539 44.112 195.038 43.632C194.547 43.1413 193.971 42.896 193.31 42.896ZM202.451 50V38.8H206.147C206.989 38.8 207.773 38.944 208.499 39.232C209.224 39.5093 209.848 39.8933 210.371 40.384C210.893 40.8747 211.299 41.4667 211.587 42.16C211.885 42.8427 212.035 43.5893 212.035 44.4C212.035 45.2107 211.885 45.9627 211.587 46.656C211.299 47.3387 210.893 47.9253 210.371 48.416C209.859 48.9067 209.24 49.296 208.515 49.584C207.789 49.8613 207 50 206.147 50H202.451ZM206.211 39.92H203.683V48.88H206.211C206.851 48.88 207.453 48.768 208.019 48.544C208.584 48.3093 209.069 47.9947 209.475 47.6C209.88 47.1947 210.2 46.72 210.435 46.176C210.669 45.6213 210.787 45.0293 210.787 44.4C210.787 43.7707 210.669 43.184 210.435 42.64C210.2 42.0853 209.88 41.6107 209.475 41.216C209.069 40.8107 208.584 40.496 208.019 40.272C207.453 40.0373 206.851 39.92 206.211 39.92ZM220.494 49.152C220.046 49.4827 219.577 49.7333 219.086 49.904C218.606 50.064 218.078 50.144 217.502 50.144C216.926 50.144 216.382 50.0373 215.87 49.824C215.369 49.6107 214.932 49.3173 214.558 48.944C214.196 48.5707 213.908 48.1333 213.694 47.632C213.481 47.12 213.374 46.5707 213.374 45.984C213.374 45.408 213.476 44.8693 213.678 44.368C213.892 43.8667 214.174 43.4293 214.526 43.056C214.878 42.6827 215.294 42.3893 215.774 42.176C216.265 41.9627 216.782 41.856 217.326 41.856C217.86 41.856 218.356 41.9627 218.814 42.176C219.284 42.3893 219.684 42.6827 220.014 43.056C220.356 43.4293 220.622 43.8667 220.814 44.368C221.017 44.8693 221.118 45.408 221.118 45.984V46.352H214.542C214.628 47.1413 214.953 47.7973 215.518 48.32C216.084 48.8427 216.761 49.104 217.55 49.104C217.966 49.104 218.372 49.04 218.766 48.912C219.161 48.784 219.492 48.6027 219.758 48.368L220.494 49.152ZM217.294 42.896C216.601 42.896 215.998 43.1307 215.486 43.6C214.985 44.0693 214.681 44.672 214.574 45.408H219.934C219.828 44.704 219.524 44.112 219.022 43.632C218.532 43.1413 217.956 42.896 217.294 42.896ZM222.036 48.896L222.756 48.128C223.118 48.4693 223.524 48.736 223.972 48.928C224.43 49.1093 224.894 49.2 225.364 49.2C226.004 49.2 226.526 49.0667 226.932 48.8C227.337 48.5333 227.54 48.1867 227.54 47.76C227.54 47.4187 227.417 47.152 227.172 46.96C226.937 46.7573 226.564 46.6187 226.052 46.544L224.66 46.352C223.86 46.2347 223.262 46 222.868 45.648C222.484 45.2853 222.292 44.8 222.292 44.192C222.292 43.52 222.574 42.9653 223.14 42.528C223.705 42.08 224.425 41.856 225.3 41.856C225.876 41.856 226.42 41.9413 226.932 42.112C227.454 42.2827 227.961 42.5493 228.452 42.912L227.828 43.712C227.38 43.4133 226.942 43.1893 226.516 43.04C226.1 42.8907 225.673 42.816 225.236 42.816C224.692 42.816 224.244 42.9387 223.892 43.184C223.55 43.4293 223.38 43.7493 223.38 44.144C223.38 44.4853 223.497 44.752 223.732 44.944C223.966 45.1253 224.345 45.2533 224.868 45.328L226.26 45.52C227.06 45.6267 227.657 45.8667 228.052 46.24C228.457 46.6027 228.66 47.088 228.66 47.696C228.66 48.0373 228.574 48.3627 228.404 48.672C228.244 48.9707 228.014 49.232 227.716 49.456C227.428 49.6693 227.086 49.84 226.692 49.968C226.297 50.0853 225.87 50.144 225.412 50.144C224.75 50.144 224.126 50.0373 223.54 49.824C222.964 49.6 222.462 49.2907 222.036 48.896ZM230.584 40.448C230.371 40.448 230.184 40.368 230.024 40.208C229.864 40.048 229.784 39.8613 229.784 39.648C229.784 39.424 229.864 39.2373 230.024 39.088C230.184 38.928 230.371 38.848 230.584 38.848C230.808 38.848 230.995 38.928 231.144 39.088C231.304 39.2373 231.384 39.424 231.384 39.648C231.384 39.8613 231.304 40.048 231.144 40.208C230.995 40.368 230.808 40.448 230.584 40.448ZM231.176 41.984V50H229.992V41.984H231.176ZM236.828 50.064C236.273 50.064 235.75 49.9573 235.26 49.744C234.78 49.5307 234.358 49.2427 233.996 48.88C233.633 48.5067 233.345 48.0693 233.132 47.568C232.929 47.0667 232.828 46.528 232.828 45.952C232.828 45.376 232.929 44.8373 233.132 44.336C233.345 43.8347 233.633 43.4027 233.996 43.04C234.358 42.6667 234.785 42.3733 235.276 42.16C235.766 41.9467 236.294 41.84 236.86 41.84C237.318 41.84 237.761 41.9253 238.188 42.096C238.625 42.256 239.025 42.4853 239.388 42.784V41.984H240.556V50.192C240.556 51.216 240.257 52 239.66 52.544C239.062 53.0987 238.209 53.376 237.1 53.376C236.545 53.376 235.996 53.3013 235.452 53.152C234.908 53.0133 234.412 52.8107 233.964 52.544L234.476 51.616C234.956 51.872 235.398 52.0587 235.804 52.176C236.22 52.2933 236.636 52.352 237.052 52.352C237.809 52.352 238.385 52.1707 238.78 51.808C239.174 51.4453 239.372 50.912 239.372 50.208V49.136C239.009 49.4347 238.609 49.664 238.172 49.824C237.745 49.984 237.297 50.064 236.828 50.064ZM233.996 45.952C233.996 46.3787 234.07 46.784 234.22 47.168C234.369 47.5413 234.572 47.8667 234.828 48.144C235.094 48.4107 235.409 48.624 235.772 48.784C236.134 48.944 236.518 49.024 236.924 49.024C237.436 49.024 237.905 48.928 238.332 48.736C238.758 48.544 239.105 48.272 239.372 47.92V43.984C239.105 43.6427 238.753 43.376 238.316 43.184C237.889 42.992 237.425 42.896 236.924 42.896C236.508 42.896 236.118 42.976 235.756 43.136C235.404 43.2853 235.094 43.4987 234.828 43.776C234.572 44.0533 234.369 44.3787 234.22 44.752C234.07 45.1253 233.996 45.5253 233.996 45.952ZM242.571 50V41.984H243.755V42.928C244.064 42.5653 244.432 42.2933 244.859 42.112C245.285 41.92 245.76 41.824 246.283 41.824C247.189 41.824 247.931 42.112 248.507 42.688C249.083 43.264 249.371 44.0107 249.371 44.928V50H248.203V45.168C248.203 44.464 248 43.904 247.595 43.488C247.189 43.072 246.645 42.864 245.963 42.864C245.483 42.864 245.051 42.9707 244.667 43.184C244.293 43.3973 243.989 43.7013 243.755 44.096V50H242.571Z" fill="#525663"/>
<circle cx="384" cy="32" r="16" fill="white"/>
<circle cx="384" cy="32" r="8" fill="#0048FF"/>
<circle cx="515" cy="32" r="1" transform="rotate(-180 515 32)" fill="#0048FF"/>
<circle cx="509" cy="32" r="1" transform="rotate(-180 509 32)" fill="#0048FF"/>
<circle cx="503" cy="32" r="1" transform="rotate(-180 503 32)" fill="#0048FF"/>
<circle cx="497" cy="32" r="1" transform="rotate(-180 497 32)" fill="#0048FF"/>
<circle cx="491" cy="32" r="1" transform="rotate(-180 491 32)" fill="#0048FF"/>
<circle cx="485" cy="32" r="1" transform="rotate(-180 485 32)" fill="#0048FF"/>
<circle cx="479" cy="32" r="1" transform="rotate(-180 479 32)" fill="#0048FF"/>
<circle cx="473" cy="32" r="1" transform="rotate(-180 473 32)" fill="#0048FF"/>
<circle cx="467" cy="32" r="1" transform="rotate(-180 467 32)" fill="#0048FF"/>
<circle cx="461" cy="32" r="1" transform="rotate(-180 461 32)" fill="#0048FF"/>
<circle cx="455" cy="32" r="1" transform="rotate(-180 455 32)" fill="#0048FF"/>
<circle cx="449" cy="32" r="1" transform="rotate(-180 449 32)" fill="#0048FF"/>
<circle cx="443" cy="32" r="1" transform="rotate(-180 443 32)" fill="#0048FF"/>
<circle cx="437" cy="32" r="1" transform="rotate(-180 437 32)" fill="#0048FF"/>
<circle cx="431" cy="32" r="1" transform="rotate(-180 431 32)" fill="#0048FF"/>
<circle cx="425" cy="32" r="1" transform="rotate(-180 425 32)" fill="#0048FF"/>
<circle cx="419" cy="32" r="1" transform="rotate(-180 419 32)" fill="#0048FF"/>
<circle cx="413" cy="32" r="1" transform="rotate(-180 413 32)" fill="#0048FF"/>
<circle cx="407" cy="32" r="1" transform="rotate(-180 407 32)" fill="#0048FF"/>
<circle cx="401" cy="32" r="1" transform="rotate(-180 401 32)" fill="#0048FF"/>
</svg>
