<svg width="64" height="64" viewBox="0 0 64 64" fill="none" xmlns="http://www.w3.org/2000/svg">
<circle cx="32" cy="32" r="32" fill="#CCDAFF"/>
<g clip-path="url(#clip0)">
<path d="M41.4825 16H21.6989C21.3428 16 21.0541 16.2887 21.0541 16.6448V47.339C21.0549 47.6952 21.3443 47.9832 21.7004 47.9823C21.8596 47.9819 22.0129 47.9228 22.131 47.8162L31.5907 39.2077L41.0505 47.8162C41.3148 48.0548 41.7226 48.0339 41.9612 47.7696C42.0678 47.6515 42.1269 47.4982 42.1273 47.339V16.6448C42.1273 16.2887 41.8386 16 41.4825 16ZM38.5352 26.0054C38.5204 26.1118 38.4706 26.2102 38.3937 26.2851L38.3808 26.3174L35.3372 29.2836L36.0594 33.4751C36.1047 33.7383 35.928 33.9884 35.6648 34.0337C35.5594 34.0518 35.451 34.0345 35.3565 33.9845L31.5907 31.9919L27.8249 33.9716C27.6616 34.0568 27.464 34.0417 27.3154 33.9329C27.167 33.8254 27.092 33.643 27.122 33.4622L27.8378 29.2707L24.7941 26.3045C24.6029 26.118 24.5988 25.8119 24.7853 25.6206C24.8602 25.5437 24.9586 25.4938 25.065 25.4791L29.2757 24.8665L31.1587 21.0297C31.2979 20.7894 31.6056 20.7073 31.846 20.8465C31.922 20.8905 31.9852 20.9537 32.0292 21.0297L33.9121 24.8472L38.1229 25.4597C38.3874 25.4966 38.572 25.7409 38.5352 26.0054Z" fill="#0048FF"/>
</g>
<defs>
<clipPath id="clip0">
<rect width="21.199" height="32" fill="white" transform="translate(21 16)"/>
</clipPath>
</defs>
</svg>
