<svg width="190" height="24" viewBox="0 0 190 24" fill="none" xmlns="http://www.w3.org/2000/svg">
<mask id="mask0" mask-type="alpha" maskUnits="userSpaceOnUse" x="0" y="8" width="116" height="8">
<rect x="108" y="8" width="8" height="8" fill="#C4C4C4"/>
<rect x="96" y="8" width="8" height="8" fill="#C4C4C4"/>
<rect x="84" y="8" width="8" height="8" fill="#C4C4C4"/>
<rect x="72" y="8" width="8" height="8" fill="#C4C4C4"/>
<rect x="60" y="8" width="8" height="8" fill="#C4C4C4"/>
<rect x="48" y="8" width="8" height="8" fill="#C4C4C4"/>
<rect x="36" y="8" width="8" height="8" fill="#C4C4C4"/>
<rect x="24" y="8" width="8" height="8" fill="#C4C4C4"/>
<rect x="12" y="8" width="8" height="8" fill="#C4C4C4"/>
<rect y="8" width="8" height="8" fill="#C4C4C4"/>
</mask>
<g mask="url(#mask0)">
<rect y="8" width="116" height="8" fill="url(#paint0_linear)"/>
</g>
<path d="M133.339 18V6.8H135.019V11.6H140.971V6.8H142.651V18H140.971V13.12H135.019V18H133.339ZM145.541 8.544C145.274 8.544 145.045 8.448 144.853 8.256C144.661 8.05333 144.565 7.81867 144.565 7.552C144.565 7.28533 144.661 7.056 144.853 6.864C145.045 6.66133 145.274 6.56 145.541 6.56C145.808 6.56 146.037 6.66133 146.229 6.864C146.432 7.056 146.533 7.28533 146.533 7.552C146.533 7.81867 146.432 8.05333 146.229 8.256C146.037 8.448 145.808 8.544 145.541 8.544ZM146.341 9.856V18H144.741V9.856H146.341ZM151.953 18.064C151.388 18.064 150.855 17.9573 150.353 17.744C149.852 17.52 149.415 17.2213 149.041 16.848C148.679 16.4747 148.391 16.032 148.177 15.52C147.964 15.008 147.857 14.464 147.857 13.888C147.857 13.312 147.964 12.768 148.177 12.256C148.391 11.744 148.679 11.3013 149.041 10.928C149.415 10.5547 149.852 10.2613 150.353 10.048C150.865 9.824 151.409 9.712 151.985 9.712C152.423 9.712 152.844 9.78133 153.249 9.92C153.665 10.0587 154.049 10.2613 154.401 10.528V9.856H155.985V18.112C155.985 19.168 155.66 19.9787 155.009 20.544C154.369 21.12 153.452 21.408 152.257 21.408C151.671 21.408 151.089 21.3387 150.513 21.2C149.948 21.0613 149.436 20.864 148.977 20.608L149.601 19.36C150.06 19.5947 150.503 19.7707 150.929 19.888C151.356 20.0053 151.783 20.064 152.209 20.064C152.913 20.064 153.452 19.8987 153.825 19.568C154.199 19.2373 154.385 18.752 154.385 18.112V17.2C154.044 17.4773 153.665 17.6907 153.249 17.84C152.833 17.9893 152.401 18.064 151.953 18.064ZM149.425 13.888C149.425 14.6667 149.687 15.328 150.209 15.872C150.732 16.4053 151.377 16.672 152.145 16.672C152.604 16.672 153.025 16.592 153.409 16.432C153.793 16.2613 154.119 16.0267 154.385 15.728V12.048C154.129 11.7493 153.804 11.52 153.409 11.36C153.025 11.1893 152.604 11.104 152.145 11.104C151.377 11.104 150.732 11.376 150.209 11.92C149.687 12.4533 149.425 13.1093 149.425 13.888ZM157.866 18V6.8L159.466 6.448V10.672C159.786 10.352 160.149 10.112 160.554 9.952C160.97 9.78133 161.423 9.696 161.914 9.696C162.842 9.696 163.605 9.99467 164.202 10.592C164.799 11.1787 165.098 11.9413 165.098 12.88V18H163.498V13.152C163.498 12.512 163.311 12.0107 162.938 11.648C162.575 11.2747 162.09 11.088 161.482 11.088C161.055 11.088 160.666 11.1787 160.314 11.36C159.973 11.5413 159.69 11.8027 159.466 12.144V18H157.866Z" fill="white"/>
<circle cx="182" cy="12" r="7" stroke="#EF233C" stroke-width="2"/>
<path d="M179 12L181 14L185 10" stroke="#EF233C" stroke-width="2"/>
<defs>
<linearGradient id="paint0_linear" x1="0" y1="16" x2="116" y2="16" gradientUnits="userSpaceOnUse">
<stop stop-color="#000E33" stop-opacity="0"/>
<stop offset="1" stop-color="#EF233C"/>
</linearGradient>
</defs>
</svg>
