<svg width="272" height="49" viewBox="0 0 272 49" fill="none" xmlns="http://www.w3.org/2000/svg">
<path d="M68.8327 39.6809C68.8327 40.3646 68.7272 40.9905 68.5162 41.5586C68.3052 42.1171 68.003 42.5938 67.6097 42.9886C67.226 43.3738 66.756 43.6723 66.1997 43.8841C65.653 44.096 65.0439 44.2019 64.3724 44.2019C63.6914 44.2019 63.0727 44.096 62.5164 43.8841C61.9696 43.6723 61.5044 43.3738 61.1207 42.9886C60.737 42.5938 60.4397 42.1171 60.2286 41.5586C60.0176 41.0001 59.9121 40.3742 59.9121 39.6809V33.9466H61.9984V39.6809C61.9984 40.4609 62.2142 41.0868 62.6458 41.5586C63.0871 42.0305 63.6674 42.2664 64.3868 42.2664C65.1062 42.2664 65.6769 42.0305 66.099 41.5586C66.5306 41.0868 66.7464 40.4609 66.7464 39.6809V33.9466H68.8327V39.6809Z" fill="white"/>
<path d="M69.863 44.0575V36.5321H71.8342V37.1243C72.122 36.8835 72.4385 36.7006 72.7838 36.5754C73.1387 36.4502 73.5224 36.3876 73.9349 36.3876C74.7981 36.3876 75.508 36.6669 76.0643 37.2254C76.6206 37.7839 76.8988 38.5013 76.8988 39.3776V44.0575H74.9276V39.6665C74.9276 39.1946 74.7838 38.8142 74.496 38.5254C74.2178 38.2365 73.8437 38.092 73.3737 38.092C73.0476 38.092 72.7502 38.1594 72.4817 38.2943C72.2227 38.4194 72.0069 38.6024 71.8342 38.8431V44.0575H69.863Z" fill="white"/>
<path d="M79.8595 33.5132V44.0575H77.8883V33.9466L79.8595 33.5132Z" fill="white"/>
<path d="M80.5521 40.302C80.5521 39.7531 80.6529 39.2428 80.8543 38.7709C81.0653 38.2894 81.3483 37.8754 81.7032 37.5287C82.0677 37.1724 82.4945 36.8932 82.9837 36.691C83.4729 36.4887 83.9957 36.3876 84.552 36.3876C85.1084 36.3876 85.6311 36.4887 86.1203 36.691C86.6095 36.8932 87.0316 37.1724 87.3865 37.5287C87.751 37.8754 88.0339 38.2894 88.2354 38.7709C88.4464 39.2428 88.5519 39.7531 88.5519 40.302C88.5519 40.8509 88.4464 41.3661 88.2354 41.8475C88.0339 42.3194 87.751 42.7286 87.3865 43.0753C87.0316 43.4219 86.6095 43.6964 86.1203 43.8986C85.6311 44.1008 85.1084 44.2019 84.552 44.2019C83.9957 44.2019 83.4729 44.1008 82.9837 43.8986C82.4945 43.6964 82.0677 43.4219 81.7032 43.0753C81.3483 42.7286 81.0653 42.3194 80.8543 41.8475C80.6529 41.3661 80.5521 40.8509 80.5521 40.302ZM84.552 42.4831C85.1276 42.4831 85.6167 42.2712 86.0196 41.8475C86.4225 41.4238 86.6239 40.9087 86.6239 40.302C86.6239 39.6857 86.4225 39.1657 86.0196 38.742C85.6167 38.3183 85.1276 38.1065 84.552 38.1065C83.9765 38.1065 83.4873 38.3183 83.0844 38.742C82.6816 39.1657 82.4801 39.6857 82.4801 40.302C82.4801 40.9087 82.6816 41.4238 83.0844 41.8475C83.4873 42.2712 83.9765 42.4831 84.552 42.4831Z" fill="white"/>
<path d="M92.9851 42.4686C93.3208 42.4686 93.6326 42.4012 93.9203 42.2664C94.2177 42.1316 94.5007 41.9197 94.7692 41.6309L95.9491 42.8586C95.5654 43.2823 95.105 43.6145 94.5678 43.8553C94.0307 44.0864 93.4743 44.2019 92.8988 44.2019C92.352 44.2019 91.8341 44.1008 91.3449 43.8986C90.8653 43.6964 90.448 43.4219 90.0931 43.0753C89.7478 42.7286 89.4744 42.3194 89.273 41.8475C89.0716 41.3661 88.9709 40.8509 88.9709 40.302C88.9709 39.7531 89.0716 39.2428 89.273 38.7709C89.4744 38.2894 89.7478 37.8754 90.0931 37.5287C90.448 37.1724 90.8653 36.8932 91.3449 36.691C91.8341 36.4887 92.352 36.3876 92.8988 36.3876C93.4935 36.3876 94.0642 36.508 94.611 36.7487C95.1577 36.9798 95.6229 37.3072 96.0066 37.7309L94.798 39.0165C94.5294 38.718 94.2417 38.4917 93.9347 38.3376C93.6278 38.1835 93.2969 38.1065 92.942 38.1065C92.376 38.1065 91.8964 38.3183 91.5032 38.742C91.1195 39.1657 90.9276 39.6857 90.9276 40.302C90.9276 40.9183 91.1243 41.4335 91.5175 41.8475C91.9204 42.2616 92.4096 42.4686 92.9851 42.4686Z" fill="white"/>
<path d="M96.4703 44.0575V33.9466L98.4415 33.5132V39.7098L101.679 36.5321H103.909L100.398 39.9842L104.125 44.0575H101.607L98.4415 40.6198V44.0575H96.4703Z" fill="white"/>
<path d="M105.123 35.6365C104.816 35.6365 104.552 35.5258 104.331 35.3043C104.111 35.0828 104 34.818 104 34.5099C104 34.2017 104.111 33.9369 104.331 33.7155C104.552 33.494 104.816 33.3832 105.123 33.3832C105.43 33.3832 105.693 33.494 105.914 33.7155C106.135 33.9369 106.245 34.2017 106.245 34.5099C106.245 34.818 106.135 35.0828 105.914 35.3043C105.693 35.5258 105.43 35.6365 105.123 35.6365ZM106.115 36.5321V44.0575H104.144V36.5321H106.115Z" fill="white"/>
<path d="M107.153 44.0575V36.5321H109.125V37.1243C109.412 36.8835 109.729 36.7006 110.074 36.5754C110.429 36.4502 110.813 36.3876 111.225 36.3876C112.089 36.3876 112.798 36.6669 113.355 37.2254C113.911 37.7839 114.189 38.5013 114.189 39.3776V44.0575H112.218V39.6665C112.218 39.1946 112.074 38.8142 111.786 38.5254C111.508 38.2365 111.134 38.092 110.664 38.092C110.338 38.092 110.041 38.1594 109.772 38.2943C109.513 38.4194 109.297 38.6024 109.125 38.8431V44.0575H107.153Z" fill="white"/>
<path d="M118.632 44.1008C118.104 44.1008 117.606 43.9997 117.136 43.7975C116.675 43.5953 116.272 43.3208 115.927 42.9742C115.591 42.6275 115.323 42.2231 115.121 41.7609C114.929 41.289 114.833 40.7835 114.833 40.2442C114.833 39.7146 114.934 39.2187 115.136 38.7565C115.337 38.2846 115.61 37.8754 115.956 37.5287C116.301 37.1821 116.709 36.9124 117.179 36.7198C117.649 36.5176 118.152 36.4165 118.689 36.4165C119.064 36.4165 119.418 36.4695 119.754 36.5754C120.099 36.6813 120.421 36.8306 120.718 37.0232V36.5321H122.661V44.0575C122.661 45.0493 122.339 45.8149 121.697 46.3541C121.063 46.8934 120.147 47.163 118.948 47.163C118.373 47.163 117.817 47.1052 117.279 46.9896C116.752 46.8741 116.267 46.7056 115.826 46.4841L116.517 44.9386C116.929 45.1408 117.332 45.29 117.725 45.3863C118.119 45.4923 118.512 45.5452 118.905 45.5452C119.49 45.5452 119.932 45.4152 120.229 45.1552C120.536 44.9049 120.689 44.5341 120.689 44.043V43.4219C120.392 43.6434 120.066 43.8119 119.711 43.9275C119.366 44.043 119.006 44.1008 118.632 44.1008ZM116.776 40.2442C116.776 40.8509 116.982 41.366 117.394 41.7897C117.817 42.2134 118.33 42.4253 118.934 42.4253C119.289 42.4253 119.615 42.3675 119.912 42.252C120.21 42.1268 120.469 41.9583 120.689 41.7464V38.7854C120.478 38.5735 120.219 38.4098 119.912 38.2943C119.605 38.1691 119.284 38.1065 118.948 38.1065C118.344 38.1065 117.831 38.3135 117.409 38.7276C116.987 39.1416 116.776 39.6472 116.776 40.2442Z" fill="white"/>
<path d="M125.266 44.0575L129.41 33.9466H131.827L135.913 44.0575H133.654L132.633 41.3998H128.475L127.439 44.0575H125.266ZM129.122 39.7242H132L130.575 35.9976L129.122 39.7242Z" fill="white"/>
<path d="M136.265 44.0575V33.9466H138.351V44.0575H136.265Z" fill="white"/>
<path d="M144.317 44.1875C143.511 44.1875 142.854 43.9756 142.346 43.5519C141.837 43.1186 141.583 42.5601 141.583 41.8764C141.583 41.1638 141.856 40.6053 142.403 40.2009C142.95 39.7964 143.703 39.5942 144.662 39.5942C144.969 39.5942 145.276 39.6183 145.583 39.6665C145.89 39.7146 146.192 39.7868 146.489 39.8831V39.3487C146.489 38.9154 146.355 38.588 146.087 38.3665C145.818 38.145 145.425 38.0343 144.907 38.0343C144.59 38.0343 144.245 38.0872 143.871 38.1931C143.506 38.2894 143.089 38.4435 142.619 38.6554L141.9 37.1965C142.485 36.9269 143.051 36.7247 143.597 36.5898C144.154 36.455 144.701 36.3876 145.238 36.3876C146.245 36.3876 147.027 36.6332 147.583 37.1243C148.149 37.6058 148.432 38.2894 148.432 39.1754V44.0575H146.489V43.5375C146.173 43.759 145.837 43.9227 145.482 44.0286C145.137 44.1345 144.748 44.1875 144.317 44.1875ZM143.468 41.8331C143.468 42.122 143.593 42.3531 143.842 42.5264C144.091 42.6901 144.422 42.7719 144.835 42.7719C145.161 42.7719 145.458 42.7334 145.727 42.6564C146.005 42.5697 146.259 42.4494 146.489 42.2953V41.1686C146.25 41.0724 145.995 41.0049 145.727 40.9664C145.468 40.9183 145.195 40.8942 144.907 40.8942C144.456 40.8942 144.101 40.9809 143.842 41.1542C143.593 41.3179 143.468 41.5442 143.468 41.8331Z" fill="white"/>
<path d="M153.089 42.4686C153.425 42.4686 153.737 42.4012 154.024 42.2664C154.322 42.1316 154.605 41.9197 154.873 41.6309L156.053 42.8586C155.669 43.2823 155.209 43.6145 154.672 43.8553C154.135 44.0864 153.578 44.2019 153.003 44.2019C152.456 44.2019 151.938 44.1008 151.449 43.8986C150.969 43.6964 150.552 43.4219 150.197 43.0753C149.852 42.7286 149.578 42.3194 149.377 41.8475C149.176 41.3661 149.075 40.8509 149.075 40.302C149.075 39.7531 149.176 39.2428 149.377 38.7709C149.578 38.2894 149.852 37.8754 150.197 37.5287C150.552 37.1724 150.969 36.8932 151.449 36.691C151.938 36.4887 152.456 36.3876 153.003 36.3876C153.597 36.3876 154.168 36.508 154.715 36.7487C155.262 36.9798 155.727 37.3072 156.111 37.7309L154.902 39.0165C154.633 38.718 154.346 38.4917 154.039 38.3376C153.732 38.1835 153.401 38.1065 153.046 38.1065C152.48 38.1065 152 38.3183 151.607 38.742C151.223 39.1657 151.032 39.6857 151.032 40.302C151.032 40.9183 151.228 41.4335 151.621 41.8475C152.024 42.2616 152.514 42.4686 153.089 42.4686Z" fill="white"/>
<path d="M156.574 44.0575V36.5321H158.545V37.3554C158.785 37.028 159.073 36.7824 159.409 36.6187C159.754 36.4454 160.133 36.3587 160.545 36.3587C160.737 36.3684 160.895 36.3876 161.02 36.4165C161.154 36.4358 161.27 36.4743 161.365 36.5321V38.2654C161.222 38.198 161.063 38.1498 160.891 38.1209C160.718 38.0824 160.541 38.0631 160.358 38.0631C159.975 38.0631 159.62 38.1594 159.294 38.352C158.977 38.5446 158.728 38.8239 158.545 39.1898V44.0575H156.574Z" fill="white"/>
<path d="M161.219 40.302C161.219 39.7531 161.32 39.2428 161.521 38.7709C161.732 38.2894 162.015 37.8754 162.37 37.5287C162.735 37.1724 163.162 36.8932 163.651 36.691C164.14 36.4887 164.663 36.3876 165.219 36.3876C165.775 36.3876 166.298 36.4887 166.787 36.691C167.277 36.8932 167.699 37.1724 168.054 37.5287C168.418 37.8754 168.701 38.2894 168.902 38.7709C169.113 39.2428 169.219 39.7531 169.219 40.302C169.219 40.8509 169.113 41.3661 168.902 41.8475C168.701 42.3194 168.418 42.7286 168.054 43.0753C167.699 43.4219 167.277 43.6964 166.787 43.8986C166.298 44.1008 165.775 44.2019 165.219 44.2019C164.663 44.2019 164.14 44.1008 163.651 43.8986C163.162 43.6964 162.735 43.4219 162.37 43.0753C162.015 42.7286 161.732 42.3194 161.521 41.8475C161.32 41.3661 161.219 40.8509 161.219 40.302ZM165.219 42.4831C165.795 42.4831 166.284 42.2712 166.687 41.8475C167.09 41.4238 167.291 40.9087 167.291 40.302C167.291 39.6857 167.09 39.1657 166.687 38.742C166.284 38.3183 165.795 38.1065 165.219 38.1065C164.644 38.1065 164.154 38.3183 163.752 38.742C163.349 39.1657 163.147 39.6857 163.147 40.302C163.147 40.9087 163.349 41.4238 163.752 41.8475C164.154 42.2712 164.644 42.4831 165.219 42.4831Z" fill="white"/>
<path d="M169.294 43.1619L170.272 41.8475C170.714 42.1364 171.131 42.3531 171.524 42.4975C171.917 42.6323 172.311 42.6997 172.704 42.6997C173.145 42.6997 173.495 42.6275 173.754 42.4831C174.023 42.3386 174.157 42.146 174.157 41.9053C174.157 41.7127 174.08 41.5586 173.927 41.4431C173.783 41.3275 173.548 41.2457 173.222 41.1975L171.783 40.9809C171.045 40.8653 170.479 40.6246 170.085 40.2587C169.702 39.8927 169.51 39.4065 169.51 38.7998C169.51 38.0776 169.793 37.4998 170.359 37.0665C170.925 36.6332 171.682 36.4165 172.632 36.4165C173.179 36.4165 173.711 36.4984 174.229 36.6621C174.747 36.8161 175.241 37.0472 175.711 37.3554L174.761 38.6265C174.349 38.3857 173.956 38.2076 173.582 38.092C173.208 37.9669 172.829 37.9043 172.445 37.9043C172.09 37.9043 171.802 37.9717 171.582 38.1065C171.371 38.2413 171.265 38.4194 171.265 38.6409C171.265 38.8431 171.342 39.002 171.495 39.1176C171.658 39.2235 171.922 39.3005 172.287 39.3487L173.726 39.5653C174.454 39.6713 175.016 39.912 175.409 40.2876C175.812 40.6631 176.013 41.1398 176.013 41.7175C176.013 42.0738 175.927 42.406 175.754 42.7142C175.591 43.0127 175.366 43.2727 175.078 43.4942C174.79 43.7156 174.445 43.889 174.042 44.0141C173.639 44.1393 173.203 44.2019 172.733 44.2019C172.052 44.2019 171.414 44.1153 170.819 43.9419C170.224 43.759 169.716 43.499 169.294 43.1619Z" fill="white"/>
<path d="M175.886 43.1619L176.864 41.8475C177.306 42.1364 177.723 42.3531 178.116 42.4975C178.51 42.6323 178.903 42.6997 179.296 42.6997C179.737 42.6997 180.087 42.6275 180.346 42.4831C180.615 42.3386 180.749 42.146 180.749 41.9053C180.749 41.7127 180.673 41.5586 180.519 41.4431C180.375 41.3275 180.14 41.2457 179.814 41.1975L178.375 40.9809C177.637 40.8653 177.071 40.6246 176.677 40.2587C176.294 39.8927 176.102 39.4065 176.102 38.7998C176.102 38.0776 176.385 37.4998 176.951 37.0665C177.517 36.6332 178.274 36.4165 179.224 36.4165C179.771 36.4165 180.303 36.4984 180.821 36.6621C181.339 36.8161 181.833 37.0472 182.303 37.3554L181.354 38.6265C180.941 38.3857 180.548 38.2076 180.174 38.092C179.8 37.9669 179.421 37.9043 179.037 37.9043C178.682 37.9043 178.394 37.9717 178.174 38.1065C177.963 38.2413 177.857 38.4194 177.857 38.6409C177.857 38.8431 177.934 39.002 178.087 39.1176C178.251 39.2235 178.514 39.3005 178.879 39.3487L180.318 39.5653C181.047 39.6713 181.608 39.912 182.001 40.2876C182.404 40.6631 182.605 41.1398 182.605 41.7175C182.605 42.0738 182.519 42.406 182.346 42.7142C182.183 43.0127 181.958 43.2727 181.67 43.4942C181.382 43.7156 181.037 43.889 180.634 44.0141C180.231 44.1393 179.795 44.2019 179.325 44.2019C178.644 44.2019 178.006 44.1153 177.411 43.9419C176.816 43.759 176.308 43.499 175.886 43.1619Z" fill="white"/>
<path d="M187.503 44.4041L187.618 44.1297L184.697 36.5321H186.87L188.726 41.6597L190.855 36.5321H192.985L189.531 44.6497C189.148 45.5549 188.702 46.2 188.193 46.5852C187.685 46.9704 187.023 47.163 186.208 47.163C186.035 47.163 185.867 47.1533 185.704 47.1341C185.551 47.1245 185.426 47.1052 185.33 47.0763V45.3719C185.426 45.3912 185.527 45.4056 185.632 45.4152C185.738 45.4249 185.867 45.4297 186.021 45.4297C186.376 45.4297 186.673 45.343 186.913 45.1697C187.162 44.9964 187.359 44.7412 187.503 44.4041Z" fill="white"/>
<path d="M192.634 40.302C192.634 39.7531 192.735 39.2428 192.936 38.7709C193.147 38.2894 193.43 37.8754 193.785 37.5287C194.15 37.1724 194.577 36.8932 195.066 36.691C195.555 36.4887 196.078 36.3876 196.634 36.3876C197.19 36.3876 197.713 36.4887 198.202 36.691C198.691 36.8932 199.114 37.1724 199.468 37.5287C199.833 37.8754 200.116 38.2894 200.317 38.7709C200.528 39.2428 200.634 39.7531 200.634 40.302C200.634 40.8509 200.528 41.3661 200.317 41.8475C200.116 42.3194 199.833 42.7286 199.468 43.0753C199.114 43.4219 198.691 43.6964 198.202 43.8986C197.713 44.1008 197.19 44.2019 196.634 44.2019C196.078 44.2019 195.555 44.1008 195.066 43.8986C194.577 43.6964 194.15 43.4219 193.785 43.0753C193.43 42.7286 193.147 42.3194 192.936 41.8475C192.735 41.3661 192.634 40.8509 192.634 40.302ZM196.634 42.4831C197.21 42.4831 197.699 42.2712 198.102 41.8475C198.504 41.4238 198.706 40.9087 198.706 40.302C198.706 39.6857 198.504 39.1657 198.102 38.742C197.699 38.3183 197.21 38.1065 196.634 38.1065C196.058 38.1065 195.569 38.3183 195.166 38.742C194.764 39.1657 194.562 39.6857 194.562 40.302C194.562 40.9087 194.764 41.4238 195.166 41.8475C195.569 42.2712 196.058 42.4831 196.634 42.4831Z" fill="white"/>
<path d="M203.256 36.5321V40.9087C203.256 41.3901 203.395 41.7753 203.673 42.0642C203.961 42.3531 204.339 42.4975 204.809 42.4975C205.145 42.4975 205.443 42.4349 205.702 42.3097C205.97 42.1749 206.191 41.9871 206.363 41.7464V36.5321H208.335V44.0575H206.363V43.4508C206.076 43.6916 205.754 43.8793 205.399 44.0141C205.044 44.1393 204.661 44.2019 204.248 44.2019C203.385 44.2019 202.675 43.9227 202.119 43.3642C201.563 42.796 201.284 42.0738 201.284 41.1975V36.5321H203.256Z" fill="white"/>
<path d="M209.367 44.0575V36.5321H211.338V37.3554C211.578 37.028 211.866 36.7824 212.202 36.6187C212.547 36.4454 212.926 36.3587 213.338 36.3587C213.53 36.3684 213.688 36.3876 213.813 36.4165C213.947 36.4358 214.063 36.4743 214.158 36.5321V38.2654C214.015 38.198 213.856 38.1498 213.684 38.1209C213.511 38.0824 213.334 38.0631 213.151 38.0631C212.768 38.0631 212.413 38.1594 212.087 38.352C211.77 38.5446 211.521 38.8239 211.338 39.1898V44.0575H209.367Z" fill="white"/>
<path d="M224.998 40.302C224.998 40.8412 224.898 41.3468 224.696 41.8186C224.495 42.2905 224.221 42.6997 223.876 43.0464C223.531 43.393 223.118 43.6675 222.639 43.8697C222.169 44.0623 221.665 44.1586 221.128 44.1586C220.754 44.1586 220.389 44.1056 220.035 43.9997C219.68 43.8938 219.354 43.7445 219.056 43.5519V44.0575H217.114V33.9466L219.085 33.5132V37.1243C219.382 36.9028 219.708 36.7343 220.063 36.6187C220.428 36.4936 220.802 36.431 221.186 36.431C221.713 36.431 222.207 36.5321 222.668 36.7343C223.138 36.9365 223.545 37.2109 223.891 37.5576C224.236 37.9043 224.504 38.3135 224.696 38.7854C224.898 39.2572 224.998 39.7627 224.998 40.302ZM220.869 38.1209C220.514 38.1209 220.183 38.1835 219.876 38.3087C219.569 38.4243 219.306 38.5976 219.085 38.8287V41.7897C219.296 42.0016 219.555 42.1701 219.862 42.2953C220.178 42.4205 220.514 42.4831 220.869 42.4831C221.483 42.4831 222.001 42.276 222.423 41.862C222.845 41.4383 223.056 40.9183 223.056 40.302C223.056 39.6857 222.84 39.1705 222.409 38.7565C221.987 38.3328 221.473 38.1209 220.869 38.1209Z" fill="white"/>
<path d="M227.615 36.5321V40.9087C227.615 41.3901 227.754 41.7753 228.032 42.0642C228.32 42.3531 228.699 42.4975 229.169 42.4975C229.504 42.4975 229.802 42.4349 230.061 42.3097C230.329 42.1749 230.55 41.9871 230.723 41.7464V36.5321H232.694V44.0575H230.723V43.4508C230.435 43.6916 230.113 43.8793 229.759 44.0141C229.404 44.1393 229.02 44.2019 228.607 44.2019C227.744 44.2019 227.034 43.9227 226.478 43.3642C225.922 42.796 225.644 42.0738 225.644 41.1975V36.5321H227.615Z" fill="white"/>
<path d="M233.093 43.1619L234.072 41.8475C234.513 42.1364 234.93 42.3531 235.323 42.4975C235.717 42.6323 236.11 42.6997 236.503 42.6997C236.945 42.6997 237.295 42.6275 237.554 42.4831C237.822 42.3386 237.956 42.146 237.956 41.9053C237.956 41.7127 237.88 41.5586 237.726 41.4431C237.582 41.3275 237.347 41.2457 237.021 41.1975L235.582 40.9809C234.844 40.8653 234.278 40.6246 233.885 40.2587C233.501 39.8927 233.309 39.4065 233.309 38.7998C233.309 38.0776 233.592 37.4998 234.158 37.0665C234.724 36.6332 235.482 36.4165 236.431 36.4165C236.978 36.4165 237.51 36.4984 238.028 36.6621C238.546 36.8161 239.04 37.0472 239.51 37.3554L238.561 38.6265C238.148 38.3857 237.755 38.2076 237.381 38.092C237.007 37.9669 236.628 37.9043 236.244 37.9043C235.889 37.9043 235.602 37.9717 235.381 38.1065C235.17 38.2413 235.064 38.4194 235.064 38.6409C235.064 38.8431 235.141 39.002 235.295 39.1176C235.458 39.2235 235.722 39.3005 236.086 39.3487L237.525 39.5653C238.254 39.6713 238.815 39.912 239.208 40.2876C239.611 40.6631 239.813 41.1398 239.813 41.7175C239.813 42.0738 239.726 42.406 239.554 42.7142C239.39 43.0127 239.165 43.2727 238.877 43.4942C238.59 43.7156 238.244 43.889 237.841 44.0141C237.438 44.1393 237.002 44.2019 236.532 44.2019C235.851 44.2019 235.213 44.1153 234.618 43.9419C234.024 43.759 233.515 43.499 233.093 43.1619Z" fill="white"/>
<path d="M241.269 35.6365C240.962 35.6365 240.698 35.5258 240.477 35.3043C240.257 35.0828 240.146 34.818 240.146 34.5099C240.146 34.2017 240.257 33.9369 240.477 33.7155C240.698 33.494 240.962 33.3832 241.269 33.3832C241.576 33.3832 241.839 33.494 242.06 33.7155C242.281 33.9369 242.391 34.2017 242.391 34.5099C242.391 34.818 242.281 35.0828 242.06 35.3043C241.839 35.5258 241.576 35.6365 241.269 35.6365ZM242.262 36.5321V44.0575H240.29V36.5321H242.262Z" fill="white"/>
<path d="M243.299 44.0575V36.5321H245.271V37.1243C245.558 36.8835 245.875 36.7006 246.22 36.5754C246.575 36.4502 246.959 36.3876 247.371 36.3876C248.235 36.3876 248.944 36.6669 249.501 37.2254C250.057 37.7839 250.335 38.5013 250.335 39.3776V44.0575H248.364V39.6665C248.364 39.1946 248.22 38.8142 247.932 38.5254C247.654 38.2365 247.28 38.092 246.81 38.092C246.484 38.092 246.187 38.1594 245.918 38.2943C245.659 38.4194 245.443 38.6024 245.271 38.8431V44.0575H243.299Z" fill="white"/>
<path d="M258.044 43.1186C257.584 43.4942 257.109 43.7686 256.62 43.9419C256.14 44.1153 255.603 44.2019 255.008 44.2019C254.442 44.2019 253.91 44.1008 253.411 43.8986C252.922 43.6964 252.495 43.4219 252.131 43.0753C251.776 42.7286 251.493 42.3194 251.282 41.8475C251.08 41.3661 250.979 40.8509 250.979 40.302C250.979 39.7627 251.075 39.2572 251.267 38.7854C251.469 38.3039 251.742 37.8898 252.087 37.5432C252.433 37.1869 252.84 36.9076 253.31 36.7054C253.79 36.5032 254.298 36.4021 254.835 36.4021C255.363 36.4021 255.852 36.508 256.303 36.7198C256.763 36.9221 257.157 37.2013 257.483 37.5576C257.819 37.9139 258.078 38.3424 258.26 38.8431C258.452 39.3342 258.548 39.8687 258.548 40.4464V40.9664H252.965C253.099 41.4383 253.358 41.8186 253.742 42.1075C254.126 42.3964 254.576 42.5408 255.094 42.5408C255.421 42.5408 255.728 42.4879 256.015 42.382C256.303 42.276 256.548 42.1268 256.749 41.9342L258.044 43.1186ZM254.792 38.0343C254.341 38.0343 253.953 38.1739 253.627 38.4531C253.301 38.7228 253.075 39.0887 252.951 39.5509H256.62C256.495 39.1079 256.265 38.7468 255.929 38.4676C255.603 38.1787 255.224 38.0343 254.792 38.0343Z" fill="white"/>
<path d="M258.689 43.1619L259.667 41.8475C260.109 42.1364 260.526 42.3531 260.919 42.4975C261.312 42.6323 261.706 42.6997 262.099 42.6997C262.54 42.6997 262.89 42.6275 263.149 42.4831C263.418 42.3386 263.552 42.146 263.552 41.9053C263.552 41.7127 263.475 41.5586 263.322 41.4431C263.178 41.3275 262.943 41.2457 262.617 41.1975L261.178 40.9809C260.439 40.8653 259.874 40.6246 259.48 40.2587C259.097 39.8927 258.905 39.4065 258.905 38.7998C258.905 38.0776 259.188 37.4998 259.754 37.0665C260.32 36.6332 261.077 36.4165 262.027 36.4165C262.574 36.4165 263.106 36.4984 263.624 36.6621C264.142 36.8161 264.636 37.0472 265.106 37.3554L264.156 38.6265C263.744 38.3857 263.351 38.2076 262.977 38.092C262.602 37.9669 262.224 37.9043 261.84 37.9043C261.485 37.9043 261.197 37.9717 260.977 38.1065C260.766 38.2413 260.66 38.4194 260.66 38.6409C260.66 38.8431 260.737 39.002 260.89 39.1176C261.053 39.2235 261.317 39.3005 261.682 39.3487L263.12 39.5653C263.849 39.6713 264.411 39.912 264.804 40.2876C265.207 40.6631 265.408 41.1398 265.408 41.7175C265.408 42.0738 265.322 42.406 265.149 42.7142C264.986 43.0127 264.761 43.2727 264.473 43.4942C264.185 43.7156 263.84 43.889 263.437 44.0141C263.034 44.1393 262.598 44.2019 262.128 44.2019C261.447 44.2019 260.809 44.1153 260.214 43.9419C259.619 43.759 259.111 43.499 258.689 43.1619Z" fill="white"/>
<path d="M265.281 43.1619L266.259 41.8475C266.701 42.1364 267.118 42.3531 267.511 42.4975C267.904 42.6323 268.298 42.6997 268.691 42.6997C269.132 42.6997 269.482 42.6275 269.741 42.4831C270.01 42.3386 270.144 42.146 270.144 41.9053C270.144 41.7127 270.067 41.5586 269.914 41.4431C269.77 41.3275 269.535 41.2457 269.209 41.1975L267.77 40.9809C267.032 40.8653 266.466 40.6246 266.072 40.2587C265.689 39.8927 265.497 39.4065 265.497 38.7998C265.497 38.0776 265.78 37.4998 266.346 37.0665C266.912 36.6332 267.669 36.4165 268.619 36.4165C269.166 36.4165 269.698 36.4984 270.216 36.6621C270.734 36.8161 271.228 37.0472 271.698 37.3554L270.748 38.6265C270.336 38.3857 269.943 38.2076 269.569 38.092C269.195 37.9669 268.816 37.9043 268.432 37.9043C268.077 37.9043 267.789 37.9717 267.569 38.1065C267.358 38.2413 267.252 38.4194 267.252 38.6409C267.252 38.8431 267.329 39.002 267.482 39.1176C267.645 39.2235 267.909 39.3005 268.274 39.3487L269.713 39.5653C270.442 39.6713 271.003 39.912 271.396 40.2876C271.799 40.6631 272 41.1398 272 41.7175C272 42.0738 271.914 42.406 271.741 42.7142C271.578 43.0127 271.353 43.2727 271.065 43.4942C270.777 43.7156 270.432 43.889 270.029 44.0141C269.626 44.1393 269.19 44.2019 268.72 44.2019C268.039 44.2019 267.401 44.1153 266.806 43.9419C266.211 43.759 265.703 43.499 265.281 43.1619Z" fill="white"/>
<path d="M59.9121 28.8297V3.6448H66.1979V28.8297H59.9121Z" fill="white"/>
<path d="M71.6098 28.8297V9.79711H77.5302V11.0923C78.2367 10.5646 79.0285 10.1569 79.9056 9.86906C80.8071 9.58124 81.7451 9.43732 82.7196 9.43732C84.9854 9.43732 86.8371 10.1569 88.2745 11.596C89.712 13.0352 90.4307 14.8701 90.4307 17.1007V28.8297H84.5103V17.8923C84.5103 16.8609 84.1814 16.0334 83.5236 15.4097C82.8902 14.7621 82.0496 14.4383 81.002 14.4383C80.2467 14.4383 79.5767 14.5702 78.992 14.8341C78.4073 15.0979 77.92 15.4697 77.5302 15.9494V28.8297H71.6098Z" fill="white"/>
<path d="M97.44 23.0372V14.6542H93.5296V9.79711H97.44V4.90404L103.36 3.6448V9.79711H108.769V14.6542H103.36V21.8859C103.36 22.7254 103.543 23.325 103.909 23.6848C104.298 24.0206 104.968 24.1885 105.919 24.1885C106.381 24.1885 106.82 24.1645 107.234 24.1165C107.648 24.0446 108.099 23.9366 108.586 23.7927V28.5059C108.05 28.6738 107.368 28.8057 106.54 28.9017C105.711 29.0216 105.017 29.0815 104.457 29.0815C102.142 29.0815 100.388 28.5778 99.1942 27.5704C98.0247 26.5391 97.44 25.028 97.44 23.0372Z" fill="white"/>
<path d="M130.267 26.3112C129.048 27.3186 127.794 28.0502 126.502 28.5059C125.236 28.9616 123.798 29.1895 122.19 29.1895C120.728 29.1895 119.352 28.9376 118.06 28.4339C116.769 27.9302 115.648 27.2347 114.698 26.3472C113.772 25.4597 113.029 24.4163 112.469 23.2171C111.933 21.9938 111.665 20.6986 111.665 19.3314C111.665 17.9642 111.921 16.681 112.432 15.4817C112.968 14.2584 113.687 13.2031 114.589 12.3156C115.49 11.4281 116.55 10.7325 117.768 10.2288C119.011 9.72515 120.338 9.4733 121.752 9.4733C123.165 9.4733 124.468 9.73714 125.662 10.2648C126.856 10.7925 127.879 11.5121 128.732 12.4235C129.609 13.335 130.291 14.4383 130.778 15.7335C131.266 17.0048 131.509 18.384 131.509 19.8711V21.3102H117.732C118.121 22.1977 118.73 22.9292 119.559 23.5049C120.387 24.0566 121.362 24.3324 122.482 24.3324C123.286 24.3324 124.017 24.2125 124.675 23.9726C125.333 23.7088 125.893 23.349 126.356 22.8933L130.267 26.3112ZM121.642 14.2225C120.667 14.2225 119.827 14.4863 119.12 15.014C118.414 15.5417 117.914 16.2852 117.622 17.2446H125.698C125.382 16.3332 124.858 15.6016 124.127 15.05C123.42 14.4983 122.592 14.2225 121.642 14.2225Z" fill="white"/>
<path d="M141.659 2.38555V28.8297H135.739V3.6448L141.659 2.38555Z" fill="white"/>
<path d="M152.685 2.38555V28.8297H146.765V3.6448L152.685 2.38555Z" fill="white"/>
<path d="M160.752 8.03417C159.85 8.03417 159.083 7.72235 158.449 7.09873C157.816 6.4751 157.499 5.71955 157.499 4.83208C157.499 3.94462 157.816 3.18907 158.449 2.56544C159.083 1.94182 159.85 1.63 160.752 1.63C161.653 1.63 162.42 1.94182 163.054 2.56544C163.687 3.18907 164.004 3.94462 164.004 4.83208C164.004 5.71955 163.687 6.4751 163.054 7.09873C162.42 7.72235 161.653 8.03417 160.752 8.03417ZM163.712 9.79711V28.8297H157.791V9.79711H163.712Z" fill="white"/>
<path d="M174.592 9.79711V20.7345C174.592 21.7659 174.909 22.6054 175.542 23.253C176.2 23.8767 177.053 24.1885 178.1 24.1885C178.856 24.1885 179.526 24.0566 180.11 23.7927C180.695 23.5289 181.182 23.1571 181.572 22.6774V9.79711H187.493V28.8297H181.572V27.5345C180.866 28.0622 180.062 28.4699 179.16 28.7577C178.283 29.0456 177.357 29.1895 176.383 29.1895C174.117 29.1895 172.265 28.4699 170.828 27.0308C169.39 25.5916 168.672 23.7567 168.672 21.5261V9.79711H174.592Z" fill="white"/>
<path d="M192.621 28.8297V9.79711H198.541V11.0204C199.223 10.4927 199.967 10.0969 200.771 9.83309C201.599 9.56924 202.464 9.43732 203.365 9.43732C204.559 9.43732 205.643 9.67718 206.618 10.1569C207.617 10.6126 208.445 11.2482 209.103 12.0637C209.883 11.2243 210.808 10.5766 211.88 10.1209C212.952 9.66519 214.122 9.43732 215.389 9.43732C217.581 9.43732 219.372 10.1569 220.761 11.596C222.174 13.0352 222.881 14.8701 222.881 17.1007V28.8297H216.96V17.8923C216.96 16.8609 216.668 16.0334 216.083 15.4097C215.523 14.7621 214.767 14.4383 213.817 14.4383C213.159 14.4383 212.563 14.5702 212.027 14.8341C211.491 15.0739 211.028 15.4217 210.638 15.8775C210.662 16.0693 210.674 16.2732 210.674 16.4891C210.699 16.681 210.711 16.8849 210.711 17.1007V28.8297H204.791V17.8923C204.791 16.8609 204.498 16.0334 203.913 15.4097C203.353 14.7621 202.598 14.4383 201.648 14.4383C200.99 14.4383 200.393 14.5583 199.857 14.7981C199.345 15.014 198.907 15.3498 198.541 15.8055V28.8297H192.621Z" fill="white"/>
<path d="M234.361 28.8297L244.85 3.6448H252.049L262.391 28.8297H255.594L253.255 22.7493H243.278L240.903 28.8297H234.361ZM245.178 17.8203H251.391L248.321 9.76113L245.178 17.8203Z" fill="white"/>
<path d="M265.714 28.8297V3.6448H272V28.8297H265.714Z" fill="white"/>
<path fill-rule="evenodd" clip-rule="evenodd" d="M37.7445 6.42293H10.185C7.86884 6.42293 5.9912 8.30057 5.9912 10.6168V38.1762C5.9912 40.4924 7.86884 42.3701 10.185 42.3701H37.7445C40.0607 42.3701 41.9383 40.4924 41.9383 38.1762V10.6168C41.9383 8.30057 40.0607 6.42293 37.7445 6.42293ZM10.185 3.42734C6.21442 3.42734 2.99561 6.64615 2.99561 10.6168V38.1762C2.99561 42.1468 6.21442 45.3657 10.185 45.3657H37.7445C41.7151 45.3657 44.9339 42.1468 44.9339 38.1762V10.6168C44.9339 6.64615 41.7151 3.42734 37.7445 3.42734H10.185Z" fill="white"/>
<path fill-rule="evenodd" clip-rule="evenodd" d="M10.7842 4.02635L10.7842 0.43164L13.7798 0.431641L13.7798 4.02635L10.7842 4.02635Z" fill="white"/>
<path fill-rule="evenodd" clip-rule="evenodd" d="M17.0747 4.02635L17.0747 0.43164L20.0703 0.431641L20.0703 4.02635L17.0747 4.02635Z" fill="white"/>
<path fill-rule="evenodd" clip-rule="evenodd" d="M23.3657 4.02635L23.3657 0.43164L26.3613 0.431641L26.3613 4.02635L23.3657 4.02635Z" fill="white"/>
<path fill-rule="evenodd" clip-rule="evenodd" d="M29.6563 4.02635L29.6563 0.43164L32.6519 0.431641L32.6519 4.02635L29.6563 4.02635Z" fill="white"/>
<path fill-rule="evenodd" clip-rule="evenodd" d="M35.9473 4.02635L35.9473 0.43164L38.9429 0.431641L38.9429 4.02635L35.9473 4.02635Z" fill="white"/>
<path fill-rule="evenodd" clip-rule="evenodd" d="M10.7842 48.3612L10.7842 44.7665L13.7798 44.7665L13.7798 48.3612L10.7842 48.3612Z" fill="white"/>
<path fill-rule="evenodd" clip-rule="evenodd" d="M17.0747 48.3612L17.0747 44.7665L20.0703 44.7665L20.0703 48.3612L17.0747 48.3612Z" fill="white"/>
<path fill-rule="evenodd" clip-rule="evenodd" d="M23.3657 48.3612L23.3657 44.7665L26.3613 44.7665L26.3613 48.3612L23.3657 48.3612Z" fill="white"/>
<path fill-rule="evenodd" clip-rule="evenodd" d="M29.6563 48.3612L29.6563 44.7665L32.6519 44.7665L32.6519 48.3612L29.6563 48.3612Z" fill="white"/>
<path fill-rule="evenodd" clip-rule="evenodd" d="M35.9473 48.3612L35.9473 44.7665L38.9429 44.7665L38.9429 48.3612L35.9473 48.3612Z" fill="white"/>
<path fill-rule="evenodd" clip-rule="evenodd" d="M1.36133e-05 11.216L3.59473 11.216L3.59473 14.2116L1.33514e-05 14.2116L1.36133e-05 11.216Z" fill="white"/>
<path fill-rule="evenodd" clip-rule="evenodd" d="M1.36133e-05 17.5067L3.59473 17.5067L3.59473 20.5023L1.33514e-05 20.5023L1.36133e-05 17.5067Z" fill="white"/>
<path fill-rule="evenodd" clip-rule="evenodd" d="M1.36133e-05 23.7974L3.59473 23.7974L3.59473 26.793L1.33514e-05 26.793L1.36133e-05 23.7974Z" fill="white"/>
<path fill-rule="evenodd" clip-rule="evenodd" d="M1.36133e-05 30.0881L3.59473 30.0881L3.59473 33.0836L1.33514e-05 33.0836L1.36133e-05 30.0881Z" fill="white"/>
<path fill-rule="evenodd" clip-rule="evenodd" d="M1.36133e-05 36.3787L3.59473 36.3787L3.59473 39.3743L1.33514e-05 39.3743L1.36133e-05 36.3787Z" fill="white"/>
<path fill-rule="evenodd" clip-rule="evenodd" d="M44.335 11.216L47.9297 11.216L47.9297 14.2116L44.335 14.2116L44.335 11.216Z" fill="white"/>
<path fill-rule="evenodd" clip-rule="evenodd" d="M44.335 17.5067L47.9297 17.5067L47.9297 20.5023L44.335 20.5023L44.335 17.5067Z" fill="white"/>
<path fill-rule="evenodd" clip-rule="evenodd" d="M44.335 23.7974L47.9297 23.7974L47.9297 26.793L44.335 26.793L44.335 23.7974Z" fill="white"/>
<path fill-rule="evenodd" clip-rule="evenodd" d="M44.335 30.0881L47.9297 30.0881L47.9297 33.0836L44.335 33.0836L44.335 30.0881Z" fill="white"/>
<path fill-rule="evenodd" clip-rule="evenodd" d="M44.335 36.3787L47.9297 36.3787L47.9297 39.3743L44.335 39.3743L44.335 36.3787Z" fill="white"/>
<path d="M21.6382 22.8067C21.6382 22.5009 21.3986 22.2291 21.0904 22.2291C19.5155 22.1952 18.1118 23.0784 17.4613 24.4373C16.982 23.7579 16.263 23.2483 15.4413 22.9765C15.4755 22.7047 15.5098 22.399 15.4755 22.1272C15.4071 21.7196 15.2359 21.3459 14.962 21.0061C14.8593 20.8703 14.7223 20.7683 14.5511 20.7683C14.243 20.7683 13.9691 21.0061 13.9691 21.3119C13.9691 21.4478 14.0033 21.5837 14.106 21.6856C14.4142 22.0593 14.4827 22.5688 14.3457 23.0105C14.1745 23.4521 13.8321 23.8258 13.3528 23.9277C13.0447 23.9957 12.8735 24.3014 12.942 24.6072C13.0105 24.9129 13.3186 25.0828 13.6267 25.0148C14.2088 24.845 14.7223 24.4713 15.0647 23.9957C16.263 24.3354 17.1189 25.4225 17.1189 26.6794C17.1189 26.9852 17.3586 27.223 17.6667 27.2569C17.9064 27.2569 18.146 27.0871 18.2145 26.8493C18.2145 26.8153 18.2231 26.7898 18.2316 26.7644C18.2402 26.7389 18.2487 26.7134 18.2487 26.6794C18.2487 26.4416 18.2145 26.2378 18.1803 26.034C18.2145 25.966 18.2487 25.8981 18.2487 25.8301C18.4199 24.3693 19.6525 23.3162 21.1247 23.3502C21.3986 23.3502 21.6382 23.1124 21.6382 22.8067Z" fill="white"/>
<path d="M31.4986 25.0826C32.0806 25.1166 32.6626 25.3544 33.1077 25.796C33.3474 26.0678 33.3474 26.4075 33.1077 26.6453C32.9023 26.8492 32.5257 26.8492 32.3203 26.6113C31.9779 26.2716 31.4986 26.1018 31.0193 26.2037C30.5399 26.3056 30.1291 26.6453 29.9579 27.0869C29.8552 27.3587 29.5128 27.4946 29.2389 27.3927C28.965 27.2908 28.8281 26.9511 28.9308 26.6793C29.102 26.3056 29.3759 25.9659 29.684 25.6941C29.9237 25.5243 30.1633 25.3884 30.4372 25.2864C30.3345 24.8108 30.3003 24.3692 30.3687 23.9276C30.3345 23.9276 30.3003 23.8936 30.3003 23.8596C29.684 22.7046 28.6226 21.9232 27.3901 21.6175C27.1162 21.5835 26.945 21.3457 26.945 21.0739C26.9793 20.7682 27.2189 20.5304 27.5271 20.5304H27.6298C28.8965 20.8022 29.9921 21.5496 30.7796 22.5687C31.0428 22.0986 31.8656 21.13 32.423 20.972C32.6626 20.9041 32.9023 21.006 33.0393 21.2438C33.1762 21.5156 33.0735 21.8553 32.7996 21.9912C31.704 22.6027 31.1904 23.8596 31.4986 25.0826Z" fill="white"/>
<path fill-rule="evenodd" clip-rule="evenodd" d="M35.1277 19.0696C35.6413 17.6768 35.5043 16.1141 34.6484 14.8571C33.8267 13.6342 32.4914 12.8528 31.0535 12.7509C30.9508 12.4451 30.8481 12.1734 30.7111 11.9016C29.8209 10.3729 28.0064 9.62548 26.2945 10.1011C25.3016 10.3729 24.4799 11.0183 23.9664 11.8676C23.4528 11.0183 22.6311 10.3729 21.6382 10.1011C21.2274 9.99917 20.7823 9.93122 20.3372 9.9652C19.0705 10.0671 17.8721 10.7466 17.2216 11.9016C17.0505 12.1734 16.9477 12.4791 16.8793 12.7509C15.4071 12.8528 14.0718 13.6342 13.2501 14.8571C12.4284 16.1141 12.2572 17.6768 12.7708 19.0696C10.34 20.4625 9.21013 23.418 10.1688 26.0678C10.6139 27.2568 11.4355 28.242 12.4284 28.8875C12.3942 28.9554 12.36 29.0234 12.36 29.0913C11.9833 30.654 12.2915 32.3186 13.1816 33.6775C14.0376 35.0024 15.4071 35.9196 16.9477 36.2593C17.1532 36.8029 17.4613 37.2785 17.8721 37.6862C19.002 38.8072 20.6796 39.147 22.1518 38.5355C22.9393 38.1957 23.5898 37.6522 24.0006 36.9388C24.4115 37.6522 25.062 38.1957 25.8494 38.5355C27.3216 39.147 28.9993 38.8072 30.1291 37.6862C30.5399 37.2785 30.8481 36.7689 31.0535 36.2593C32.5942 35.9196 33.9294 35.0024 34.7853 33.7115C35.6755 32.3526 35.9836 30.688 35.607 29.1253C35.607 29.0573 35.5728 28.9894 35.5386 28.9215C36.5314 28.242 37.3531 27.2908 37.7982 26.1018C38.6884 23.418 37.5586 20.4964 35.1277 19.0696ZM23.3843 35.0703C23.3501 36.1574 22.6996 37.1426 21.6725 37.5503C20.6111 37.9919 19.4128 37.7541 18.6254 36.9388C17.8379 36.1574 17.5983 34.9345 18.0091 33.9153C18.1118 33.7115 18.2145 33.5076 18.3515 33.3038C18.8604 33.3038 19.3055 33.3586 19.6525 33.7794C19.9606 34.1531 20.0976 34.6287 19.9606 35.1043C19.8017 35.814 20.8987 36.0792 21.0562 35.3761C21.2616 34.5608 21.0562 33.6775 20.5084 33.032C20.2345 32.7263 19.9264 32.5225 19.584 32.3866C19.8921 32.2507 20.2345 32.1827 20.5769 32.1827C20.885 32.1827 21.1247 31.9449 21.1589 31.6392C21.1589 31.3334 20.9193 31.0956 20.6111 31.0617C19.0362 31.0617 17.5983 32.0129 16.982 33.4737C16.7766 33.9832 16.6738 34.5268 16.6738 35.0364C15.6125 34.6967 14.6881 34.0172 14.0718 33.1C13.3528 32.0129 13.1132 30.722 13.4213 29.465C14.5854 29.9746 15.9206 30.1105 17.2216 29.7708C17.5298 29.7028 17.701 29.3971 17.6325 29.0913C17.564 28.7856 17.2559 28.6157 16.9477 28.6836C14.5511 29.3291 12.0861 28.0382 11.2301 25.7281C10.3742 23.418 11.4698 20.8701 13.7294 19.817C14.0033 19.6811 14.1403 19.3754 14.0033 19.0696C13.9862 19.0357 13.9691 19.0102 13.952 18.9847C13.9349 18.9592 13.9177 18.9337 13.9006 18.8998V18.8658C13.3871 17.7447 13.524 16.4538 14.1745 15.4347C14.7566 14.5514 15.681 13.9739 16.6738 13.838C16.6738 14.5174 16.8793 15.1968 17.2216 15.7744C16.6738 15.8423 16.126 15.9782 15.6467 16.25C15.3728 16.4198 15.3044 16.7596 15.4413 16.9974C15.6125 17.2691 15.9206 17.3371 16.1945 17.2012C16.9477 16.7596 17.8721 16.6916 18.6938 17.0653C19.5155 17.405 20.0976 18.1184 20.303 18.9677C20.3715 19.2735 20.6796 19.4433 20.9877 19.3754C21.2616 19.3074 21.4671 19.0017 21.3986 18.7299C21.2616 18.1184 20.9877 17.5749 20.5769 17.1332C20.2003 16.6916 19.6867 16.3179 19.1389 16.0801C19.0705 16.0462 19.002 16.0292 18.9335 16.0122C18.865 15.9952 18.7966 15.9782 18.7281 15.9442C18.6938 15.8763 18.6596 15.8083 18.5911 15.7744C17.701 14.8911 17.4955 13.4983 18.146 12.4112C18.6254 11.5958 19.4813 11.0863 20.3715 11.0183C20.6796 10.9844 20.9877 11.0183 21.2959 11.1202C22.4942 11.426 23.3159 12.5131 23.3501 13.7361V14.4155C22.4599 14.6193 21.5013 14.3815 20.8508 13.7361C20.6111 13.5322 20.2688 13.5322 20.0633 13.77C19.8579 14.0078 19.8579 14.3476 20.0976 14.5514C20.9877 15.3667 22.186 15.7064 23.3843 15.5366V26.0678L23.2816 26.2717C23.1447 26.7473 22.8023 27.1209 22.3572 27.2568C21.9121 27.4267 21.3986 27.3248 21.022 27.019C20.7823 26.8492 20.4057 26.9171 20.2345 27.1549C20.0633 27.3927 20.0976 27.6985 20.3372 27.9023C20.6796 28.1741 21.0562 28.3439 21.4671 28.4119C21.8779 28.4798 22.323 28.4458 22.6996 28.31C22.9393 28.242 23.1789 28.1061 23.3843 27.9363V35.0703ZM36.6684 25.6941C35.8125 28.0042 33.3474 29.2951 30.9508 28.6497C30.6426 28.5817 30.3345 28.7516 30.266 29.0573C30.1976 29.3631 30.3687 29.6688 30.6769 29.7368C31.9779 30.0765 33.3131 29.9406 34.4772 29.465C34.7511 30.722 34.5114 32.0129 33.8267 33.1C33.2104 34.0172 32.286 34.6967 31.2589 35.0364C31.2589 34.4928 31.1904 33.9832 30.9508 33.4737C30.3345 32.0129 28.8965 31.0617 27.3216 31.0617C27.0135 31.0617 26.7738 31.2995 26.7396 31.6052C26.7396 31.911 26.9793 32.1488 27.2874 32.1827C28.4172 32.1827 29.4443 32.8622 29.8894 33.8813C30.3345 34.9345 30.0948 36.1235 29.2731 36.9048C28.4857 37.6862 27.2532 37.924 26.226 37.5163C25.1989 37.1086 24.5484 36.1235 24.5142 35.0364V34.7646C25.4386 34.5268 26.3972 34.7646 27.1162 35.4101C27.3559 35.6139 27.6982 35.6139 27.9037 35.3761C28.1091 35.1383 28.1091 34.7986 27.8694 34.5947C26.945 33.7454 25.7125 33.4057 24.5142 33.6096V26.1697C24.6853 26.2377 24.8566 26.3056 25.062 26.3396C25.4728 26.4075 25.9179 26.3736 26.2945 26.2377C27.1162 25.9659 27.7325 25.3204 27.9721 24.4712C28.0406 24.1654 27.8694 23.8597 27.5955 23.7917C27.2874 23.7238 26.9793 23.8936 26.9108 24.1654C26.7738 24.641 26.4315 25.0147 25.9864 25.1506C25.5413 25.3204 25.0277 25.2185 24.6511 24.9128C24.638 24.8998 24.625 24.8918 24.6138 24.8849C24.5957 24.8739 24.5826 24.8658 24.5826 24.8448V18.0505C25.3701 18.2883 26.226 18.1184 26.9108 17.6088L26.9793 17.5409C26.9964 17.5409 27.0049 17.5409 27.0092 17.5367C27.0135 17.5324 27.0135 17.5239 27.0135 17.5069C27.9721 16.9294 29.2047 16.9634 30.1291 17.6428C30.3687 17.8127 30.7453 17.7787 30.9165 17.5069C31.0877 17.2691 31.0535 16.9294 30.7796 16.7256C29.9237 16.1141 28.8281 15.8763 27.8009 16.0461C27.9037 15.5705 27.8352 15.061 27.664 14.6193C27.4162 13.9636 26.387 14.3658 26.6369 15.027C26.8765 15.6045 26.7054 16.3179 26.1918 16.7256C25.7125 17.0993 25.062 17.1332 24.5484 16.8275V13.6681C24.5826 12.4451 25.4043 11.392 26.6026 11.0523C26.9108 10.9844 27.2189 10.9504 27.5271 10.9504C28.4515 11.0183 29.2731 11.5279 29.7525 12.3432C30.1291 12.9887 30.1976 13.7361 30.0264 14.4155C29.9579 14.7212 30.1291 15.027 30.4372 15.0949C30.7453 15.1629 31.0535 14.993 31.122 14.6873C31.1904 14.3815 31.2247 14.0758 31.2247 13.77C32.2518 13.9399 33.142 14.4834 33.724 15.3667C34.4087 16.3859 34.5114 17.6768 33.9979 18.7979V18.8318C33.7925 19.0696 33.7925 19.4094 34.0321 19.6132C34.0664 19.6472 34.1348 19.6811 34.2033 19.7151C36.4287 20.8362 37.4901 23.3841 36.6684 25.6941Z" fill="white"/>
<path fill-rule="evenodd" clip-rule="evenodd" d="M33.9979 18.7979C34.5114 17.6768 34.4087 16.3859 33.724 15.3667C33.2467 14.6425 32.5623 14.1466 31.7651 13.8979C31.5901 13.8433 31.4096 13.8006 31.2247 13.77C31.2247 13.95 31.2128 14.13 31.1891 14.31C31.1725 14.4358 31.1501 14.5615 31.122 14.6873C31.0535 14.993 30.7453 15.1629 30.4372 15.0949C30.1291 15.027 29.9579 14.7212 30.0264 14.4155C30.1976 13.7361 30.1291 12.9887 29.7525 12.3432C29.2731 11.5279 28.4515 11.0183 27.5271 10.9504C27.2189 10.9504 26.9108 10.9844 26.6026 11.0523C25.4043 11.392 24.5826 12.4451 24.5484 13.6681V16.8275C25.062 17.1332 25.7125 17.0993 26.1918 16.7256C26.7054 16.3179 26.8765 15.6045 26.6369 15.027C26.387 14.3658 27.4162 13.9636 27.664 14.6193C27.7702 14.8932 27.8368 15.1933 27.8476 15.4951C27.8543 15.68 27.84 15.8655 27.8009 16.0461C27.9861 16.0155 28.1735 15.9982 28.3613 15.9938C29.2153 15.9742 30.0779 16.2243 30.7796 16.7256C31.0535 16.9294 31.0877 17.2691 30.9165 17.5069C30.7453 17.7787 30.3687 17.8127 30.1291 17.6428C29.2047 16.9634 27.9721 16.9294 27.0135 17.5069C27.0135 17.5239 27.0135 17.5324 27.0092 17.5367C27.0049 17.5409 26.9964 17.5409 26.9793 17.5409L26.9108 17.6088C26.381 18.0031 25.7487 18.194 25.1249 18.1501C24.9425 18.1372 24.7608 18.1043 24.5826 18.0505V24.8448C24.5826 24.8658 24.5957 24.8739 24.6138 24.8849C24.625 24.8918 24.638 24.8998 24.6511 24.9128C25.0277 25.2185 25.5413 25.3204 25.9864 25.1506C26.4315 25.0147 26.7738 24.641 26.9108 24.1654C26.9793 23.8936 27.2874 23.7238 27.5955 23.7917C27.8694 23.8597 28.0406 24.1654 27.9721 24.4712C27.7325 25.3204 27.1162 25.9659 26.2945 26.2377C25.9179 26.3736 25.4728 26.4075 25.062 26.3396C25.0601 26.3393 25.0583 26.339 25.0564 26.3387C24.8535 26.3044 24.6838 26.237 24.5142 26.1697V33.6096C24.6945 33.5789 24.8757 33.5605 25.0564 33.5543C26.0765 33.5195 27.0841 33.8733 27.8694 34.5947C28.1091 34.7986 28.1091 35.1383 27.9037 35.3761C27.6982 35.6139 27.3559 35.6139 27.1162 35.4101C26.3972 34.7646 25.4386 34.5268 24.5142 34.7646V35.0364C24.5484 36.1235 25.1989 37.1086 26.226 37.5163C27.2532 37.924 28.4857 37.6862 29.2731 36.9048C30.0948 36.1235 30.3345 34.9345 29.8894 33.8813C29.4443 32.8622 28.4172 32.1827 27.2874 32.1827C26.9793 32.1488 26.7396 31.911 26.7396 31.6052C26.7738 31.2995 27.0135 31.0617 27.3216 31.0617C28.8965 31.0617 30.3345 32.0129 30.9508 33.4737C31.1065 33.8048 31.19 34.1359 31.2293 34.4763C31.2505 34.6598 31.2589 34.846 31.2589 35.0364C31.4422 34.9758 31.6221 34.9044 31.7977 34.8227C32.6061 34.4467 33.3204 33.8536 33.8267 33.1C34.4127 32.1696 34.6727 31.09 34.5639 30.0101C34.5455 29.8282 34.5167 29.6462 34.4772 29.465C34.3089 29.5338 34.1369 29.5955 33.9621 29.6496C32.9277 29.97 31.7897 30.0274 30.6769 29.7368C30.3687 29.6688 30.1976 29.3631 30.266 29.0573C30.3345 28.7516 30.6426 28.5817 30.9508 28.6497C33.3474 29.2951 35.8125 28.0042 36.6684 25.6941C37.4901 23.3841 36.4287 20.8362 34.2033 19.7151C34.1348 19.6811 34.0664 19.6472 34.0321 19.6132C33.7925 19.4094 33.7925 19.0696 33.9979 18.8318V18.7979ZM33.4838 18.62L33.5043 18.5752C33.9408 17.6222 33.8528 16.5284 33.2728 15.6652L33.2715 15.6632L33.2702 15.6611C32.8881 15.0814 32.351 14.6726 31.7171 14.4492C31.6997 14.5676 31.6777 14.6859 31.6513 14.804C31.5099 15.4353 30.883 15.7444 30.3196 15.6202C29.6834 15.4799 29.3719 14.8578 29.497 14.2988L29.4986 14.2919L29.5003 14.285C29.6411 13.7261 29.5817 13.1248 29.2837 12.6136C28.8964 11.9553 28.242 11.5488 27.5066 11.4885C27.2511 11.4899 26.9945 11.5182 26.7364 11.574C25.7753 11.8533 25.1211 12.6966 25.0906 13.676V16.4722C25.3521 16.5329 25.6324 16.4766 25.8549 16.304C26.1758 16.0478 26.2847 15.5913 26.1355 15.2318L26.1322 15.2239L26.1292 15.2159C26.0127 14.9077 26.0391 14.5968 26.1795 14.3375C26.3131 14.0907 26.533 13.9202 26.7638 13.8293C26.9942 13.7385 27.2738 13.7123 27.5427 13.8055C27.826 13.9037 28.0538 14.1206 28.1708 14.4279C28.2928 14.7434 28.3733 15.0945 28.3887 15.4552C29.3439 15.4416 30.3068 15.7248 31.0964 16.2889L31.1007 16.292L31.1049 16.2952C31.6121 16.6726 31.6967 17.3338 31.3674 17.806C31.0001 18.3707 30.2604 18.3971 29.8139 18.0806L29.8101 18.0779L29.8063 18.0752C29.0982 17.5547 28.1622 17.5037 27.4047 17.9048C27.4008 17.9089 27.3968 17.913 27.3926 17.9171C27.3559 17.9535 27.3176 17.9815 27.2804 18.0029L27.2669 18.0163L27.2361 18.0393C26.6183 18.499 25.872 18.7325 25.1249 18.6893V24.5847C25.3412 24.7053 25.5889 24.7258 25.7917 24.6484L25.8091 24.6418L25.8269 24.6363C26.073 24.5612 26.2933 24.3443 26.3876 24.0239C26.544 23.43 27.1713 23.147 27.7132 23.2665L27.7201 23.268L27.727 23.2697C28.3332 23.4201 28.6226 24.047 28.5015 24.5879L28.4983 24.6021L28.4943 24.6162C28.2078 25.6316 27.4654 26.4151 26.4728 26.7458C26.0294 26.9044 25.5258 26.9471 25.0564 26.8829V33.0161C26.2064 32.9815 27.3436 33.3817 28.2311 34.1938C28.7241 34.6215 28.6819 35.3019 28.3154 35.7262C27.8848 36.2246 27.1934 36.1844 26.7633 35.8186L26.7578 35.8139L26.7524 35.809C26.2763 35.3816 25.6778 35.1767 25.0708 35.2175C25.1651 36.0223 25.6742 36.7178 26.4274 37.0168C27.2572 37.3461 28.2587 37.1505 28.8897 36.5244L28.8938 36.5203L28.898 36.5164C29.5532 35.8933 29.7492 34.9442 29.3907 34.0924C29.0299 33.2695 28.1977 32.7208 27.2874 32.7208H27.2574L27.2275 32.7175C26.6782 32.6569 26.1974 32.2173 26.1974 31.6052V31.5754L26.2007 31.5458C26.2617 31.0008 26.7048 30.5236 27.3216 30.5236C29.1136 30.5236 30.7446 31.6026 31.4468 33.256C31.6023 33.5894 31.6943 33.9198 31.7454 34.248C32.3912 33.9123 32.9592 33.4187 33.3711 32.8081C33.8687 32.0151 34.1 31.1046 34.0352 30.1899C32.9369 30.5137 31.7316 30.5667 30.5477 30.2594C29.9192 30.1141 29.6123 29.4962 29.7367 28.9406C29.8781 28.3093 30.505 28.0002 31.0684 28.1245L31.0807 28.1272L31.0928 28.1304C33.2121 28.7012 35.3965 27.5626 36.1583 25.5117C36.8842 23.4653 35.9473 21.1979 33.9593 20.1956C33.9588 20.1953 33.9583 20.1951 33.9578 20.1948L33.9562 20.194C33.9252 20.1786 33.8792 20.1558 33.8358 20.1313C33.8003 20.1111 33.7324 20.0713 33.6674 20.0115C33.228 19.6277 33.2173 19.0421 33.4838 18.62ZM30.7111 11.9016C30.8481 12.1734 30.9508 12.4451 31.0535 12.7509C32.4914 12.8528 33.8267 13.6342 34.6484 14.8571C35.5043 16.1141 35.6413 17.6768 35.1277 19.0696C37.5586 20.4964 38.6884 23.418 37.7982 26.1018C37.3531 27.2908 36.5314 28.242 35.5386 28.9215C35.5728 28.9894 35.607 29.0573 35.607 29.1253C35.9836 30.688 35.6755 32.3526 34.7853 33.7115C33.9294 35.0024 32.5942 35.9196 31.0535 36.2593C30.8481 36.7689 30.5399 37.2785 30.1291 37.6862C28.9993 38.8072 27.3216 39.147 25.8494 38.5355C25.2512 38.2774 24.732 37.9016 24.3368 37.4231C24.2119 37.2718 24.0993 37.1102 24.0006 36.9388C23.9019 37.1102 23.7894 37.2718 23.6644 37.4231C23.2693 37.9016 22.7501 38.2774 22.1518 38.5355C20.6796 39.147 19.002 38.8072 17.8721 37.6862C17.4613 37.2785 17.1532 36.8029 16.9477 36.2593C15.4071 35.9196 14.0376 35.0024 13.1816 33.6775C12.2915 32.3186 11.9833 30.654 12.36 29.0913C12.36 29.0234 12.3942 28.9554 12.4284 28.8875C11.4355 28.242 10.6139 27.2568 10.1688 26.0678C9.21013 23.418 10.34 20.4625 12.7708 19.0696C12.2572 17.6768 12.4284 16.1141 13.2501 14.8571C14.0718 13.6342 15.4071 12.8528 16.8793 12.7509C16.9477 12.4791 17.0505 12.1734 17.2216 11.9016C17.8721 10.7466 19.0705 10.0671 20.3372 9.9652C20.7823 9.93122 21.2274 9.99917 21.6382 10.1011C22.436 10.3195 23.1232 10.7791 23.6289 11.3918C23.7526 11.5417 23.8655 11.7007 23.9664 11.8676C24.0673 11.7007 24.1801 11.5417 24.3038 11.3918C24.8095 10.7791 25.4967 10.3195 26.2945 10.1011C28.0064 9.62548 29.8209 10.3729 30.7111 11.9016ZM26.1493 9.5827C25.2823 9.82024 24.5318 10.3071 23.9664 10.9543C23.4008 10.3068 22.6499 9.81987 21.7824 9.58243L21.7761 9.5807L21.7697 9.57912C21.3282 9.46959 20.8205 9.38869 20.2956 9.42875L20.2934 9.42893C18.8692 9.54352 17.5035 10.3075 16.7546 11.6279C16.6262 11.8342 16.5322 12.0502 16.4616 12.2543C14.971 12.4663 13.6411 13.3053 12.799 14.5587L12.7971 14.5615L12.7952 14.5643C11.962 15.8389 11.7296 17.3955 12.1266 18.8348C9.7321 20.434 8.66008 23.4901 9.65842 26.2496L9.65943 26.2524L9.66047 26.2552C10.0966 27.4202 10.8629 28.4058 11.8005 29.1067C11.4393 30.7757 11.7849 32.5318 12.7261 33.9693C13.6103 35.3372 14.9911 36.3026 16.5511 36.7168C16.7788 37.2219 17.0918 37.6728 17.4887 38.0666C18.7717 39.3396 20.6828 39.7289 22.3612 39.0318L22.3646 39.0303L22.368 39.0289C22.9975 38.7573 23.5582 38.365 24.0006 37.8618C24.443 38.365 25.0038 38.7573 25.6332 39.0289L25.6366 39.0303L25.64 39.0318C27.3185 39.7289 29.2295 39.3396 30.5125 38.0666C30.9127 37.6695 31.2213 37.1961 31.4443 36.7183C33.0068 36.304 34.3558 35.3382 35.2383 34.0072L35.24 34.0047C36.1832 32.5649 36.5288 30.8052 36.165 29.1334C37.0953 28.4195 37.8668 27.4637 38.3065 26.2891L38.3101 26.2796L38.3133 26.27C39.2377 23.4828 38.1637 20.4626 35.7715 18.8389C36.1729 17.405 35.9731 15.8424 35.0986 14.5573C34.2551 13.3026 32.9213 12.462 31.4521 12.2526C31.3777 12.0535 31.2956 11.8584 31.1961 11.661L31.1888 11.6465L31.1806 11.6324C30.1686 9.89437 28.1028 9.04046 26.1493 9.5827ZM18.146 12.4112C17.4955 13.4983 17.701 14.8911 18.5911 15.7744C18.6596 15.8083 18.6938 15.8763 18.7281 15.9442C18.7966 15.9782 18.865 15.9952 18.9335 16.0122C19.002 16.0292 19.0705 16.0462 19.1389 16.0801C19.6867 16.3179 20.2003 16.6916 20.5769 17.1332C20.9877 17.5749 21.2616 18.1184 21.3986 18.7299C21.4671 19.0017 21.2616 19.3074 20.9877 19.3754C20.6796 19.4433 20.3715 19.2735 20.303 18.9677C20.0976 18.1184 19.5155 17.405 18.6938 17.0653C17.8721 16.6916 16.9477 16.7596 16.1945 17.2012C15.9206 17.3371 15.6125 17.2691 15.4413 16.9974C15.3044 16.7596 15.3728 16.4198 15.6467 16.25C15.9602 16.0723 16.3029 15.9527 16.6557 15.8722C16.8425 15.8295 17.032 15.7979 17.2216 15.7744C17.1255 15.6123 17.0402 15.4421 16.9672 15.2662C16.849 14.9813 16.763 14.6812 16.7157 14.3756C16.6882 14.1976 16.6738 14.0178 16.6738 13.838C16.4908 13.863 16.3101 13.9031 16.1334 13.9573C15.3518 14.1972 14.6493 14.7142 14.1745 15.4347C13.524 16.4538 13.3871 17.7447 13.9006 18.8658V18.8998C13.9177 18.9337 13.9349 18.9592 13.952 18.9847C13.9691 19.0102 13.9862 19.0357 14.0033 19.0696C14.1403 19.3754 14.0033 19.6811 13.7294 19.817C11.4698 20.8701 10.3742 23.418 11.2301 25.7281C12.0861 28.0382 14.5511 29.3291 16.9477 28.6836C17.2559 28.6157 17.564 28.7856 17.6325 29.0913C17.701 29.3971 17.5298 29.7028 17.2216 29.7708C16.1072 30.0618 14.9676 30.0038 13.932 29.6608C13.7586 29.6034 13.5882 29.5381 13.4213 29.465C13.377 29.6456 13.3441 29.8269 13.3222 30.0082C13.1919 31.0887 13.4561 32.1691 14.0718 33.1C14.5815 33.8586 15.302 34.4546 16.1365 34.8302C16.3109 34.9087 16.4903 34.9776 16.6738 35.0364C16.6738 34.8547 16.6869 34.6687 16.713 34.4815C16.7601 34.1436 16.8498 33.8016 16.982 33.4737C17.5983 32.0129 19.0362 31.0617 20.6111 31.0617C20.9193 31.0956 21.1589 31.3334 21.1589 31.6392C21.1247 31.9449 20.885 32.1827 20.5769 32.1827C20.5056 32.1827 20.4344 32.1857 20.3635 32.1916C20.0935 32.214 19.828 32.279 19.584 32.3866C19.8095 32.4761 20.0201 32.595 20.2159 32.7532C20.3174 32.8351 20.4149 32.9276 20.5084 33.032C21.0562 33.6775 21.2616 34.5608 21.0562 35.3761C20.8987 36.0792 19.8017 35.814 19.9606 35.1043C20.0976 34.6287 19.9606 34.1531 19.6525 33.7794C19.3055 33.3586 18.8604 33.3038 18.3515 33.3038C18.2145 33.5076 18.1118 33.7115 18.0091 33.9153C17.5983 34.9345 17.8379 36.1574 18.6254 36.9388C19.4128 37.7541 20.6111 37.9919 21.6725 37.5503C22.6996 37.1426 23.3501 36.1574 23.3843 35.0703V27.9363C23.2197 28.0724 23.0331 28.1867 22.8421 28.2617C22.7948 28.2803 22.7472 28.2965 22.6996 28.31C22.323 28.4458 21.8779 28.4798 21.4671 28.4119C21.0562 28.3439 20.6796 28.1741 20.3372 27.9023C20.0976 27.6985 20.0633 27.3927 20.2345 27.1549C20.4057 26.9171 20.7823 26.8492 21.022 27.019C21.3986 27.3248 21.9121 27.4267 22.3572 27.2568C22.8023 27.1209 23.1447 26.7473 23.2816 26.2717L23.3843 26.0678V15.5366C23.2032 15.5622 23.0221 15.5763 22.8421 15.5788C21.8309 15.5929 20.8532 15.2435 20.0976 14.5514C19.8579 14.3476 19.8579 14.0078 20.0633 13.77C20.2688 13.5322 20.6111 13.5322 20.8508 13.7361C21.5013 14.3815 22.4599 14.6193 23.3501 14.4155V13.7361C23.3159 12.5131 22.4942 11.426 21.2959 11.1202C20.9877 11.0183 20.6796 10.9844 20.3715 11.0183C19.4813 11.0863 18.6254 11.5958 18.146 12.4112ZM22.8079 13.7439C22.777 12.7485 22.108 11.883 21.1608 11.6413L21.1424 11.6366L21.1244 11.6307C20.8871 11.5522 20.6578 11.5281 20.4313 11.5531L20.4222 11.5541L20.4131 11.5548C19.6979 11.6094 19.0027 12.0218 18.6144 12.6823L18.6134 12.6841L18.6123 12.6859C18.102 13.5385 18.2477 14.639 18.9374 15.3562C18.9965 15.3993 19.0446 15.4478 19.0833 15.4947C19.1469 15.5105 19.2545 15.5381 19.3672 15.5919C19.9794 15.8597 20.5539 16.2764 20.9833 16.7769C21.4593 17.2917 21.7713 17.9182 21.9266 18.6074C22.0005 18.9115 21.9178 19.2037 21.7777 19.42C21.6365 19.6379 21.4079 19.8258 21.1193 19.8973L21.1123 19.8991L21.1054 19.9006C20.5436 20.0245 19.9186 19.7175 19.7749 19.0897C19.6068 18.3994 19.1369 17.8313 18.4853 17.5619L18.4765 17.5583L18.4679 17.5544C17.8135 17.2568 17.0763 17.3091 16.4704 17.6644L16.454 17.674L16.437 17.6824C15.9323 17.9328 15.312 17.8071 14.9815 17.2825L14.9758 17.2735L14.9705 17.2643C14.6899 16.777 14.8372 16.1175 15.3593 15.7937L15.3684 15.7881L15.3777 15.7828C15.7127 15.5929 16.0693 15.463 16.4267 15.3735C16.3186 15.095 16.2372 14.8038 16.1876 14.5061C15.5712 14.7211 15.0151 15.1437 14.6305 15.7258C14.072 16.6031 13.9627 17.701 14.3943 18.6432L14.4398 18.7425C14.4546 18.7665 14.4715 18.7957 14.4883 18.829L14.4938 18.84L14.4988 18.8511C14.7635 19.442 14.4826 20.0449 13.9719 20.2982L13.966 20.3012L13.96 20.304C11.9465 21.2424 10.9833 23.5028 11.7391 25.5424C12.4997 27.5954 14.6853 28.7355 16.8057 28.1644L16.8178 28.1611L16.8301 28.1584C17.3935 28.0342 18.0204 28.3433 18.1618 28.9746C18.2862 29.5302 17.9793 30.1481 17.3509 30.2933C16.1641 30.6014 14.9529 30.548 13.8474 30.1993C13.7672 31.1081 14.002 32.013 14.5241 32.8032C14.9426 33.4254 15.5231 33.9266 16.1983 34.2633C16.2553 33.9297 16.3488 33.5956 16.4785 33.2739L16.4801 33.2699L16.4818 33.2659C17.1817 31.607 18.8156 30.5236 20.6111 30.5236H20.6412L20.671 30.5269C21.2203 30.5875 21.7012 31.0271 21.7012 31.6392V31.669L21.6978 31.6986C21.6485 32.1393 21.3494 32.5356 20.9106 32.6712C20.9116 32.6723 20.9127 32.6734 20.9137 32.6746L20.9185 32.68L20.9232 32.6855C21.5816 33.4613 21.8289 34.5192 21.5838 35.5004C21.5096 35.822 21.3141 36.0699 21.0455 36.2079C20.789 36.3396 20.5043 36.3522 20.2598 36.2924C20.0149 36.2324 19.771 36.0903 19.6034 35.8606C19.4277 35.6199 19.3586 35.3123 19.4313 34.9876L19.4348 34.9719L19.4392 34.9565C19.5194 34.6781 19.4481 34.3812 19.2328 34.1201C19.094 33.9517 18.9332 33.8783 18.6513 33.8529C18.6025 33.9416 18.5553 34.0344 18.5047 34.1348C18.1838 34.9543 18.3828 35.9372 19.0088 36.5583L19.0129 36.5624L19.0169 36.5665C19.6455 37.2174 20.6036 37.4116 21.4628 37.0541L21.4669 37.0524L21.4711 37.0507C22.283 36.7285 22.8113 35.9454 22.8421 35.0615V28.8306C22.3809 28.9879 21.8582 29.022 21.3779 28.9426C20.8709 28.8587 20.4092 28.6485 19.9985 28.3224L19.9913 28.3167L19.9843 28.3108C19.5369 27.9302 19.4546 27.3126 19.7933 26.8422C19.9734 26.592 20.2446 26.4504 20.5083 26.4043C20.7723 26.358 21.0797 26.3988 21.3371 26.5812L21.3516 26.5915L21.3653 26.6026C21.6069 26.7987 21.9175 26.8482 22.1626 26.7547L22.18 26.748L22.1978 26.7426C22.4454 26.667 22.667 26.4477 22.7603 26.1238L22.7741 26.0758L22.8421 25.9408V16.1168C21.705 16.1308 20.597 15.7379 19.7362 14.9526C19.2429 14.525 19.285 13.8443 19.6516 13.4199C20.0822 12.9215 20.7735 12.9617 21.2037 13.3276L21.2195 13.341L21.2342 13.3556C21.6442 13.7625 22.2207 13.9694 22.8079 13.9469V13.7439ZM15.4755 22.1272C15.5098 22.399 15.4755 22.7047 15.4413 22.9765C16.0695 23.1843 16.6376 23.531 17.0846 23.9864C17.2222 24.1267 17.3484 24.2773 17.4613 24.4373C17.5466 24.2591 17.6448 24.0891 17.7547 23.9283C18.4828 22.8626 19.722 22.1996 21.0904 22.2291C21.3986 22.2291 21.6382 22.5009 21.6382 22.8067C21.6382 23.1124 21.3986 23.3502 21.1247 23.3502C19.6525 23.3162 18.4199 24.3693 18.2487 25.8301C18.2487 25.8981 18.2145 25.966 18.1803 26.034C18.2145 26.2378 18.2487 26.4416 18.2487 26.6794C18.2487 26.7134 18.2402 26.7389 18.2316 26.7644C18.2231 26.7898 18.2145 26.8153 18.2145 26.8493C18.146 27.0871 17.9064 27.2569 17.6667 27.2569C17.3586 27.223 17.1189 26.9852 17.1189 26.6794C17.1189 25.4225 16.263 24.3354 15.0647 23.9957C14.7223 24.4713 14.2088 24.845 13.6267 25.0148C13.3186 25.0828 13.0105 24.9129 12.942 24.6072C12.8735 24.3014 13.0447 23.9957 13.3528 23.9277C13.8321 23.8258 14.1745 23.4521 14.3457 23.0105C14.4827 22.5688 14.4142 22.0593 14.106 21.6856C14.0033 21.5837 13.9691 21.4478 13.9691 21.3119C13.9691 21.0061 14.243 20.7683 14.5511 20.7683C14.7223 20.7683 14.8593 20.8703 14.962 21.0061C15.2359 21.3459 15.4071 21.7196 15.4755 22.1272ZM15.3902 20.6761C15.7161 21.0821 15.9263 21.5381 16.0104 22.0388L16.0122 22.0496L16.0136 22.0605C16.0372 22.2481 16.0351 22.4422 16.0229 22.6226C16.5269 22.8414 16.9896 23.1444 17.3809 23.52C18.2183 22.3692 19.5899 21.6603 21.0971 21.6911C21.7427 21.6949 22.1805 22.2488 22.1805 22.8067C22.1805 23.3868 21.7205 23.8882 21.1247 23.8882H21.1184L21.1121 23.8881C19.9243 23.8607 18.9364 24.7004 18.7896 25.8737C18.7843 25.9592 18.764 26.0385 18.7411 26.104C18.7673 26.2713 18.791 26.4632 18.791 26.6794C18.791 26.7768 18.7706 26.857 18.7567 26.9019V26.9246L18.7359 26.9971C18.5985 27.4742 18.1396 27.795 17.6667 27.795H17.6367L17.6068 27.7917C17.0576 27.7311 16.5767 27.2915 16.5767 26.6794C16.5767 25.7854 16.0371 24.9929 15.2394 24.6314C14.8492 25.0461 14.343 25.3666 13.7797 25.531L13.7622 25.5361L13.7443 25.54C13.181 25.6642 12.554 25.3552 12.4127 24.7239C12.2875 24.1649 12.599 23.5428 13.2352 23.4025L13.2372 23.4021L13.2392 23.4016C13.4857 23.3492 13.7057 23.1493 13.8326 22.835C13.9141 22.554 13.864 22.2525 13.6978 22.0405C13.4785 21.8067 13.4269 21.523 13.4269 21.3119C13.4269 20.6676 13.987 20.2303 14.5511 20.2303C14.9575 20.2303 15.2344 20.4728 15.3902 20.6761ZM33.5039 25.4282L33.5158 25.4417C33.7098 25.6617 33.8297 25.937 33.8297 26.2334C33.8297 26.5334 33.7063 26.8122 33.4911 27.0258C33.075 27.4387 32.3462 27.4443 31.926 26.9812C31.698 26.7612 31.4054 26.6718 31.1329 26.7298L31.0193 26.2037C31.4986 26.1018 31.9779 26.2716 32.3203 26.6113C32.5257 26.8492 32.9023 26.8492 33.1077 26.6453C33.3474 26.4075 33.3474 26.0678 33.1077 25.796C32.6626 25.3544 32.0806 25.1166 31.4986 25.0826C31.1904 23.8596 31.704 22.6027 32.7996 21.9912C33.0735 21.8553 33.1762 21.5156 33.0393 21.2438C32.9023 21.006 32.6626 20.9041 32.423 20.972C32.0165 21.0872 31.469 21.6335 31.1001 22.1031C30.9632 22.2776 30.8509 22.4414 30.7796 22.5687C30.6632 22.418 30.54 22.2733 30.4105 22.1351C29.6644 21.3389 28.7092 20.762 27.6298 20.5304H27.5271C27.2189 20.5304 26.9793 20.7682 26.945 21.0739C26.945 21.3457 27.1162 21.5835 27.3901 21.6175C28.6226 21.9232 29.684 22.7046 30.3003 23.8596C30.3003 23.8881 30.3244 23.9166 30.3523 23.9251C30.3577 23.9267 30.3632 23.9276 30.3687 23.9276C30.3411 24.1058 30.3302 24.2841 30.3338 24.4646C30.3391 24.7313 30.376 25.0028 30.4372 25.2864C30.1633 25.3884 29.9237 25.5243 29.684 25.6941C29.3759 25.9659 29.102 26.3056 28.9308 26.6793C28.8281 26.9511 28.965 27.2908 29.2389 27.3927L29.0485 27.8965C28.4664 27.6798 28.226 27.0119 28.4231 26.4904L28.4295 26.4733L28.4372 26.4567C28.6456 26.0016 28.9708 25.6033 29.3238 25.292L29.3453 25.273L29.3688 25.2563C29.5172 25.1512 29.6693 25.055 29.8309 24.9695C29.7912 24.6762 29.7788 24.3837 29.8039 24.0876C29.8 24.0785 29.7964 24.0691 29.7929 24.0596C29.2529 23.0826 28.3456 22.4162 27.2843 22.1459C26.7092 22.0545 26.4028 21.5481 26.4028 21.0739V21.0441L26.4061 21.0145C26.4671 20.4695 26.9102 19.9924 27.5271 19.9924H27.6877L27.7444 20.0045C28.9079 20.2541 29.9318 20.863 30.7357 21.6932C30.8482 21.5545 30.9714 21.4143 31.0986 21.282C31.2662 21.1077 31.451 20.9362 31.64 20.7937C31.822 20.6565 32.0406 20.5209 32.274 20.4547C32.7779 20.3119 33.2621 20.5464 33.51 20.9769L33.5175 20.9898L33.5242 21.0032C33.7842 21.519 33.6041 22.1836 33.0564 22.4652C32.2925 22.8962 31.8775 23.7273 31.9635 24.602C32.521 24.7156 33.0583 24.9861 33.4911 25.4156L33.5039 25.4282ZM29.9579 27.0869C30.1291 26.6453 30.5399 26.3056 31.0193 26.2037L31.1329 26.7298C30.8248 26.7953 30.5673 27.0151 30.4645 27.2787C30.2451 27.8543 29.5732 28.0917 29.0485 27.8965L29.2389 27.3927C29.5128 27.4946 29.8552 27.3587 29.9579 27.0869Z" fill="white"/>
</svg>
