<svg width="272" height="49" viewBox="0 0 272 49" fill="none" xmlns="http://www.w3.org/2000/svg">
<path d="M68.8325 39.6809C68.8325 40.3646 68.727 40.9905 68.5159 41.5586C68.3049 42.1171 68.0028 42.5938 67.6095 42.9886C67.2258 43.3738 66.7558 43.6723 66.1995 43.8841C65.6527 44.096 65.0436 44.2019 64.3722 44.2019C63.6911 44.2019 63.0724 44.096 62.5161 43.8841C61.9694 43.6723 61.5041 43.3738 61.1205 42.9886C60.7368 42.5938 60.4394 42.1171 60.2284 41.5586C60.0174 41.0001 59.9119 40.3742 59.9119 39.6809V33.9466H61.9981V39.6809C61.9981 40.4609 62.214 41.0868 62.6456 41.5586C63.0868 42.0305 63.6672 42.2664 64.3866 42.2664C65.106 42.2664 65.6767 42.0305 66.0987 41.5586C66.5304 41.0868 66.7462 40.4609 66.7462 39.6809V33.9466H68.8325V39.6809Z" fill="black"/>
<path d="M69.8628 44.0575V36.5321H71.834V37.1243C72.1217 36.8835 72.4383 36.7006 72.7836 36.5754C73.1385 36.4502 73.5222 36.3876 73.9346 36.3876C74.7979 36.3876 75.5077 36.6669 76.0641 37.2254C76.6204 37.7839 76.8986 38.5013 76.8986 39.3776V44.0575H74.9274V39.6665C74.9274 39.1946 74.7835 38.8142 74.4958 38.5254C74.2176 38.2365 73.8435 38.092 73.3735 38.092C73.0474 38.092 72.75 38.1594 72.4814 38.2943C72.2224 38.4194 72.0066 38.6024 71.834 38.8431V44.0575H69.8628Z" fill="black"/>
<path d="M79.8592 33.5132V44.0575H77.8881V33.9466L79.8592 33.5132Z" fill="black"/>
<path d="M80.5519 40.302C80.5519 39.7531 80.6526 39.2428 80.854 38.7709C81.0651 38.2894 81.348 37.8754 81.7029 37.5287C82.0674 37.1724 82.4943 36.8932 82.9835 36.691C83.4727 36.4887 83.9954 36.3876 84.5518 36.3876C85.1081 36.3876 85.6309 36.4887 86.1201 36.691C86.6093 36.8932 87.0313 37.1724 87.3862 37.5287C87.7507 37.8754 88.0337 38.2894 88.2351 38.7709C88.4462 39.2428 88.5517 39.7531 88.5517 40.302C88.5517 40.8509 88.4462 41.3661 88.2351 41.8475C88.0337 42.3194 87.7507 42.7286 87.3862 43.0753C87.0313 43.4219 86.6093 43.6964 86.1201 43.8986C85.6309 44.1008 85.1081 44.2019 84.5518 44.2019C83.9954 44.2019 83.4727 44.1008 82.9835 43.8986C82.4943 43.6964 82.0674 43.4219 81.7029 43.0753C81.348 42.7286 81.0651 42.3194 80.854 41.8475C80.6526 41.3661 80.5519 40.8509 80.5519 40.302ZM84.5518 42.4831C85.1273 42.4831 85.6165 42.2712 86.0194 41.8475C86.4222 41.4238 86.6237 40.9087 86.6237 40.302C86.6237 39.6857 86.4222 39.1657 86.0194 38.742C85.6165 38.3183 85.1273 38.1065 84.5518 38.1065C83.9763 38.1065 83.4871 38.3183 83.0842 38.742C82.6813 39.1657 82.4799 39.6857 82.4799 40.302C82.4799 40.9087 82.6813 41.4238 83.0842 41.8475C83.4871 42.2712 83.9763 42.4831 84.5518 42.4831Z" fill="black"/>
<path d="M92.9849 42.4686C93.3206 42.4686 93.6323 42.4012 93.9201 42.2664C94.2175 42.1316 94.5004 41.9197 94.769 41.6309L95.9488 42.8586C95.5651 43.2823 95.1047 43.6145 94.5676 43.8553C94.0304 44.0864 93.4741 44.2019 92.8986 44.2019C92.3518 44.2019 91.8338 44.1008 91.3446 43.8986C90.865 43.6964 90.4478 43.4219 90.0929 43.0753C89.7476 42.7286 89.4742 42.3194 89.2728 41.8475C89.0713 41.3661 88.9706 40.8509 88.9706 40.302C88.9706 39.7531 89.0713 39.2428 89.2728 38.7709C89.4742 38.2894 89.7476 37.8754 90.0929 37.5287C90.4478 37.1724 90.865 36.8932 91.3446 36.691C91.8338 36.4887 92.3518 36.3876 92.8986 36.3876C93.4933 36.3876 94.064 36.508 94.6107 36.7487C95.1575 36.9798 95.6227 37.3072 96.0064 37.7309L94.7978 39.0165C94.5292 38.718 94.2414 38.4917 93.9345 38.3376C93.6275 38.1835 93.2966 38.1065 92.9417 38.1065C92.3758 38.1065 91.8962 38.3183 91.5029 38.742C91.1192 39.1657 90.9274 39.6857 90.9274 40.302C90.9274 40.9183 91.124 41.4335 91.5173 41.8475C91.9202 42.2616 92.4094 42.4686 92.9849 42.4686Z" fill="black"/>
<path d="M96.4701 44.0575V33.9466L98.4412 33.5132V39.7098L101.679 36.5321H103.909L100.398 39.9842L104.125 44.0575H101.607L98.4412 40.6198V44.0575H96.4701Z" fill="black"/>
<path d="M105.122 35.6365C104.816 35.6365 104.552 35.5258 104.331 35.3043C104.11 35.0828 104 34.818 104 34.5099C104 34.2017 104.11 33.9369 104.331 33.7155C104.552 33.494 104.816 33.3832 105.122 33.3832C105.429 33.3832 105.693 33.494 105.914 33.7155C106.134 33.9369 106.245 34.2017 106.245 34.5099C106.245 34.818 106.134 35.0828 105.914 35.3043C105.693 35.5258 105.429 35.6365 105.122 35.6365ZM106.115 36.5321V44.0575H104.144V36.5321H106.115Z" fill="black"/>
<path d="M107.153 44.0575V36.5321H109.124V37.1243C109.412 36.8835 109.729 36.7006 110.074 36.5754C110.429 36.4502 110.813 36.3876 111.225 36.3876C112.088 36.3876 112.798 36.6669 113.354 37.2254C113.911 37.7839 114.189 38.5013 114.189 39.3776V44.0575H112.218V39.6665C112.218 39.1946 112.074 38.8142 111.786 38.5254C111.508 38.2365 111.134 38.092 110.664 38.092C110.338 38.092 110.04 38.1594 109.772 38.2943C109.513 38.4194 109.297 38.6024 109.124 38.8431V44.0575H107.153Z" fill="black"/>
<path d="M118.632 44.1008C118.104 44.1008 117.605 43.9997 117.135 43.7975C116.675 43.5953 116.272 43.3208 115.927 42.9742C115.591 42.6275 115.322 42.2231 115.121 41.7609C114.929 41.289 114.833 40.7835 114.833 40.2442C114.833 39.7146 114.934 39.2187 115.135 38.7565C115.337 38.2846 115.61 37.8754 115.955 37.5287C116.301 37.1821 116.708 36.9124 117.178 36.7198C117.648 36.5176 118.152 36.4165 118.689 36.4165C119.063 36.4165 119.418 36.4695 119.754 36.5754C120.099 36.6813 120.421 36.8306 120.718 37.0232V36.5321H122.66V44.0575C122.66 45.0493 122.339 45.8149 121.696 46.3541C121.063 46.8934 120.147 47.163 118.948 47.163C118.373 47.163 117.816 47.1052 117.279 46.9896C116.752 46.8741 116.267 46.7056 115.826 46.4841L116.517 44.9386C116.929 45.1408 117.332 45.29 117.725 45.3863C118.118 45.4923 118.512 45.5452 118.905 45.5452C119.49 45.5452 119.931 45.4152 120.229 45.1552C120.536 44.9049 120.689 44.5341 120.689 44.043V43.4219C120.392 43.6434 120.066 43.8119 119.711 43.9275C119.365 44.043 119.006 44.1008 118.632 44.1008ZM116.776 40.2442C116.776 40.8509 116.982 41.366 117.394 41.7897C117.816 42.2134 118.329 42.4253 118.934 42.4253C119.289 42.4253 119.615 42.3675 119.912 42.252C120.21 42.1268 120.469 41.9583 120.689 41.7464V38.7854C120.478 38.5735 120.219 38.4098 119.912 38.2943C119.605 38.1691 119.284 38.1065 118.948 38.1065C118.344 38.1065 117.831 38.3135 117.409 38.7276C116.987 39.1416 116.776 39.6472 116.776 40.2442Z" fill="black"/>
<path d="M125.266 44.0575L129.41 33.9466H131.827L135.913 44.0575H133.654L132.633 41.3998H128.475L127.439 44.0575H125.266ZM129.122 39.7242H132L130.575 35.9976L129.122 39.7242Z" fill="black"/>
<path d="M136.265 44.0575V33.9466H138.351V44.0575H136.265Z" fill="black"/>
<path d="M144.317 44.1875C143.511 44.1875 142.854 43.9756 142.345 43.5519C141.837 43.1186 141.583 42.5601 141.583 41.8764C141.583 41.1638 141.856 40.6053 142.403 40.2009C142.95 39.7964 143.703 39.5942 144.662 39.5942C144.969 39.5942 145.276 39.6183 145.583 39.6665C145.89 39.7146 146.192 39.7868 146.489 39.8831V39.3487C146.489 38.9154 146.355 38.588 146.086 38.3665C145.818 38.145 145.424 38.0343 144.907 38.0343C144.59 38.0343 144.245 38.0872 143.871 38.1931C143.506 38.2894 143.089 38.4435 142.619 38.6554L141.899 37.1965C142.485 36.9269 143.05 36.7247 143.597 36.5898C144.154 36.455 144.7 36.3876 145.237 36.3876C146.245 36.3876 147.026 36.6332 147.583 37.1243C148.149 37.6058 148.432 38.2894 148.432 39.1754V44.0575H146.489V43.5375C146.173 43.759 145.837 43.9227 145.482 44.0286C145.137 44.1345 144.748 44.1875 144.317 44.1875ZM143.468 41.8331C143.468 42.122 143.592 42.3531 143.842 42.5264C144.091 42.6901 144.422 42.7719 144.835 42.7719C145.161 42.7719 145.458 42.7334 145.727 42.6564C146.005 42.5697 146.259 42.4494 146.489 42.2953V41.1686C146.249 41.0724 145.995 41.0049 145.727 40.9664C145.468 40.9183 145.194 40.8942 144.907 40.8942C144.456 40.8942 144.101 40.9809 143.842 41.1542C143.592 41.3179 143.468 41.5442 143.468 41.8331Z" fill="black"/>
<path d="M153.089 42.4686C153.425 42.4686 153.736 42.4012 154.024 42.2664C154.321 42.1316 154.604 41.9197 154.873 41.6309L156.053 42.8586C155.669 43.2823 155.209 43.6145 154.672 43.8553C154.134 44.0864 153.578 44.2019 153.002 44.2019C152.456 44.2019 151.938 44.1008 151.449 43.8986C150.969 43.6964 150.552 43.4219 150.197 43.0753C149.852 42.7286 149.578 42.3194 149.377 41.8475C149.175 41.3661 149.075 40.8509 149.075 40.302C149.075 39.7531 149.175 39.2428 149.377 38.7709C149.578 38.2894 149.852 37.8754 150.197 37.5287C150.552 37.1724 150.969 36.8932 151.449 36.691C151.938 36.4887 152.456 36.3876 153.002 36.3876C153.597 36.3876 154.168 36.508 154.715 36.7487C155.261 36.9798 155.727 37.3072 156.11 37.7309L154.902 39.0165C154.633 38.718 154.345 38.4917 154.038 38.3376C153.731 38.1835 153.401 38.1065 153.046 38.1065C152.48 38.1065 152 38.3183 151.607 38.742C151.223 39.1657 151.031 39.6857 151.031 40.302C151.031 40.9183 151.228 41.4335 151.621 41.8475C152.024 42.2616 152.513 42.4686 153.089 42.4686Z" fill="black"/>
<path d="M156.574 44.0575V36.5321H158.545V37.3554C158.785 37.028 159.073 36.7824 159.408 36.6187C159.754 36.4454 160.133 36.3587 160.545 36.3587C160.737 36.3684 160.895 36.3876 161.02 36.4165C161.154 36.4358 161.269 36.4743 161.365 36.5321V38.2654C161.221 38.198 161.063 38.1498 160.89 38.1209C160.718 38.0824 160.54 38.0631 160.358 38.0631C159.974 38.0631 159.619 38.1594 159.293 38.352C158.977 38.5446 158.727 38.8239 158.545 39.1898V44.0575H156.574Z" fill="black"/>
<path d="M161.219 40.302C161.219 39.7531 161.32 39.2428 161.521 38.7709C161.732 38.2894 162.015 37.8754 162.37 37.5287C162.735 37.1724 163.161 36.8932 163.651 36.691C164.14 36.4887 164.663 36.3876 165.219 36.3876C165.775 36.3876 166.298 36.4887 166.787 36.691C167.276 36.8932 167.698 37.1724 168.053 37.5287C168.418 37.8754 168.701 38.2894 168.902 38.7709C169.113 39.2428 169.219 39.7531 169.219 40.302C169.219 40.8509 169.113 41.3661 168.902 41.8475C168.701 42.3194 168.418 42.7286 168.053 43.0753C167.698 43.4219 167.276 43.6964 166.787 43.8986C166.298 44.1008 165.775 44.2019 165.219 44.2019C164.663 44.2019 164.14 44.1008 163.651 43.8986C163.161 43.6964 162.735 43.4219 162.37 43.0753C162.015 42.7286 161.732 42.3194 161.521 41.8475C161.32 41.3661 161.219 40.8509 161.219 40.302ZM165.219 42.4831C165.794 42.4831 166.284 42.2712 166.686 41.8475C167.089 41.4238 167.291 40.9087 167.291 40.302C167.291 39.6857 167.089 39.1657 166.686 38.742C166.284 38.3183 165.794 38.1065 165.219 38.1065C164.643 38.1065 164.154 38.3183 163.751 38.742C163.348 39.1657 163.147 39.6857 163.147 40.302C163.147 40.9087 163.348 41.4238 163.751 41.8475C164.154 42.2712 164.643 42.4831 165.219 42.4831Z" fill="black"/>
<path d="M169.294 43.1619L170.272 41.8475C170.713 42.1364 171.131 42.3531 171.524 42.4975C171.917 42.6323 172.31 42.6997 172.704 42.6997C173.145 42.6997 173.495 42.6275 173.754 42.4831C174.023 42.3386 174.157 42.146 174.157 41.9053C174.157 41.7127 174.08 41.5586 173.927 41.4431C173.783 41.3275 173.548 41.2457 173.222 41.1975L171.783 40.9809C171.044 40.8653 170.478 40.6246 170.085 40.2587C169.701 39.8927 169.51 39.4065 169.51 38.7998C169.51 38.0776 169.793 37.4998 170.358 37.0665C170.924 36.6332 171.682 36.4165 172.632 36.4165C173.179 36.4165 173.711 36.4984 174.229 36.6621C174.747 36.8161 175.241 37.0472 175.711 37.3554L174.761 38.6265C174.349 38.3857 173.955 38.2076 173.581 38.092C173.207 37.9669 172.828 37.9043 172.445 37.9043C172.09 37.9043 171.802 37.9717 171.581 38.1065C171.37 38.2413 171.265 38.4194 171.265 38.6409C171.265 38.8431 171.342 39.002 171.495 39.1176C171.658 39.2235 171.922 39.3005 172.286 39.3487L173.725 39.5653C174.454 39.6713 175.015 39.912 175.409 40.2876C175.812 40.6631 176.013 41.1398 176.013 41.7175C176.013 42.0738 175.927 42.406 175.754 42.7142C175.591 43.0127 175.365 43.2727 175.078 43.4942C174.79 43.7156 174.445 43.889 174.042 44.0141C173.639 44.1393 173.202 44.2019 172.732 44.2019C172.051 44.2019 171.414 44.1153 170.819 43.9419C170.224 43.759 169.716 43.499 169.294 43.1619Z" fill="black"/>
<path d="M175.886 43.1619L176.864 41.8475C177.305 42.1364 177.723 42.3531 178.116 42.4975C178.509 42.6323 178.903 42.6997 179.296 42.6997C179.737 42.6997 180.087 42.6275 180.346 42.4831C180.615 42.3386 180.749 42.146 180.749 41.9053C180.749 41.7127 180.672 41.5586 180.519 41.4431C180.375 41.3275 180.14 41.2457 179.814 41.1975L178.375 40.9809C177.636 40.8653 177.07 40.6246 176.677 40.2587C176.293 39.8927 176.102 39.4065 176.102 38.7998C176.102 38.0776 176.385 37.4998 176.951 37.0665C177.516 36.6332 178.274 36.4165 179.224 36.4165C179.771 36.4165 180.303 36.4984 180.821 36.6621C181.339 36.8161 181.833 37.0472 182.303 37.3554L181.353 38.6265C180.941 38.3857 180.548 38.2076 180.173 38.092C179.799 37.9669 179.421 37.9043 179.037 37.9043C178.682 37.9043 178.394 37.9717 178.174 38.1065C177.963 38.2413 177.857 38.4194 177.857 38.6409C177.857 38.8431 177.934 39.002 178.087 39.1176C178.25 39.2235 178.514 39.3005 178.879 39.3487L180.317 39.5653C181.046 39.6713 181.607 39.912 182.001 40.2876C182.404 40.6631 182.605 41.1398 182.605 41.7175C182.605 42.0738 182.519 42.406 182.346 42.7142C182.183 43.0127 181.958 43.2727 181.67 43.4942C181.382 43.7156 181.037 43.889 180.634 44.0141C180.231 44.1393 179.795 44.2019 179.325 44.2019C178.644 44.2019 178.006 44.1153 177.411 43.9419C176.816 43.759 176.308 43.499 175.886 43.1619Z" fill="black"/>
<path d="M187.503 44.4041L187.618 44.1297L184.697 36.5321H186.869L188.725 41.6597L190.855 36.5321H192.984L189.531 44.6497C189.148 45.5549 188.702 46.2 188.193 46.5852C187.685 46.9704 187.023 47.163 186.208 47.163C186.035 47.163 185.867 47.1533 185.704 47.1341C185.551 47.1245 185.426 47.1052 185.33 47.0763V45.3719C185.426 45.3912 185.527 45.4056 185.632 45.4152C185.738 45.4249 185.867 45.4297 186.021 45.4297C186.375 45.4297 186.673 45.343 186.913 45.1697C187.162 44.9964 187.359 44.7412 187.503 44.4041Z" fill="black"/>
<path d="M192.634 40.302C192.634 39.7531 192.735 39.2428 192.936 38.7709C193.147 38.2894 193.43 37.8754 193.785 37.5287C194.149 37.1724 194.576 36.8932 195.065 36.691C195.555 36.4887 196.077 36.3876 196.634 36.3876C197.19 36.3876 197.713 36.4887 198.202 36.691C198.691 36.8932 199.113 37.1724 199.468 37.5287C199.833 37.8754 200.116 38.2894 200.317 38.7709C200.528 39.2428 200.634 39.7531 200.634 40.302C200.634 40.8509 200.528 41.3661 200.317 41.8475C200.116 42.3194 199.833 42.7286 199.468 43.0753C199.113 43.4219 198.691 43.6964 198.202 43.8986C197.713 44.1008 197.19 44.2019 196.634 44.2019C196.077 44.2019 195.555 44.1008 195.065 43.8986C194.576 43.6964 194.149 43.4219 193.785 43.0753C193.43 42.7286 193.147 42.3194 192.936 41.8475C192.735 41.3661 192.634 40.8509 192.634 40.302ZM196.634 42.4831C197.209 42.4831 197.698 42.2712 198.101 41.8475C198.504 41.4238 198.706 40.9087 198.706 40.302C198.706 39.6857 198.504 39.1657 198.101 38.742C197.698 38.3183 197.209 38.1065 196.634 38.1065C196.058 38.1065 195.569 38.3183 195.166 38.742C194.763 39.1657 194.562 39.6857 194.562 40.302C194.562 40.9087 194.763 41.4238 195.166 41.8475C195.569 42.2712 196.058 42.4831 196.634 42.4831Z" fill="black"/>
<path d="M203.255 36.5321V40.9087C203.255 41.3901 203.394 41.7753 203.673 42.0642C203.96 42.3531 204.339 42.4975 204.809 42.4975C205.145 42.4975 205.442 42.4349 205.701 42.3097C205.97 42.1749 206.19 41.9871 206.363 41.7464V36.5321H208.334V44.0575H206.363V43.4508C206.075 43.6916 205.754 43.8793 205.399 44.0141C205.044 44.1393 204.661 44.2019 204.248 44.2019C203.385 44.2019 202.675 43.9227 202.119 43.3642C201.562 42.796 201.284 42.0738 201.284 41.1975V36.5321H203.255Z" fill="black"/>
<path d="M209.367 44.0575V36.5321H211.338V37.3554C211.578 37.028 211.866 36.7824 212.201 36.6187C212.547 36.4454 212.926 36.3587 213.338 36.3587C213.53 36.3684 213.688 36.3876 213.813 36.4165C213.947 36.4358 214.062 36.4743 214.158 36.5321V38.2654C214.014 38.198 213.856 38.1498 213.683 38.1209C213.511 38.0824 213.333 38.0631 213.151 38.0631C212.767 38.0631 212.412 38.1594 212.086 38.352C211.77 38.5446 211.52 38.8239 211.338 39.1898V44.0575H209.367Z" fill="black"/>
<path d="M224.998 40.302C224.998 40.8412 224.897 41.3468 224.696 41.8186C224.495 42.2905 224.221 42.6997 223.876 43.0464C223.531 43.393 223.118 43.6675 222.639 43.8697C222.169 44.0623 221.665 44.1586 221.128 44.1586C220.754 44.1586 220.389 44.1056 220.034 43.9997C219.679 43.8938 219.353 43.7445 219.056 43.5519V44.0575H217.114V33.9466L219.085 33.5132V37.1243C219.382 36.9028 219.708 36.7343 220.063 36.6187C220.428 36.4936 220.802 36.431 221.185 36.431C221.713 36.431 222.207 36.5321 222.667 36.7343C223.137 36.9365 223.545 37.2109 223.89 37.5576C224.236 37.9043 224.504 38.3135 224.696 38.7854C224.897 39.2572 224.998 39.7627 224.998 40.302ZM220.869 38.1209C220.514 38.1209 220.183 38.1835 219.876 38.3087C219.569 38.4243 219.305 38.5976 219.085 38.8287V41.7897C219.296 42.0016 219.555 42.1701 219.862 42.2953C220.178 42.4205 220.514 42.4831 220.869 42.4831C221.483 42.4831 222.001 42.276 222.423 41.862C222.845 41.4383 223.056 40.9183 223.056 40.302C223.056 39.6857 222.84 39.1705 222.408 38.7565C221.986 38.3328 221.473 38.1209 220.869 38.1209Z" fill="black"/>
<path d="M227.614 36.5321V40.9087C227.614 41.3901 227.754 41.7753 228.032 42.0642C228.319 42.3531 228.698 42.4975 229.168 42.4975C229.504 42.4975 229.801 42.4349 230.06 42.3097C230.329 42.1749 230.55 41.9871 230.722 41.7464V36.5321H232.693V44.0575H230.722V43.4508C230.435 43.6916 230.113 43.8793 229.758 44.0141C229.403 44.1393 229.02 44.2019 228.607 44.2019C227.744 44.2019 227.034 43.9227 226.478 43.3642C225.921 42.796 225.643 42.0738 225.643 41.1975V36.5321H227.614Z" fill="black"/>
<path d="M233.093 43.1619L234.071 41.8475C234.513 42.1364 234.93 42.3531 235.323 42.4975C235.716 42.6323 236.11 42.6997 236.503 42.6997C236.944 42.6997 237.294 42.6275 237.553 42.4831C237.822 42.3386 237.956 42.146 237.956 41.9053C237.956 41.7127 237.879 41.5586 237.726 41.4431C237.582 41.3275 237.347 41.2457 237.021 41.1975L235.582 40.9809C234.844 40.8653 234.278 40.6246 233.884 40.2587C233.501 39.8927 233.309 39.4065 233.309 38.7998C233.309 38.0776 233.592 37.4998 234.158 37.0665C234.724 36.6332 235.481 36.4165 236.431 36.4165C236.978 36.4165 237.51 36.4984 238.028 36.6621C238.546 36.8161 239.04 37.0472 239.51 37.3554L238.561 38.6265C238.148 38.3857 237.755 38.2076 237.381 38.092C237.007 37.9669 236.628 37.9043 236.244 37.9043C235.889 37.9043 235.601 37.9717 235.381 38.1065C235.17 38.2413 235.064 38.4194 235.064 38.6409C235.064 38.8431 235.141 39.002 235.294 39.1176C235.457 39.2235 235.721 39.3005 236.086 39.3487L237.525 39.5653C238.254 39.6713 238.815 39.912 239.208 40.2876C239.611 40.6631 239.812 41.1398 239.812 41.7175C239.812 42.0738 239.726 42.406 239.553 42.7142C239.39 43.0127 239.165 43.2727 238.877 43.4942C238.589 43.7156 238.244 43.889 237.841 44.0141C237.438 44.1393 237.002 44.2019 236.532 44.2019C235.851 44.2019 235.213 44.1153 234.618 43.9419C234.023 43.759 233.515 43.499 233.093 43.1619Z" fill="black"/>
<path d="M241.269 35.6365C240.962 35.6365 240.698 35.5258 240.477 35.3043C240.257 35.0828 240.146 34.818 240.146 34.5099C240.146 34.2017 240.257 33.9369 240.477 33.7155C240.698 33.494 240.962 33.3832 241.269 33.3832C241.575 33.3832 241.839 33.494 242.06 33.7155C242.28 33.9369 242.391 34.2017 242.391 34.5099C242.391 34.818 242.28 35.0828 242.06 35.3043C241.839 35.5258 241.575 35.6365 241.269 35.6365ZM242.261 36.5321V44.0575H240.29V36.5321H242.261Z" fill="black"/>
<path d="M243.299 44.0575V36.5321H245.27V37.1243C245.558 36.8835 245.875 36.7006 246.22 36.5754C246.575 36.4502 246.959 36.3876 247.371 36.3876C248.234 36.3876 248.944 36.6669 249.501 37.2254C250.057 37.7839 250.335 38.5013 250.335 39.3776V44.0575H248.364V39.6665C248.364 39.1946 248.22 38.8142 247.932 38.5254C247.654 38.2365 247.28 38.092 246.81 38.092C246.484 38.092 246.186 38.1594 245.918 38.2943C245.659 38.4194 245.443 38.6024 245.27 38.8431V44.0575H243.299Z" fill="black"/>
<path d="M258.044 43.1186C257.583 43.4942 257.109 43.7686 256.619 43.9419C256.14 44.1153 255.603 44.2019 255.008 44.2019C254.442 44.2019 253.91 44.1008 253.411 43.8986C252.922 43.6964 252.495 43.4219 252.13 43.0753C251.775 42.7286 251.492 42.3194 251.281 41.8475C251.08 41.3661 250.979 40.8509 250.979 40.302C250.979 39.7627 251.075 39.2572 251.267 38.7854C251.468 38.3039 251.742 37.8898 252.087 37.5432C252.432 37.1869 252.84 36.9076 253.31 36.7054C253.79 36.5032 254.298 36.4021 254.835 36.4021C255.363 36.4021 255.852 36.508 256.303 36.7198C256.763 36.9221 257.156 37.2013 257.483 37.5576C257.818 37.9139 258.077 38.3424 258.26 38.8431C258.451 39.3342 258.547 39.8687 258.547 40.4464V40.9664H252.965C253.099 41.4383 253.358 41.8186 253.742 42.1075C254.125 42.3964 254.576 42.5408 255.094 42.5408C255.42 42.5408 255.727 42.4879 256.015 42.382C256.303 42.276 256.547 42.1268 256.749 41.9342L258.044 43.1186ZM254.792 38.0343C254.341 38.0343 253.953 38.1739 253.627 38.4531C253.3 38.7228 253.075 39.0887 252.95 39.5509H256.619C256.495 39.1079 256.264 38.7468 255.929 38.4676C255.603 38.1787 255.224 38.0343 254.792 38.0343Z" fill="black"/>
<path d="M258.689 43.1619L259.667 41.8475C260.108 42.1364 260.526 42.3531 260.919 42.4975C261.312 42.6323 261.705 42.6997 262.099 42.6997C262.54 42.6997 262.89 42.6275 263.149 42.4831C263.418 42.3386 263.552 42.146 263.552 41.9053C263.552 41.7127 263.475 41.5586 263.322 41.4431C263.178 41.3275 262.943 41.2457 262.617 41.1975L261.178 40.9809C260.439 40.8653 259.873 40.6246 259.48 40.2587C259.096 39.8927 258.904 39.4065 258.904 38.7998C258.904 38.0776 259.187 37.4998 259.753 37.0665C260.319 36.6332 261.077 36.4165 262.027 36.4165C262.573 36.4165 263.106 36.4984 263.624 36.6621C264.142 36.8161 264.636 37.0472 265.106 37.3554L264.156 38.6265C263.744 38.3857 263.35 38.2076 262.976 38.092C262.602 37.9669 262.223 37.9043 261.84 37.9043C261.485 37.9043 261.197 37.9717 260.976 38.1065C260.765 38.2413 260.66 38.4194 260.66 38.6409C260.66 38.8431 260.737 39.002 260.89 39.1176C261.053 39.2235 261.317 39.3005 261.681 39.3487L263.12 39.5653C263.849 39.6713 264.41 39.912 264.804 40.2876C265.206 40.6631 265.408 41.1398 265.408 41.7175C265.408 42.0738 265.322 42.406 265.149 42.7142C264.986 43.0127 264.76 43.2727 264.473 43.4942C264.185 43.7156 263.84 43.889 263.437 44.0141C263.034 44.1393 262.597 44.2019 262.127 44.2019C261.446 44.2019 260.808 44.1153 260.214 43.9419C259.619 43.759 259.111 43.499 258.689 43.1619Z" fill="black"/>
<path d="M265.281 43.1619L266.259 41.8475C266.7 42.1364 267.118 42.3531 267.511 42.4975C267.904 42.6323 268.297 42.6997 268.691 42.6997C269.132 42.6997 269.482 42.6275 269.741 42.4831C270.01 42.3386 270.144 42.146 270.144 41.9053C270.144 41.7127 270.067 41.5586 269.914 41.4431C269.77 41.3275 269.535 41.2457 269.209 41.1975L267.77 40.9809C267.031 40.8653 266.465 40.6246 266.072 40.2587C265.688 39.8927 265.497 39.4065 265.497 38.7998C265.497 38.0776 265.78 37.4998 266.345 37.0665C266.911 36.6332 267.669 36.4165 268.619 36.4165C269.166 36.4165 269.698 36.4984 270.216 36.6621C270.734 36.8161 271.228 37.0472 271.698 37.3554L270.748 38.6265C270.336 38.3857 269.942 38.2076 269.568 38.092C269.194 37.9669 268.815 37.9043 268.432 37.9043C268.077 37.9043 267.789 37.9717 267.568 38.1065C267.357 38.2413 267.252 38.4194 267.252 38.6409C267.252 38.8431 267.329 39.002 267.482 39.1176C267.645 39.2235 267.909 39.3005 268.273 39.3487L269.712 39.5653C270.441 39.6713 271.002 39.912 271.396 40.2876C271.799 40.6631 272 41.1398 272 41.7175C272 42.0738 271.914 42.406 271.741 42.7142C271.578 43.0127 271.353 43.2727 271.065 43.4942C270.777 43.7156 270.432 43.889 270.029 44.0141C269.626 44.1393 269.19 44.2019 268.719 44.2019C268.038 44.2019 267.401 44.1153 266.806 43.9419C266.211 43.759 265.703 43.499 265.281 43.1619Z" fill="black"/>
<path d="M59.9119 28.8297V3.6448H66.1977V28.8297H59.9119Z" fill="#000719"/>
<path d="M71.6096 28.8297V9.79711H77.5299V11.0923C78.2365 10.5646 79.0283 10.1569 79.9054 9.86906C80.8068 9.58124 81.7448 9.43732 82.7194 9.43732C84.9852 9.43732 86.8368 10.1569 88.2743 11.596C89.7117 13.0352 90.4305 14.8701 90.4305 17.1007V28.8297H84.5101V17.8923C84.5101 16.8609 84.1812 16.0334 83.5234 15.4097C82.8899 14.7621 82.0494 14.4383 81.0017 14.4383C80.2465 14.4383 79.5765 14.5702 78.9917 14.8341C78.407 15.0979 77.9197 15.4697 77.5299 15.9494V28.8297H71.6096Z" fill="#000719"/>
<path d="M97.4398 23.0372V14.6542H93.5294V9.79711H97.4398V4.90404L103.36 3.6448V9.79711H108.769V14.6542H103.36V21.8859C103.36 22.7254 103.543 23.325 103.908 23.6848C104.298 24.0206 104.968 24.1885 105.918 24.1885C106.381 24.1885 106.82 24.1645 107.234 24.1165C107.648 24.0446 108.099 23.9366 108.586 23.7927V28.5059C108.05 28.6738 107.368 28.8057 106.54 28.9017C105.711 29.0216 105.017 29.0815 104.456 29.0815C102.142 29.0815 100.388 28.5778 99.1939 27.5704C98.0245 26.5391 97.4398 25.028 97.4398 23.0372Z" fill="#000719"/>
<path d="M130.266 26.3112C129.048 27.3186 127.794 28.0502 126.502 28.5059C125.235 28.9616 123.798 29.1895 122.19 29.1895C120.728 29.1895 119.352 28.9376 118.06 28.4339C116.769 27.9302 115.648 27.2347 114.698 26.3472C113.772 25.4597 113.029 24.4163 112.469 23.2171C111.933 21.9938 111.665 20.6986 111.665 19.3314C111.665 17.9642 111.921 16.681 112.432 15.4817C112.968 14.2584 113.687 13.2031 114.588 12.3156C115.49 11.4281 116.55 10.7325 117.768 10.2288C119.01 9.72515 120.338 9.4733 121.751 9.4733C123.164 9.4733 124.468 9.73714 125.662 10.2648C126.856 10.7925 127.879 11.5121 128.732 12.4235C129.609 13.335 130.291 14.4383 130.778 15.7335C131.265 17.0048 131.509 18.384 131.509 19.8711V21.3102H117.731C118.121 22.1977 118.73 22.9292 119.559 23.5049C120.387 24.0566 121.362 24.3324 122.482 24.3324C123.286 24.3324 124.017 24.2125 124.675 23.9726C125.333 23.7088 125.893 23.349 126.356 22.8933L130.266 26.3112ZM121.642 14.2225C120.667 14.2225 119.827 14.4863 119.12 15.014C118.414 15.5417 117.914 16.2852 117.622 17.2446H125.698C125.382 16.3332 124.858 15.6016 124.127 15.05C123.42 14.4983 122.592 14.2225 121.642 14.2225Z" fill="#000719"/>
<path d="M141.659 2.38555V28.8297H135.738V3.6448L141.659 2.38555Z" fill="#000719"/>
<path d="M152.685 2.38555V28.8297H146.765V3.6448L152.685 2.38555Z" fill="#000719"/>
<path d="M160.751 8.03417C159.85 8.03417 159.082 7.72235 158.449 7.09873C157.816 6.4751 157.499 5.71955 157.499 4.83208C157.499 3.94462 157.816 3.18907 158.449 2.56544C159.082 1.94182 159.85 1.63 160.751 1.63C161.653 1.63 162.42 1.94182 163.054 2.56544C163.687 3.18907 164.004 3.94462 164.004 4.83208C164.004 5.71955 163.687 6.4751 163.054 7.09873C162.42 7.72235 161.653 8.03417 160.751 8.03417ZM163.712 9.79711V28.8297H157.791V9.79711H163.712Z" fill="#000719"/>
<path d="M174.592 9.79711V20.7345C174.592 21.7659 174.909 22.6054 175.542 23.253C176.2 23.8767 177.053 24.1885 178.1 24.1885C178.855 24.1885 179.525 24.0566 180.11 23.7927C180.695 23.5289 181.182 23.1571 181.572 22.6774V9.79711H187.492V28.8297H181.572V27.5345C180.865 28.0622 180.061 28.4699 179.16 28.7577C178.283 29.0456 177.357 29.1895 176.383 29.1895C174.117 29.1895 172.265 28.4699 170.828 27.0308C169.39 25.5916 168.671 23.7567 168.671 21.5261V9.79711H174.592Z" fill="#000719"/>
<path d="M192.621 28.8297V9.79711H198.541V11.0204C199.223 10.4927 199.966 10.0969 200.77 9.83309C201.599 9.56924 202.464 9.43732 203.365 9.43732C204.559 9.43732 205.643 9.67718 206.618 10.1569C207.617 10.6126 208.445 11.2482 209.103 12.0637C209.882 11.2243 210.808 10.5766 211.88 10.1209C212.952 9.66519 214.122 9.43732 215.389 9.43732C217.581 9.43732 219.372 10.1569 220.761 11.596C222.174 13.0352 222.88 14.8701 222.88 17.1007V28.8297H216.96V17.8923C216.96 16.8609 216.668 16.0334 216.083 15.4097C215.522 14.7621 214.767 14.4383 213.817 14.4383C213.159 14.4383 212.562 14.5702 212.026 14.8341C211.49 15.0739 211.027 15.4217 210.638 15.8775C210.662 16.0693 210.674 16.2732 210.674 16.4891C210.699 16.681 210.711 16.8849 210.711 17.1007V28.8297H204.79V17.8923C204.79 16.8609 204.498 16.0334 203.913 15.4097C203.353 14.7621 202.598 14.4383 201.647 14.4383C200.99 14.4383 200.393 14.5583 199.857 14.7981C199.345 15.014 198.907 15.3498 198.541 15.8055V28.8297H192.621Z" fill="#000719"/>
<path d="M234.361 28.8297L244.849 3.6448H252.049L262.391 28.8297H255.594L253.255 22.7493H243.278L240.902 28.8297H234.361ZM245.178 17.8203H251.391L248.321 9.76113L245.178 17.8203Z" fill="#000719"/>
<path d="M265.714 28.8297V3.6448H272V28.8297H265.714Z" fill="#000719"/>
<path fill-rule="evenodd" clip-rule="evenodd" d="M37.7445 6.42293H10.185C7.86884 6.42293 5.9912 8.30057 5.9912 10.6168V38.1762C5.9912 40.4924 7.86884 42.3701 10.185 42.3701H37.7445C40.0607 42.3701 41.9383 40.4924 41.9383 38.1762V10.6168C41.9383 8.30057 40.0607 6.42293 37.7445 6.42293ZM10.185 3.42734C6.21442 3.42734 2.99561 6.64615 2.99561 10.6168V38.1762C2.99561 42.1468 6.21442 45.3657 10.185 45.3657H37.7445C41.7151 45.3657 44.9339 42.1468 44.9339 38.1762V10.6168C44.9339 6.64615 41.7151 3.42734 37.7445 3.42734H10.185Z" fill="#0048FF"/>
<path fill-rule="evenodd" clip-rule="evenodd" d="M10.7841 4.02635L10.7841 0.43164L13.7797 0.431641L13.7797 4.02635L10.7841 4.02635Z" fill="#0048FF"/>
<path fill-rule="evenodd" clip-rule="evenodd" d="M17.0749 4.02635L17.0749 0.43164L20.0705 0.431641L20.0705 4.02635L17.0749 4.02635Z" fill="#0048FF"/>
<path fill-rule="evenodd" clip-rule="evenodd" d="M23.3656 4.02635L23.3656 0.43164L26.3612 0.431641L26.3612 4.02635L23.3656 4.02635Z" fill="#0048FF"/>
<path fill-rule="evenodd" clip-rule="evenodd" d="M29.6564 4.02635L29.6564 0.43164L32.652 0.431641L32.652 4.02635L29.6564 4.02635Z" fill="#0048FF"/>
<path fill-rule="evenodd" clip-rule="evenodd" d="M35.9471 4.02635L35.9471 0.43164L38.9427 0.431641L38.9427 4.02635L35.9471 4.02635Z" fill="#0048FF"/>
<path fill-rule="evenodd" clip-rule="evenodd" d="M10.7841 48.3612L10.7841 44.7665L13.7797 44.7665L13.7797 48.3612L10.7841 48.3612Z" fill="#0048FF"/>
<path fill-rule="evenodd" clip-rule="evenodd" d="M17.0749 48.3612L17.0749 44.7665L20.0705 44.7665L20.0705 48.3612L17.0749 48.3612Z" fill="#0048FF"/>
<path fill-rule="evenodd" clip-rule="evenodd" d="M23.3656 48.3612L23.3656 44.7665L26.3612 44.7665L26.3612 48.3612L23.3656 48.3612Z" fill="#0048FF"/>
<path fill-rule="evenodd" clip-rule="evenodd" d="M29.6564 48.3612L29.6564 44.7665L32.652 44.7665L32.652 48.3612L29.6564 48.3612Z" fill="#0048FF"/>
<path fill-rule="evenodd" clip-rule="evenodd" d="M35.9471 48.3612L35.9471 44.7665L38.9427 44.7665L38.9427 48.3612L35.9471 48.3612Z" fill="#0048FF"/>
<path fill-rule="evenodd" clip-rule="evenodd" d="M1.36133e-05 11.216L3.59473 11.216L3.59473 14.2116L1.33514e-05 14.2116L1.36133e-05 11.216Z" fill="#0048FF"/>
<path fill-rule="evenodd" clip-rule="evenodd" d="M1.36133e-05 17.5067L3.59473 17.5067L3.59473 20.5023L1.33514e-05 20.5023L1.36133e-05 17.5067Z" fill="#0048FF"/>
<path fill-rule="evenodd" clip-rule="evenodd" d="M1.36133e-05 23.7974L3.59473 23.7974L3.59473 26.793L1.33514e-05 26.793L1.36133e-05 23.7974Z" fill="#0048FF"/>
<path fill-rule="evenodd" clip-rule="evenodd" d="M1.36133e-05 30.0881L3.59473 30.0881L3.59473 33.0836L1.33514e-05 33.0836L1.36133e-05 30.0881Z" fill="#0048FF"/>
<path fill-rule="evenodd" clip-rule="evenodd" d="M1.36133e-05 36.3787L3.59473 36.3787L3.59473 39.3743L1.33514e-05 39.3743L1.36133e-05 36.3787Z" fill="#0048FF"/>
<path fill-rule="evenodd" clip-rule="evenodd" d="M44.3348 11.216L47.9295 11.216L47.9295 14.2116L44.3348 14.2116L44.3348 11.216Z" fill="#0048FF"/>
<path fill-rule="evenodd" clip-rule="evenodd" d="M44.3348 17.5067L47.9295 17.5067L47.9295 20.5023L44.3348 20.5023L44.3348 17.5067Z" fill="#0048FF"/>
<path fill-rule="evenodd" clip-rule="evenodd" d="M44.3348 23.7974L47.9295 23.7974L47.9295 26.793L44.3348 26.793L44.3348 23.7974Z" fill="#0048FF"/>
<path fill-rule="evenodd" clip-rule="evenodd" d="M44.3348 30.0881L47.9295 30.0881L47.9295 33.0836L44.3348 33.0836L44.3348 30.0881Z" fill="#0048FF"/>
<path fill-rule="evenodd" clip-rule="evenodd" d="M44.3348 36.3787L47.9295 36.3787L47.9295 39.3743L44.3348 39.3743L44.3348 36.3787Z" fill="#0048FF"/>
<path d="M21.6384 22.8067C21.6384 22.5009 21.3988 22.2291 21.0906 22.2291C19.5157 22.1952 18.112 23.0784 17.4615 24.4373C16.9822 23.7579 16.2632 23.2483 15.4415 22.9765C15.4757 22.7047 15.51 22.399 15.4757 22.1272C15.4072 21.7196 15.2361 21.3459 14.9622 21.0061C14.8594 20.8703 14.7225 20.7683 14.5513 20.7683C14.2432 20.7683 13.9693 21.0061 13.9693 21.3119C13.9693 21.4478 14.0035 21.5837 14.1062 21.6856C14.4144 22.0593 14.4828 22.5688 14.3459 23.0105C14.1747 23.4521 13.8323 23.8258 13.353 23.9277C13.0449 23.9957 12.8737 24.3014 12.9422 24.6072C13.0106 24.9129 13.3188 25.0828 13.6269 25.0148C14.2089 24.845 14.7225 24.4713 15.0649 23.9957C16.2632 24.3354 17.1191 25.4225 17.1191 26.6794C17.1191 26.9852 17.3588 27.223 17.6669 27.2569C17.9066 27.2569 18.1462 27.0871 18.2147 26.8493C18.2147 26.8153 18.2233 26.7898 18.2318 26.7644C18.2404 26.7389 18.2489 26.7134 18.2489 26.6794C18.2489 26.4416 18.2147 26.2378 18.1805 26.034C18.2147 25.966 18.2489 25.8981 18.2489 25.8301C18.4201 24.3693 19.6527 23.3162 21.1249 23.3502C21.3988 23.3502 21.6384 23.1124 21.6384 22.8067Z" fill="#0048FF"/>
<path d="M31.4988 25.0826C32.0808 25.1166 32.6628 25.3544 33.1079 25.796C33.3476 26.0678 33.3476 26.4075 33.1079 26.6453C32.9025 26.8492 32.5259 26.8492 32.3205 26.6113C31.9781 26.2716 31.4988 26.1018 31.0194 26.2037C30.5401 26.3056 30.1293 26.6453 29.9581 27.0869C29.8554 27.3587 29.513 27.4946 29.2391 27.3927C28.9652 27.2908 28.8283 26.9511 28.931 26.6793C29.1022 26.3056 29.3761 25.9659 29.6842 25.6941C29.9238 25.5243 30.1635 25.3884 30.4374 25.2864C30.3347 24.8108 30.3005 24.3692 30.3689 23.9276C30.3347 23.9276 30.3005 23.8936 30.3005 23.8596C29.6842 22.7046 28.6228 21.9232 27.3903 21.6175C27.1164 21.5835 26.9452 21.3457 26.9452 21.0739C26.9794 20.7682 27.2191 20.5304 27.5272 20.5304H27.6299C28.8967 20.8022 29.9923 21.5496 30.7798 22.5687C31.043 22.0986 31.8658 21.13 32.4232 20.972C32.6628 20.9041 32.9025 21.006 33.0394 21.2438C33.1764 21.5156 33.0737 21.8553 32.7998 21.9912C31.7042 22.6027 31.1906 23.8596 31.4988 25.0826Z" fill="#0048FF"/>
<path fill-rule="evenodd" clip-rule="evenodd" d="M35.1279 19.0696C35.6415 17.6768 35.5045 16.1141 34.6486 14.8571C33.8269 13.6342 32.4916 12.8528 31.0537 12.7509C30.951 12.4451 30.8482 12.1734 30.7113 11.9016C29.8211 10.3729 28.0066 9.62548 26.2947 10.1011C25.3018 10.3729 24.4801 11.0183 23.9666 11.8676C23.453 11.0183 22.6313 10.3729 21.6384 10.1011C21.2276 9.99917 20.7825 9.93122 20.3374 9.9652C19.0706 10.0671 17.8723 10.7466 17.2218 11.9016C17.0506 12.1734 16.9479 12.4791 16.8795 12.7509C15.4073 12.8528 14.072 13.6342 13.2503 14.8571C12.4286 16.1141 12.2574 17.6768 12.771 19.0696C10.3401 20.4625 9.21031 23.418 10.169 26.0678C10.614 27.2568 11.4357 28.242 12.4286 28.8875C12.3944 28.9554 12.3601 29.0234 12.3601 29.0913C11.9835 30.654 12.2917 32.3186 13.1818 33.6775C14.0378 35.0024 15.4072 35.9196 16.9479 36.2593C17.1533 36.8029 17.4615 37.2785 17.8723 37.6862C19.0022 38.8072 20.6798 39.147 22.152 38.5355C22.9394 38.1957 23.59 37.6522 24.0008 36.9388C24.4116 37.6522 25.0622 38.1957 25.8496 38.5355C27.3218 39.147 28.9994 38.8072 30.1293 37.6862C30.5401 37.2785 30.8482 36.7689 31.0537 36.2593C32.5943 35.9196 33.9296 35.0024 34.7855 33.7115C35.6757 32.3526 35.9838 30.688 35.6072 29.1253C35.6072 29.0573 35.573 28.9894 35.5387 28.9215C36.5316 28.242 37.3533 27.2908 37.7984 26.1018C38.6886 23.418 37.5587 20.4964 35.1279 19.0696ZM23.3845 35.0703C23.3503 36.1574 22.6998 37.1426 21.6727 37.5503C20.6113 37.9919 19.413 37.7541 18.6256 36.9388C17.8381 36.1574 17.5984 34.9345 18.0093 33.9153C18.112 33.7115 18.2147 33.5076 18.3517 33.3038C18.8606 33.3038 19.3057 33.3586 19.6527 33.7794C19.9608 34.1531 20.0978 34.6287 19.9608 35.1043C19.8018 35.814 20.8989 36.0792 21.0564 35.3761C21.2618 34.5608 21.0564 33.6775 20.5086 33.032C20.2347 32.7263 19.9266 32.5225 19.5842 32.3866C19.8923 32.2507 20.2347 32.1827 20.5771 32.1827C20.8852 32.1827 21.1249 31.9449 21.1591 31.6392C21.1591 31.3334 20.9194 31.0956 20.6113 31.0617C19.0364 31.0617 17.5984 32.0129 16.9822 33.4737C16.7767 33.9832 16.674 34.5268 16.674 35.0364C15.6127 34.6967 14.6883 34.0172 14.072 33.1C13.353 32.0129 13.1134 30.722 13.4215 29.465C14.5856 29.9746 15.9208 30.1105 17.2218 29.7708C17.53 29.7028 17.7011 29.3971 17.6327 29.0913C17.5642 28.7856 17.2561 28.6157 16.9479 28.6836C14.5513 29.3291 12.0862 28.0382 11.2303 25.7281C10.3744 23.418 11.47 20.8701 13.7296 19.817C14.0035 19.6811 14.1405 19.3754 14.0035 19.0696C13.9864 19.0357 13.9693 19.0102 13.9522 18.9847C13.935 18.9592 13.9179 18.9337 13.9008 18.8998V18.8658C13.3873 17.7447 13.5242 16.4538 14.1747 15.4347C14.7567 14.5514 15.6811 13.9739 16.674 13.838C16.674 14.5174 16.8795 15.1968 17.2218 15.7744C16.674 15.8423 16.1262 15.9782 15.6469 16.25C15.373 16.4198 15.3045 16.7596 15.4415 16.9974C15.6127 17.2691 15.9208 17.3371 16.1947 17.2012C16.9479 16.7596 17.8723 16.6916 18.694 17.0653C19.5157 17.405 20.0978 18.1184 20.3032 18.9677C20.3716 19.2735 20.6798 19.4433 20.9879 19.3754C21.2618 19.3074 21.4672 19.0017 21.3988 18.7299C21.2618 18.1184 20.9879 17.5749 20.5771 17.1332C20.2005 16.6916 19.6869 16.3179 19.1391 16.0801C19.0706 16.0462 19.0022 16.0292 18.9337 16.0122C18.8652 15.9952 18.7967 15.9782 18.7283 15.9442C18.694 15.8763 18.6598 15.8083 18.5913 15.7744C17.7011 14.8911 17.4957 13.4983 18.1462 12.4112C18.6256 11.5958 19.4815 11.0863 20.3716 11.0183C20.6798 10.9844 20.9879 11.0183 21.2961 11.1202C22.4944 11.426 23.3161 12.5131 23.3503 13.7361V14.4155C22.4601 14.6193 21.5015 14.3815 20.851 13.7361C20.6113 13.5322 20.2689 13.5322 20.0635 13.77C19.8581 14.0078 19.8581 14.3476 20.0978 14.5514C20.9879 15.3667 22.1862 15.7064 23.3845 15.5366V26.0678L23.2818 26.2717C23.1449 26.7473 22.8025 27.1209 22.3574 27.2568C21.9123 27.4267 21.3988 27.3248 21.0222 27.019C20.7825 26.8492 20.4059 26.9171 20.2347 27.1549C20.0635 27.3927 20.0978 27.6985 20.3374 27.9023C20.6798 28.1741 21.0564 28.3439 21.4672 28.4119C21.8781 28.4798 22.3232 28.4458 22.6998 28.31C22.9394 28.242 23.1791 28.1061 23.3845 27.9363V35.0703ZM36.6686 25.6941C35.8126 28.0042 33.3476 29.2951 30.951 28.6497C30.6428 28.5817 30.3347 28.7516 30.2662 29.0573C30.1977 29.3631 30.3689 29.6688 30.6771 29.7368C31.9781 30.0765 33.3133 29.9406 34.4774 29.465C34.7513 30.722 34.5116 32.0129 33.8269 33.1C33.2106 34.0172 32.2862 34.6967 31.2591 35.0364C31.2591 34.4928 31.1906 33.9832 30.951 33.4737C30.3347 32.0129 28.8967 31.0617 27.3218 31.0617C27.0137 31.0617 26.774 31.2995 26.7398 31.6052C26.7398 31.911 26.9794 32.1488 27.2876 32.1827C28.4174 32.1827 29.4445 32.8622 29.8896 33.8813C30.3347 34.9345 30.095 36.1235 29.2733 36.9048C28.4859 37.6862 27.2533 37.924 26.2262 37.5163C25.1991 37.1086 24.5486 36.1235 24.5144 35.0364V34.7646C25.4388 34.5268 26.3974 34.7646 27.1164 35.4101C27.356 35.6139 27.6984 35.6139 27.9038 35.3761C28.1093 35.1383 28.1093 34.7986 27.8696 34.5947C26.9452 33.7454 25.7127 33.4057 24.5144 33.6096V26.1697C24.6855 26.2377 24.8568 26.3056 25.0622 26.3396C25.473 26.4075 25.9181 26.3736 26.2947 26.2377C27.1164 25.9659 27.7327 25.3204 27.9723 24.4712C28.0408 24.1654 27.8696 23.8597 27.5957 23.7917C27.2876 23.7238 26.9794 23.8936 26.911 24.1654C26.774 24.641 26.4316 25.0147 25.9866 25.1506C25.5415 25.3204 25.0279 25.2185 24.6513 24.9128C24.6382 24.8998 24.6251 24.8918 24.614 24.8849C24.5959 24.8739 24.5828 24.8658 24.5828 24.8448V18.0505C25.3703 18.2883 26.2262 18.1184 26.911 17.6088L26.9794 17.5409C26.9966 17.5409 27.0051 17.5409 27.0094 17.5367C27.0137 17.5324 27.0137 17.5239 27.0137 17.5069C27.9723 16.9294 29.2049 16.9634 30.1293 17.6428C30.3689 17.8127 30.7455 17.7787 30.9167 17.5069C31.0879 17.2691 31.0537 16.9294 30.7798 16.7256C29.9238 16.1141 28.8282 15.8763 27.8011 16.0461C27.9038 15.5705 27.8354 15.061 27.6642 14.6193C27.4164 13.9636 26.3872 14.3658 26.6371 15.027C26.8767 15.6045 26.7055 16.3179 26.192 16.7256C25.7127 17.0993 25.0622 17.1332 24.5486 16.8275V13.6681C24.5828 12.4451 25.4045 11.392 26.6028 11.0523C26.911 10.9844 27.2191 10.9504 27.5272 10.9504C28.4516 11.0183 29.2733 11.5279 29.7527 12.3432C30.1293 12.9887 30.1977 13.7361 30.0266 14.4155C29.9581 14.7212 30.1293 15.027 30.4374 15.0949C30.7455 15.1629 31.0537 14.993 31.1221 14.6873C31.1906 14.3815 31.2249 14.0758 31.2249 13.77C32.252 13.9399 33.1421 14.4834 33.7242 15.3667C34.4089 16.3859 34.5116 17.6768 33.9981 18.7979V18.8318C33.7926 19.0696 33.7926 19.4094 34.0323 19.6132C34.0665 19.6472 34.135 19.6811 34.2035 19.7151C36.4289 20.8362 37.4903 23.3841 36.6686 25.6941Z" fill="#0048FF"/>
<path fill-rule="evenodd" clip-rule="evenodd" d="M33.9981 18.7979C34.5116 17.6768 34.4089 16.3859 33.7242 15.3667C33.2469 14.6425 32.5625 14.1466 31.7653 13.8979C31.5903 13.8433 31.4098 13.8006 31.2249 13.77C31.2249 13.95 31.213 14.13 31.1893 14.31C31.1727 14.4358 31.1503 14.5615 31.1221 14.6873C31.0537 14.993 30.7455 15.1629 30.4374 15.0949C30.1293 15.027 29.9581 14.7212 30.0266 14.4155C30.1977 13.7361 30.1293 12.9887 29.7527 12.3432C29.2733 11.5279 28.4516 11.0183 27.5272 10.9504C27.2191 10.9504 26.911 10.9844 26.6028 11.0523C25.4045 11.392 24.5828 12.4451 24.5486 13.6681V16.8275C25.0622 17.1332 25.7127 17.0993 26.192 16.7256C26.7055 16.3179 26.8767 15.6045 26.6371 15.027C26.3872 14.3658 27.4164 13.9636 27.6642 14.6193C27.7703 14.8932 27.837 15.1933 27.8478 15.4951C27.8545 15.68 27.8401 15.8655 27.8011 16.0461C27.9863 16.0155 28.1736 15.9982 28.3614 15.9938C29.2154 15.9742 30.0781 16.2243 30.7798 16.7256C31.0537 16.9294 31.0879 17.2691 30.9167 17.5069C30.7455 17.7787 30.3689 17.8127 30.1293 17.6428C29.2049 16.9634 27.9723 16.9294 27.0137 17.5069C27.0137 17.5239 27.0137 17.5324 27.0094 17.5367C27.0051 17.5409 26.9966 17.5409 26.9794 17.5409L26.911 17.6088C26.3811 18.0031 25.7488 18.194 25.1251 18.1501C24.9427 18.1372 24.761 18.1043 24.5828 18.0505V24.8448C24.5828 24.8658 24.5959 24.8739 24.614 24.8849C24.6251 24.8918 24.6382 24.8998 24.6513 24.9128C25.0279 25.2185 25.5415 25.3204 25.9866 25.1506C26.4316 25.0147 26.774 24.641 26.911 24.1654C26.9794 23.8936 27.2876 23.7238 27.5957 23.7917C27.8696 23.8597 28.0408 24.1654 27.9723 24.4712C27.7327 25.3204 27.1164 25.9659 26.2947 26.2377C25.9181 26.3736 25.473 26.4075 25.0622 26.3396C25.0603 26.3393 25.0584 26.339 25.0566 26.3387C24.8537 26.3044 24.684 26.237 24.5144 26.1697V33.6096C24.6947 33.5789 24.8758 33.5605 25.0566 33.5543C26.0767 33.5195 27.0843 33.8733 27.8696 34.5947C28.1093 34.7986 28.1093 35.1383 27.9038 35.3761C27.6984 35.6139 27.356 35.6139 27.1164 35.4101C26.3974 34.7646 25.4388 34.5268 24.5144 34.7646V35.0364C24.5486 36.1235 25.1991 37.1086 26.2262 37.5163C27.2533 37.924 28.4859 37.6862 29.2733 36.9048C30.095 36.1235 30.3347 34.9345 29.8896 33.8813C29.4445 32.8622 28.4174 32.1827 27.2876 32.1827C26.9794 32.1488 26.7398 31.911 26.7398 31.6052C26.774 31.2995 27.0137 31.0617 27.3218 31.0617C28.8967 31.0617 30.3347 32.0129 30.951 33.4737C31.1067 33.8048 31.1901 34.1359 31.2295 34.4763C31.2507 34.6598 31.2591 34.846 31.2591 35.0364C31.4423 34.9758 31.6223 34.9044 31.7978 34.8227C32.6062 34.4467 33.3206 33.8536 33.8269 33.1C34.4129 32.1696 34.6729 31.09 34.564 30.0101C34.5457 29.8282 34.5169 29.6462 34.4774 29.465C34.309 29.5338 34.1371 29.5955 33.9622 29.6496C32.9278 29.97 31.7899 30.0274 30.6771 29.7368C30.3689 29.6688 30.1977 29.3631 30.2662 29.0573C30.3347 28.7516 30.6428 28.5817 30.951 28.6497C33.3476 29.2951 35.8126 28.0042 36.6686 25.6941C37.4903 23.3841 36.4289 20.8362 34.2035 19.7151C34.135 19.6811 34.0665 19.6472 34.0323 19.6132C33.7926 19.4094 33.7926 19.0696 33.9981 18.8318V18.7979ZM33.4839 18.62L33.5044 18.5752C33.941 17.6222 33.853 16.5284 33.273 15.6652L33.2717 15.6632L33.2703 15.6611C32.8883 15.0814 32.3512 14.6726 31.7172 14.4492C31.6998 14.5676 31.6779 14.6859 31.6515 14.804C31.5101 15.4353 30.8831 15.7444 30.3198 15.6202C29.6835 15.4799 29.372 14.8578 29.4972 14.2988L29.4988 14.2919L29.5005 14.285C29.6413 13.7261 29.5819 13.1248 29.2838 12.6136C28.8965 11.9553 28.2422 11.5488 27.5068 11.4885C27.2513 11.4899 26.9947 11.5182 26.7365 11.574C25.7755 11.8533 25.1213 12.6966 25.0908 13.676V16.4722C25.3523 16.5329 25.6325 16.4766 25.8551 16.304C26.176 16.0478 26.2848 15.5913 26.1357 15.2318L26.1324 15.2239L26.1294 15.2159C26.0129 14.9077 26.0392 14.5968 26.1796 14.3375C26.3133 14.0907 26.5332 13.9202 26.764 13.8293C26.9943 13.7385 27.2739 13.7123 27.5428 13.8055C27.8261 13.9037 28.054 14.1206 28.1709 14.4279C28.293 14.7434 28.3735 15.0945 28.3889 15.4552C29.344 15.4416 30.307 15.7248 31.0966 16.2889L31.1009 16.292L31.1051 16.2952C31.6123 16.6726 31.6969 17.3338 31.3676 17.806C31.0003 18.3707 30.2606 18.3971 29.8141 18.0806L29.8103 18.0779L29.8065 18.0752C29.0984 17.5547 28.1624 17.5037 27.4049 17.9048C27.401 17.9089 27.3969 17.913 27.3928 17.9171C27.3561 17.9535 27.3178 17.9815 27.2806 18.0029L27.2671 18.0163L27.2363 18.0393C26.6185 18.499 25.8722 18.7325 25.1251 18.6893V24.5847C25.3414 24.7053 25.5891 24.7258 25.7919 24.6484L25.8093 24.6418L25.8271 24.6363C26.0732 24.5612 26.2935 24.3443 26.3878 24.0239C26.5442 23.43 27.1715 23.147 27.7133 23.2665L27.7203 23.268L27.7272 23.2697C28.3334 23.4201 28.6228 24.047 28.5016 24.5879L28.4984 24.6021L28.4945 24.6162C28.208 25.6316 27.4656 26.4151 26.473 26.7458C26.0296 26.9044 25.526 26.9471 25.0566 26.8829V33.0161C26.2066 32.9815 27.3438 33.3817 28.2313 34.1938C28.7243 34.6215 28.682 35.3019 28.3155 35.7262C27.885 36.2246 27.1936 36.1844 26.7635 35.8186L26.758 35.8139L26.7526 35.809C26.2764 35.3816 25.6779 35.1767 25.071 35.2175C25.1653 36.0223 25.6744 36.7178 26.4276 37.0168C27.2574 37.3461 28.2589 37.1505 28.8899 36.5244L28.894 36.5203L28.8982 36.5164C29.5534 35.8933 29.7494 34.9442 29.3908 34.0924C29.0301 33.2695 28.1979 32.7208 27.2876 32.7208H27.2575L27.2277 32.7175C26.6784 32.6569 26.1975 32.2173 26.1975 31.6052V31.5754L26.2009 31.5458C26.2619 31.0008 26.705 30.5236 27.3218 30.5236C29.1138 30.5236 30.7448 31.6026 31.4469 33.256C31.6025 33.5894 31.6945 33.9198 31.7456 34.248C32.3914 33.9123 32.9594 33.4187 33.3713 32.8081C33.8689 32.0151 34.1002 31.1046 34.0353 30.1899C32.937 30.5137 31.7318 30.5667 30.5478 30.2594C29.9194 30.1141 29.6125 29.4962 29.7369 28.9406C29.8783 28.3093 30.5052 28.0002 31.0686 28.1245L31.0809 28.1272L31.093 28.1304C33.2123 28.7012 35.3967 27.5626 36.1585 25.5117C36.8844 23.4653 35.9475 21.1979 33.9595 20.1956C33.959 20.1953 33.9585 20.1951 33.958 20.1948L33.9564 20.194C33.9253 20.1786 33.8793 20.1558 33.836 20.1313C33.8005 20.1111 33.7326 20.0713 33.6676 20.0115C33.2282 19.6277 33.2175 19.0421 33.4839 18.62ZM30.7113 11.9016C30.8482 12.1734 30.951 12.4451 31.0537 12.7509C32.4916 12.8528 33.8269 13.6342 34.6486 14.8571C35.5045 16.1141 35.6415 17.6768 35.1279 19.0696C37.5587 20.4964 38.6886 23.418 37.7984 26.1018C37.3533 27.2908 36.5316 28.242 35.5387 28.9215C35.573 28.9894 35.6072 29.0573 35.6072 29.1253C35.9838 30.688 35.6757 32.3526 34.7855 33.7115C33.9296 35.0024 32.5943 35.9196 31.0537 36.2593C30.8482 36.7689 30.5401 37.2785 30.1293 37.6862C28.9994 38.8072 27.3218 39.147 25.8496 38.5355C25.2513 38.2774 24.7321 37.9016 24.337 37.4231C24.2121 37.2718 24.0995 37.1102 24.0008 36.9388C23.9021 37.1102 23.7895 37.2718 23.6646 37.4231C23.2695 37.9016 22.7502 38.2774 22.152 38.5355C20.6798 39.147 19.0022 38.8072 17.8723 37.6862C17.4615 37.2785 17.1533 36.8029 16.9479 36.2593C15.4072 35.9196 14.0378 35.0024 13.1818 33.6775C12.2917 32.3186 11.9835 30.654 12.3601 29.0913C12.3601 29.0234 12.3944 28.9554 12.4286 28.8875C11.4357 28.242 10.614 27.2568 10.169 26.0678C9.21031 23.418 10.3401 20.4625 12.771 19.0696C12.2574 17.6768 12.4286 16.1141 13.2503 14.8571C14.072 13.6342 15.4073 12.8528 16.8795 12.7509C16.9479 12.4791 17.0506 12.1734 17.2218 11.9016C17.8723 10.7466 19.0706 10.0671 20.3374 9.9652C20.7825 9.93122 21.2276 9.99917 21.6384 10.1011C22.4362 10.3195 23.1234 10.7791 23.6291 11.3918C23.7528 11.5417 23.8656 11.7007 23.9666 11.8676C24.0675 11.7007 24.1803 11.5417 24.304 11.3918C24.8097 10.7791 25.4969 10.3195 26.2947 10.1011C28.0066 9.62548 29.8211 10.3729 30.7113 11.9016ZM26.1495 9.5827C25.2825 9.82024 24.5319 10.3071 23.9666 10.9543C23.401 10.3068 22.6501 9.81987 21.7826 9.58243L21.7763 9.5807L21.7699 9.57912C21.3284 9.46959 20.8207 9.38869 20.2958 9.42875L20.2936 9.42893C18.8694 9.54352 17.5037 10.3075 16.7548 11.6279C16.6264 11.8342 16.5324 12.0502 16.4617 12.2543C14.9712 12.4663 13.6413 13.3053 12.7991 14.5587L12.7972 14.5615L12.7954 14.5643C11.9622 15.8389 11.7297 17.3955 12.1268 18.8348C9.73228 20.434 8.66026 23.4901 9.65861 26.2496L9.65961 26.2524L9.66065 26.2552C10.0968 27.4202 10.8631 28.4058 11.8006 29.1067C11.4395 30.7757 11.7851 32.5318 12.7263 33.9693C13.6105 35.3372 14.9913 36.3026 16.5513 36.7168C16.779 37.2219 17.092 37.6728 17.4889 38.0666C18.7719 39.3396 20.683 39.7289 22.3614 39.0318L22.3648 39.0303L22.3682 39.0289C22.9976 38.7573 23.5584 38.365 24.0008 37.8618C24.4432 38.365 25.0039 38.7573 25.6334 39.0289L25.6368 39.0303L25.6402 39.0318C27.3186 39.7289 29.2297 39.3396 30.5127 38.0666C30.9129 37.6695 31.2215 37.1961 31.4445 36.7183C33.0069 36.304 34.356 35.3382 35.2385 34.0072L35.2402 34.0047C36.1834 32.5649 36.529 30.8052 36.1651 29.1334C37.0954 28.4195 37.867 27.4637 38.3067 26.2891L38.3103 26.2796L38.3135 26.27C39.2379 23.4828 38.1639 20.4626 35.7717 18.8389C36.1731 17.405 35.9733 15.8424 35.0988 14.5573C34.2553 13.3026 32.9215 12.462 31.4523 12.2526C31.3779 12.0535 31.2958 11.8584 31.1963 11.661L31.189 11.6465L31.1808 11.6324C30.1687 9.89437 28.103 9.04046 26.1495 9.5827ZM18.1462 12.4112C17.4957 13.4983 17.7011 14.8911 18.5913 15.7744C18.6598 15.8083 18.694 15.8763 18.7283 15.9442C18.7967 15.9782 18.8652 15.9952 18.9337 16.0122C19.0022 16.0292 19.0706 16.0462 19.1391 16.0801C19.6869 16.3179 20.2005 16.6916 20.5771 17.1332C20.9879 17.5749 21.2618 18.1184 21.3988 18.7299C21.4672 19.0017 21.2618 19.3074 20.9879 19.3754C20.6798 19.4433 20.3716 19.2735 20.3032 18.9677C20.0978 18.1184 19.5157 17.405 18.694 17.0653C17.8723 16.6916 16.9479 16.7596 16.1947 17.2012C15.9208 17.3371 15.6127 17.2691 15.4415 16.9974C15.3045 16.7596 15.373 16.4198 15.6469 16.25C15.9603 16.0723 16.303 15.9527 16.6559 15.8722C16.8426 15.8295 17.0322 15.7979 17.2218 15.7744C17.1257 15.6123 17.0404 15.4421 16.9674 15.2662C16.8492 14.9813 16.7632 14.6812 16.7159 14.3756C16.6884 14.1976 16.674 14.0178 16.674 13.838C16.491 13.863 16.3103 13.9031 16.1336 13.9573C15.352 14.1972 14.6494 14.7142 14.1747 15.4347C13.5242 16.4538 13.3873 17.7447 13.9008 18.8658V18.8998C13.9179 18.9337 13.935 18.9592 13.9522 18.9847C13.9693 19.0102 13.9864 19.0357 14.0035 19.0696C14.1405 19.3754 14.0035 19.6811 13.7296 19.817C11.47 20.8701 10.3744 23.418 11.2303 25.7281C12.0862 28.0382 14.5513 29.3291 16.9479 28.6836C17.2561 28.6157 17.5642 28.7856 17.6327 29.0913C17.7011 29.3971 17.53 29.7028 17.2218 29.7708C16.1073 30.0618 14.9677 30.0038 13.9321 29.6608C13.7588 29.6034 13.5884 29.5381 13.4215 29.465C13.3772 29.6456 13.3442 29.8269 13.3224 30.0082C13.1921 31.0887 13.4563 32.1691 14.072 33.1C14.5817 33.8586 15.3022 34.4546 16.1366 34.8302C16.3111 34.9087 16.4905 34.9776 16.674 35.0364C16.674 34.8547 16.6871 34.6687 16.7132 34.4815C16.7603 34.1436 16.85 33.8016 16.9822 33.4737C17.5984 32.0129 19.0364 31.0617 20.6113 31.0617C20.9194 31.0956 21.1591 31.3334 21.1591 31.6392C21.1249 31.9449 20.8852 32.1827 20.5771 32.1827C20.5058 32.1827 20.4346 32.1857 20.3636 32.1916C20.0937 32.214 19.8282 32.279 19.5842 32.3866C19.8097 32.4761 20.0203 32.595 20.2161 32.7532C20.3176 32.8351 20.4151 32.9276 20.5086 33.032C21.0564 33.6775 21.2618 34.5608 21.0564 35.3761C20.8989 36.0792 19.8018 35.814 19.9608 35.1043C20.0978 34.6287 19.9608 34.1531 19.6527 33.7794C19.3057 33.3586 18.8606 33.3038 18.3517 33.3038C18.2147 33.5076 18.112 33.7115 18.0093 33.9153C17.5984 34.9345 17.8381 36.1574 18.6256 36.9388C19.413 37.7541 20.6113 37.9919 21.6727 37.5503C22.6998 37.1426 23.3503 36.1574 23.3845 35.0703V27.9363C23.2199 28.0724 23.0333 28.1867 22.8423 28.2617C22.795 28.2803 22.7474 28.2965 22.6998 28.31C22.3232 28.4458 21.8781 28.4798 21.4672 28.4119C21.0564 28.3439 20.6798 28.1741 20.3374 27.9023C20.0978 27.6985 20.0635 27.3927 20.2347 27.1549C20.4059 26.9171 20.7825 26.8492 21.0222 27.019C21.3988 27.3248 21.9123 27.4267 22.3574 27.2568C22.8025 27.1209 23.1449 26.7473 23.2818 26.2717L23.3845 26.0678V15.5366C23.2034 15.5622 23.0223 15.5763 22.8423 15.5788C21.8311 15.5929 20.8534 15.2435 20.0978 14.5514C19.8581 14.3476 19.8581 14.0078 20.0635 13.77C20.2689 13.5322 20.6113 13.5322 20.851 13.7361C21.5015 14.3815 22.4601 14.6193 23.3503 14.4155V13.7361C23.3161 12.5131 22.4944 11.426 21.2961 11.1202C20.9879 11.0183 20.6798 10.9844 20.3716 11.0183C19.4815 11.0863 18.6256 11.5958 18.1462 12.4112ZM22.8081 13.7439C22.7771 12.7485 22.1082 11.883 21.161 11.6413L21.1426 11.6366L21.1246 11.6307C20.8873 11.5522 20.658 11.5281 20.4315 11.5531L20.4224 11.5541L20.4132 11.5548C19.698 11.6094 19.0029 12.0218 18.6146 12.6823L18.6135 12.6841L18.6125 12.6859C18.1022 13.5385 18.2479 14.639 18.9376 15.3562C18.9967 15.3993 19.0448 15.4478 19.0834 15.4947C19.1471 15.5105 19.2546 15.5381 19.3673 15.5919C19.9796 15.8597 20.5541 16.2764 20.9834 16.7769C21.4594 17.2917 21.7715 17.9182 21.9268 18.6074C22.0007 18.9115 21.918 19.2037 21.7778 19.42C21.6367 19.6379 21.408 19.8258 21.1194 19.8973L21.1125 19.8991L21.1055 19.9006C20.5438 20.0245 19.9188 19.7175 19.7751 19.0897C19.6069 18.3994 19.1371 17.8313 18.4855 17.5619L18.4767 17.5583L18.4681 17.5544C17.8137 17.2568 17.0765 17.3091 16.4706 17.6644L16.4542 17.674L16.4372 17.6824C15.9325 17.9328 15.3121 17.8071 14.9817 17.2825L14.976 17.2735L14.9707 17.2643C14.6901 16.777 14.8374 16.1175 15.3595 15.7937L15.3686 15.7881L15.3779 15.7828C15.7129 15.5929 16.0695 15.463 16.4269 15.3735C16.3188 15.095 16.2374 14.8038 16.1878 14.5061C15.5714 14.7211 15.0153 15.1437 14.6307 15.7258C14.0722 16.6031 13.9628 17.701 14.3944 18.6432L14.4399 18.7425C14.4548 18.7665 14.4717 18.7957 14.4885 18.829L14.494 18.84L14.499 18.8511C14.7637 19.442 14.4828 20.0449 13.9721 20.2982L13.9662 20.3012L13.9601 20.304C11.9467 21.2424 10.9835 23.5028 11.7392 25.5424C12.4999 27.5954 14.6855 28.7355 16.8059 28.1644L16.818 28.1611L16.8303 28.1584C17.3937 28.0342 18.0206 28.3433 18.162 28.9746C18.2864 29.5302 17.9795 30.1481 17.351 30.2933C16.1643 30.6014 14.9531 30.548 13.8475 30.1993C13.7674 31.1081 14.0022 32.013 14.5243 32.8032C14.9428 33.4254 15.5233 33.9266 16.1985 34.2633C16.2555 33.9297 16.349 33.5956 16.4787 33.2739L16.4803 33.2699L16.482 33.2659C17.1819 31.607 18.8158 30.5236 20.6113 30.5236H20.6413L20.6712 30.5269C21.2205 30.5875 21.7013 31.0271 21.7013 31.6392V31.669L21.698 31.6986C21.6487 32.1393 21.3496 32.5356 20.9108 32.6712C20.9118 32.6723 20.9128 32.6734 20.9139 32.6746L20.9187 32.68L20.9234 32.6855C21.5818 33.4613 21.8291 34.5192 21.584 35.5004C21.5098 35.822 21.3142 36.0699 21.0457 36.2079C20.7892 36.3396 20.5045 36.3522 20.26 36.2924C20.0151 36.2324 19.7712 36.0903 19.6036 35.8606C19.4279 35.6199 19.3588 35.3123 19.4315 34.9876L19.435 34.9719L19.4394 34.9565C19.5196 34.6781 19.4483 34.3812 19.233 34.1201C19.0942 33.9517 18.9334 33.8783 18.6515 33.8529C18.6027 33.9416 18.5555 34.0344 18.5049 34.1348C18.184 34.9543 18.383 35.9372 19.009 36.5583L19.013 36.5624L19.017 36.5665C19.6457 37.2174 20.6038 37.4116 21.463 37.0541L21.4671 37.0524L21.4713 37.0507C22.2831 36.7285 22.8114 35.9454 22.8423 35.0615V28.8306C22.3811 28.9879 21.8584 29.022 21.3781 28.9426C20.871 28.8587 20.4094 28.6485 19.9987 28.3224L19.9915 28.3167L19.9845 28.3108C19.5371 27.9302 19.4548 27.3126 19.7935 26.8422C19.9735 26.592 20.2448 26.4504 20.5085 26.4043C20.7725 26.358 21.0799 26.3988 21.3373 26.5812L21.3518 26.5915L21.3655 26.6026C21.6071 26.7987 21.9177 26.8482 22.1628 26.7547L22.1801 26.748L22.1979 26.7426C22.4456 26.667 22.6672 26.4477 22.7604 26.1238L22.7743 26.0758L22.8423 25.9408V16.1168C21.7052 16.1308 20.5972 15.7379 19.7364 14.9526C19.2431 14.525 19.2852 13.8443 19.6518 13.4199C20.0823 12.9215 20.7737 12.9617 21.2039 13.3276L21.2197 13.341L21.2344 13.3556C21.6444 13.7625 22.2208 13.9694 22.8081 13.9469V13.7439ZM15.4757 22.1272C15.51 22.399 15.4757 22.7047 15.4415 22.9765C16.0697 23.1843 16.6378 23.531 17.0848 23.9864C17.2224 24.1267 17.3486 24.2773 17.4615 24.4373C17.5468 24.2591 17.645 24.0891 17.7549 23.9283C18.483 22.8626 19.7222 22.1996 21.0906 22.2291C21.3988 22.2291 21.6384 22.5009 21.6384 22.8067C21.6384 23.1124 21.3988 23.3502 21.1249 23.3502C19.6527 23.3162 18.4201 24.3693 18.2489 25.8301C18.2489 25.8981 18.2147 25.966 18.1805 26.034C18.2147 26.2378 18.2489 26.4416 18.2489 26.6794C18.2489 26.7134 18.2404 26.7389 18.2318 26.7644C18.2233 26.7898 18.2147 26.8153 18.2147 26.8493C18.1462 27.0871 17.9066 27.2569 17.6669 27.2569C17.3588 27.223 17.1191 26.9852 17.1191 26.6794C17.1191 25.4225 16.2632 24.3354 15.0649 23.9957C14.7225 24.4713 14.2089 24.845 13.6269 25.0148C13.3188 25.0828 13.0106 24.9129 12.9422 24.6072C12.8737 24.3014 13.0449 23.9957 13.353 23.9277C13.8323 23.8258 14.1747 23.4521 14.3459 23.0105C14.4828 22.5688 14.4144 22.0593 14.1062 21.6856C14.0035 21.5837 13.9693 21.4478 13.9693 21.3119C13.9693 21.0061 14.2432 20.7683 14.5513 20.7683C14.7225 20.7683 14.8594 20.8703 14.9622 21.0061C15.2361 21.3459 15.4072 21.7196 15.4757 22.1272ZM15.3904 20.6761C15.7162 21.0821 15.9265 21.5381 16.0106 22.0388L16.0124 22.0496L16.0138 22.0605C16.0374 22.2481 16.0353 22.4422 16.0231 22.6226C16.5271 22.8414 16.9898 23.1444 17.3811 23.52C18.2185 22.3692 19.5901 21.6603 21.0973 21.6911C21.7429 21.6949 22.1806 22.2488 22.1806 22.8067C22.1806 23.3868 21.7207 23.8882 21.1249 23.8882H21.1186L21.1123 23.8881C19.9245 23.8607 18.9366 24.7004 18.7898 25.8737C18.7844 25.9592 18.7642 26.0385 18.7413 26.104C18.7674 26.2713 18.7912 26.4632 18.7912 26.6794C18.7912 26.7768 18.7708 26.857 18.7569 26.9019V26.9246L18.7361 26.9971C18.5987 27.4742 18.1398 27.795 17.6669 27.795H17.6369L17.607 27.7917C17.0577 27.7311 16.5769 27.2915 16.5769 26.6794C16.5769 25.7854 16.0373 24.9929 15.2396 24.6314C14.8494 25.0461 14.3432 25.3666 13.7799 25.531L13.7624 25.5361L13.7445 25.54C13.1812 25.6642 12.5542 25.3552 12.4128 24.7239C12.2876 24.1649 12.5991 23.5428 13.2354 23.4025L13.2374 23.4021L13.2394 23.4016C13.4859 23.3492 13.7059 23.1493 13.8328 22.835C13.9143 22.554 13.8641 22.2525 13.698 22.0405C13.4787 21.8067 13.427 21.523 13.427 21.3119C13.427 20.6676 13.9872 20.2303 14.5513 20.2303C14.9577 20.2303 15.2346 20.4728 15.3904 20.6761ZM33.5041 25.4282L33.516 25.4417C33.7099 25.6617 33.8299 25.937 33.8299 26.2334C33.8299 26.5334 33.7065 26.8122 33.4913 27.0258C33.0752 27.4387 32.3463 27.4443 31.9262 26.9812C31.6982 26.7612 31.4056 26.6718 31.1331 26.7298L31.0194 26.2037C31.4988 26.1018 31.9781 26.2716 32.3205 26.6113C32.5259 26.8492 32.9025 26.8492 33.1079 26.6453C33.3476 26.4075 33.3476 26.0678 33.1079 25.796C32.6628 25.3544 32.0808 25.1166 31.4988 25.0826C31.1906 23.8596 31.7042 22.6027 32.7998 21.9912C33.0737 21.8553 33.1764 21.5156 33.0394 21.2438C32.9025 21.006 32.6628 20.9041 32.4232 20.972C32.0167 21.0872 31.4691 21.6335 31.1003 22.1031C30.9634 22.2776 30.8511 22.4414 30.7798 22.5687C30.6633 22.418 30.5402 22.2733 30.4107 22.1351C29.6646 21.3389 28.7094 20.762 27.6299 20.5304H27.5272C27.2191 20.5304 26.9794 20.7682 26.9452 21.0739C26.9452 21.3457 27.1164 21.5835 27.3903 21.6175C28.6228 21.9232 29.6842 22.7046 30.3005 23.8596C30.3005 23.8881 30.3245 23.9166 30.3525 23.9251C30.3579 23.9267 30.3634 23.9276 30.3689 23.9276C30.3413 24.1058 30.3304 24.2841 30.334 24.4646C30.3393 24.7313 30.3762 25.0028 30.4374 25.2864C30.1635 25.3884 29.9238 25.5243 29.6842 25.6941C29.3761 25.9659 29.1022 26.3056 28.931 26.6793C28.8283 26.9511 28.9652 27.2908 29.2391 27.3927L29.0487 27.8965C28.4666 27.6798 28.2262 27.0119 28.4233 26.4904L28.4297 26.4733L28.4373 26.4567C28.6458 26.0016 28.971 25.6033 29.3239 25.292L29.3455 25.273L29.369 25.2563C29.5174 25.1512 29.6695 25.055 29.8311 24.9695C29.7914 24.6762 29.779 24.3837 29.8041 24.0876C29.8002 24.0785 29.7966 24.0691 29.7931 24.0596C29.2531 23.0826 28.3458 22.4162 27.2845 22.1459C26.7094 22.0545 26.403 21.5481 26.403 21.0739V21.0441L26.4063 21.0145C26.4673 20.4695 26.9104 19.9924 27.5272 19.9924H27.6879L27.7445 20.0045C28.9081 20.2541 29.932 20.863 30.7358 21.6932C30.8484 21.5545 30.9716 21.4143 31.0988 21.282C31.2664 21.1077 31.4512 20.9362 31.6402 20.7937C31.8222 20.6565 32.0408 20.5209 32.2742 20.4547C32.7781 20.3119 33.2623 20.5464 33.5102 20.9769L33.5177 20.9898L33.5244 21.0032C33.7843 21.519 33.6043 22.1836 33.0566 22.4652C32.2926 22.8962 31.8777 23.7273 31.9637 24.602C32.5212 24.7156 33.0585 24.9861 33.4913 25.4156L33.5041 25.4282ZM29.9581 27.0869C30.1293 26.6453 30.5401 26.3056 31.0194 26.2037L31.1331 26.7298C30.825 26.7953 30.5675 27.0151 30.4647 27.2787C30.2453 27.8543 29.5734 28.0917 29.0487 27.8965L29.2391 27.3927C29.513 27.4946 29.8554 27.3587 29.9581 27.0869Z" fill="#0048FF"/>
</svg>
