<svg width="190" height="24" viewBox="0 0 190 24" fill="none" xmlns="http://www.w3.org/2000/svg">
<mask id="mask0" mask-type="alpha" maskUnits="userSpaceOnUse" x="74" y="8" width="116" height="8">
<rect x="182" y="8" width="8" height="8" fill="#C4C4C4"/>
<rect x="170" y="8" width="8" height="8" fill="#C4C4C4"/>
<rect x="158" y="8" width="8" height="8" fill="#C4C4C4"/>
<rect x="146" y="8" width="8" height="8" fill="#C4C4C4"/>
<rect x="134" y="8" width="8" height="8" fill="#C4C4C4"/>
<rect x="122" y="8" width="8" height="8" fill="#C4C4C4"/>
<rect x="110" y="8" width="8" height="8" fill="#C4C4C4"/>
<rect x="98" y="8" width="8" height="8" fill="#C4C4C4"/>
<rect x="86" y="8" width="8" height="8" fill="#C4C4C4"/>
<rect x="74" y="8" width="8" height="8" fill="#C4C4C4"/>
</mask>
<g mask="url(#mask0)">
<rect x="74" y="8" width="116" height="8" fill="url(#paint0_linear)"/>
</g>
<circle cx="8" cy="12" r="7" stroke="#26D07C" stroke-width="2"/>
<path d="M5 12L7 14L11 10" stroke="#26D07C" stroke-width="2"/>
<path d="M25.136 18V6.8H26.816V16.512H33.264V18H25.136ZM33.9823 13.92C33.9823 13.3333 34.0889 12.784 34.3023 12.272C34.5263 11.7493 34.8303 11.3013 35.2143 10.928C35.5983 10.544 36.0463 10.2453 36.5583 10.032C37.0809 9.808 37.6356 9.696 38.2223 9.696C38.8089 9.696 39.3583 9.808 39.8703 10.032C40.3929 10.2453 40.8409 10.544 41.2143 10.928C41.5983 11.3013 41.8969 11.7493 42.1103 12.272C42.3343 12.784 42.4462 13.3333 42.4462 13.92C42.4462 14.5173 42.3343 15.0773 42.1103 15.6C41.8969 16.112 41.5983 16.56 41.2143 16.944C40.8409 17.3173 40.3929 17.616 39.8703 17.84C39.3583 18.0533 38.8089 18.16 38.2223 18.16C37.6356 18.16 37.0809 18.0533 36.5583 17.84C36.0463 17.616 35.5983 17.3173 35.2143 16.944C34.8303 16.56 34.5263 16.112 34.3023 15.6C34.0889 15.0773 33.9823 14.5173 33.9823 13.92ZM38.2223 16.752C38.9583 16.752 39.5823 16.48 40.0943 15.936C40.6169 15.3813 40.8783 14.7093 40.8783 13.92C40.8783 13.1307 40.6169 12.464 40.0943 11.92C39.5823 11.376 38.9583 11.104 38.2223 11.104C37.4863 11.104 36.8569 11.376 36.3343 11.92C35.8116 12.464 35.5503 13.1307 35.5503 13.92C35.5503 14.7093 35.8063 15.3813 36.3183 15.936C36.8409 16.48 37.4756 16.752 38.2223 16.752ZM46.8754 18H45.3234L43.0514 9.856H44.6034L46.1714 15.84L48.0434 9.856H49.4194L51.2754 15.84L52.8594 9.856H54.3634L52.0754 18H50.5394L48.7154 12.032L46.8754 18Z" fill="white"/>
<defs>
<linearGradient id="paint0_linear" x1="74" y1="16" x2="190" y2="16" gradientUnits="userSpaceOnUse">
<stop stop-color="#26D07C"/>
<stop offset="1" stop-color="#000E33" stop-opacity="0"/>
</linearGradient>
</defs>
</svg>
