<svg width="516" height="64" viewBox="0 0 516 64" fill="none" xmlns="http://www.w3.org/2000/svg">
<rect width="384" height="64" rx="8" fill="#E6EDFF"/>
<circle cx="384" cy="32" r="16" fill="white"/>
<circle cx="384" cy="32" r="8" fill="#0048FF"/>
<circle cx="515" cy="32" r="1" transform="rotate(-180 515 32)" fill="#0048FF"/>
<circle cx="509" cy="32" r="1" transform="rotate(-180 509 32)" fill="#0048FF"/>
<circle cx="503" cy="32" r="1" transform="rotate(-180 503 32)" fill="#0048FF"/>
<circle cx="497" cy="32" r="1" transform="rotate(-180 497 32)" fill="#0048FF"/>
<circle cx="491" cy="32" r="1" transform="rotate(-180 491 32)" fill="#0048FF"/>
<circle cx="485" cy="32" r="1" transform="rotate(-180 485 32)" fill="#0048FF"/>
<circle cx="479" cy="32" r="1" transform="rotate(-180 479 32)" fill="#0048FF"/>
<circle cx="473" cy="32" r="1" transform="rotate(-180 473 32)" fill="#0048FF"/>
<circle cx="467" cy="32" r="1" transform="rotate(-180 467 32)" fill="#0048FF"/>
<circle cx="461" cy="32" r="1" transform="rotate(-180 461 32)" fill="#0048FF"/>
<circle cx="455" cy="32" r="1" transform="rotate(-180 455 32)" fill="#0048FF"/>
<circle cx="449" cy="32" r="1" transform="rotate(-180 449 32)" fill="#0048FF"/>
<circle cx="443" cy="32" r="1" transform="rotate(-180 443 32)" fill="#0048FF"/>
<circle cx="437" cy="32" r="1" transform="rotate(-180 437 32)" fill="#0048FF"/>
<circle cx="431" cy="32" r="1" transform="rotate(-180 431 32)" fill="#0048FF"/>
<circle cx="425" cy="32" r="1" transform="rotate(-180 425 32)" fill="#0048FF"/>
<circle cx="419" cy="32" r="1" transform="rotate(-180 419 32)" fill="#0048FF"/>
<circle cx="413" cy="32" r="1" transform="rotate(-180 413 32)" fill="#0048FF"/>
<circle cx="407" cy="32" r="1" transform="rotate(-180 407 32)" fill="#0048FF"/>
<circle cx="401" cy="32" r="1" transform="rotate(-180 401 32)" fill="#0048FF"/>
</svg>
